<?xml version="1.0" standalone="no"?>
<!DOCTYPE svg PUBLIC "-//W3C//DTD SVG 20010904//EN"
 "http://www.w3.org/TR/2001/REC-SVG-20010904/DTD/svg10.dtd">
<svg version="1.0" xmlns="http://www.w3.org/2000/svg"
 width="839.2" height="727.08" viewBox="0 0 1188.000000 206.000000"
 preserveAspectRatio="xMidYMid meet">

<g transform="translate(0.000000,206.000000) scale(0.100000,-0.100000)"
fill="#000000" stroke="none">
<path d="M0 1030 l0 -1030 5940 0 5940 0 0 1030 0 1030 -5940 0 -5940 0 0
-1030z m1410 610 c0 -67 -4 -110 -10 -110 -5 0 -10 5 -10 12 0 9 -3 9 -12 0
-13 -13 -57 -16 -74 -4 -37 24 -43 87 -13 126 22 28 48 33 80 16 17 -10 19 -7
19 30 0 22 5 40 10 40 6 0 10 -43 10 -110z m350 48 l0 -62 33 32 c45 44 70 41
28 -2 l-34 -35 38 -45 c27 -33 33 -46 22 -46 -9 0 -29 16 -44 35 -15 19 -31
35 -35 35 -5 0 -8 -16 -8 -35 0 -24 -5 -35 -15 -35 -12 0 -15 19 -15 110 0 91
3 110 15 110 12 0 15 -14 15 -62z m650 20 c0 -33 3 -39 12 -30 17 17 54 15 72
-4 18 -18 23 -144 6 -144 -5 0 -10 19 -10 43 0 80 -20 108 -61 87 -15 -9 -19
-22 -19 -70 0 -47 -3 -60 -15 -60 -12 0 -15 19 -15 110 0 91 3 110 15 110 11
0 15 -11 15 -42z m1070 32 c0 -5 -7 -10 -15 -10 -8 0 -15 -2 -15 -4 0 -2 -3
-11 -6 -20 -4 -12 0 -16 15 -16 27 0 27 -16 1 -23 -17 -4 -20 -14 -20 -71 0
-37 -4 -66 -10 -66 -6 0 -10 28 -10 65 0 49 -4 67 -15 71 -8 4 -15 10 -15 15
0 5 7 9 15 9 9 0 15 9 15 24 0 13 6 27 13 29 21 9 47 7 47 -3z m240 -32 c0
-33 3 -39 12 -30 7 7 24 12 38 12 14 0 31 -5 38 -12 15 -15 16 -148 2 -148 -6
0 -10 26 -10 58 0 76 -27 104 -64 66 -11 -10 -16 -34 -16 -70 0 -41 -4 -54
-15 -54 -12 0 -15 19 -15 110 0 91 3 110 15 110 11 0 15 -11 15 -42z m175 33
c7 -12 -12 -24 -25 -16 -11 7 -4 25 10 25 5 0 11 -4 15 -9z m295 -101 c0 -67
-4 -110 -10 -110 -6 0 -10 43 -10 110 0 67 4 110 10 110 6 0 10 -43 10 -110z
m78 98 c-6 -18 -28 -21 -28 -4 0 9 7 16 16 16 9 0 14 -5 12 -12z m112 2 c0 -5
-7 -10 -15 -10 -8 0 -15 -9 -15 -20 0 -11 7 -20 15 -20 8 0 15 -4 15 -10 0 -5
-7 -10 -15 -10 -12 0 -15 -14 -15 -70 0 -56 -3 -70 -15 -70 -12 0 -15 14 -15
70 0 56 -3 70 -15 70 -8 0 -15 5 -15 10 0 6 7 10 15 10 8 0 15 8 15 18 0 10 5
23 12 30 15 15 48 16 48 2z m325 1 c7 -12 -12 -24 -25 -16 -11 7 -4 25 10 25
5 0 11 -4 15 -9z m675 -33 c0 -33 3 -39 12 -30 17 17 54 15 72 -4 18 -18 23
-144 6 -144 -5 0 -10 19 -10 43 0 80 -20 108 -61 87 -15 -9 -19 -22 -19 -70 0
-47 -3 -60 -15 -60 -12 0 -15 19 -15 110 0 91 3 110 15 110 11 0 15 -11 15
-42z m958 30 c-6 -18 -28 -21 -28 -4 0 9 7 16 16 16 9 0 14 -5 12 -12z m1259
-10 c27 -22 14 -69 -33 -124 l-46 -54 51 0 c28 0 51 -4 51 -10 0 -6 -30 -10
-70 -10 -38 0 -70 3 -70 8 0 4 25 36 55 70 61 70 59 66 45 93 -14 26 -60 26
-67 -1 -3 -11 -12 -20 -19 -20 -23 0 -16 27 13 50 28 22 63 21 90 -2z m161 11
c17 -6 33 -17 36 -26 9 -24 -2 -28 -22 -10 -22 20 -55 22 -70 4 -6 -6 -14 -26
-18 -42 -7 -29 -7 -30 13 -12 27 24 60 21 88 -8 30 -29 32 -54 5 -87 -25 -33
-49 -39 -88 -22 -66 27 -65 177 1 204 12 5 22 9 23 9 1 1 15 -4 32 -10z m1612
-31 c0 -33 3 -39 12 -30 17 17 54 15 72 -4 18 -18 23 -144 6 -144 -5 0 -10 19
-10 43 0 80 -20 108 -61 87 -15 -9 -19 -22 -19 -70 0 -47 -3 -60 -15 -60 -12
0 -15 19 -15 110 0 91 3 110 15 110 11 0 15 -11 15 -42z m520 0 c0 -33 3 -39
12 -30 7 7 24 12 38 12 14 0 31 -5 38 -12 15 -15 16 -148 2 -148 -6 0 -10 26
-10 58 0 76 -27 104 -64 66 -11 -10 -16 -34 -16 -70 0 -41 -4 -54 -15 -54 -12
0 -15 19 -15 110 0 91 3 110 15 110 11 0 15 -11 15 -42z m570 0 c0 -33 3 -39
12 -30 18 18 56 14 78 -8 25 -25 27 -95 3 -122 -18 -20 -63 -24 -81 -6 -9 9
-12 9 -12 0 0 -7 -7 -12 -15 -12 -12 0 -15 19 -15 110 0 91 3 110 15 110 11 0
15 -11 15 -42z m-10124 10 c-3 -13 -6 -31 -6 -40 0 -10 -4 -18 -10 -18 -5 0
-10 18 -10 40 0 30 4 40 16 40 12 0 15 -6 10 -22z m54 -18 c0 -29 -4 -40 -15
-40 -11 0 -15 11 -15 40 0 29 4 40 15 40 11 0 15 -11 15 -40z m154 -58 c41
-112 41 -112 22 -112 -8 0 -17 14 -21 30 -6 28 -10 30 -50 30 -39 0 -44 -3
-54 -30 -5 -16 -16 -30 -24 -30 -12 0 -7 21 19 93 19 50 36 98 39 105 12 34
35 6 69 -86z m8407 88 c24 -13 26 -65 2 -78 -14 -9 -14 -11 5 -21 30 -16 30
-65 0 -85 -14 -10 -44 -16 -75 -16 l-53 0 0 105 0 105 51 0 c28 0 59 -5 70
-10z m-8311 -20 c0 -13 7 -20 20 -20 11 0 20 -4 20 -9 0 -5 -9 -11 -20 -14
-16 -4 -20 -14 -20 -51 0 -35 5 -49 20 -58 28 -18 25 -30 -7 -26 -27 3 -28 6
-31 66 -2 44 -7 65 -17 69 -20 7 -19 23 0 23 8 0 15 9 15 20 0 11 5 20 10 20
6 0 10 -9 10 -20z m1590 0 c0 -13 7 -20 20 -20 11 0 20 -4 20 -9 0 -5 -9 -11
-20 -14 -16 -4 -20 -14 -20 -51 0 -35 5 -49 20 -58 28 -18 25 -30 -7 -26 -27
3 -28 6 -31 66 -2 44 -7 65 -17 69 -20 7 -19 23 0 23 8 0 15 9 15 20 0 11 5
20 10 20 6 0 10 -9 10 -20z m1397 0 c3 -11 12 -20 19 -20 8 0 14 -4 14 -10 0
-5 -7 -10 -15 -10 -12 0 -15 -13 -15 -55 0 -40 4 -57 15 -61 21 -8 19 -24 -3
-24 -31 0 -42 22 -42 82 0 45 -3 58 -15 58 -8 0 -15 5 -15 10 0 6 7 10 15 10
8 0 15 9 15 20 0 11 5 20 11 20 6 0 13 -9 16 -20z m983 0 c0 -11 7 -20 15 -20
8 0 15 -4 15 -10 0 -5 -7 -10 -15 -10 -12 0 -15 -13 -15 -55 0 -40 4 -57 15
-61 21 -8 19 -24 -3 -24 -31 0 -42 22 -42 81 0 36 -5 59 -12 63 -10 5 -10 7 0
12 6 3 12 14 12 25 0 10 7 19 15 19 8 0 15 -9 15 -20z m677 0 c3 -11 12 -20
19 -20 8 0 14 -4 14 -10 0 -5 -7 -10 -15 -10 -12 0 -15 -13 -15 -55 0 -40 4
-57 15 -61 21 -8 19 -24 -3 -24 -31 0 -42 22 -42 82 0 45 -3 58 -15 58 -8 0
-15 5 -15 10 0 6 7 10 15 10 8 0 15 9 15 20 0 11 5 20 11 20 6 0 13 -9 16 -20z
m433 0 c0 -13 7 -20 20 -20 11 0 20 -4 20 -9 0 -5 -9 -11 -20 -14 -16 -4 -20
-14 -20 -51 0 -35 5 -49 20 -58 28 -18 25 -30 -7 -26 -27 3 -28 6 -31 66 -2
44 -7 65 -17 69 -20 7 -19 23 0 23 8 0 15 9 15 20 0 11 5 20 10 20 6 0 10 -9
10 -20z m-4908 -31 c3 -8 10 -8 26 2 17 11 26 11 41 2 15 -9 26 -9 50 0 52 19
65 3 69 -82 2 -44 -1 -71 -8 -71 -6 0 -10 25 -10 59 0 67 -15 90 -49 71 -18
-9 -21 -20 -21 -70 0 -47 -3 -60 -15 -60 -12 0 -15 14 -15 64 0 51 -3 65 -17
71 -29 10 -53 -29 -53 -86 0 -27 -4 -49 -10 -49 -6 0 -10 33 -10 80 0 44 4 80
9 80 5 0 11 -5 13 -11z m263 -60 l22 -64 22 68 c14 40 28 67 37 67 10 0 6 -19
-16 -81 -37 -100 -46 -116 -70 -129 -25 -13 -30 -13 -30 4 0 7 9 16 20 19 26
7 25 23 -5 103 -28 75 -30 87 -13 82 6 -2 21 -33 33 -69z m492 41 c19 -37 17
-130 -2 -130 -8 0 -15 5 -15 12 0 9 -3 9 -12 0 -7 -7 -24 -12 -38 -12 -32 0
-50 17 -50 47 0 26 27 43 69 43 34 0 41 19 16 40 -12 10 -21 10 -42 1 -31 -14
-41 -8 -23 14 21 25 82 16 97 -15z m73 20 c0 -6 10 -5 25 2 14 6 28 8 33 3 4
-4 1 -10 -7 -13 -34 -12 -51 -42 -51 -92 0 -27 -4 -50 -10 -50 -6 0 -10 33
-10 80 0 47 4 80 10 80 6 0 10 -4 10 -10z m347 -12 c13 -12 23 -32 23 -45 0
-21 -4 -23 -55 -23 -43 0 -55 -3 -55 -15 0 -24 47 -42 71 -27 30 19 44 14 24
-8 -18 -20 -69 -27 -91 -12 -37 24 -43 87 -13 126 25 32 64 34 96 4z m158 6
c22 -22 11 -30 -19 -14 -14 7 -32 10 -40 7 -30 -12 -17 -35 27 -49 45 -14 60
-45 37 -74 -16 -18 -70 -18 -96 0 -24 18 -10 34 16 18 26 -16 45 -15 60 3 10
12 5 18 -33 34 -56 24 -63 35 -43 66 19 29 66 34 91 9z m524 -10 c23 -30 27
-64 10 -97 -16 -30 -28 -37 -65 -37 -42 0 -69 31 -69 82 0 73 81 106 124 52z
m83 -41 c3 -59 6 -68 23 -71 36 -4 48 14 53 77 6 88 22 75 22 -19 0 -47 -4
-80 -10 -80 -5 0 -10 5 -10 12 0 9 -3 9 -12 0 -20 -20 -65 -14 -82 10 -21 30
-22 138 -1 138 11 0 15 -16 17 -67z m168 55 c0 -9 3 -9 12 0 14 14 48 16 48 3
0 -5 -13 -14 -30 -20 -29 -10 -30 -12 -30 -70 0 -48 -3 -61 -15 -61 -12 0 -15
16 -15 80 0 64 3 80 15 80 8 0 15 -5 15 -12z m180 -3 c17 -21 6 -29 -20 -15
-12 6 -28 9 -36 6 -26 -10 -14 -33 26 -49 48 -18 59 -40 35 -67 -24 -26 -76
-26 -100 0 -14 16 -15 20 -4 20 8 0 20 -5 26 -11 15 -15 57 -7 61 12 2 12 -9
21 -40 30 -33 11 -44 20 -46 38 -7 44 69 71 98 36z m250 -7 c27 -29 27 -91 0
-118 -24 -24 -77 -26 -102 -3 -26 23 -25 96 2 123 27 27 74 26 100 -2z m540
-58 c0 -47 -4 -80 -10 -80 -6 0 -10 33 -10 80 0 47 4 80 10 80 6 0 10 -33 10
-80z m145 64 c22 -22 11 -30 -19 -14 -14 7 -32 10 -40 7 -30 -12 -17 -35 27
-49 45 -14 60 -45 37 -74 -16 -18 -70 -18 -96 0 -24 18 -10 34 16 18 26 -16
45 -15 60 3 10 12 5 18 -33 34 -56 24 -63 35 -43 66 19 29 66 34 91 9z m233
-67 c2 -64 0 -77 -13 -77 -12 0 -15 15 -15 81 0 60 3 80 13 77 8 -3 13 -31 15
-81z m251 57 c12 -15 21 -35 21 -45 0 -16 -8 -19 -55 -19 -58 0 -71 -14 -39
-41 12 -10 22 -10 47 -1 35 13 45 9 27 -13 -7 -8 -28 -15 -46 -15 -46 0 -74
29 -74 77 0 74 77 111 119 57z m181 -54 c0 -47 -4 -80 -10 -80 -6 0 -10 33
-10 80 0 47 4 80 10 80 6 0 10 -33 10 -80z m70 68 c0 -9 3 -9 12 0 15 15 50
16 64 2 6 -6 21 -6 42 2 53 20 66 4 70 -81 3 -86 -14 -96 -20 -11 -5 68 -19
91 -46 74 -12 -8 -18 -28 -20 -73 -2 -45 -7 -61 -17 -61 -12 0 -15 14 -15 58
0 74 -21 100 -54 66 -11 -10 -16 -34 -16 -70 0 -30 -4 -54 -10 -54 -6 0 -10
33 -10 80 0 47 4 80 10 80 6 0 10 -5 10 -12z m340 -8 c11 -11 20 -31 20 -45 0
-24 -3 -25 -55 -25 -57 0 -66 -8 -39 -34 18 -19 45 -21 61 -5 6 6 17 9 23 7
24 -8 -20 -38 -54 -38 -45 0 -71 30 -71 82 0 68 70 103 115 58z m511 10 c16
-9 19 -22 19 -80 0 -40 -4 -70 -10 -70 -5 0 -10 5 -10 11 0 8 -4 8 -14 0 -21
-18 -66 -9 -82 14 -21 31 6 65 51 65 40 0 53 16 32 38 -13 13 -21 13 -42 4
-39 -18 -50 -15 -30 8 20 22 55 26 86 10z m345 -4 c26 -20 10 -32 -21 -16 -22
12 -28 12 -42 -3 -15 -15 -13 -18 29 -36 52 -22 66 -46 42 -72 -21 -24 -77
-25 -99 -3 -21 22 -11 30 19 15 27 -15 57 -12 64 6 2 8 -16 21 -42 33 -37 15
-46 24 -46 44 0 42 56 60 96 32z m84 2 c0 -9 3 -9 12 0 18 18 56 14 78 -8 25
-25 27 -95 3 -122 -18 -20 -63 -24 -81 -6 -9 9 -12 4 -12 -25 0 -26 -4 -37
-15 -37 -12 0 -15 18 -15 105 0 87 3 105 15 105 8 0 15 -5 15 -12z m170 2 c0
-6 10 -5 25 2 14 6 28 8 33 3 4 -4 1 -10 -7 -13 -34 -12 -51 -42 -51 -92 0
-27 -4 -50 -10 -50 -6 0 -10 33 -10 80 0 47 4 80 10 80 6 0 10 -4 10 -10z
m118 -73 c2 -64 0 -77 -13 -77 -12 0 -15 15 -15 81 0 60 3 80 13 77 8 -3 13
-31 15 -81z m65 71 c4 -10 7 -10 18 0 20 19 56 14 73 -10 21 -30 22 -138 1
-138 -10 0 -15 16 -17 61 -5 110 -67 106 -76 -5 -7 -84 -22 -67 -22 24 0 72
10 102 23 68z m238 2 c13 -7 19 -7 19 0 0 5 5 10 10 10 6 0 10 -38 10 -94 0
-106 -7 -118 -65 -118 -35 0 -65 16 -65 33 0 5 7 9 15 9 8 0 15 -4 15 -10 0
-14 54 -12 68 2 7 7 12 20 12 30 0 15 -3 17 -19 8 -11 -5 -29 -10 -40 -10 -24
0 -61 45 -61 75 0 30 37 75 61 75 11 0 29 -5 40 -10z m279 -10 c25 -25 27 -95
3 -122 -22 -24 -77 -24 -103 2 -13 13 -20 33 -20 60 0 49 27 80 70 80 17 0 39
-9 50 -20z m87 -40 c9 -33 19 -60 23 -60 3 0 14 25 24 55 16 50 31 73 42 63 2
-3 -8 -40 -23 -82 -19 -55 -31 -76 -42 -74 -9 2 -27 35 -43 78 -33 89 -31 80
-13 80 10 0 21 -21 32 -60z m232 34 c12 -15 21 -35 21 -45 0 -16 -8 -19 -55
-19 -58 0 -71 -14 -39 -41 12 -10 22 -10 47 -1 35 13 45 9 27 -13 -7 -8 -28
-15 -46 -15 -46 0 -74 29 -74 77 0 74 77 111 119 57z m81 14 c0 -9 3 -9 12 0
14 14 48 16 48 3 0 -5 -13 -14 -30 -20 -29 -10 -30 -12 -30 -70 0 -48 -3 -61
-15 -61 -12 0 -15 16 -15 80 0 64 3 80 15 80 8 0 15 -5 15 -12z m636 -40 c24
-77 25 -77 48 -13 12 32 27 60 34 63 19 6 14 -15 -26 -112 -27 -64 -43 -91
-59 -97 -17 -6 -23 -5 -23 6 0 8 6 15 14 15 26 0 25 28 -5 107 -34 92 -32 83
-15 83 8 0 22 -22 32 -52z m233 26 c12 -15 21 -35 21 -45 0 -16 -8 -19 -55
-19 -58 0 -71 -14 -39 -41 12 -10 22 -10 47 -1 35 13 45 9 27 -13 -7 -8 -28
-15 -46 -15 -46 0 -74 29 -74 77 0 74 77 111 119 57z m152 16 c16 -9 19 -22
19 -80 0 -40 -4 -70 -10 -70 -5 0 -10 5 -10 11 0 8 -4 8 -14 0 -21 -18 -66 -9
-82 14 -21 31 6 65 51 65 40 0 53 16 32 38 -13 13 -21 13 -42 4 -39 -18 -50
-15 -30 8 20 22 55 26 86 10z m89 -2 c0 -9 3 -9 12 0 14 14 48 16 48 3 0 -5
-13 -14 -30 -20 -29 -10 -30 -12 -30 -70 0 -48 -3 -61 -15 -61 -12 0 -15 16
-15 80 0 64 3 80 15 80 8 0 15 -5 15 -12z m180 -3 c17 -21 6 -29 -20 -15 -12
6 -28 9 -36 6 -26 -10 -14 -33 26 -49 48 -18 59 -40 35 -67 -24 -26 -76 -26
-100 0 -14 16 -15 20 -4 20 8 0 20 -5 26 -11 15 -15 57 -7 61 12 2 12 -9 21
-40 30 -33 11 -44 20 -46 38 -7 44 69 71 98 36z m430 -36 c0 -58 13 -89 38
-89 31 0 42 22 42 82 0 45 3 58 15 58 12 0 15 -16 15 -80 0 -64 -3 -80 -15
-80 -8 0 -15 5 -15 12 0 9 -3 9 -12 0 -7 -7 -24 -12 -38 -12 -14 0 -31 5 -38
12 -15 15 -16 148 -2 148 6 0 10 -23 10 -51z m246 37 c26 -20 10 -32 -21 -16
-22 12 -28 12 -42 -3 -15 -15 -13 -18 29 -36 52 -22 66 -46 42 -72 -21 -24
-77 -25 -99 -3 -21 22 -11 30 19 15 27 -15 57 -12 64 6 2 8 -16 21 -42 33 -37
15 -46 24 -46 44 0 42 56 60 96 32z m254 2 c0 -9 3 -9 12 0 14 14 48 16 48 3
0 -5 -13 -14 -30 -20 -29 -10 -30 -12 -30 -70 0 -48 -3 -61 -15 -61 -12 0 -15
16 -15 80 0 64 3 80 15 80 8 0 15 -5 15 -12z m181 2 c16 -9 19 -22 19 -80 0
-40 -4 -70 -10 -70 -5 0 -10 5 -10 11 0 8 -4 8 -14 0 -21 -18 -66 -9 -82 14
-21 31 6 65 51 65 40 0 53 16 32 38 -13 13 -21 13 -42 4 -39 -18 -50 -15 -30
8 20 22 55 26 86 10z m426 -20 c19 -37 17 -130 -2 -130 -8 0 -15 5 -15 12 0 9
-3 9 -12 0 -7 -7 -24 -12 -38 -12 -32 0 -50 17 -50 47 0 26 27 43 69 43 34 0
41 19 16 40 -12 10 -21 10 -42 1 -31 -14 -41 -8 -23 14 21 25 82 16 97 -15z
m148 14 c22 -22 11 -30 -19 -14 -14 7 -32 10 -40 7 -30 -12 -17 -35 27 -49 45
-14 60 -45 37 -74 -16 -18 -70 -18 -96 0 -24 18 -10 34 16 18 26 -16 45 -15
60 3 10 12 5 18 -33 34 -56 24 -63 35 -43 66 19 29 66 34 91 9z m422 -6 c13
-12 23 -32 23 -45 0 -21 -4 -23 -55 -23 -43 0 -55 -3 -55 -15 0 -24 47 -42 71
-27 30 19 44 14 24 -8 -18 -20 -69 -27 -91 -12 -37 24 -43 87 -13 126 25 32
64 34 96 4z m172 -4 c12 -15 21 -35 21 -45 0 -16 -8 -19 -55 -19 -58 0 -71
-14 -39 -41 12 -10 22 -10 47 -1 35 13 45 9 27 -13 -7 -8 -28 -15 -46 -15 -46
0 -74 29 -74 77 0 74 77 111 119 57z m81 14 c0 -9 3 -9 12 0 17 17 54 15 72
-4 22 -22 23 -144 1 -144 -12 0 -15 14 -15 64 0 69 -13 86 -51 66 -15 -9 -19
-22 -19 -70 0 -47 -3 -60 -15 -60 -12 0 -15 16 -15 80 0 64 3 80 15 80 8 0 15
-5 15 -12z m-2274 -134 c-3 -9 -9 -27 -12 -40 -7 -28 -24 -32 -24 -6 0 34 13
62 27 62 10 0 13 -6 9 -16z m-8266 -233 c0 -39 0 -39 29 -28 55 20 81 -13 81
-104 0 -36 -4 -49 -15 -49 -10 0 -15 16 -17 61 -2 47 -7 65 -21 73 -29 18 -57
-24 -57 -85 0 -27 -4 -49 -10 -49 -6 0 -10 43 -10 110 0 67 4 110 10 110 6 0
10 -18 10 -39z m780 -3 c0 -33 3 -39 12 -30 19 19 63 14 84 -9 42 -47 12 -139
-46 -139 -14 0 -31 5 -38 12 -9 9 -12 9 -12 0 0 -7 -7 -12 -15 -12 -12 0 -15
19 -15 110 0 91 3 110 15 110 11 0 15 -11 15 -42z m2820 -68 c0 -67 -4 -110
-10 -110 -6 0 -10 43 -10 110 0 67 4 110 10 110 6 0 10 -43 10 -110z m2250 0
c0 -91 -3 -110 -15 -110 -8 0 -15 5 -15 12 0 9 -3 9 -12 0 -19 -19 -63 -14
-84 9 -11 13 -19 35 -19 59 0 64 45 97 96 70 17 -10 19 -7 19 30 0 29 4 40 15
40 12 0 15 -19 15 -110z m183 93 c-26 -18 -30 -43 -8 -43 8 0 15 -4 15 -10 0
-5 -7 -10 -15 -10 -12 0 -15 -14 -15 -70 0 -56 -3 -70 -15 -70 -12 0 -15 14
-15 69 0 46 -4 71 -12 74 -9 4 -10 8 -3 14 6 4 16 20 22 36 10 20 19 27 40 26
l28 0 -22 -16z m177 2 c0 -8 -7 -15 -15 -15 -8 0 -15 7 -15 15 0 8 7 15 15 15
8 0 15 -7 15 -15z m520 -95 c0 -91 -3 -110 -15 -110 -8 0 -15 5 -15 12 0 9 -3
9 -12 0 -19 -19 -63 -14 -84 9 -11 13 -19 35 -19 59 0 64 45 97 96 70 17 -10
19 -7 19 30 0 29 4 40 15 40 12 0 15 -19 15 -110z m870 0 c0 -91 -3 -110 -15
-110 -12 0 -15 19 -15 110 0 91 3 110 15 110 12 0 15 -19 15 -110z m170 0 c0
-67 -4 -110 -10 -110 -5 0 -10 5 -10 12 0 9 -3 9 -12 0 -13 -13 -57 -16 -74
-4 -37 24 -43 87 -13 126 22 28 48 33 80 16 17 -10 19 -7 19 30 0 22 5 40 10
40 6 0 10 -43 10 -110z m160 68 c0 -33 3 -39 12 -30 18 18 56 14 78 -8 25 -25
27 -95 3 -122 -18 -20 -63 -24 -81 -6 -9 9 -12 9 -12 0 0 -7 -7 -12 -15 -12
-12 0 -15 19 -15 110 0 91 3 110 15 110 11 0 15 -11 15 -42z m1230 -68 c0 -91
-3 -110 -15 -110 -12 0 -15 19 -15 110 0 91 3 110 15 110 12 0 15 -19 15 -110z
m170 0 c0 -67 -4 -110 -10 -110 -5 0 -10 5 -10 12 0 9 -3 9 -12 0 -13 -13 -57
-16 -74 -4 -37 24 -43 87 -13 126 22 28 48 33 80 16 17 -10 19 -7 19 30 0 22
5 40 10 40 6 0 10 -43 10 -110z m1150 68 c0 -33 3 -39 12 -30 17 17 54 15 72
-4 18 -18 23 -144 6 -144 -5 0 -10 19 -10 43 0 80 -20 108 -61 87 -15 -9 -19
-22 -19 -70 0 -47 -3 -60 -15 -60 -12 0 -15 19 -15 110 0 91 3 110 15 110 11
0 15 -11 15 -42z m-2040 -73 c0 -87 -3 -105 -15 -105 -12 0 -15 18 -15 105 0
87 3 105 15 105 12 0 15 -18 15 -105z m-8530 75 c0 -11 7 -20 15 -20 8 0 15
-4 15 -10 0 -5 -7 -10 -15 -10 -12 0 -15 -13 -15 -55 0 -40 4 -57 15 -61 21
-8 19 -24 -3 -24 -31 0 -42 22 -42 81 0 36 -5 59 -12 63 -10 5 -10 7 0 12 6 3
12 14 12 25 0 10 7 19 15 19 8 0 15 -9 15 -20z m1230 0 c0 -11 7 -20 15 -20 8
0 15 -4 15 -10 0 -5 -7 -10 -15 -10 -12 0 -15 -13 -15 -55 0 -40 4 -57 15 -61
21 -8 19 -24 -3 -24 -31 0 -42 22 -42 81 0 36 -5 59 -12 63 -10 5 -10 7 0 12
6 3 12 14 12 25 0 10 7 19 15 19 8 0 15 -9 15 -20z m1730 0 c0 -13 7 -20 20
-20 11 0 20 -4 20 -9 0 -5 -9 -11 -20 -14 -16 -4 -20 -14 -20 -51 0 -35 5 -49
20 -58 28 -18 25 -30 -7 -26 -27 3 -28 6 -31 66 -2 44 -7 65 -17 69 -20 7 -19
23 0 23 8 0 15 9 15 20 0 11 5 20 10 20 6 0 10 -9 10 -20z m1780 0 c0 -11 7
-20 15 -20 8 0 15 -4 15 -10 0 -5 -7 -10 -15 -10 -12 0 -15 -13 -15 -55 0 -40
4 -57 15 -61 21 -8 19 -24 -3 -24 -31 0 -42 22 -42 81 0 36 -5 59 -12 63 -10
5 -10 7 0 12 6 3 12 14 12 25 0 10 7 19 15 19 8 0 15 -9 15 -20z m4847 0 c3
-11 12 -20 19 -20 8 0 14 -4 14 -10 0 -5 -7 -10 -15 -10 -12 0 -15 -13 -15
-55 0 -40 4 -57 15 -61 21 -8 19 -24 -3 -24 -31 0 -42 22 -42 82 0 45 -3 58
-15 58 -8 0 -15 5 -15 10 0 6 7 10 15 10 8 0 15 9 15 20 0 11 5 20 11 20 6 0
13 -9 16 -20z m633 0 c0 -13 7 -20 20 -20 11 0 20 -4 20 -9 0 -5 -9 -11 -20
-14 -16 -4 -20 -14 -20 -51 0 -35 5 -49 20 -58 28 -18 25 -30 -7 -26 -27 3
-28 6 -31 66 -2 44 -7 65 -17 69 -20 7 -19 23 0 23 8 0 15 9 15 20 0 11 5 20
10 20 6 0 10 -9 10 -20z m-9873 -42 c13 -12 23 -32 23 -45 0 -21 -4 -23 -55
-23 -43 0 -55 -3 -55 -15 0 -24 47 -42 71 -27 30 19 44 14 24 -8 -18 -20 -69
-27 -91 -12 -37 24 -43 87 -13 126 25 32 64 34 96 4z m83 10 c0 -9 3 -9 12 0
14 14 48 16 48 3 0 -5 -13 -14 -30 -20 -29 -10 -30 -12 -30 -70 0 -48 -3 -61
-15 -61 -12 0 -15 16 -15 80 0 64 3 80 15 80 8 0 15 -5 15 -12z m187 -10 c13
-12 23 -32 23 -45 0 -21 -4 -23 -55 -23 -43 0 -55 -3 -55 -15 0 -24 47 -42 71
-27 30 19 44 14 24 -8 -18 -20 -69 -27 -91 -12 -37 24 -43 87 -13 126 25 32
64 34 96 4z m423 -29 c0 -58 13 -89 38 -89 31 0 42 22 42 82 0 45 3 58 15 58
12 0 15 -16 15 -80 0 -64 -3 -80 -15 -80 -8 0 -15 5 -15 12 0 9 -3 9 -12 0 -7
-7 -24 -12 -38 -12 -14 0 -31 5 -38 12 -15 15 -16 148 -2 148 6 0 10 -23 10
-51z m362 -11 l15 -63 18 63 c10 35 24 62 31 62 7 0 18 -19 24 -42 21 -85 26
-87 41 -23 8 32 21 61 28 63 11 4 12 -2 7 -24 -38 -153 -55 -168 -82 -72 l-18
63 -18 -63 c-11 -35 -24 -62 -32 -62 -8 0 -20 27 -31 68 -10 37 -20 73 -23 80
-2 6 2 12 10 12 9 0 20 -22 30 -62z m307 36 c12 -15 21 -35 21 -45 0 -16 -8
-19 -55 -19 -58 0 -71 -14 -39 -41 12 -10 22 -10 47 -1 35 13 45 9 27 -13 -7
-8 -28 -15 -46 -15 -46 0 -74 29 -74 77 0 74 77 111 119 57z m160 -39 c15 -64
20 -62 41 23 6 23 17 42 24 42 7 0 21 -27 31 -62 l18 -63 15 63 c10 40 21 62
30 62 8 0 12 -6 10 -12 -3 -7 -13 -43 -23 -80 -11 -40 -23 -68 -31 -68 -7 0
-21 27 -32 61 l-18 60 -19 -60 c-10 -34 -24 -61 -31 -61 -11 0 -28 46 -50 134
-5 22 -4 28 7 24 7 -2 20 -31 28 -63z m303 48 c8 -10 18 -30 22 -45 l6 -28
-60 0 c-58 0 -60 -1 -50 -21 15 -28 37 -34 66 -19 30 17 46 3 20 -16 -27 -19
-75 -18 -98 3 -26 23 -25 96 2 123 25 25 72 26 92 3z m88 5 c0 -9 3 -9 12 0
14 14 38 16 38 4 0 -5 -11 -14 -25 -20 -23 -10 -25 -17 -25 -72 0 -47 -3 -60
-15 -60 -12 0 -15 16 -15 80 0 64 3 80 15 80 8 0 15 -5 15 -12z m189 -14 c12
-15 21 -35 21 -45 0 -16 -8 -19 -55 -19 -58 0 -71 -14 -39 -41 12 -10 22 -10
47 -1 35 13 45 9 27 -13 -7 -8 -28 -15 -46 -15 -46 0 -74 29 -74 77 0 74 77
111 119 57z m161 14 c0 -9 3 -9 12 0 17 17 54 15 72 -4 22 -22 23 -144 1 -144
-12 0 -15 14 -15 64 0 69 -13 86 -51 66 -15 -9 -19 -22 -19 -70 0 -47 -3 -60
-15 -60 -12 0 -15 16 -15 80 0 64 3 80 15 80 8 0 15 -5 15 -12z m260 -10 c27
-29 27 -91 0 -118 -24 -24 -77 -26 -102 -3 -26 23 -25 96 2 123 27 27 74 26
100 -2z m344 0 c22 -31 22 -138 1 -138 -8 0 -15 5 -15 12 0 9 -3 9 -12 0 -7
-7 -24 -12 -38 -12 -32 0 -50 17 -50 47 0 26 27 43 69 43 24 0 31 4 31 19 0
25 -33 36 -59 19 -27 -16 -42 0 -17 18 30 21 72 17 90 -8z m156 7 c17 -21 6
-29 -20 -15 -12 6 -28 9 -36 6 -26 -10 -14 -33 26 -49 48 -18 59 -40 35 -67
-24 -26 -76 -26 -100 0 -14 16 -15 20 -4 20 8 0 20 -5 26 -11 15 -15 57 -7 61
12 2 12 -9 21 -40 30 -33 11 -44 20 -46 38 -7 44 69 71 98 36z m242 -2 c22
-20 23 -33 3 -33 -8 0 -15 4 -15 9 0 18 -33 21 -56 6 -30 -20 -32 -65 -3 -91
20 -18 22 -18 51 -1 37 21 48 15 23 -13 -24 -27 -76 -26 -101 1 -28 31 -25 96
5 120 29 23 68 24 93 2z m238 -3 c25 -25 27 -95 3 -122 -22 -24 -77 -24 -103
2 -13 13 -20 33 -20 60 0 49 27 80 70 80 17 0 39 -9 50 -20z m156 6 c26 -20
10 -32 -21 -16 -22 12 -28 12 -42 -3 -15 -15 -13 -18 29 -36 52 -22 66 -46 42
-72 -21 -24 -77 -25 -99 -3 -21 22 -11 30 19 15 27 -15 57 -12 64 6 2 8 -16
21 -42 33 -37 15 -46 24 -46 44 0 42 56 60 96 32z m164 -6 c11 -11 20 -31 20
-45 0 -24 -3 -25 -55 -25 -57 0 -66 -8 -39 -34 18 -19 45 -21 61 -5 6 6 17 9
23 7 24 -8 -20 -38 -54 -38 -45 0 -71 30 -71 82 0 68 70 103 115 58z m244 -2
c22 -31 22 -138 1 -138 -8 0 -15 5 -15 12 0 9 -3 9 -12 0 -7 -7 -24 -12 -38
-12 -32 0 -50 17 -50 47 0 26 27 43 69 43 24 0 31 4 31 19 0 25 -33 36 -59 19
-27 -16 -42 0 -17 18 30 21 72 17 90 -8z m152 8 c26 -20 10 -32 -21 -16 -22
12 -28 12 -42 -3 -15 -15 -13 -18 29 -36 52 -22 66 -46 42 -72 -21 -24 -77
-25 -99 -3 -21 22 -11 30 19 15 27 -15 57 -12 64 6 2 8 -16 21 -42 33 -37 15
-46 24 -46 44 0 42 56 60 96 32z m266 -48 l15 -63 18 63 c10 35 24 62 31 62 7
0 18 -19 24 -42 21 -85 26 -87 41 -23 8 32 21 61 28 63 11 4 12 -2 7 -24 -38
-153 -55 -168 -82 -72 l-18 63 -18 -63 c-11 -35 -24 -62 -32 -62 -8 0 -20 27
-31 68 -10 37 -20 73 -23 80 -2 6 2 12 10 12 9 0 20 -22 30 -62z m308 42 c25
-25 27 -95 3 -122 -22 -24 -77 -24 -103 2 -13 13 -20 33 -20 60 0 49 27 80 70
80 17 0 39 -9 50 -20z m231 10 c13 -7 19 -7 19 0 0 5 5 10 10 10 6 0 10 -38
10 -94 0 -106 -7 -118 -65 -118 -35 0 -65 16 -65 33 0 5 7 9 15 9 8 0 15 -4
15 -10 0 -14 54 -12 68 2 7 7 12 20 12 30 0 15 -3 17 -19 8 -11 -5 -29 -10
-40 -10 -24 0 -61 45 -61 75 0 30 37 75 61 75 11 0 29 -5 40 -10z m199 -10
c25 -25 27 -95 3 -122 -22 -24 -77 -24 -103 2 -13 13 -20 33 -20 60 0 49 27
80 70 80 17 0 39 -9 50 -20z m171 1 c18 -14 24 -29 24 -59 0 -51 -27 -82 -69
-82 -37 0 -49 7 -65 37 -41 79 43 159 110 104z m449 7 c0 -9 3 -9 12 0 13 13
48 16 48 5 0 -5 -14 -16 -30 -25 -28 -16 -30 -21 -30 -73 0 -30 -4 -55 -10
-55 -6 0 -10 33 -10 80 0 47 4 80 10 80 6 0 10 -5 10 -12z m110 -68 c0 -64 -3
-80 -15 -80 -12 0 -15 16 -15 80 0 64 3 80 15 80 12 0 15 -16 15 -80z m152 63
c8 -10 18 -30 22 -45 l6 -28 -60 0 c-58 0 -60 -1 -50 -21 15 -28 37 -34 66
-19 30 17 46 3 20 -16 -27 -19 -75 -18 -98 3 -26 23 -25 96 2 123 25 25 72 26
92 3z m88 5 c0 -9 3 -9 12 0 17 17 54 15 72 -4 22 -22 23 -144 1 -144 -12 0
-15 14 -15 64 0 69 -13 86 -51 66 -15 -9 -19 -22 -19 -70 0 -47 -3 -60 -15
-60 -12 0 -15 16 -15 80 0 64 3 80 15 80 8 0 15 -5 15 -12z m420 -3 c17 -21 6
-29 -20 -15 -12 6 -28 9 -36 6 -26 -10 -14 -33 26 -49 48 -18 59 -40 35 -67
-24 -26 -76 -26 -100 0 -14 16 -15 20 -4 20 8 0 20 -5 26 -11 15 -15 57 -7 61
12 2 12 -9 21 -40 30 -33 11 -44 20 -46 38 -7 44 69 71 98 36z m162 -47 l15
-63 18 63 c10 35 24 62 31 62 7 0 18 -19 24 -42 21 -85 26 -87 41 -23 8 32 21
61 28 63 11 4 12 -2 7 -24 -38 -153 -55 -168 -82 -72 l-18 63 -18 -63 c-11
-35 -24 -62 -32 -62 -8 0 -20 27 -31 68 -10 37 -20 73 -23 80 -2 6 2 12 10 12
9 0 20 -22 30 -62z m308 40 c27 -29 27 -91 0 -118 -24 -24 -77 -26 -102 -3
-26 23 -25 96 2 123 27 27 74 26 100 -2z m80 -36 c0 -60 11 -82 42 -82 25 0
38 31 38 89 0 28 5 51 10 51 6 0 10 -33 10 -80 0 -47 -4 -80 -10 -80 -5 0 -10
5 -10 11 0 8 -4 8 -14 0 -24 -20 -69 -9 -83 19 -13 26 -18 112 -6 123 16 17
23 3 23 -51z m767 36 c13 -12 23 -32 23 -45 0 -21 -4 -23 -55 -23 -43 0 -55
-3 -55 -15 0 -24 47 -42 71 -27 30 19 44 14 24 -8 -18 -20 -69 -27 -91 -12
-37 24 -43 87 -13 126 25 32 64 34 96 4z m405 -40 l15 -63 18 63 c10 35 24 62
31 62 7 0 18 -19 24 -42 21 -85 26 -87 41 -23 8 32 21 61 28 63 11 4 12 -2 7
-24 -38 -153 -55 -168 -82 -72 l-18 63 -18 -63 c-11 -35 -24 -62 -32 -62 -8 0
-20 27 -31 68 -10 37 -20 73 -23 80 -2 6 2 12 10 12 9 0 20 -22 30 -62z m308
42 c25 -25 27 -95 3 -122 -22 -24 -77 -24 -103 2 -13 13 -20 33 -20 60 0 49
27 80 70 80 17 0 39 -9 50 -20z m80 -31 c0 -58 13 -89 38 -89 31 0 42 22 42
82 0 45 3 58 15 58 12 0 15 -16 15 -80 0 -64 -3 -80 -15 -80 -8 0 -15 5 -15
12 0 9 -3 9 -12 0 -7 -7 -24 -12 -38 -12 -14 0 -31 5 -38 12 -15 15 -16 148
-2 148 6 0 10 -23 10 -51z m612 -16 c3 -59 6 -68 23 -71 36 -4 48 14 53 77 6
88 22 75 22 -19 0 -47 -4 -80 -10 -80 -5 0 -10 5 -10 12 0 9 -3 9 -12 0 -20
-20 -65 -14 -82 10 -21 30 -22 138 -1 138 11 0 15 -16 17 -67z m168 55 c0 -9
3 -9 12 0 14 14 48 16 48 3 0 -5 -13 -14 -30 -20 -29 -10 -30 -12 -30 -70 0
-48 -3 -61 -15 -61 -12 0 -15 16 -15 80 0 64 3 80 15 80 8 0 15 -5 15 -12z
m110 1 c0 -8 4 -8 14 0 24 20 69 9 83 -19 19 -37 17 -130 -2 -130 -12 0 -15
13 -15 58 0 76 -27 104 -64 66 -11 -10 -16 -34 -16 -70 0 -30 -4 -54 -10 -54
-6 0 -10 33 -10 80 0 47 4 80 10 80 6 0 10 -5 10 -11z m441 -8 c18 -14 24 -29
24 -59 0 -51 -27 -82 -69 -82 -37 0 -49 7 -65 37 -41 79 43 159 110 104z m419
-1 c11 -11 20 -31 20 -45 0 -24 -3 -25 -55 -25 -57 0 -66 -8 -39 -34 18 -19
45 -21 61 -5 6 6 17 9 23 7 24 -8 -20 -38 -54 -38 -45 0 -71 30 -71 82 0 68
70 103 115 58z m80 10 c0 -6 10 -5 25 2 14 6 28 8 33 3 4 -4 1 -10 -7 -13 -34
-12 -51 -42 -51 -92 0 -27 -4 -50 -10 -50 -6 0 -10 33 -10 80 0 47 4 80 10 80
6 0 10 -4 10 -10z m-2530 -136 c0 -8 -7 -14 -15 -14 -15 0 -21 21 -9 33 10 9
24 -2 24 -19z m-7660 7 c0 -4 -5 -22 -11 -40 -12 -35 -35 -43 -25 -8 3 12 6
30 6 40 0 9 7 17 15 17 8 0 15 -4 15 -9z m-615 -210 c7 -12 -12 -24 -25 -16
-11 7 -4 25 10 25 5 0 11 -4 15 -9z m1005 -101 c0 -67 -4 -110 -10 -110 -5 0
-10 5 -10 12 0 9 -3 9 -12 0 -13 -13 -57 -16 -74 -4 -37 24 -43 87 -13 126 22
28 48 33 80 16 17 -10 19 -7 19 30 0 22 5 40 10 40 6 0 10 -43 10 -110z m658
98 c-6 -18 -28 -21 -28 -4 0 9 7 16 16 16 9 0 14 -5 12 -12z m2472 -98 c0 -67
-4 -110 -10 -110 -5 0 -10 5 -10 10 0 7 -6 7 -19 0 -32 -17 -69 -12 -85 12
-23 32 -20 94 4 118 21 21 65 27 75 10 13 -22 25 -8 25 30 0 22 5 40 10 40 6
0 10 -43 10 -110z m828 98 c-6 -18 -28 -21 -28 -4 0 9 7 16 16 16 9 0 14 -5
12 -12z m1225 -5 c-26 -18 -30 -43 -8 -43 8 0 15 -4 15 -10 0 -5 -7 -10 -15
-10 -12 0 -15 -14 -15 -70 0 -56 -3 -70 -15 -70 -12 0 -15 14 -15 69 0 46 -4
71 -12 74 -9 4 -10 8 -3 14 6 4 16 20 22 36 10 20 19 27 40 26 l28 0 -22 -16z
m405 5 c-6 -18 -28 -21 -28 -4 0 9 7 16 16 16 9 0 14 -5 12 -12z m1022 -30 c0
-33 3 -39 12 -30 17 17 48 15 70 -5 24 -22 27 -143 3 -143 -12 0 -15 14 -15
64 0 69 -13 86 -51 66 -15 -9 -19 -22 -19 -70 0 -47 -3 -60 -15 -60 -12 0 -15
19 -15 110 0 91 3 110 15 110 11 0 15 -11 15 -42z m520 27 c0 -8 -7 -15 -15
-15 -8 0 -15 7 -15 15 0 8 7 15 15 15 8 0 15 -7 15 -15z m810 -27 c0 -33 3
-39 12 -30 17 17 54 15 72 -4 18 -18 23 -144 6 -144 -5 0 -10 19 -10 43 0 80
-20 108 -61 87 -15 -9 -19 -22 -19 -70 0 -47 -3 -60 -15 -60 -12 0 -15 19 -15
110 0 91 3 110 15 110 11 0 15 -11 15 -42z m520 -68 c0 -67 -4 -110 -10 -110
-5 0 -10 5 -10 12 0 9 -3 9 -12 0 -13 -13 -57 -16 -74 -4 -37 24 -43 87 -13
126 22 28 48 33 80 16 17 -10 19 -7 19 30 0 22 5 40 10 40 6 0 10 -43 10 -110z
m78 98 c-6 -18 -28 -21 -28 -4 0 9 7 16 16 16 9 0 14 -5 12 -12z m172 -98 c0
-67 -4 -110 -10 -110 -5 0 -10 5 -10 12 0 9 -3 9 -12 0 -13 -13 -57 -16 -74
-4 -37 24 -43 87 -13 126 22 28 48 33 80 16 17 -10 19 -7 19 30 0 22 5 40 10
40 6 0 10 -43 10 -110z m980 100 c0 -5 -7 -10 -15 -10 -8 0 -15 -9 -15 -20 0
-11 7 -20 15 -20 8 0 15 -4 15 -10 0 -5 -7 -10 -15 -10 -12 0 -15 -14 -15 -70
0 -56 -3 -70 -15 -70 -12 0 -15 14 -15 70 0 56 -3 70 -15 70 -8 0 -15 5 -15
10 0 6 7 10 15 10 8 0 15 8 15 18 0 10 5 23 12 30 15 15 48 16 48 2z m-8565
-9 c3 -6 21 -53 40 -105 26 -72 31 -96 21 -96 -8 0 -19 14 -25 30 -9 27 -14
30 -51 30 -37 0 -43 -3 -53 -30 -11 -28 -44 -45 -35 -17 65 184 84 218 103
188z m-2225 -21 c0 -11 7 -20 15 -20 8 0 15 -4 15 -10 0 -5 -7 -10 -15 -10
-12 0 -15 -13 -15 -55 0 -40 4 -57 15 -61 21 -8 19 -24 -3 -24 -31 0 -42 22
-42 81 0 36 -5 59 -12 63 -10 5 -10 7 0 12 6 3 12 14 12 25 0 10 7 19 15 19 8
0 15 -9 15 -20z m5137 0 c3 -11 12 -20 19 -20 8 0 14 -4 14 -10 0 -5 -7 -10
-15 -10 -12 0 -15 -13 -15 -55 0 -40 4 -57 15 -61 21 -8 19 -24 -3 -24 -31 0
-42 22 -42 82 0 45 -3 58 -15 58 -8 0 -15 5 -15 10 0 6 7 10 15 10 8 0 15 9
15 20 0 11 5 20 11 20 6 0 13 -9 16 -20z m103 0 c0 -11 7 -20 15 -20 8 0 15
-4 15 -10 0 -5 -7 -10 -15 -10 -12 0 -15 -13 -15 -55 0 -40 4 -57 15 -61 21
-8 19 -24 -3 -24 -31 0 -42 22 -42 81 0 36 -5 59 -12 63 -10 5 -10 7 0 12 6 3
12 14 12 25 0 10 7 19 15 19 8 0 15 -9 15 -20z m2190 0 c0 -11 7 -20 15 -20 8
0 15 -4 15 -10 0 -5 -7 -10 -15 -10 -12 0 -15 -13 -15 -55 0 -40 4 -57 15 -61
21 -8 19 -24 -3 -24 -31 0 -42 22 -42 81 0 36 -5 59 -12 63 -10 5 -10 7 0 12
6 3 12 14 12 25 0 10 7 19 15 19 8 0 15 -9 15 -20z m180 0 c0 -13 7 -20 20
-20 11 0 20 -4 20 -9 0 -5 -9 -11 -20 -14 -16 -4 -20 -14 -20 -51 0 -35 5 -49
20 -58 28 -18 25 -30 -7 -26 -27 3 -28 6 -31 66 -2 44 -7 65 -17 69 -20 7 -19
23 0 23 8 0 15 9 15 20 0 11 5 20 10 20 6 0 10 -9 10 -20z m527 0 c3 -11 12
-20 19 -20 8 0 14 -4 14 -10 0 -5 -7 -10 -15 -10 -12 0 -15 -13 -15 -55 0 -40
4 -57 15 -61 21 -8 19 -24 -3 -24 -31 0 -42 22 -42 82 0 45 -3 58 -15 58 -8 0
-15 5 -15 10 0 6 7 10 15 10 8 0 15 9 15 20 0 11 5 20 11 20 6 0 13 -9 16 -20z
m-8047 -100 c0 -47 -4 -80 -10 -80 -6 0 -10 33 -10 80 0 47 4 80 10 80 6 0 10
-33 10 -80z m70 68 c0 -9 3 -9 12 0 15 15 50 16 64 2 6 -6 21 -6 42 2 53 20
66 4 70 -81 3 -86 -14 -96 -20 -11 -5 68 -19 91 -46 74 -12 -8 -18 -28 -20
-73 -2 -45 -7 -61 -17 -61 -12 0 -15 14 -15 58 0 74 -21 100 -54 66 -11 -10
-16 -34 -16 -70 0 -30 -4 -54 -10 -54 -6 0 -10 33 -10 80 0 47 4 80 10 80 6 0
10 -5 10 -12z m340 -8 c11 -11 20 -31 20 -45 0 -24 -3 -25 -55 -25 -57 0 -66
-8 -39 -34 18 -19 45 -21 61 -5 6 6 17 9 23 7 24 -8 -20 -38 -54 -38 -45 0
-71 30 -71 82 0 68 70 103 115 58z m244 -2 c22 -31 22 -138 1 -138 -8 0 -15 5
-15 12 0 9 -3 9 -12 0 -7 -7 -24 -12 -38 -12 -32 0 -50 17 -50 47 0 26 27 43
69 43 24 0 31 4 31 19 0 25 -33 36 -59 19 -27 -16 -42 0 -17 18 30 21 72 17
90 -8z m79 10 c4 -10 7 -10 18 0 20 19 56 14 73 -10 21 -30 22 -138 1 -138
-10 0 -15 16 -17 61 -5 110 -67 106 -76 -5 -7 -84 -22 -67 -22 24 0 72 10 102
23 68z m511 -10 c22 -31 22 -138 1 -138 -8 0 -15 5 -15 12 0 9 -3 9 -12 0 -7
-7 -24 -12 -38 -12 -32 0 -50 17 -50 47 0 26 27 43 69 43 24 0 31 4 31 19 0
25 -33 36 -59 19 -27 -16 -42 0 -17 18 30 21 72 17 90 -8z m147 12 c13 -7 19
-7 19 0 0 5 5 10 10 10 6 0 10 -38 10 -94 0 -106 -7 -118 -65 -118 -35 0 -65
16 -65 33 0 5 7 9 15 9 8 0 15 -4 15 -10 0 -14 54 -12 68 2 7 7 12 20 12 30 0
15 -3 17 -19 8 -11 -5 -29 -10 -40 -10 -24 0 -61 45 -61 75 0 30 37 75 61 75
11 0 29 -5 40 -10z m196 -20 c19 -37 17 -130 -2 -130 -8 0 -15 5 -15 12 0 9
-3 9 -12 0 -7 -7 -24 -12 -38 -12 -32 0 -50 17 -50 47 0 26 27 43 69 43 34 0
41 19 16 40 -12 10 -21 10 -42 1 -31 -14 -41 -8 -23 14 21 25 82 16 97 -15z
m81 -53 c2 -64 0 -77 -13 -77 -12 0 -15 15 -15 81 0 60 3 80 13 77 8 -3 13
-31 15 -81z m65 71 c4 -10 7 -10 18 0 20 19 56 14 73 -10 21 -30 22 -138 1
-138 -10 0 -15 16 -17 61 -5 110 -67 106 -76 -5 -7 -84 -22 -67 -22 24 0 72
10 102 23 68z m602 -4 c22 -22 11 -30 -19 -14 -14 7 -32 10 -40 7 -30 -12 -17
-35 27 -49 45 -14 60 -45 37 -74 -16 -18 -70 -18 -96 0 -24 18 -10 34 16 18
26 -16 45 -15 60 3 10 12 5 18 -33 34 -56 24 -63 35 -43 66 19 29 66 34 91 9z
m239 -6 c22 -31 22 -138 1 -138 -8 0 -15 5 -15 12 0 9 -3 9 -12 0 -7 -7 -24
-12 -38 -12 -32 0 -50 17 -50 47 0 26 27 43 69 43 24 0 31 4 31 19 0 25 -33
36 -59 19 -27 -16 -42 0 -17 18 30 21 72 17 90 -8z m158 11 c3 -8 10 -8 26 2
17 11 26 11 41 2 15 -9 26 -9 50 0 52 19 65 3 69 -82 2 -44 -1 -71 -8 -71 -6
0 -10 25 -10 59 0 67 -15 90 -49 71 -18 -9 -21 -20 -21 -70 0 -47 -3 -60 -15
-60 -12 0 -15 14 -15 64 0 51 -3 65 -17 71 -29 10 -53 -29 -53 -86 0 -27 -4
-49 -10 -49 -6 0 -10 33 -10 80 0 44 4 80 9 80 5 0 11 -5 13 -11z m347 -15
c12 -15 21 -35 21 -45 0 -16 -8 -19 -55 -19 -58 0 -71 -14 -39 -41 12 -10 22
-10 47 -1 35 13 45 9 27 -13 -7 -8 -28 -15 -46 -15 -46 0 -74 29 -74 77 0 74
77 111 119 57z m81 14 c0 -9 3 -9 12 0 14 14 38 16 38 4 0 -5 -11 -14 -25 -20
-23 -10 -25 -17 -25 -72 0 -47 -3 -60 -15 -60 -12 0 -15 16 -15 80 0 64 3 80
15 80 8 0 15 -5 15 -12z m189 -14 c12 -15 21 -35 21 -45 0 -16 -8 -19 -55 -19
-58 0 -71 -14 -39 -41 12 -10 22 -10 47 -1 35 13 45 9 27 -13 -7 -8 -28 -15
-46 -15 -46 0 -74 29 -74 77 0 74 77 111 119 57z m229 14 c9 -9 12 -9 12 0 0
7 7 12 15 12 12 0 15 -16 15 -88 0 -94 -10 -116 -55 -123 -32 -5 -75 10 -75
26 0 18 12 19 27 4 6 -6 23 -9 39 -7 24 2 30 8 32 33 3 24 1 28 -9 18 -18 -18
-59 -16 -81 4 -27 24 -25 97 4 117 27 19 59 21 76 4z m201 -14 c23 -30 27 -64
10 -97 -16 -30 -28 -37 -65 -37 -42 0 -69 31 -69 82 0 73 81 106 124 52z m171
4 c27 -29 27 -91 0 -118 -24 -24 -77 -26 -102 -3 -26 23 -25 96 2 123 27 27
74 26 100 -2z m427 -8 c19 -37 17 -130 -2 -130 -8 0 -15 5 -15 12 0 9 -3 9
-12 0 -7 -7 -24 -12 -38 -12 -32 0 -50 17 -50 47 0 26 27 43 69 43 34 0 41 19
16 40 -12 10 -21 10 -42 1 -31 -14 -41 -8 -23 14 21 25 82 16 97 -15z m165 8
c27 -27 6 -39 -23 -12 -16 14 -24 15 -44 6 -20 -9 -25 -19 -25 -50 0 -59 34
-80 72 -45 22 19 37 9 22 -15 -6 -10 -27 -18 -47 -20 -48 -4 -77 24 -77 76 0
73 73 109 122 60z m139 12 c13 -7 19 -7 19 0 0 5 7 10 15 10 12 0 15 -18 15
-105 0 -87 -3 -105 -15 -105 -11 0 -15 11 -15 37 0 29 -3 34 -12 25 -19 -19
-63 -14 -84 9 -11 13 -19 35 -19 59 0 64 45 97 96 70z m109 -41 c0 -58 13 -89
38 -89 31 0 42 22 42 82 0 45 3 58 15 58 12 0 15 -16 15 -80 0 -64 -3 -80 -15
-80 -8 0 -15 5 -15 12 0 9 -3 9 -12 0 -7 -7 -24 -12 -38 -12 -14 0 -31 5 -38
12 -15 15 -16 148 -2 148 6 0 10 -23 10 -51z m178 -32 c2 -64 0 -77 -13 -77
-12 0 -15 15 -15 81 0 60 3 80 13 77 8 -3 13 -31 15 -81z m359 53 c19 -37 17
-130 -2 -130 -8 0 -15 5 -15 12 0 9 -3 9 -12 0 -7 -7 -24 -12 -38 -12 -32 0
-50 17 -50 47 0 26 27 43 69 43 34 0 41 19 16 40 -12 10 -21 10 -42 1 -31 -14
-41 -8 -23 14 21 25 82 16 97 -15z m76 18 c4 -10 7 -10 18 0 20 19 56 14 73
-10 21 -30 22 -138 1 -138 -10 0 -15 16 -17 61 -5 110 -67 106 -76 -5 -7 -84
-22 -67 -22 24 0 72 10 102 23 68z m259 -10 c27 -27 7 -39 -22 -13 -39 35 -81
-10 -66 -69 8 -32 42 -43 66 -21 27 24 44 15 25 -13 -23 -32 -77 -30 -104 4
-61 77 33 180 101 112z m158 2 c11 -11 20 -31 20 -45 0 -24 -3 -25 -55 -25
-57 0 -66 -8 -39 -34 18 -19 45 -21 61 -5 6 6 17 9 23 7 24 -8 -20 -38 -54
-38 -45 0 -71 30 -71 82 0 68 70 103 115 58z m251 1 c18 -14 24 -29 24 -59 0
-51 -27 -82 -69 -82 -37 0 -49 7 -65 37 -41 79 43 159 110 104z m269 7 c0 -9
3 -9 12 0 7 7 21 12 33 12 12 0 26 -5 33 -12 9 -9 15 -9 24 0 17 17 54 15 72
-4 22 -22 23 -144 1 -144 -12 0 -15 14 -15 64 0 48 -4 65 -15 70 -37 14 -55
-15 -55 -91 0 -24 -4 -43 -10 -43 -6 0 -10 26 -10 59 0 67 -15 90 -49 71 -18
-9 -21 -20 -21 -70 0 -47 -3 -60 -15 -60 -12 0 -15 16 -15 80 0 64 3 80 15 80
8 0 15 -5 15 -12z m258 -71 c2 -64 0 -77 -13 -77 -12 0 -15 15 -15 81 0 60 3
80 13 77 8 -3 13 -31 15 -81z m65 71 c4 -10 7 -10 18 0 20 19 56 14 73 -10 21
-30 22 -138 1 -138 -10 0 -15 16 -17 61 -5 110 -67 106 -76 -5 -7 -84 -22 -67
-22 24 0 72 10 102 23 68z m254 -10 c13 -12 23 -32 23 -45 0 -21 -4 -23 -55
-23 -43 0 -55 -3 -55 -15 0 -24 47 -42 71 -27 30 19 44 14 24 -8 -18 -20 -69
-27 -91 -12 -37 24 -43 87 -13 126 25 32 64 34 96 4z m325 5 c14 -12 18 -31
18 -78 l0 -61 -55 -2 c-50 -1 -57 1 -67 23 -15 34 12 65 59 65 26 0 33 4 33
19 0 28 -17 35 -51 21 -35 -15 -46 -9 -24 14 21 21 63 21 87 -1z m628 -3 c11
-11 20 -31 20 -45 0 -24 -3 -25 -55 -25 -57 0 -66 -8 -39 -34 18 -19 45 -21
61 -5 6 6 17 9 23 7 24 -8 -20 -38 -54 -38 -45 0 -71 30 -71 82 0 68 70 103
115 58z m270 -60 c0 -64 -3 -80 -15 -80 -12 0 -15 16 -15 80 0 64 3 80 15 80
12 0 15 -16 15 -80z m70 70 c0 -6 8 -5 19 2 15 9 25 9 47 -1 19 -8 30 -9 38
-1 17 17 54 11 70 -12 22 -31 22 -138 1 -138 -12 0 -15 13 -15 58 0 74 -21
100 -54 66 -11 -10 -16 -34 -16 -70 0 -30 -4 -54 -10 -54 -5 0 -10 24 -10 53
0 64 -19 98 -47 81 -14 -8 -19 -26 -21 -73 -2 -45 -7 -61 -17 -61 -12 0 -15
17 -15 80 0 64 3 80 15 80 8 0 15 -5 15 -10z m337 -12 c13 -12 23 -32 23 -45
0 -21 -4 -23 -55 -23 -43 0 -55 -3 -55 -15 0 -24 47 -42 71 -27 30 19 44 14
24 -8 -18 -20 -69 -27 -91 -12 -37 24 -43 87 -13 126 25 32 64 34 96 4z m319
8 c26 -20 10 -32 -21 -16 -22 12 -28 12 -42 -3 -15 -15 -13 -18 29 -36 52 -22
66 -46 42 -72 -21 -24 -77 -25 -99 -3 -21 22 -11 30 19 15 27 -15 57 -12 64 6
2 8 -16 21 -42 33 -37 15 -46 24 -46 44 0 42 56 60 96 32z m336 -3 c8 -10 18
-30 22 -45 l6 -28 -60 0 c-58 0 -60 -1 -50 -21 15 -28 37 -34 66 -19 30 17 46
3 20 -16 -27 -19 -75 -18 -98 3 -26 23 -25 96 2 123 25 25 72 26 92 3z m346
-66 c2 -64 0 -77 -13 -77 -12 0 -15 15 -15 81 0 60 3 80 13 77 8 -3 13 -31 15
-81z m324 72 c3 -8 10 -8 26 2 17 11 26 11 41 2 15 -9 26 -9 50 0 52 19 65 3
69 -82 2 -44 -1 -71 -8 -71 -6 0 -10 25 -10 59 0 67 -15 90 -49 71 -18 -9 -21
-20 -21 -70 0 -47 -3 -60 -15 -60 -12 0 -15 14 -15 64 0 51 -3 65 -17 71 -29
10 -53 -29 -53 -86 0 -27 -4 -49 -10 -49 -6 0 -10 33 -10 80 0 44 4 80 9 80 5
0 11 -5 13 -11z m348 -11 c27 -29 27 -91 0 -118 -24 -24 -77 -26 -102 -3 -26
23 -25 96 2 123 27 27 74 26 100 -2z m80 10 c0 -9 3 -9 12 0 13 13 48 16 48 5
0 -5 -14 -16 -30 -25 -28 -16 -30 -21 -30 -73 0 -30 -4 -55 -10 -55 -6 0 -10
33 -10 80 0 47 4 80 10 80 6 0 10 -5 10 -12z m190 -8 c11 -11 20 -31 20 -45 0
-24 -3 -25 -55 -25 -57 0 -66 -8 -39 -34 18 -19 45 -21 61 -5 6 6 17 9 23 7
24 -8 -20 -38 -54 -38 -45 0 -71 30 -71 82 0 68 70 103 115 58z m350 0 c25
-25 27 -95 3 -122 -22 -24 -77 -24 -103 2 -13 13 -20 33 -20 60 0 49 27 80 70
80 17 0 39 -9 50 -20z m80 10 c0 -6 10 -5 25 2 14 6 28 8 33 3 4 -4 1 -10 -7
-13 -34 -12 -51 -42 -51 -92 0 -27 -4 -50 -10 -50 -6 0 -10 33 -10 80 0 47 4
80 10 80 6 0 10 -4 10 -10z m-9000 -130 c0 -5 -5 -12 -11 -16 -14 -8 -33 11
-25 25 7 11 36 4 36 -9z m5090 1 c0 -4 -5 -22 -11 -40 -12 -35 -35 -43 -25 -8
3 12 6 30 6 40 0 9 7 17 15 17 8 0 15 -4 15 -9z m1626 -7 c-3 -9 -9 -27 -12
-40 -7 -28 -24 -32 -24 -6 0 34 13 62 27 62 10 0 13 -6 9 -16z m-8126 -236 c0
-33 3 -39 12 -30 17 17 48 15 70 -5 24 -22 27 -143 3 -143 -12 0 -15 14 -15
64 0 69 -13 86 -51 66 -15 -9 -19 -22 -19 -70 0 -47 -3 -60 -15 -60 -12 0 -15
19 -15 110 0 91 3 110 15 110 11 0 15 -11 15 -42z m690 -68 c0 -91 -3 -110
-15 -110 -8 0 -15 5 -15 12 0 9 -3 9 -12 0 -19 -19 -63 -14 -84 9 -11 13 -19
35 -19 59 0 64 45 97 96 70 17 -10 19 -7 19 30 0 29 4 40 15 40 12 0 15 -19
15 -110z m70 95 c0 -8 -7 -15 -15 -15 -8 0 -15 7 -15 15 0 8 7 15 15 15 8 0
15 -7 15 -15z m180 -95 c0 -91 -3 -110 -15 -110 -8 0 -15 5 -15 12 0 9 -3 9
-12 0 -19 -19 -63 -14 -84 9 -11 13 -19 35 -19 59 0 64 45 97 96 70 17 -10 19
-7 19 30 0 29 4 40 15 40 12 0 15 -19 15 -110z m760 101 c0 -5 -9 -11 -20 -14
-27 -7 -25 -33 3 -42 l22 -8 -22 -4 c-21 -4 -23 -10 -23 -74 0 -55 -3 -69 -15
-69 -12 0 -15 14 -15 69 0 46 -4 71 -12 74 -10 4 -10 7 -1 14 6 5 16 21 22 36
8 19 17 27 36 27 14 0 25 -4 25 -9z m165 0 c7 -12 -12 -24 -25 -16 -11 7 -4
25 10 25 5 0 11 -4 15 -9z m515 -101 c0 -91 -3 -110 -15 -110 -8 0 -15 5 -15
12 0 9 -3 9 -12 0 -17 -17 -58 -15 -80 5 -26 23 -25 96 2 123 22 22 60 26 78
8 9 -9 12 -3 12 30 0 31 4 42 15 42 12 0 15 -19 15 -110z m230 70 c0 -37 2
-40 19 -30 52 27 101 -6 101 -68 0 -68 -46 -101 -101 -72 -13 7 -19 7 -19 0 0
-5 -4 -10 -10 -10 -6 0 -10 43 -10 110 0 67 4 110 10 110 6 0 10 -18 10 -40z
m730 30 c0 -5 -7 -10 -15 -10 -8 0 -15 -2 -15 -4 0 -2 -3 -11 -6 -20 -4 -12 0
-16 15 -16 27 0 27 -16 1 -23 -17 -4 -20 -14 -20 -71 0 -37 -4 -66 -10 -66 -6
0 -10 28 -10 65 0 49 -4 67 -15 71 -8 4 -15 10 -15 15 0 5 7 9 15 9 9 0 15 9
15 24 0 13 6 27 13 29 21 9 47 7 47 -3z m170 -5 c0 -8 -7 -15 -15 -15 -8 0
-15 7 -15 15 0 8 7 15 15 15 8 0 15 -7 15 -15z m510 -95 c0 -67 -4 -110 -10
-110 -5 0 -10 5 -10 10 0 7 -6 7 -19 0 -32 -17 -69 -12 -85 12 -23 32 -20 94
4 118 21 21 65 27 75 10 13 -22 25 -8 25 30 0 22 5 40 10 40 6 0 10 -43 10
-110z m510 0 c0 -91 -3 -110 -15 -110 -12 0 -15 19 -15 110 0 91 3 110 15 110
12 0 15 -19 15 -110z m338 98 c-6 -18 -28 -21 -28 -4 0 9 7 16 16 16 9 0 14
-5 12 -12z m872 2 c0 -5 -7 -10 -15 -10 -8 0 -15 -9 -15 -20 0 -11 7 -20 15
-20 8 0 15 -4 15 -10 0 -5 -7 -10 -15 -10 -12 0 -15 -14 -15 -70 0 -56 -3 -70
-15 -70 -12 0 -15 14 -15 70 0 56 -3 70 -15 70 -8 0 -15 5 -15 10 0 6 7 10 15
10 8 0 15 8 15 18 0 10 5 23 12 30 15 15 48 16 48 2z m475 1 c7 -12 -12 -24
-25 -16 -11 7 -4 25 10 25 5 0 11 -4 15 -9z m65 -101 c0 -91 -3 -110 -15 -110
-12 0 -15 19 -15 110 0 91 3 110 15 110 12 0 15 -19 15 -110z m990 70 c0 -37
2 -40 19 -30 32 17 58 12 80 -16 30 -39 24 -102 -13 -126 -17 -12 -61 -9 -74
4 -9 9 -12 9 -12 0 0 -7 -7 -12 -15 -12 -12 0 -15 19 -15 110 0 91 3 110 15
110 11 0 15 -11 15 -40z m565 -1 c-18 -51 -19 -142 -1 -191 8 -21 9 -38 4 -38
-17 0 -48 85 -48 135 0 51 31 135 49 135 6 0 4 -17 -4 -41z m1713 29 c-6 -18
-28 -21 -28 -4 0 9 7 16 16 16 9 0 14 -5 12 -12z m172 -98 c0 -67 -4 -110 -10
-110 -5 0 -10 5 -10 12 0 9 -3 9 -12 0 -13 -13 -57 -16 -74 -4 -37 24 -43 87
-13 126 22 28 48 33 80 16 17 -10 19 -7 19 30 0 22 5 40 10 40 6 0 10 -43 10
-110z m84 70 c25 -62 20 -164 -11 -215 -19 -33 -22 -13 -7 45 17 61 12 140
-11 183 -11 22 -11 27 0 27 7 0 20 -18 29 -40z m-894 -15 l0 -45 60 0 60 0 0
45 c0 33 4 45 15 45 12 0 15 -18 15 -105 0 -87 -3 -105 -15 -105 -11 0 -15 12
-15 50 l0 51 -57 -3 -58 -3 -3 -47 c-6 -91 -22 -48 -22 57 0 63 4 105 10 105
6 0 10 -20 10 -45z m1060 5 c0 -29 -4 -40 -15 -40 -11 0 -15 11 -15 40 0 29 4
40 15 40 11 0 15 -11 15 -40z m50 0 c0 -22 -4 -40 -9 -40 -5 0 -11 18 -13 40
-2 28 0 40 9 40 8 0 13 -14 13 -40z m-10120 11 c0 -10 10 -22 23 -26 l22 -8
-22 -4 c-21 -4 -23 -10 -23 -60 0 -46 3 -56 20 -60 28 -7 25 -23 -5 -23 -32 0
-45 26 -45 89 0 30 -5 52 -12 55 -10 5 -10 7 0 12 6 3 12 14 12 25 0 10 7 19
15 19 8 0 15 -8 15 -19z m3220 0 c0 -10 10 -22 23 -26 l22 -8 -22 -4 c-21 -4
-23 -10 -23 -60 0 -46 3 -56 20 -60 28 -7 25 -23 -5 -23 -32 0 -45 26 -45 89
0 30 -5 52 -12 55 -10 5 -10 7 0 12 6 3 12 14 12 25 0 10 7 19 15 19 8 0 15
-8 15 -19z m1650 0 c0 -10 10 -22 23 -26 l22 -8 -22 -4 c-21 -4 -23 -10 -23
-60 0 -46 3 -56 20 -60 28 -7 25 -23 -5 -23 -32 0 -45 26 -45 89 0 30 -5 52
-12 55 -10 5 -10 7 0 12 6 3 12 14 12 25 0 10 7 19 15 19 8 0 15 -8 15 -19z
m3970 -1 c0 -11 7 -20 15 -20 8 0 15 -4 15 -10 0 -5 -7 -10 -15 -10 -12 0 -15
-13 -15 -55 0 -40 4 -57 15 -61 21 -8 19 -24 -3 -24 -31 0 -42 22 -42 81 0 36
-5 59 -12 63 -10 5 -10 7 0 12 6 3 12 14 12 25 0 10 7 19 15 19 8 0 15 -9 15
-20z m-9350 -30 c0 -6 8 -5 19 2 15 9 25 9 47 -1 19 -8 30 -9 38 -1 17 17 54
11 70 -12 22 -31 22 -138 1 -138 -12 0 -15 13 -15 58 0 74 -21 100 -54 66 -11
-10 -16 -34 -16 -70 0 -30 -4 -54 -10 -54 -5 0 -10 24 -10 53 0 64 -19 98 -47
81 -14 -8 -19 -26 -21 -73 -2 -45 -7 -61 -17 -61 -12 0 -15 17 -15 80 0 64 3
80 15 80 8 0 15 -5 15 -10z m337 -12 c13 -12 23 -32 23 -45 0 -21 -4 -23 -55
-23 -43 0 -55 -3 -55 -15 0 -24 47 -42 71 -27 30 19 44 14 24 -8 -18 -20 -69
-27 -91 -12 -37 24 -43 87 -13 126 25 32 64 34 96 4z m515 5 c14 -12 18 -31
18 -78 l0 -61 -55 -2 c-50 -1 -57 1 -67 23 -15 34 12 65 59 65 26 0 33 4 33
19 0 28 -17 35 -51 21 -35 -15 -46 -9 -24 14 21 21 63 21 87 -1z m88 5 c0 -9
3 -9 12 0 17 17 54 15 72 -4 22 -22 23 -144 1 -144 -12 0 -15 14 -15 64 0 69
-13 86 -51 66 -15 -9 -19 -22 -19 -70 0 -47 -3 -60 -15 -60 -12 0 -15 16 -15
80 0 64 3 80 15 80 8 0 15 -5 15 -12z m430 -68 c0 -64 -3 -80 -15 -80 -12 0
-15 16 -15 80 0 64 3 80 15 80 12 0 15 -16 15 -80z m404 58 c22 -31 22 -138 1
-138 -8 0 -15 5 -15 12 0 9 -3 9 -12 0 -7 -7 -24 -12 -38 -12 -32 0 -50 17
-50 47 0 26 27 43 69 43 24 0 31 4 31 19 0 25 -33 36 -59 19 -27 -16 -42 0
-17 18 30 21 72 17 90 -8z m86 10 c0 -9 3 -9 12 0 17 17 54 15 72 -4 22 -22
23 -144 1 -144 -12 0 -15 14 -15 64 0 69 -13 86 -51 66 -15 -9 -19 -22 -19
-70 0 -47 -3 -60 -15 -60 -12 0 -15 16 -15 80 0 64 3 80 15 80 8 0 15 -5 15
-12z m166 -40 c24 -77 25 -77 48 -13 12 32 27 60 34 63 19 6 14 -15 -26 -112
-27 -64 -43 -91 -59 -97 -17 -6 -23 -5 -23 6 0 8 6 15 14 15 26 0 25 28 -5
107 -34 92 -32 83 -15 83 8 0 22 -22 32 -52z m334 40 c0 -9 3 -9 12 0 13 13
48 16 48 5 0 -5 -14 -16 -30 -25 -28 -16 -30 -21 -30 -73 0 -30 -4 -55 -10
-55 -6 0 -10 33 -10 80 0 47 4 80 10 80 6 0 10 -5 10 -12z m110 -68 c0 -47 -4
-80 -10 -80 -6 0 -10 33 -10 80 0 47 4 80 10 80 6 0 10 -33 10 -80z m159 54
c12 -15 21 -35 21 -45 0 -16 -8 -19 -55 -19 -58 0 -71 -14 -39 -41 12 -10 22
-10 47 -1 35 13 45 9 27 -13 -7 -8 -28 -15 -46 -15 -46 0 -74 29 -74 77 0 74
77 111 119 57z m81 14 c0 -9 3 -9 12 0 17 17 54 15 72 -4 22 -22 23 -144 1
-144 -12 0 -15 14 -15 64 0 69 -13 86 -51 66 -15 -9 -19 -22 -19 -70 0 -47 -3
-60 -15 -60 -12 0 -15 16 -15 80 0 64 3 80 15 80 8 0 15 -5 15 -12z m779 -14
c12 -15 21 -35 21 -45 0 -16 -8 -19 -55 -19 -58 0 -71 -14 -39 -41 12 -10 22
-10 47 -1 35 13 45 9 27 -13 -7 -8 -28 -15 -46 -15 -46 0 -74 29 -74 77 0 74
77 111 119 57z m157 4 c19 -21 19 -21 -6 -14 -44 13 -64 12 -68 -5 -2 -12 9
-21 40 -30 33 -11 44 -20 46 -38 3 -15 -3 -30 -14 -38 -24 -18 -79 -16 -94 2
-18 22 -4 31 24 15 28 -15 56 -8 56 14 0 9 -16 20 -39 26 -47 12 -62 42 -35
71 23 25 66 24 90 -3z m364 10 c0 -9 3 -9 12 0 14 14 38 16 38 4 0 -5 -11 -14
-25 -20 -23 -10 -25 -17 -25 -72 0 -47 -3 -60 -15 -60 -12 0 -15 16 -15 80 0
64 3 80 15 80 8 0 15 -5 15 -12z m110 -68 c0 -64 -3 -80 -15 -80 -12 0 -15 16
-15 80 0 64 3 80 15 80 12 0 15 -16 15 -80z m150 60 c11 -11 20 -31 20 -45 0
-24 -3 -25 -55 -25 -57 0 -66 -8 -39 -34 18 -19 45 -21 61 -5 6 6 17 9 23 7
24 -8 -20 -38 -54 -38 -45 0 -71 30 -71 82 0 68 70 103 115 58z m80 9 c0 -8 4
-8 14 0 24 20 69 9 83 -19 19 -37 17 -130 -2 -130 -12 0 -15 13 -15 58 0 76
-27 104 -64 66 -11 -10 -16 -34 -16 -70 0 -30 -4 -54 -10 -54 -6 0 -10 33 -10
80 0 47 4 80 10 80 6 0 10 -5 10 -11z m520 -1 c0 -9 3 -9 12 0 14 14 38 16 38
4 0 -5 -11 -14 -25 -20 -23 -10 -25 -17 -25 -72 0 -47 -3 -60 -15 -60 -12 0
-15 16 -15 80 0 64 3 80 15 80 8 0 15 -5 15 -12z m189 -14 c12 -15 21 -35 21
-45 0 -16 -8 -19 -55 -19 -58 0 -71 -14 -39 -41 12 -10 22 -10 47 -1 35 13 45
9 27 -13 -7 -8 -28 -15 -46 -15 -46 0 -74 29 -74 77 0 74 77 111 119 57z m222
16 c16 -9 19 -22 19 -80 0 -40 -4 -70 -10 -70 -5 0 -10 5 -10 11 0 8 -4 8 -14
0 -21 -18 -66 -9 -82 14 -21 31 6 65 51 65 40 0 53 16 32 38 -13 13 -21 13
-42 4 -39 -18 -50 -15 -30 8 20 22 55 26 86 10z m197 -73 c2 -64 0 -77 -13
-77 -12 0 -15 15 -15 81 0 60 3 80 13 77 8 -3 13 -31 15 -81z m77 12 l22 -64
22 68 c13 38 28 67 36 67 19 0 -37 -154 -57 -158 -10 -2 -23 20 -42 70 -29 82
-31 91 -14 86 6 -2 21 -33 33 -69z m225 51 c11 -11 20 -31 20 -45 0 -24 -3
-25 -55 -25 -57 0 -66 -8 -39 -34 18 -19 45 -21 61 -5 6 6 17 9 23 7 24 -8
-20 -38 -54 -38 -45 0 -71 30 -71 82 0 68 70 103 115 58z m250 0 c25 -25 27
-95 3 -122 -22 -24 -77 -24 -103 2 -13 13 -20 33 -20 60 0 49 27 80 70 80 17
0 39 -9 50 -20z m80 10 c0 -6 10 -5 25 2 14 6 28 8 33 3 4 -4 1 -10 -7 -13
-34 -12 -51 -42 -51 -92 0 -27 -4 -50 -10 -50 -6 0 -10 33 -10 80 0 47 4 80
10 80 6 0 10 -4 10 -10z m374 -12 c22 -31 22 -138 1 -138 -8 0 -15 5 -15 12 0
9 -3 9 -12 0 -7 -7 -24 -12 -38 -12 -32 0 -50 17 -50 47 0 26 27 43 69 43 24
0 31 4 31 19 0 25 -33 36 -59 19 -27 -16 -42 0 -17 18 30 21 72 17 90 -8z m78
11 c3 -8 10 -8 26 2 17 11 26 11 41 2 15 -9 26 -9 50 0 52 19 65 3 69 -82 2
-44 -1 -71 -8 -71 -6 0 -10 25 -10 59 0 67 -15 90 -49 71 -18 -9 -21 -20 -21
-70 0 -47 -3 -60 -15 -60 -12 0 -15 14 -15 64 0 51 -3 65 -17 71 -29 10 -53
-29 -53 -86 0 -27 -4 -49 -10 -49 -6 0 -10 33 -10 80 0 44 4 80 9 80 5 0 11
-5 13 -11z m258 -69 c0 -47 -4 -80 -10 -80 -6 0 -10 33 -10 80 0 47 4 80 10
80 6 0 10 -33 10 -80z m151 13 l22 -68 22 64 c12 36 27 67 33 69 7 2 12 -1 12
-6 0 -16 -60 -175 -71 -188 -15 -19 -49 -24 -49 -8 0 8 7 14 15 14 28 0 27 25
-4 108 -22 61 -26 82 -16 82 8 0 23 -29 36 -67z m229 55 c0 -9 3 -9 12 0 7 7
21 12 33 12 12 0 26 -5 33 -12 9 -9 15 -9 24 0 17 17 54 15 72 -4 22 -22 23
-144 1 -144 -12 0 -15 14 -15 64 0 48 -4 65 -15 70 -37 14 -55 -15 -55 -91 0
-24 -4 -43 -10 -43 -6 0 -10 26 -10 59 0 67 -15 90 -49 71 -18 -9 -21 -20 -21
-70 0 -47 -3 -60 -15 -60 -12 0 -15 16 -15 80 0 64 3 80 15 80 8 0 15 -5 15
-12z m340 -8 c11 -11 20 -31 20 -45 0 -24 -3 -25 -55 -25 -57 0 -66 -8 -39
-34 18 -19 45 -21 61 -5 6 6 17 9 23 7 24 -8 -20 -38 -54 -38 -45 0 -71 30
-71 82 0 68 70 103 115 58z m80 8 c0 -9 3 -9 12 0 15 15 50 16 64 2 6 -6 21
-6 42 2 53 20 66 4 70 -81 3 -86 -14 -96 -20 -11 -5 68 -19 91 -46 74 -12 -8
-18 -28 -20 -73 -2 -45 -7 -61 -17 -61 -12 0 -15 14 -15 58 0 74 -21 100 -54
66 -11 -10 -16 -34 -16 -70 0 -30 -4 -54 -10 -54 -6 0 -10 33 -10 80 0 47 4
80 10 80 6 0 10 -5 10 -12z m522 -5 c8 -10 18 -30 22 -45 l6 -28 -60 0 c-58 0
-60 -1 -50 -21 15 -28 37 -34 66 -19 30 17 46 3 20 -16 -27 -19 -75 -18 -98 3
-26 23 -25 96 2 123 25 25 72 26 92 3z m78 7 c0 -6 10 -5 25 2 14 6 28 8 33 3
4 -4 1 -10 -7 -13 -34 -12 -51 -42 -51 -92 0 -27 -4 -50 -10 -50 -6 0 -10 33
-10 80 0 47 4 80 10 80 6 0 10 -4 10 -10z m389 -16 c12 -15 21 -35 21 -45 0
-16 -8 -19 -55 -19 -58 0 -71 -14 -39 -41 12 -10 22 -10 47 -1 35 13 45 9 27
-13 -7 -8 -28 -15 -46 -15 -46 0 -74 29 -74 77 0 74 77 111 119 57z m82 -5
l22 -31 19 31 c11 17 26 31 34 31 10 0 7 -11 -12 -40 l-27 -40 27 -40 c20 -30
23 -40 11 -40 -8 0 -22 11 -31 25 -9 14 -20 25 -25 25 -5 0 -15 -11 -21 -25
-6 -14 -17 -25 -25 -25 -18 0 -16 10 7 40 11 14 20 32 20 40 0 8 -9 26 -20 40
-22 28 -25 40 -11 40 5 0 20 -14 32 -31z m221 14 c22 -20 23 -33 3 -33 -8 0
-15 4 -15 9 0 18 -33 21 -56 6 -30 -20 -32 -65 -3 -91 20 -18 22 -18 51 -1 37
21 48 15 23 -13 -24 -27 -76 -26 -101 1 -28 31 -25 96 5 120 29 23 68 24 93 2z
m167 -9 c12 -15 21 -35 21 -45 0 -16 -8 -19 -55 -19 -58 0 -71 -14 -39 -41 12
-10 22 -10 47 -1 35 13 45 9 27 -13 -7 -8 -28 -15 -46 -15 -46 0 -74 29 -74
77 0 74 77 111 119 57z m81 14 c0 -9 3 -9 12 0 18 18 56 14 78 -8 25 -25 27
-95 3 -122 -18 -20 -63 -24 -81 -6 -9 9 -12 4 -12 -25 0 -26 -4 -37 -15 -37
-12 0 -15 18 -15 105 0 87 3 105 15 105 8 0 15 -5 15 -12z m652 -5 c14 -12 18
-31 18 -78 l0 -61 -55 -2 c-50 -1 -57 1 -67 23 -15 34 12 65 59 65 26 0 33 4
33 19 0 28 -17 35 -51 21 -35 -15 -46 -9 -24 14 21 21 63 21 87 -1z m88 5 c0
-9 3 -9 12 0 7 7 21 12 33 12 12 0 26 -5 33 -12 9 -9 15 -9 24 0 17 17 54 15
72 -4 22 -22 23 -144 1 -144 -12 0 -15 14 -15 64 0 48 -4 65 -15 70 -37 14
-55 -15 -55 -91 0 -24 -4 -43 -10 -43 -6 0 -10 26 -10 59 0 67 -15 90 -49 71
-18 -9 -21 -20 -21 -70 0 -47 -3 -60 -15 -60 -12 0 -15 16 -15 80 0 64 3 80
15 80 8 0 15 -5 15 -12z m258 -71 c2 -64 0 -77 -13 -77 -12 0 -15 15 -15 81 0
60 3 80 13 77 8 -3 13 -31 15 -81z m372 -57 c0 -5 -5 -12 -11 -16 -14 -8 -33
11 -25 25 7 11 36 4 36 -9z m-7473 -30 c-13 -49 -27 -52 -27 -7 0 36 6 47 25
47 9 0 10 -10 2 -40z m1653 31 c0 -4 -5 -22 -11 -40 -12 -35 -35 -43 -25 -8 3
12 6 30 6 40 0 9 7 17 15 17 8 0 15 -4 15 -9z"/>
<path d="M1316 1654 c-9 -8 -16 -31 -16 -50 0 -27 5 -37 26 -46 23 -11 29 -10
45 11 24 30 24 56 -1 81 -24 24 -34 25 -54 4z"/>
<path d="M7697 1633 c-13 -12 -7 -60 8 -73 38 -31 96 27 65 65 -13 15 -61 21
-73 8z"/>
<path d="M10478 1659 c-13 -7 -18 -22 -18 -50 0 -33 4 -41 25 -51 21 -9 29 -9
42 5 22 22 21 76 -2 93 -22 16 -25 17 -47 3z"/>
<path d="M477 1662 c-22 -54 -22 -52 13 -52 34 0 38 15 16 65 l-12 29 -17 -42z"/>
<path d="M8860 1685 c0 -32 2 -35 29 -35 24 0 61 21 61 35 0 14 -37 35 -61 35
-27 0 -29 -3 -29 -35z"/>
<path d="M8860 1590 c0 -36 2 -40 26 -40 36 0 64 17 64 40 0 23 -28 40 -64 40
-24 0 -26 -4 -26 -40z"/>
<path d="M1482 1588 c-8 -8 -9 -15 -1 -25 21 -25 69 -9 69 24 0 16 -52 17 -68
1z"/>
<path d="M1916 1654 c-25 -25 -19 -34 24 -34 44 0 55 21 21 40 -25 13 -27 13
-45 -6z"/>
<path d="M2592 1654 c-38 -26 -21 -104 23 -104 23 0 45 30 45 60 0 26 -22 60
-38 60 -4 0 -18 -7 -30 -16z"/>
<path d="M3279 1660 c-25 -15 -32 -58 -14 -86 30 -47 75 -24 75 38 0 27 -5 40
-19 48 -23 12 -22 12 -42 0z"/>
<path d="M4448 1659 c-33 -19 -21 -39 22 -39 44 0 55 21 21 40 -23 12 -22 12
-43 -1z"/>
<path d="M5037 1652 c-25 -27 -21 -32 23 -32 44 0 55 21 21 40 -25 13 -25 13
-44 -8z"/>
<path d="M5544 1585 c-13 -34 31 -48 60 -19 25 24 19 34 -19 34 -22 0 -38 -6
-41 -15z"/>
<path d="M6066 1654 c-9 -8 -16 -31 -16 -50 0 -27 5 -37 26 -46 23 -11 29 -10
45 11 24 30 24 56 -1 81 -24 24 -34 25 -54 4z"/>
<path d="M6586 1654 c-26 -25 -20 -72 9 -86 21 -9 28 -8 45 7 25 23 25 50 0
75 -24 24 -34 25 -54 4z"/>
<path d="M6848 1659 c-12 -7 -18 -22 -18 -47 0 -41 14 -62 41 -62 41 0 59 81
24 106 -22 16 -25 17 -47 3z"/>
<path d="M7168 1659 c-33 -19 -21 -39 22 -39 44 0 55 21 21 40 -23 12 -22 12
-43 -1z"/>
<path d="M8118 1659 c-33 -19 -21 -39 22 -39 44 0 55 21 21 40 -23 12 -22 12
-43 -1z"/>
<path d="M8264 1585 c-13 -34 31 -48 60 -19 25 24 19 34 -19 34 -22 0 -38 -6
-41 -15z"/>
<path d="M9644 1585 c-13 -34 31 -48 60 -19 25 24 19 34 -19 34 -22 0 -38 -6
-41 -15z"/>
<path d="M10062 1588 c-8 -8 -9 -15 -1 -25 21 -25 69 -9 69 24 0 16 -52 17
-68 1z"/>
<path d="M10646 1654 c-25 -25 -19 -34 24 -34 44 0 55 21 21 40 -25 13 -27 13
-45 -6z"/>
<path d="M10818 1659 c-33 -19 -21 -39 22 -39 44 0 55 21 21 40 -23 12 -22 12
-43 -1z"/>
<path d="M1226 1254 c-31 -30 -11 -104 28 -104 19 0 46 34 46 58 0 22 -32 62
-49 62 -5 0 -17 -7 -25 -16z"/>
<path d="M6182 1254 c-38 -26 -21 -104 23 -104 44 0 59 80 20 106 -18 12 -24
11 -43 -2z"/>
<path d="M7062 1254 c-38 -26 -21 -104 23 -104 44 0 59 80 20 106 -18 12 -24
11 -43 -2z"/>
<path d="M8106 1254 c-9 -8 -16 -31 -16 -50 0 -27 5 -37 26 -46 23 -11 29 -10
45 11 24 30 24 56 -1 81 -24 24 -34 25 -54 4z"/>
<path d="M8378 1259 c-13 -7 -18 -22 -18 -50 0 -33 4 -41 25 -51 21 -9 29 -9
42 5 22 22 21 76 -2 93 -22 16 -25 17 -47 3z"/>
<path d="M9666 1254 c-9 -8 -16 -31 -16 -50 0 -27 5 -37 26 -46 23 -11 29 -10
45 11 24 30 24 56 -1 81 -24 24 -34 25 -54 4z"/>
<path d="M616 1254 c-25 -25 -19 -34 24 -34 44 0 55 21 21 40 -25 13 -27 13
-45 -6z"/>
<path d="M886 1254 c-25 -25 -19 -34 24 -34 44 0 55 21 21 40 -25 13 -27 13
-45 -6z"/>
<path d="M1978 1259 c-33 -19 -21 -39 22 -39 44 0 55 21 21 40 -23 12 -22 12
-43 -1z"/>
<path d="M2448 1259 c-33 -19 -21 -39 22 -39 44 0 49 8 22 33 -21 20 -21 20
-44 6z"/>
<path d="M2718 1259 c-33 -19 -21 -39 22 -39 44 0 55 21 21 40 -23 12 -22 12
-43 -1z"/>
<path d="M3139 1260 c-25 -15 -32 -58 -14 -86 30 -47 75 -24 75 38 0 27 -5 40
-19 48 -23 12 -22 12 -42 0z"/>
<path d="M3474 1185 c-8 -19 3 -35 25 -35 20 0 41 19 41 37 0 18 -59 17 -66
-2z"/>
<path d="M4118 1259 c-12 -7 -18 -22 -18 -47 0 -41 14 -62 41 -62 41 0 59 81
24 106 -22 16 -25 17 -47 3z"/>
<path d="M4437 1252 c-25 -27 -21 -32 23 -32 44 0 55 21 21 40 -25 13 -25 13
-44 -8z"/>
<path d="M4674 1185 c-8 -19 3 -35 25 -35 20 0 41 19 41 37 0 18 -59 17 -66
-2z"/>
<path d="M5408 1259 c-12 -7 -18 -22 -18 -47 0 -41 14 -62 41 -62 41 0 59 81
24 106 -22 16 -25 17 -47 3z"/>
<path d="M5656 1254 c-26 -25 -20 -72 9 -86 21 -9 28 -8 45 7 25 23 25 50 0
75 -24 24 -34 25 -54 4z"/>
<path d="M5838 1259 c-12 -7 -18 -22 -18 -47 0 -41 14 -62 41 -62 41 0 59 81
24 106 -22 16 -25 17 -47 3z"/>
<path d="M6006 1254 c-9 -8 -16 -31 -16 -50 0 -27 5 -37 25 -46 53 -24 91 62
43 96 -28 20 -33 20 -52 0z"/>
<path d="M6728 1259 c-33 -19 -21 -39 22 -39 44 0 49 8 22 33 -21 20 -21 20
-44 6z"/>
<path d="M7699 1260 c-25 -15 -32 -58 -14 -86 30 -47 75 -24 75 38 0 27 -5 40
-19 48 -23 12 -22 12 -42 0z"/>
<path d="M8546 1254 c-25 -25 -19 -34 24 -34 44 0 55 21 21 40 -25 13 -27 13
-45 -6z"/>
<path d="M9258 1259 c-12 -7 -18 -22 -18 -47 0 -41 14 -62 41 -62 41 0 59 81
24 106 -22 16 -25 17 -47 3z"/>
<path d="M10666 1254 c-9 -8 -16 -31 -16 -50 0 -27 5 -37 25 -46 53 -24 91 62
43 96 -28 20 -33 20 -52 0z"/>
<path d="M11087 1252 c-25 -27 -21 -32 23 -32 44 0 55 21 21 40 -25 13 -25 13
-44 -8z"/>
<path d="M1346 854 c-9 -8 -16 -31 -16 -50 0 -27 5 -37 26 -46 23 -11 29 -10
45 11 24 30 24 56 -1 81 -24 24 -34 25 -54 4z"/>
<path d="M4478 859 c-12 -7 -18 -22 -18 -47 0 -41 14 -62 41 -62 41 0 59 81
24 106 -22 16 -25 17 -47 3z"/>
<path d="M9806 854 c-9 -8 -16 -31 -16 -50 0 -27 5 -37 26 -46 23 -11 29 -10
45 11 24 30 24 56 -1 81 -24 24 -34 25 -54 4z"/>
<path d="M10056 854 c-9 -8 -16 -31 -16 -50 0 -27 5 -37 26 -46 23 -11 29 -10
45 11 24 30 24 56 -1 81 -24 24 -34 25 -54 4z"/>
<path d="M2532 861 c-16 -52 -16 -51 19 -51 32 0 33 2 8 68 -11 30 -14 28 -27
-17z"/>
<path d="M767 852 c-25 -27 -21 -32 23 -32 44 0 55 21 21 40 -25 13 -25 13
-44 -8z"/>
<path d="M1004 785 c-8 -19 3 -35 25 -35 20 0 41 19 41 37 0 18 -59 17 -66 -2z"/>
<path d="M1594 785 c-8 -19 3 -35 25 -35 20 0 41 19 41 37 0 18 -59 17 -66 -2z"/>
<path d="M1766 854 c-26 -25 -20 -72 9 -86 21 -9 28 -8 45 7 25 23 25 50 0 75
-24 24 -34 25 -54 4z"/>
<path d="M1932 788 c-8 -8 -9 -15 -1 -25 21 -25 69 -9 69 24 0 16 -52 17 -68
1z"/>
<path d="M2924 785 c-8 -19 3 -35 25 -35 20 0 41 19 41 37 0 18 -59 17 -66 -2z"/>
<path d="M3438 859 c-33 -19 -21 -39 22 -39 44 0 55 21 21 40 -23 12 -22 12
-43 -1z"/>
<path d="M3708 859 c-33 -19 -21 -39 22 -39 44 0 55 21 21 40 -23 12 -22 12
-43 -1z"/>
<path d="M3950 850 c-25 -25 -25 -41 -1 -71 16 -21 22 -22 45 -11 21 9 26 19
26 46 0 25 -6 38 -19 46 -26 13 -28 13 -51 -10z"/>
<path d="M4132 854 c-38 -26 -21 -104 23 -104 23 0 45 30 45 60 0 26 -22 60
-38 60 -4 0 -18 -7 -30 -16z"/>
<path d="M4309 860 c-25 -15 -32 -58 -14 -86 30 -47 75 -24 75 38 0 27 -5 40
-19 48 -23 12 -22 12 -42 0z"/>
<path d="M4722 788 c-8 -8 -9 -15 -1 -25 21 -25 69 -9 69 24 0 16 -52 17 -68
1z"/>
<path d="M5062 854 c-44 -31 -13 -115 37 -99 38 12 41 77 6 101 -18 12 -24 11
-43 -2z"/>
<path d="M5672 788 c-8 -8 -9 -15 -1 -25 21 -25 69 -9 69 24 0 16 -52 17 -68
1z"/>
<path d="M6177 852 c-25 -27 -21 -32 23 -32 44 0 55 21 21 40 -25 13 -25 13
-44 -8z"/>
<path d="M6426 854 c-9 -8 -16 -31 -16 -50 0 -27 5 -37 25 -46 53 -24 91 62
43 96 -28 20 -33 20 -52 0z"/>
<path d="M7276 854 c-25 -25 -19 -34 24 -34 44 0 55 21 21 40 -25 13 -27 13
-45 -6z"/>
<path d="M7594 785 c-8 -19 3 -35 25 -35 20 0 41 19 41 37 0 18 -59 17 -66 -2z"/>
<path d="M8227 852 c-25 -27 -21 -32 23 -32 44 0 55 21 21 40 -25 13 -25 13
-44 -8z"/>
<path d="M8906 854 c-25 -25 -19 -34 24 -34 44 0 55 21 21 40 -25 13 -27 13
-45 -6z"/>
<path d="M9568 859 c-33 -19 -21 -39 22 -39 44 0 49 8 22 33 -21 20 -21 20
-44 6z"/>
<path d="M10579 860 c-25 -15 -32 -58 -14 -86 30 -47 75 -24 75 38 0 27 -5 40
-19 48 -23 12 -22 12 -42 0z"/>
<path d="M10847 852 c-25 -27 -21 -32 23 -32 44 0 55 21 21 40 -25 13 -25 13
-44 -8z"/>
<path d="M11198 859 c-12 -7 -18 -22 -18 -47 0 -41 14 -62 41 -62 41 0 59 81
24 106 -22 16 -25 17 -47 3z"/>
<path d="M1532 454 c-38 -26 -21 -104 23 -104 44 0 59 80 20 106 -18 12 -24
11 -43 -2z"/>
<path d="M1782 454 c-38 -26 -21 -104 23 -104 44 0 59 80 20 106 -18 12 -24
11 -43 -2z"/>
<path d="M3227 458 c-27 -21 -31 -61 -9 -88 17 -22 23 -23 46 -12 21 9 26 19
26 46 0 31 -20 66 -39 66 -4 0 -15 -6 -24 -12z"/>
<path d="M3575 456 c-35 -25 -17 -106 24 -106 27 0 41 21 41 62 0 27 -5 40
-19 48 -25 13 -23 13 -46 -4z"/>
<path d="M4868 459 c-12 -7 -18 -22 -18 -47 0 -41 14 -62 41 -62 41 0 59 81
24 106 -22 16 -25 17 -47 3z"/>
<path d="M8230 450 c-25 -25 -26 -62 -2 -83 23 -21 36 -21 56 -1 29 29 11 104
-25 104 -5 0 -18 -9 -29 -20z"/>
<path d="M10566 454 c-9 -8 -16 -31 -16 -50 0 -27 5 -37 26 -46 23 -11 29 -10
45 11 24 30 24 56 -1 81 -24 24 -34 25 -54 4z"/>
<path d="M596 454 c-25 -25 -19 -34 24 -34 44 0 55 21 21 40 -25 13 -27 13
-45 -6z"/>
<path d="M1104 385 c-8 -19 3 -35 25 -35 20 0 41 19 41 37 0 18 -59 17 -66 -2z"/>
<path d="M2024 385 c-8 -19 3 -35 25 -35 20 0 41 19 41 37 0 18 -59 17 -66 -2z"/>
<path d="M2888 459 c-33 -19 -21 -39 22 -39 44 0 55 21 21 40 -23 12 -22 12
-43 -1z"/>
<path d="M3748 459 c-33 -19 -21 -39 22 -39 44 0 55 21 21 40 -23 12 -22 12
-43 -1z"/>
<path d="M4527 452 c-25 -27 -21 -32 23 -32 44 0 55 21 21 40 -25 13 -25 13
-44 -8z"/>
<path d="M5318 459 c-33 -19 -21 -39 22 -39 44 0 55 21 21 40 -23 12 -22 12
-43 -1z"/>
<path d="M5534 385 c-13 -34 31 -48 60 -19 25 24 19 34 -19 34 -22 0 -38 -6
-41 -15z"/>
<path d="M6037 452 c-25 -27 -21 -32 23 -32 44 0 55 21 21 40 -25 13 -25 13
-44 -8z"/>
<path d="M6288 459 c-12 -7 -18 -22 -18 -47 0 -41 14 -62 41 -62 41 0 59 81
24 106 -22 16 -25 17 -47 3z"/>
<path d="M6734 385 c-8 -19 3 -35 25 -35 20 0 41 19 41 37 0 18 -59 17 -66 -2z"/>
<path d="M7797 452 c-25 -27 -21 -32 23 -32 44 0 55 21 21 40 -25 13 -25 13
-44 -8z"/>
<path d="M8408 459 c-33 -19 -21 -39 22 -39 44 0 49 8 22 33 -21 20 -21 20
-44 6z"/>
<path d="M8868 459 c-33 -19 -21 -39 22 -39 44 0 55 21 21 40 -23 12 -22 12
-43 -1z"/>
<path d="M9338 459 c-33 -19 -21 -39 22 -39 44 0 55 21 21 40 -23 12 -22 12
-43 -1z"/>
<path d="M9506 454 c-9 -8 -16 -31 -16 -50 0 -27 5 -37 26 -46 23 -11 29 -10
45 11 24 30 24 56 -1 81 -24 24 -34 25 -54 4z"/>
<path d="M10064 385 c-8 -19 3 -35 25 -35 20 0 41 19 41 37 0 18 -59 17 -66
-2z"/>
</g>
</svg>
