<?xml version="1.0" standalone="no"?>
<!DOCTYPE svg PUBLIC "-//W3C//DTD SVG 20010904//EN"
 "http://www.w3.org/TR/2001/REC-SVG-20010904/DTD/svg10.dtd">
<svg version="1.0" xmlns="http://www.w3.org/2000/svg"
 width="839.2" height="727.08" viewBox="0 0 1206.000000 278.000000"
 preserveAspectRatio="xMidYMid meet">

<g transform="translate(0.000000,278.000000) scale(0.100000,-0.100000)"
fill="#000000" stroke="none">
<path d="M0 1390 l0 -1390 6030 0 6030 0 0 1390 0 1390 -6030 0 -6030 0 0
-1390z m970 1155 c0 -8 -7 -15 -15 -15 -8 0 -15 7 -15 15 0 8 7 15 15 15 8 0
15 -7 15 -15z m70 -95 c0 -91 -3 -110 -15 -110 -12 0 -15 19 -15 110 0 91 3
110 15 110 12 0 15 -19 15 -110z m70 0 c0 -91 -3 -110 -15 -110 -12 0 -15 19
-15 110 0 91 3 110 15 110 12 0 15 -19 15 -110z m1130 68 c0 -33 3 -39 12 -30
17 17 48 15 70 -5 24 -22 27 -143 3 -143 -12 0 -15 14 -15 64 0 69 -13 86 -51
66 -15 -9 -19 -22 -19 -70 0 -47 -3 -60 -15 -60 -12 0 -15 19 -15 110 0 91 3
110 15 110 11 0 15 -11 15 -42z m170 27 c0 -8 -7 -15 -15 -15 -8 0 -15 7 -15
15 0 8 7 15 15 15 8 0 15 -7 15 -15z m405 6 c7 -12 -12 -24 -25 -16 -11 7 -4
25 10 25 5 0 11 -4 15 -9z m65 -101 c0 -67 -4 -110 -10 -110 -6 0 -10 43 -10
110 0 67 4 110 10 110 6 0 10 -43 10 -110z m70 0 c0 -67 -4 -110 -10 -110 -6
0 -10 43 -10 110 0 67 4 110 10 110 6 0 10 -43 10 -110z m260 68 c0 -33 3 -39
12 -30 17 17 54 15 72 -4 18 -18 23 -144 6 -144 -5 0 -10 19 -10 43 0 80 -20
108 -61 87 -15 -9 -19 -22 -19 -70 0 -47 -3 -60 -15 -60 -12 0 -15 19 -15 110
0 91 3 110 15 110 11 0 15 -11 15 -42z m860 -68 c0 -67 -4 -110 -10 -110 -5 0
-10 5 -10 10 0 7 -6 7 -19 0 -32 -17 -69 -12 -85 12 -23 32 -20 94 4 118 21
21 65 27 75 10 13 -22 25 -8 25 30 0 22 5 40 10 40 6 0 10 -43 10 -110z m370
100 c0 -5 -7 -10 -15 -10 -8 0 -15 -9 -15 -20 0 -11 7 -20 15 -20 8 0 15 -4
15 -10 0 -5 -7 -10 -15 -10 -12 0 -15 -14 -15 -70 0 -56 -3 -70 -15 -70 -12 0
-15 14 -15 70 0 56 -3 70 -15 70 -8 0 -15 5 -15 10 0 6 7 10 15 10 8 0 15 8
15 18 0 10 5 23 12 30 15 15 48 16 48 2z m245 1 c7 -12 -12 -24 -25 -16 -11 7
-4 25 10 25 5 0 11 -4 15 -9z m1253 -3 c-6 -18 -28 -21 -28 -4 0 9 7 16 16 16
9 0 14 -5 12 -12z m1292 -98 c0 -91 -3 -110 -15 -110 -8 0 -15 5 -15 12 0 9
-3 9 -12 0 -19 -19 -63 -14 -84 9 -11 13 -19 35 -19 59 0 64 45 97 96 70 17
-10 19 -7 19 30 0 29 4 40 15 40 12 0 15 -19 15 -110z m300 68 c0 -33 3 -39
12 -30 19 19 63 14 84 -9 42 -47 12 -139 -46 -139 -14 0 -31 5 -38 12 -9 9
-12 9 -12 0 0 -7 -7 -12 -15 -12 -12 0 -15 19 -15 110 0 91 3 110 15 110 11 0
15 -11 15 -42z m450 0 c0 -33 3 -39 12 -30 19 19 63 14 84 -9 42 -47 12 -139
-46 -139 -14 0 -31 5 -38 12 -9 9 -12 9 -12 0 0 -7 -7 -12 -15 -12 -12 0 -15
19 -15 110 0 91 3 110 15 110 11 0 15 -11 15 -42z m1218 30 c-6 -18 -28 -21
-28 -4 0 9 7 16 16 16 9 0 14 -5 12 -12z m1208 -11 c54 -47 37 -183 -24 -199
-55 -15 -95 40 -89 121 3 44 9 59 31 78 15 13 33 23 41 23 8 0 26 -10 41 -23z
m-9950 -9 c-3 -13 -6 -31 -6 -40 0 -10 -4 -18 -10 -18 -5 0 -10 18 -10 40 0
30 4 40 16 40 12 0 15 -6 10 -22z m54 -18 c0 -29 -4 -40 -15 -40 -11 0 -15 11
-15 40 0 29 4 40 15 40 11 0 15 -11 15 -40z m80 -65 c0 -87 -3 -105 -15 -105
-12 0 -15 18 -15 105 0 87 3 105 15 105 12 0 15 -18 15 -105z m4750 0 c0 -63
-4 -105 -10 -105 -6 0 -10 42 -10 105 0 63 4 105 10 105 6 0 10 -42 10 -105z
m4365 23 c17 -42 33 -79 36 -82 3 -4 21 32 40 79 24 61 39 85 52 85 15 0 17
-12 17 -105 0 -85 -3 -105 -15 -105 -11 0 -15 17 -17 73 l-3 72 -29 -72 c-16
-40 -35 -73 -41 -73 -7 0 -25 30 -40 68 -15 37 -32 71 -37 77 -4 5 -8 -25 -8
-68 0 -45 -4 -77 -10 -77 -6 0 -10 42 -10 106 0 94 2 105 17 102 10 -2 28 -32
48 -80z m345 72 c0 -5 -16 -10 -35 -10 l-35 0 0 -95 c0 -78 -3 -95 -15 -95
-12 0 -15 17 -15 95 l0 95 -35 0 c-19 0 -35 5 -35 10 0 6 35 10 85 10 50 0 85
-4 85 -10z m190 -95 c0 -87 -3 -105 -15 -105 -12 0 -15 17 -15 90 l0 90 -25
-16 c-17 -11 -25 -12 -25 -4 0 16 41 49 63 50 15 0 17 -12 17 -105z m320 0 c0
-87 -3 -105 -15 -105 -12 0 -15 17 -15 90 l0 90 -25 -16 c-37 -24 -45 -6 -10
22 58 46 65 37 65 -81z m-8770 75 c0 -13 7 -20 20 -20 11 0 20 -4 20 -9 0 -5
-9 -11 -20 -14 -16 -4 -20 -14 -20 -51 0 -35 5 -49 20 -58 28 -18 25 -30 -7
-26 -27 3 -28 6 -31 66 -2 44 -7 65 -17 69 -20 7 -19 23 0 23 8 0 15 9 15 20
0 11 5 20 10 20 6 0 10 -9 10 -20z m350 1 c0 -10 10 -22 23 -26 l22 -8 -22 -4
c-21 -4 -23 -10 -23 -60 0 -46 3 -56 20 -60 28 -7 25 -23 -5 -23 -32 0 -45 26
-45 89 0 30 -5 52 -12 55 -10 5 -10 7 0 12 6 3 12 14 12 25 0 10 7 19 15 19 8
0 15 -8 15 -19z m580 -1 c0 -11 7 -20 15 -20 8 0 15 -4 15 -10 0 -5 -7 -10
-15 -10 -12 0 -15 -13 -15 -55 0 -40 4 -57 15 -61 21 -8 19 -24 -3 -24 -31 0
-42 22 -42 81 0 36 -5 59 -12 63 -10 5 -10 7 0 12 6 3 12 14 12 25 0 10 7 19
15 19 8 0 15 -9 15 -20z m390 0 c0 -13 7 -20 20 -20 11 0 20 -4 20 -9 0 -5 -9
-11 -20 -14 -16 -4 -20 -14 -20 -51 0 -35 5 -49 20 -58 28 -18 25 -30 -7 -26
-27 3 -28 6 -31 66 -2 44 -7 65 -17 69 -20 7 -19 23 0 23 8 0 15 9 15 20 0 11
5 20 10 20 6 0 10 -9 10 -20z m1480 0 c0 -11 7 -20 15 -20 8 0 15 -4 15 -10 0
-5 -7 -10 -15 -10 -12 0 -15 -13 -15 -55 0 -40 4 -57 15 -61 21 -8 19 -24 -3
-24 -31 0 -42 22 -42 81 0 36 -5 59 -12 63 -10 5 -10 7 0 12 6 3 12 14 12 25
0 10 7 19 15 19 8 0 15 -9 15 -20z m1597 0 c3 -11 12 -20 19 -20 8 0 14 -4 14
-10 0 -5 -7 -10 -15 -10 -12 0 -15 -13 -15 -55 0 -40 4 -57 15 -61 21 -8 19
-24 -3 -24 -31 0 -42 22 -42 82 0 45 -3 58 -15 58 -8 0 -15 5 -15 10 0 6 7 10
15 10 8 0 15 9 15 20 0 11 5 20 11 20 6 0 13 -9 16 -20z m183 0 c0 -11 7 -20
15 -20 8 0 15 -4 15 -10 0 -5 -7 -10 -15 -10 -12 0 -15 -13 -15 -55 0 -40 4
-57 15 -61 21 -8 19 -24 -3 -24 -31 0 -42 22 -42 81 0 36 -5 59 -12 63 -10 5
-10 7 0 12 6 3 12 14 12 25 0 10 7 19 15 19 8 0 15 -9 15 -20z m2300 0 c0 -13
7 -20 20 -20 11 0 20 -4 20 -9 0 -5 -9 -11 -20 -14 -16 -4 -20 -14 -20 -51 0
-35 5 -49 20 -58 28 -18 25 -30 -7 -26 -27 3 -28 6 -31 66 -2 44 -7 65 -17 69
-20 7 -19 23 0 23 8 0 15 9 15 20 0 11 5 20 10 20 6 0 10 -9 10 -20z m-7929
-75 c7 -30 15 -55 19 -55 4 0 13 23 21 52 20 72 35 72 56 -3 18 -66 22 -65 43
19 6 23 15 42 20 42 14 0 12 -15 -9 -90 -21 -75 -45 -91 -56 -38 -4 18 -12 44
-18 58 -9 24 -11 22 -26 -30 -25 -81 -42 -76 -67 20 -17 62 -19 80 -9 80 8 0
19 -23 26 -55z m229 -25 c0 -64 -3 -80 -15 -80 -12 0 -15 16 -15 80 0 64 3 80
15 80 12 0 15 -16 15 -80z m358 68 c9 -9 12 -9 12 0 0 7 7 12 15 12 12 0 15
-18 15 -105 0 -87 -3 -105 -15 -105 -11 0 -15 11 -15 37 0 29 -3 34 -12 25
-17 -17 -58 -15 -80 5 -26 23 -25 96 2 123 22 22 60 26 78 8z m114 -55 c3 -59
6 -68 23 -71 36 -4 48 14 53 77 6 88 22 75 22 -19 0 -47 -4 -80 -10 -80 -5 0
-10 5 -10 12 0 9 -3 9 -12 0 -20 -20 -65 -14 -82 10 -21 30 -22 138 -1 138 11
0 15 -16 17 -67z m258 45 c27 -29 27 -91 0 -118 -24 -24 -77 -26 -102 -3 -26
23 -25 96 2 123 27 27 74 26 100 -2z m267 0 c13 -12 23 -32 23 -45 0 -21 -4
-23 -55 -23 -43 0 -55 -3 -55 -15 0 -24 47 -42 71 -27 30 19 44 14 24 -8 -18
-20 -69 -27 -91 -12 -37 24 -43 87 -13 126 25 32 64 34 96 4z m443 -58 c0 -64
-3 -80 -15 -80 -12 0 -15 16 -15 80 0 64 3 80 15 80 12 0 15 -16 15 -80z m136
66 c26 -20 10 -32 -21 -16 -22 12 -28 12 -42 -3 -15 -15 -13 -18 29 -36 52
-22 66 -46 42 -72 -21 -24 -77 -25 -99 -3 -21 22 -11 30 19 15 27 -15 57 -12
64 6 2 8 -16 21 -42 33 -37 15 -46 24 -46 44 0 42 56 60 96 32z m264 -66 c0
-47 -4 -80 -10 -80 -6 0 -10 33 -10 80 0 47 4 80 10 80 6 0 10 -33 10 -80z
m652 63 c8 -10 18 -30 22 -45 l6 -28 -60 0 c-58 0 -60 -1 -50 -21 15 -28 37
-34 66 -19 30 17 46 3 20 -16 -27 -19 -75 -18 -98 3 -26 23 -25 96 2 123 25
25 72 26 92 3z m245 -5 c13 -12 23 -32 23 -45 0 -21 -4 -23 -55 -23 -43 0 -55
-3 -55 -15 0 -24 47 -42 71 -27 30 19 44 14 24 -8 -18 -20 -69 -27 -91 -12
-37 24 -43 87 -13 126 25 32 64 34 96 4z m83 11 c0 -8 4 -8 14 0 24 20 69 9
83 -19 19 -37 17 -130 -2 -130 -12 0 -15 13 -15 58 0 76 -27 104 -64 66 -11
-10 -16 -34 -16 -70 0 -30 -4 -54 -10 -54 -6 0 -10 33 -10 80 0 47 4 80 10 80
6 0 10 -5 10 -11z m520 -9 c25 -25 27 -95 3 -122 -22 -24 -77 -24 -103 2 -13
13 -20 33 -20 60 0 49 27 80 70 80 17 0 39 -9 50 -20z m370 -60 c0 -47 -4 -80
-10 -80 -6 0 -10 33 -10 80 0 47 4 80 10 80 6 0 10 -33 10 -80z m70 68 c0 -9
3 -9 12 0 15 15 50 16 64 2 6 -6 21 -6 42 2 53 20 66 4 70 -81 3 -86 -14 -96
-20 -11 -5 68 -19 91 -46 74 -12 -8 -18 -28 -20 -73 -2 -45 -7 -61 -17 -61
-12 0 -15 14 -15 58 0 74 -21 100 -54 66 -11 -10 -16 -34 -16 -70 0 -30 -4
-54 -10 -54 -6 0 -10 33 -10 80 0 47 4 80 10 80 6 0 10 -5 10 -12z m340 -8
c11 -11 20 -31 20 -45 0 -24 -3 -25 -55 -25 -57 0 -66 -8 -39 -34 18 -19 45
-21 61 -5 6 6 17 9 23 7 24 -8 -20 -38 -54 -38 -45 0 -71 30 -71 82 0 68 70
103 115 58z m476 6 c26 -20 10 -32 -21 -16 -22 12 -28 12 -42 -3 -15 -15 -13
-18 29 -36 52 -22 66 -46 42 -72 -21 -24 -77 -25 -99 -3 -21 22 -11 30 19 15
27 -15 57 -12 64 6 2 8 -16 21 -42 33 -37 15 -46 24 -46 44 0 42 56 60 96 32z
m84 2 c0 -9 3 -9 12 0 18 18 56 14 78 -8 25 -25 27 -95 3 -122 -18 -20 -63
-24 -81 -6 -9 9 -12 4 -12 -25 0 -26 -4 -37 -15 -37 -12 0 -15 18 -15 105 0
87 3 105 15 105 8 0 15 -5 15 -12z m170 2 c0 -6 10 -5 25 2 14 6 28 8 33 3 4
-4 1 -10 -7 -13 -34 -12 -51 -42 -51 -92 0 -27 -4 -50 -10 -50 -6 0 -10 33
-10 80 0 47 4 80 10 80 6 0 10 -4 10 -10z m118 -73 c2 -64 0 -77 -13 -77 -12
0 -15 15 -15 81 0 60 3 80 13 77 8 -3 13 -31 15 -81z m65 71 c4 -10 7 -10 18
0 20 19 56 14 73 -10 21 -30 22 -138 1 -138 -10 0 -15 16 -17 61 -5 110 -67
106 -76 -5 -7 -84 -22 -67 -22 24 0 72 10 102 23 68z m547 -10 c27 -29 27 -91
0 -118 -24 -24 -77 -26 -102 -3 -26 23 -25 96 2 123 27 27 74 26 100 -2z m79
-43 c15 -64 20 -62 41 23 6 23 17 42 24 42 7 0 21 -27 31 -62 l18 -63 15 63
c10 40 21 62 30 62 8 0 12 -6 10 -12 -3 -7 -13 -43 -23 -80 -11 -40 -23 -68
-31 -68 -7 0 -21 27 -32 61 l-18 60 -19 -60 c-10 -34 -24 -61 -31 -61 -11 0
-28 46 -50 134 -5 22 -4 28 7 24 7 -2 20 -31 28 -63z m292 55 c16 -9 19 -22
19 -80 0 -40 -4 -70 -10 -70 -5 0 -10 5 -10 11 0 8 -4 8 -14 0 -21 -18 -66 -9
-82 14 -21 31 6 65 51 65 40 0 53 16 32 38 -13 13 -21 13 -42 4 -39 -18 -50
-15 -30 8 20 22 55 26 86 10z m89 -2 c0 -9 3 -9 12 0 13 13 48 16 48 5 0 -5
-14 -16 -30 -25 -28 -16 -30 -21 -30 -73 0 -30 -4 -55 -10 -55 -6 0 -10 33
-10 80 0 47 4 80 10 80 6 0 10 -5 10 -12z m360 -3 c17 -21 6 -29 -20 -15 -12
6 -28 9 -36 6 -26 -10 -14 -33 26 -49 48 -18 59 -40 35 -67 -24 -26 -76 -26
-100 0 -14 16 -15 20 -4 20 8 0 20 -5 26 -11 15 -15 57 -7 61 12 2 12 -9 21
-40 30 -33 11 -44 20 -46 38 -7 44 69 71 98 36z m340 3 c0 -9 3 -9 12 0 14 14
38 16 38 4 0 -5 -11 -14 -25 -20 -23 -10 -25 -17 -25 -72 0 -47 -3 -60 -15
-60 -12 0 -15 16 -15 80 0 64 3 80 15 80 8 0 15 -5 15 -12z m182 -5 c14 -12
18 -31 18 -78 l0 -61 -55 -2 c-50 -1 -57 1 -67 23 -15 34 12 65 59 65 26 0 33
4 33 19 0 28 -17 35 -51 21 -35 -15 -46 -9 -24 14 21 21 63 21 87 -1z m348 -3
c11 -11 20 -31 20 -45 0 -24 -3 -25 -55 -25 -57 0 -66 -8 -39 -34 18 -19 45
-21 61 -5 6 6 17 9 23 7 24 -8 -20 -38 -54 -38 -45 0 -71 30 -71 82 0 68 70
103 115 58z m80 10 c0 -6 10 -5 25 2 14 6 28 8 33 3 4 -4 1 -10 -7 -13 -34
-12 -51 -42 -51 -92 0 -27 -4 -50 -10 -50 -6 0 -10 33 -10 80 0 47 4 80 10 80
6 0 10 -4 10 -10z m185 -6 c22 -22 11 -30 -19 -14 -14 7 -32 10 -40 7 -30 -12
-17 -35 27 -49 45 -14 60 -45 37 -74 -16 -18 -70 -18 -96 0 -24 18 -10 34 16
18 26 -16 45 -15 60 3 10 12 5 18 -33 34 -56 24 -63 35 -43 66 19 29 66 34 91
9z m346 -3 c18 -14 24 -29 24 -59 0 -51 -27 -82 -69 -82 -37 0 -49 7 -65 37
-41 79 43 159 110 104z m237 7 c9 -9 12 -9 12 0 0 7 7 12 15 12 24 0 21 -160
-3 -190 -23 -28 -89 -31 -109 -4 -17 24 -8 30 21 15 39 -21 70 -11 74 24 3 24
1 28 -9 18 -40 -40 -116 13 -105 71 4 16 14 38 23 48 18 20 63 24 81 6z m110
-71 c2 -64 0 -77 -13 -77 -12 0 -15 15 -15 81 0 60 3 80 13 77 8 -3 13 -31 15
-81z m77 12 l22 -64 22 68 c13 38 28 67 36 67 19 0 -37 -154 -57 -158 -10 -2
-23 20 -42 70 -29 82 -31 91 -14 86 6 -2 21 -33 33 -69z m225 51 c11 -11 20
-31 20 -45 0 -24 -3 -25 -55 -25 -57 0 -66 -8 -39 -34 18 -19 45 -21 61 -5 6
6 17 9 23 7 24 -8 -20 -38 -54 -38 -45 0 -71 30 -71 82 0 68 70 103 115 58z
m1302 3 c8 -10 18 -30 22 -45 l6 -28 -60 0 c-58 0 -60 -1 -50 -21 15 -28 37
-34 66 -19 30 17 46 3 20 -16 -27 -19 -75 -18 -98 3 -26 23 -25 96 2 123 25
25 72 26 92 3z m87 -13 l18 -30 25 32 c32 40 48 31 19 -10 -26 -37 -26 -50 -1
-82 23 -29 25 -40 7 -40 -7 0 -21 14 -31 31 l-18 31 -19 -31 c-10 -17 -26 -31
-35 -31 -13 0 -11 7 10 34 14 19 26 38 26 43 0 5 -11 25 -25 46 -20 29 -22 37
-10 37 8 0 24 -14 34 -30z m228 0 c19 -37 17 -130 -2 -130 -8 0 -15 5 -15 12
0 9 -3 9 -12 0 -7 -7 -24 -12 -38 -12 -32 0 -50 17 -50 47 0 26 27 43 69 43
34 0 41 19 16 40 -12 10 -21 10 -42 1 -31 -14 -41 -8 -23 14 21 25 82 16 97
-15z m73 18 c0 -9 3 -9 12 0 15 15 50 16 64 2 6 -6 21 -6 42 2 53 20 66 4 70
-81 3 -86 -14 -96 -20 -11 -5 68 -19 91 -46 74 -12 -8 -18 -28 -20 -73 -2 -45
-7 -61 -17 -61 -12 0 -15 14 -15 58 0 74 -21 100 -54 66 -11 -10 -16 -34 -16
-70 0 -30 -4 -54 -10 -54 -6 0 -10 33 -10 80 0 47 4 80 10 80 6 0 10 -5 10
-12z m-6004 -9 c10 -17 -13 -36 -27 -22 -12 12 -4 33 11 33 5 0 12 -5 16 -11z
m4 -119 c0 -5 -5 -12 -11 -16 -14 -8 -33 11 -25 25 7 11 36 4 36 -9z m-4547
-217 c-26 -18 -30 -43 -8 -43 8 0 15 -4 15 -10 0 -5 -7 -10 -15 -10 -12 0 -15
-14 -15 -70 0 -56 -3 -70 -15 -70 -12 0 -15 14 -15 69 0 46 -4 71 -12 74 -9 4
-10 8 -3 14 6 4 16 20 22 36 10 20 19 27 40 26 l28 0 -22 -16z m1057 -93 c0
-67 -4 -110 -10 -110 -5 0 -10 5 -10 12 0 9 -3 9 -12 0 -13 -13 -57 -16 -74
-4 -37 24 -43 87 -13 126 22 28 48 33 80 16 17 -10 19 -7 19 30 0 22 5 40 10
40 6 0 10 -43 10 -110z m235 101 c7 -12 -12 -24 -25 -16 -11 7 -4 25 10 25 5
0 11 -4 15 -9z m545 -1 c0 -5 -7 -10 -15 -10 -8 0 -15 -2 -15 -4 0 -2 -3 -11
-6 -20 -4 -12 0 -16 15 -16 27 0 27 -16 1 -23 -17 -4 -20 -14 -20 -71 0 -37
-4 -66 -10 -66 -6 0 -10 28 -10 65 0 49 -4 67 -15 71 -8 4 -15 10 -15 15 0 5
7 9 15 9 9 0 15 9 15 24 0 13 6 27 13 29 21 9 47 7 47 -3z m520 -100 c0 -91
-3 -110 -15 -110 -8 0 -15 5 -15 12 0 9 -3 9 -12 0 -17 -17 -58 -15 -80 5 -26
23 -25 96 2 123 22 22 60 26 78 8 9 -9 12 -3 12 30 0 31 4 42 15 42 12 0 15
-19 15 -110z m1400 0 c0 -67 -4 -110 -10 -110 -5 0 -10 5 -10 10 0 7 -6 7 -19
0 -32 -17 -69 -12 -85 12 -23 32 -20 94 4 118 21 21 65 27 75 10 13 -22 25 -8
25 30 0 22 5 40 10 40 6 0 10 -43 10 -110z m658 98 c-6 -18 -28 -21 -28 -4 0
9 7 16 16 16 9 0 14 -5 12 -12z m182 -98 c0 -91 -3 -110 -15 -110 -12 0 -15
19 -15 110 0 91 3 110 15 110 12 0 15 -19 15 -110z m530 0 c0 -91 -3 -110 -15
-110 -12 0 -15 19 -15 110 0 91 3 110 15 110 12 0 15 -19 15 -110z m70 43 l0
-67 38 37 c49 47 78 49 32 2 l-34 -35 32 -39 c36 -45 38 -51 18 -51 -7 0 -26
16 -40 35 -31 40 -46 38 -46 -6 0 -19 -5 -29 -15 -29 -12 0 -15 19 -15 110 0
91 3 110 15 110 12 0 15 -14 15 -67z m1160 -43 c0 -67 -4 -110 -10 -110 -5 0
-10 5 -10 10 0 7 -6 7 -19 0 -32 -17 -69 -12 -85 12 -23 32 -20 94 4 118 21
21 65 27 75 10 13 -22 25 -8 25 30 0 22 5 40 10 40 6 0 10 -43 10 -110z m1520
68 c0 -33 3 -39 12 -30 17 17 54 15 72 -4 18 -18 23 -144 6 -144 -5 0 -10 19
-10 43 0 80 -20 108 -61 87 -15 -9 -19 -22 -19 -70 0 -47 -3 -60 -15 -60 -12
0 -15 19 -15 110 0 91 3 110 15 110 11 0 15 -11 15 -42z m170 27 c0 -8 -7 -15
-15 -15 -8 0 -15 7 -15 15 0 8 7 15 15 15 8 0 15 -7 15 -15z m480 0 c0 -8 -7
-15 -15 -15 -8 0 -15 7 -15 15 0 8 7 15 15 15 8 0 15 -7 15 -15z m180 -95 c0
-91 -3 -110 -15 -110 -12 0 -15 19 -15 110 0 91 3 110 15 110 12 0 15 -19 15
-110z m1550 95 c0 -8 -7 -15 -15 -15 -8 0 -15 7 -15 15 0 8 7 15 15 15 8 0 15
-7 15 -15z m495 6 c7 -12 -12 -24 -25 -16 -11 7 -4 25 10 25 5 0 11 -4 15 -9z
m-1965 -41 c0 -29 -4 -40 -15 -40 -11 0 -15 11 -15 40 0 29 4 40 15 40 11 0
15 -11 15 -40z m-8710 10 c0 -13 7 -20 20 -20 11 0 20 -4 20 -9 0 -5 -9 -11
-20 -14 -16 -4 -20 -14 -20 -51 0 -35 5 -49 20 -58 28 -18 25 -30 -7 -26 -27
3 -28 6 -31 66 -2 44 -7 65 -17 69 -20 7 -19 23 0 23 8 0 15 9 15 20 0 11 5
20 10 20 6 0 10 -9 10 -20z m610 0 c0 -13 7 -20 20 -20 11 0 20 -4 20 -9 0 -5
-9 -11 -20 -14 -16 -4 -20 -14 -20 -51 0 -35 5 -49 20 -58 28 -18 25 -30 -7
-26 -27 3 -28 6 -31 66 -2 44 -7 65 -17 69 -20 7 -19 23 0 23 8 0 15 9 15 20
0 11 5 20 10 20 6 0 10 -9 10 -20z m2450 0 c0 -13 7 -20 20 -20 11 0 20 -4 20
-9 0 -5 -9 -11 -20 -14 -16 -4 -20 -14 -20 -51 0 -35 5 -49 20 -58 28 -18 25
-30 -7 -26 -27 3 -28 6 -31 66 -2 44 -7 65 -17 69 -20 7 -19 23 0 23 8 0 15 9
15 20 0 11 5 20 10 20 6 0 10 -9 10 -20z m3870 0 c0 -13 7 -20 20 -20 11 0 20
-4 20 -9 0 -5 -9 -11 -20 -14 -16 -4 -20 -14 -20 -51 0 -35 5 -49 20 -58 28
-18 25 -30 -7 -26 -27 3 -28 6 -31 66 -2 44 -7 65 -17 69 -20 7 -19 23 0 23 8
0 15 9 15 20 0 11 5 20 10 20 6 0 10 -9 10 -20z m777 0 c3 -11 12 -20 19 -20
8 0 14 -4 14 -10 0 -5 -7 -10 -15 -10 -12 0 -15 -13 -15 -55 0 -40 4 -57 15
-61 21 -8 19 -24 -3 -24 -31 0 -42 22 -42 82 0 45 -3 58 -15 58 -8 0 -15 5
-15 10 0 6 7 10 15 10 8 0 15 9 15 20 0 11 5 20 11 20 6 0 13 -9 16 -20z
m2383 0 c0 -11 7 -20 15 -20 8 0 15 -4 15 -10 0 -5 -7 -10 -15 -10 -12 0 -15
-13 -15 -55 0 -40 4 -57 15 -61 21 -8 19 -24 -3 -24 -31 0 -42 22 -42 81 0 36
-5 59 -12 63 -10 5 -10 7 0 12 6 3 12 14 12 25 0 10 7 19 15 19 8 0 15 -9 15
-20z m-10288 -37 c14 -12 18 -31 18 -78 l0 -61 -55 -2 c-50 -1 -57 1 -67 23
-15 34 12 65 59 65 26 0 33 4 33 19 0 28 -17 35 -51 21 -35 -15 -46 -9 -24 14
21 21 63 21 87 -1z m375 -5 c13 -12 23 -32 23 -45 0 -21 -4 -23 -55 -23 -43 0
-55 -3 -55 -15 0 -24 47 -42 71 -27 30 19 44 14 24 -8 -18 -20 -69 -27 -91
-12 -37 24 -43 87 -13 126 25 32 64 34 96 4z m83 10 c0 -9 3 -9 12 0 14 14 48
16 48 3 0 -5 -13 -14 -30 -20 -29 -10 -30 -12 -30 -70 0 -48 -3 -61 -15 -61
-12 0 -15 16 -15 80 0 64 3 80 15 80 8 0 15 -5 15 -12z m266 -10 c19 -21 19
-21 -6 -14 -44 13 -64 12 -68 -5 -2 -12 9 -21 40 -30 33 -11 44 -20 46 -38 3
-15 -3 -30 -14 -38 -24 -18 -79 -16 -94 2 -18 22 -4 31 24 15 28 -15 56 -8 56
14 0 9 -16 20 -39 26 -47 12 -62 42 -35 71 23 25 66 24 90 -3z m174 -29 c0
-58 13 -89 38 -89 31 0 42 22 42 82 0 45 3 58 15 58 12 0 15 -16 15 -80 0 -64
-3 -80 -15 -80 -8 0 -15 5 -15 12 0 9 -3 9 -12 0 -7 -7 -24 -12 -38 -12 -14 0
-31 5 -38 12 -15 15 -16 148 -2 148 6 0 10 -23 10 -51z m365 -20 l22 -64 22
68 c14 40 28 67 37 67 10 0 6 -19 -16 -81 -37 -100 -46 -116 -70 -129 -25 -13
-30 -13 -30 4 0 7 9 16 20 19 26 7 25 23 -5 103 -28 75 -30 87 -13 82 6 -2 21
-33 33 -69z m145 -9 c0 -47 -4 -80 -10 -80 -6 0 -10 33 -10 80 0 47 4 80 10
80 6 0 10 -33 10 -80z m70 69 c0 -8 4 -8 14 0 24 20 69 9 83 -19 19 -37 17
-130 -2 -130 -12 0 -15 13 -15 58 0 76 -27 104 -64 66 -11 -10 -16 -34 -16
-70 0 -30 -4 -54 -10 -54 -6 0 -10 33 -10 80 0 47 4 80 10 80 6 0 10 -5 10
-11z m239 -1 c11 -10 14 -10 18 0 3 6 9 12 14 12 11 0 12 -170 1 -187 -21 -33
-97 -35 -117 -3 -10 16 3 26 17 12 19 -19 66 -14 78 7 16 31 13 43 -9 31 -53
-28 -101 4 -101 65 0 57 63 96 99 63z m380 -14 c23 -30 27 -64 10 -97 -16 -30
-28 -37 -65 -37 -42 0 -69 31 -69 82 0 73 81 106 124 52z m81 14 c0 -9 3 -9
12 0 14 14 48 16 48 3 0 -5 -13 -14 -30 -20 -29 -10 -30 -12 -30 -70 0 -48 -3
-61 -15 -61 -12 0 -15 16 -15 80 0 64 3 80 15 80 8 0 15 -5 15 -12z m441 2
c16 -9 19 -22 19 -80 0 -40 -4 -70 -10 -70 -5 0 -10 5 -10 11 0 8 -4 8 -14 0
-21 -18 -66 -9 -82 14 -21 31 6 65 51 65 40 0 53 16 32 38 -13 13 -21 13 -42
4 -39 -18 -50 -15 -30 8 20 22 55 26 86 10z m94 -61 l22 -64 22 68 c14 40 28
67 37 67 10 0 6 -19 -16 -81 -37 -100 -46 -116 -70 -129 -25 -13 -30 -13 -30
4 0 7 9 16 20 19 26 7 25 23 -5 103 -28 75 -30 87 -13 82 6 -2 21 -33 33 -69z
m221 49 c19 -21 19 -21 -6 -14 -44 13 -64 12 -68 -5 -2 -12 9 -21 40 -30 33
-11 44 -20 46 -38 3 -15 -3 -30 -14 -38 -24 -18 -79 -16 -94 2 -18 22 -4 31
24 15 28 -15 56 -8 56 14 0 9 -16 20 -39 26 -47 12 -62 42 -35 71 23 25 66 24
90 -3z m225 12 c16 -9 19 -22 19 -80 0 -40 -4 -70 -10 -70 -5 0 -10 5 -10 11
0 8 -4 8 -14 0 -21 -18 -66 -9 -82 14 -21 31 6 65 51 65 40 0 53 16 32 38 -13
13 -21 13 -42 4 -39 -18 -50 -15 -30 8 20 22 55 26 86 10z m356 -12 c13 -12
23 -32 23 -45 0 -21 -4 -23 -55 -23 -43 0 -55 -3 -55 -15 0 -24 47 -42 71 -27
30 19 44 14 24 -8 -18 -20 -69 -27 -91 -12 -37 24 -43 87 -13 126 25 32 64 34
96 4z m83 11 c0 -8 4 -8 14 0 24 20 69 9 83 -19 19 -37 17 -130 -2 -130 -12 0
-15 13 -15 58 0 76 -27 104 -64 66 -11 -10 -16 -34 -16 -70 0 -30 -4 -54 -10
-54 -6 0 -10 33 -10 80 0 47 4 80 10 80 6 0 10 -5 10 -11z m592 -6 c14 -12 18
-31 18 -78 l0 -61 -55 -2 c-50 -1 -57 1 -67 23 -15 34 12 65 59 65 26 0 33 4
33 19 0 28 -17 35 -51 21 -35 -15 -46 -9 -24 14 21 21 63 21 87 -1z m236 5 c9
-9 12 -9 12 0 0 7 7 12 15 12 24 0 21 -160 -3 -190 -23 -28 -89 -31 -109 -4
-17 24 -8 30 21 15 39 -21 70 -11 74 24 3 24 1 28 -9 18 -40 -40 -116 13 -105
71 4 16 14 38 23 48 18 20 63 24 81 6z m110 -71 c2 -64 0 -77 -13 -77 -12 0
-15 15 -15 81 0 60 3 80 13 77 8 -3 13 -31 15 -81z m62 73 c0 -6 10 -5 25 2
14 6 28 8 33 3 4 -4 1 -10 -7 -13 -34 -12 -51 -42 -51 -92 0 -27 -4 -50 -10
-50 -6 0 -10 33 -10 80 0 47 4 80 10 80 6 0 10 -4 10 -10z m260 -32 c21 -84
25 -85 43 -19 21 75 36 75 56 3 8 -29 17 -52 21 -52 4 0 12 25 19 55 7 32 18
55 26 55 10 0 8 -18 -9 -80 -25 -96 -42 -101 -67 -20 -15 52 -17 54 -26 30 -6
-14 -14 -40 -18 -58 -11 -53 -35 -37 -57 38 -20 74 -22 90 -8 90 5 0 14 -19
20 -42z m302 25 c14 -12 18 -31 18 -78 l0 -61 -55 -2 c-50 -1 -57 1 -67 23
-15 34 12 65 59 65 26 0 33 4 33 19 0 28 -17 35 -51 21 -35 -15 -46 -9 -24 14
21 21 63 21 87 -1z m383 1 c22 -22 11 -30 -19 -14 -14 7 -32 10 -40 7 -30 -12
-17 -35 27 -49 45 -14 60 -45 37 -74 -16 -18 -70 -18 -96 0 -24 18 -10 34 16
18 26 -16 45 -15 60 3 10 12 5 18 -33 34 -56 24 -63 35 -43 66 19 29 66 34 91
9z m158 4 c4 -10 7 -10 18 0 38 36 99 -4 99 -66 0 -68 -46 -101 -101 -72 -17
10 -19 7 -19 -25 0 -19 -4 -35 -10 -35 -6 0 -10 42 -10 105 0 93 9 130 23 93z
m264 -18 c19 -37 17 -130 -2 -130 -8 0 -15 5 -15 12 0 9 -3 9 -12 0 -7 -7 -24
-12 -38 -12 -32 0 -50 17 -50 47 0 26 27 43 69 43 34 0 41 19 16 40 -12 10
-21 10 -42 1 -31 -14 -41 -8 -23 14 21 25 82 16 97 -15z m165 8 c27 -27 7 -39
-22 -13 -39 35 -81 -10 -66 -69 8 -32 42 -43 66 -21 27 24 44 15 25 -13 -23
-32 -77 -30 -104 4 -61 77 33 180 101 112z m158 2 c11 -11 20 -31 20 -45 0
-24 -3 -25 -55 -25 -57 0 -66 -8 -39 -34 18 -19 45 -21 61 -5 6 6 17 9 23 7
24 -8 -20 -38 -54 -38 -45 0 -71 30 -71 82 0 68 70 103 115 58z m340 10 c0 -7
6 -7 19 0 33 17 58 11 81 -17 26 -33 22 -99 -6 -120 -22 -16 -66 -17 -82 -1
-9 9 -12 4 -12 -25 0 -20 -4 -37 -10 -37 -6 0 -10 42 -10 105 0 63 4 105 10
105 6 0 10 -5 10 -10z m267 -20 c19 -37 17 -130 -2 -130 -8 0 -15 5 -15 12 0
9 -3 9 -12 0 -7 -7 -24 -12 -38 -12 -32 0 -50 17 -50 47 0 26 27 43 69 43 34
0 41 19 16 40 -12 10 -21 10 -42 1 -31 -14 -41 -8 -23 14 21 25 82 16 97 -15z
m148 14 c22 -22 11 -30 -19 -14 -14 7 -32 10 -40 7 -30 -12 -17 -35 27 -49 45
-14 60 -45 37 -74 -16 -18 -70 -18 -96 0 -24 18 -10 34 16 18 26 -16 45 -15
60 3 10 12 5 18 -33 34 -56 24 -63 35 -43 66 19 29 66 34 91 9z m265 6 c0 -6
8 -5 19 2 15 9 25 9 47 -1 19 -8 30 -9 38 -1 17 17 54 11 70 -12 22 -31 22
-138 1 -138 -12 0 -15 13 -15 58 0 74 -21 100 -54 66 -11 -10 -16 -34 -16 -70
0 -30 -4 -54 -10 -54 -5 0 -10 24 -10 53 0 64 -19 98 -47 81 -14 -8 -19 -26
-21 -73 -2 -45 -7 -61 -17 -61 -12 0 -15 17 -15 80 0 64 3 80 15 80 8 0 15 -5
15 -10z m339 -16 c12 -15 21 -35 21 -45 0 -16 -8 -19 -55 -19 -58 0 -71 -14
-39 -41 12 -10 22 -10 47 -1 35 13 45 9 27 -13 -7 -8 -28 -15 -46 -15 -46 0
-74 29 -74 77 0 74 77 111 119 57z m521 -54 c0 -64 -3 -80 -15 -80 -12 0 -15
16 -15 80 0 64 3 80 15 80 12 0 15 -16 15 -80z m146 58 c19 -21 19 -21 -6 -14
-44 13 -64 12 -68 -5 -2 -12 9 -21 40 -30 33 -11 44 -20 46 -38 3 -15 -3 -30
-14 -38 -24 -18 -79 -16 -94 2 -18 22 -4 31 24 15 28 -15 56 -8 56 14 0 9 -16
20 -39 26 -47 12 -62 42 -35 71 23 25 66 24 90 -3z m223 10 c11 -10 14 -10 18
0 3 6 9 12 14 12 11 0 12 -170 1 -187 -21 -33 -97 -35 -117 -3 -10 16 3 26 17
12 19 -19 66 -14 78 7 16 31 13 43 -9 31 -53 -28 -101 4 -101 65 0 57 63 96
99 63z m111 -68 c0 -64 -3 -80 -15 -80 -12 0 -15 16 -15 80 0 64 3 80 15 80
12 0 15 -16 15 -80z m70 68 c0 -9 3 -9 12 0 14 14 48 16 48 3 0 -5 -13 -14
-30 -20 -29 -10 -30 -12 -30 -70 0 -48 -3 -61 -15 -61 -12 0 -15 16 -15 80 0
64 3 80 15 80 8 0 15 -5 15 -12z m336 -2 c26 -20 10 -32 -21 -16 -22 12 -28
12 -42 -3 -15 -15 -13 -18 29 -36 52 -22 66 -46 42 -72 -21 -24 -77 -25 -99
-3 -21 22 -11 30 19 15 27 -15 57 -12 64 6 2 8 -16 21 -42 33 -37 15 -46 24
-46 44 0 42 56 60 96 32z m164 2 c0 -9 3 -9 12 0 18 18 56 14 78 -8 25 -25 27
-95 3 -122 -18 -20 -63 -24 -81 -6 -9 9 -12 4 -12 -25 0 -26 -4 -37 -15 -37
-12 0 -15 18 -15 105 0 87 3 105 15 105 8 0 15 -5 15 -12z m170 2 c0 -6 10 -5
25 2 14 6 28 8 33 3 4 -4 1 -10 -7 -13 -34 -12 -51 -42 -51 -92 0 -27 -4 -50
-10 -50 -6 0 -10 33 -10 80 0 47 4 80 10 80 6 0 10 -4 10 -10z m192 -7 c8 -10
18 -30 22 -45 l6 -28 -60 0 c-58 0 -60 -1 -50 -21 15 -28 37 -34 66 -19 30 17
46 3 20 -16 -27 -19 -75 -18 -98 3 -26 23 -25 96 2 123 25 25 72 26 92 3z m88
5 c0 -9 3 -9 12 0 18 18 56 14 78 -8 25 -25 27 -95 3 -122 -18 -20 -63 -24
-81 -6 -9 9 -12 4 -12 -25 0 -26 -4 -37 -15 -37 -12 0 -15 18 -15 105 0 87 3
105 15 105 8 0 15 -5 15 -12z m254 -10 c22 -31 22 -138 1 -138 -8 0 -15 5 -15
12 0 9 -3 9 -12 0 -7 -7 -24 -12 -38 -12 -32 0 -50 17 -50 47 0 26 27 43 69
43 24 0 31 4 31 19 0 25 -33 36 -59 19 -27 -16 -42 0 -17 18 30 21 72 17 90
-8z m76 12 c0 -6 10 -5 25 2 14 6 28 8 33 3 4 -4 1 -10 -7 -13 -34 -12 -51
-42 -51 -92 0 -27 -4 -50 -10 -50 -6 0 -10 33 -10 80 0 47 4 80 10 80 6 0 10
-4 10 -10z m194 -12 c22 -31 22 -138 1 -138 -8 0 -15 5 -15 12 0 9 -3 9 -12 0
-7 -7 -24 -12 -38 -12 -32 0 -50 17 -50 47 0 26 27 43 69 43 24 0 31 4 31 19
0 25 -33 36 -59 19 -27 -16 -42 0 -17 18 30 21 72 17 90 -8z m186 -58 c0 -64
-3 -80 -15 -80 -12 0 -15 16 -15 80 0 64 3 80 15 80 12 0 15 -16 15 -80z m160
58 c27 -29 27 -91 0 -118 -24 -24 -77 -26 -102 -3 -26 23 -25 96 2 123 27 27
74 26 100 -2z m80 11 c0 -8 4 -8 14 0 24 20 69 9 83 -19 19 -37 17 -130 -2
-130 -12 0 -15 13 -15 58 0 76 -27 104 -64 66 -11 -10 -16 -34 -16 -70 0 -30
-4 -54 -10 -54 -6 0 -10 33 -10 80 0 47 4 80 10 80 6 0 10 -5 10 -11z m250
-69 c0 -47 -4 -80 -10 -80 -6 0 -10 33 -10 80 0 47 4 80 10 80 6 0 10 -33 10
-80z m145 64 c22 -22 11 -30 -19 -14 -14 7 -32 10 -40 7 -30 -12 -17 -35 27
-49 45 -14 60 -45 37 -74 -16 -18 -70 -18 -96 0 -24 18 -10 34 16 18 26 -16
45 -15 60 3 10 12 5 18 -33 34 -56 24 -63 35 -43 66 19 29 66 34 91 9z m-3277
-11 c-4 -22 -22 -20 -26 1 -2 10 3 16 13 16 10 0 15 -7 13 -17z m-3774 -124
c-8 -14 -34 -11 -34 4 0 8 3 17 7 20 9 9 34 -13 27 -24z m3772 5 c-3 -9 -9
-27 -12 -40 -7 -28 -24 -32 -24 -6 0 34 13 62 27 62 10 0 13 -6 9 -16z m-7646
-261 l0 -67 40 39 c46 45 68 40 25 -5 -21 -22 -27 -35 -20 -44 6 -8 20 -28 33
-45 18 -24 20 -31 8 -31 -8 0 -27 16 -42 35 -14 19 -30 35 -35 35 -5 0 -9 -16
-9 -35 0 -24 -5 -35 -15 -35 -12 0 -15 19 -15 110 0 91 3 110 15 110 12 0 15
-14 15 -67z m160 52 c0 -8 -7 -15 -15 -15 -8 0 -15 7 -15 15 0 8 7 15 15 15 8
0 15 -7 15 -15z m780 -27 c0 -33 3 -39 12 -30 17 17 48 15 70 -5 24 -22 27
-143 3 -143 -12 0 -15 14 -15 64 0 69 -13 86 -51 66 -15 -9 -19 -22 -19 -70 0
-47 -3 -60 -15 -60 -12 0 -15 19 -15 110 0 91 3 110 15 110 11 0 15 -11 15
-42z m460 32 c0 -5 -7 -10 -15 -10 -8 0 -15 -2 -15 -4 0 -2 -3 -11 -6 -20 -4
-12 0 -16 15 -16 27 0 27 -16 1 -23 -17 -4 -20 -14 -20 -71 0 -37 -4 -66 -10
-66 -6 0 -10 28 -10 65 0 49 -4 67 -15 71 -8 4 -15 10 -15 15 0 5 7 9 15 9 9
0 15 9 15 24 0 13 6 27 13 29 21 9 47 7 47 -3z m760 -100 c0 -67 -4 -110 -10
-110 -6 0 -10 43 -10 110 0 67 4 110 10 110 6 0 10 -43 10 -110z m805 101 c7
-12 -12 -24 -25 -16 -11 7 -4 25 10 25 5 0 11 -4 15 -9z m1215 -30 c0 -39 0
-39 29 -28 55 20 81 -13 81 -104 0 -36 -4 -49 -15 -49 -10 0 -15 16 -17 61 -2
47 -7 65 -21 73 -29 18 -57 -24 -57 -85 0 -27 -4 -49 -10 -49 -6 0 -10 43 -10
110 0 67 4 110 10 110 6 0 10 -18 10 -39z m760 -71 c0 -91 -3 -110 -15 -110
-12 0 -15 19 -15 110 0 91 3 110 15 110 12 0 15 -19 15 -110z m630 101 c0 -5
-9 -11 -20 -14 -27 -7 -25 -33 3 -42 l22 -8 -22 -4 c-21 -4 -23 -10 -23 -74 0
-55 -3 -69 -15 -69 -12 0 -15 14 -15 69 0 46 -4 71 -12 74 -10 4 -10 7 -1 14
6 5 16 21 22 36 8 19 17 27 36 27 14 0 25 -4 25 -9z m130 -30 c0 -39 0 -39 29
-28 55 20 81 -13 81 -104 0 -36 -4 -49 -15 -49 -10 0 -15 16 -17 61 -2 47 -7
65 -21 73 -29 18 -57 -24 -57 -85 0 -27 -4 -49 -10 -49 -6 0 -10 43 -10 110 0
67 4 110 10 110 6 0 10 -18 10 -39z m530 0 c0 -39 0 -39 29 -28 55 20 81 -13
81 -104 0 -36 -4 -49 -15 -49 -10 0 -15 16 -17 61 -2 47 -7 65 -21 73 -29 18
-57 -24 -57 -85 0 -27 -4 -49 -10 -49 -6 0 -10 43 -10 110 0 67 4 110 10 110
6 0 10 -18 10 -39z m610 -71 c0 -67 -4 -110 -10 -110 -5 0 -10 5 -10 12 0 9
-3 9 -12 0 -13 -13 -57 -16 -74 -4 -37 24 -43 87 -13 126 22 28 48 33 80 16
17 -10 19 -7 19 30 0 22 5 40 10 40 6 0 10 -43 10 -110z m390 68 c0 -33 3 -39
12 -30 7 7 24 12 38 12 14 0 31 -5 38 -12 15 -15 16 -148 2 -148 -6 0 -10 26
-10 58 0 76 -27 104 -64 66 -11 -10 -16 -34 -16 -70 0 -41 -4 -54 -15 -54 -12
0 -15 19 -15 110 0 91 3 110 15 110 11 0 15 -11 15 -42z m570 -25 l0 -67 38
37 c49 47 78 49 32 2 l-34 -35 32 -39 c36 -45 38 -51 18 -51 -7 0 -26 16 -40
35 -31 40 -46 38 -46 -6 0 -19 -5 -29 -15 -29 -12 0 -15 19 -15 110 0 91 3
110 15 110 12 0 15 -14 15 -67z m160 52 c0 -8 -7 -15 -15 -15 -8 0 -15 7 -15
15 0 8 7 15 15 15 8 0 15 -7 15 -15z m1340 -27 c0 -33 3 -39 12 -30 17 17 48
15 70 -5 24 -22 27 -143 3 -143 -12 0 -15 14 -15 64 0 69 -13 86 -51 66 -15
-9 -19 -22 -19 -70 0 -47 -3 -60 -15 -60 -12 0 -15 19 -15 110 0 91 3 110 15
110 11 0 15 -11 15 -42z m-8813 2 c3 -11 12 -20 19 -20 8 0 14 -4 14 -10 0 -5
-7 -10 -15 -10 -12 0 -15 -13 -15 -55 0 -40 4 -57 15 -61 21 -8 19 -24 -3 -24
-31 0 -42 22 -42 82 0 45 -3 58 -15 58 -8 0 -15 5 -15 10 0 6 7 10 15 10 8 0
15 9 15 20 0 11 5 20 11 20 6 0 13 -9 16 -20z m353 1 c0 -10 10 -22 23 -26
l22 -8 -22 -4 c-21 -4 -23 -10 -23 -60 0 -46 3 -56 20 -60 28 -7 25 -23 -5
-23 -32 0 -45 26 -45 89 0 30 -5 52 -12 55 -10 5 -10 7 0 12 6 3 12 14 12 25
0 10 7 19 15 19 8 0 15 -8 15 -19z m2200 -1 c0 -13 7 -20 20 -20 11 0 20 -4
20 -9 0 -5 -9 -11 -20 -14 -16 -4 -20 -14 -20 -51 0 -35 5 -49 20 -58 28 -18
25 -30 -7 -26 -27 3 -28 6 -31 66 -2 44 -7 65 -17 69 -20 7 -19 23 0 23 8 0
15 9 15 20 0 11 5 20 10 20 6 0 10 -9 10 -20z m110 0 c0 -11 7 -20 15 -20 8 0
15 -4 15 -10 0 -5 -7 -10 -15 -10 -12 0 -15 -13 -15 -55 0 -40 4 -57 15 -61
21 -8 19 -24 -3 -24 -31 0 -42 22 -42 81 0 36 -5 59 -12 63 -10 5 -10 7 0 12
6 3 12 14 12 25 0 10 7 19 15 19 8 0 15 -9 15 -20z m940 0 c0 -11 7 -20 15
-20 8 0 15 -4 15 -10 0 -5 -7 -10 -15 -10 -12 0 -15 -13 -15 -55 0 -40 4 -57
15 -61 21 -8 19 -24 -3 -24 -31 0 -42 22 -42 81 0 36 -5 59 -12 63 -10 5 -10
7 0 12 6 3 12 14 12 25 0 10 7 19 15 19 8 0 15 -9 15 -20z m5110 0 c0 -13 7
-20 20 -20 11 0 20 -4 20 -9 0 -5 -9 -11 -20 -14 -16 -4 -20 -14 -20 -51 0
-35 5 -49 20 -58 28 -18 25 -30 -7 -26 -27 3 -28 6 -31 66 -2 44 -7 65 -17 69
-20 7 -19 23 0 23 8 0 15 9 15 20 0 11 5 20 10 20 6 0 10 -9 10 -20z m-9288
-37 c14 -12 18 -31 18 -78 l0 -61 -55 -2 c-50 -1 -57 1 -67 23 -15 34 12 65
59 65 26 0 33 4 33 19 0 28 -17 35 -51 21 -35 -15 -46 -9 -24 14 21 21 63 21
87 -1z m248 -63 c0 -64 -3 -80 -15 -80 -12 0 -15 16 -15 80 0 64 3 80 15 80
12 0 15 -16 15 -80z m63 68 c4 -10 7 -10 18 0 20 19 56 14 73 -10 21 -30 22
-138 1 -138 -10 0 -15 16 -17 61 -5 110 -67 106 -76 -5 -7 -84 -22 -67 -22 24
0 72 10 102 23 68z m446 -14 c23 -30 27 -64 10 -97 -16 -30 -28 -37 -65 -37
-42 0 -69 31 -69 82 0 73 81 106 124 52z m521 6 c11 -11 20 -31 20 -45 0 -24
-3 -25 -55 -25 -57 0 -66 -8 -39 -34 18 -19 45 -21 61 -5 6 6 17 9 23 7 24 -8
-20 -38 -54 -38 -45 0 -71 30 -71 82 0 68 70 103 115 58z m350 -2 c27 -29 27
-91 0 -118 -24 -24 -77 -26 -102 -3 -26 23 -25 96 2 123 27 27 74 26 100 -2z
m80 10 c0 -9 3 -9 12 0 13 13 48 16 48 5 0 -5 -14 -16 -30 -25 -28 -16 -30
-21 -30 -73 0 -30 -4 -55 -10 -55 -6 0 -10 33 -10 80 0 47 4 80 10 80 6 0 10
-5 10 -12z m112 1 c3 -8 10 -8 26 2 17 11 26 11 41 2 15 -9 26 -9 50 0 52 19
65 3 69 -82 2 -44 -1 -71 -8 -71 -6 0 -10 25 -10 59 0 67 -15 90 -49 71 -18
-9 -21 -20 -21 -70 0 -47 -3 -60 -15 -60 -12 0 -15 14 -15 64 0 51 -3 65 -17
71 -29 10 -53 -29 -53 -86 0 -27 -4 -49 -10 -49 -6 0 -10 33 -10 80 0 44 4 80
9 80 5 0 11 -5 13 -11z m258 -47 c0 -60 11 -82 42 -82 25 0 38 31 38 89 0 28
5 51 10 51 6 0 10 -33 10 -80 0 -47 -4 -80 -10 -80 -5 0 -10 5 -10 11 0 8 -4
8 -14 0 -24 -20 -69 -9 -83 19 -13 26 -18 112 -6 123 16 17 23 3 23 -51z m327
28 c19 -37 17 -130 -2 -130 -8 0 -15 5 -15 12 0 9 -3 9 -12 0 -7 -7 -24 -12
-38 -12 -32 0 -50 17 -50 47 0 26 27 43 69 43 34 0 41 19 16 40 -12 10 -21 10
-42 1 -31 -14 -41 -8 -23 14 21 25 82 16 97 -15z m149 16 c26 -20 10 -32 -21
-16 -22 12 -28 12 -42 -3 -15 -15 -13 -18 29 -36 52 -22 66 -46 42 -72 -21
-24 -77 -25 -99 -3 -21 22 -11 30 19 15 27 -15 57 -12 64 6 2 8 -16 21 -42 33
-37 15 -46 24 -46 44 0 42 56 60 96 32z m154 -28 c21 -84 25 -85 43 -19 21 75
36 75 56 3 8 -29 17 -52 21 -52 4 0 12 25 19 55 7 32 18 55 26 55 10 0 8 -18
-9 -80 -25 -96 -42 -101 -67 -20 -15 52 -17 54 -26 30 -6 -14 -14 -40 -18 -58
-11 -53 -35 -37 -57 38 -20 74 -22 90 -8 90 5 0 14 -19 20 -42z m230 32 c0 -6
10 -5 25 2 14 6 28 8 33 3 4 -4 1 -10 -7 -13 -34 -12 -51 -42 -51 -92 0 -27
-4 -50 -10 -50 -6 0 -10 33 -10 80 0 47 4 80 10 80 6 0 10 -4 10 -10z m110
-70 c0 -47 -4 -80 -10 -80 -6 0 -10 33 -10 80 0 47 4 80 10 80 6 0 10 -33 10
-80z m362 63 c8 -10 18 -30 22 -45 l6 -28 -60 0 c-58 0 -60 -1 -50 -21 15 -28
37 -34 66 -19 30 17 46 3 20 -16 -27 -19 -75 -18 -98 3 -26 23 -25 96 2 123
25 25 72 26 92 3z m81 5 c4 -10 7 -10 18 0 20 19 56 14 73 -10 21 -30 22 -138
1 -138 -10 0 -15 16 -17 61 -5 110 -67 106 -76 -5 -7 -84 -22 -67 -22 24 0 72
10 102 23 68z m338 -7 c18 -14 24 -29 24 -59 0 -51 -27 -82 -69 -82 -37 0 -49
7 -65 37 -41 79 43 159 110 104z m89 7 c0 -9 3 -9 12 0 17 17 54 15 72 -4 22
-22 23 -144 1 -144 -12 0 -15 14 -15 64 0 69 -13 86 -51 66 -15 -9 -19 -22
-19 -70 0 -47 -3 -60 -15 -60 -12 0 -15 16 -15 80 0 64 3 80 15 80 8 0 15 -5
15 -12z m607 -10 c13 -12 23 -32 23 -45 0 -21 -4 -23 -55 -23 -43 0 -55 -3
-55 -15 0 -24 47 -42 71 -27 30 19 44 14 24 -8 -18 -20 -69 -27 -91 -12 -37
24 -43 87 -13 126 25 32 64 34 96 4z m163 12 c0 -7 6 -7 19 0 47 25 88 -1 97
-61 10 -63 -64 -117 -104 -77 -9 9 -12 4 -12 -25 0 -26 -4 -37 -15 -37 -12 0
-15 18 -15 105 0 87 3 105 15 105 8 0 15 -5 15 -10z m251 0 c16 -9 19 -22 19
-80 0 -40 -4 -70 -10 -70 -5 0 -10 5 -10 11 0 8 -4 8 -14 0 -21 -18 -66 -9
-82 14 -21 31 6 65 51 65 40 0 53 16 32 38 -13 13 -21 13 -42 4 -39 -18 -50
-15 -30 8 20 22 55 26 86 10z m159 -2 c0 -9 3 -9 12 0 15 15 50 16 64 2 6 -6
21 -6 42 2 53 20 66 4 70 -81 3 -86 -14 -96 -20 -11 -5 68 -19 91 -46 74 -12
-8 -18 -28 -20 -73 -2 -45 -7 -61 -17 -61 -12 0 -15 14 -15 58 0 74 -21 100
-54 66 -11 -10 -16 -34 -16 -70 0 -30 -4 -54 -10 -54 -6 0 -10 33 -10 80 0 47
4 80 10 80 6 0 10 -5 10 -12z m429 -14 c23 -30 27 -64 10 -97 -16 -30 -28 -37
-65 -37 -42 0 -69 31 -69 82 0 73 81 106 124 52z m518 4 c13 -12 23 -32 23
-45 0 -21 -4 -23 -55 -23 -43 0 -55 -3 -55 -15 0 -24 47 -42 71 -27 30 19 44
14 24 -8 -18 -20 -69 -27 -91 -12 -37 24 -43 87 -13 126 25 32 64 34 96 4z
m83 10 c0 -9 3 -9 12 0 13 13 48 16 48 5 0 -5 -14 -16 -30 -25 -28 -16 -30
-21 -30 -73 0 -30 -4 -55 -10 -55 -6 0 -10 33 -10 80 0 47 4 80 10 80 6 0 10
-5 10 -12z m447 -18 c19 -37 17 -130 -2 -130 -8 0 -15 5 -15 12 0 9 -3 9 -12
0 -7 -7 -24 -12 -38 -12 -32 0 -50 17 -50 47 0 26 27 43 69 43 34 0 41 19 16
40 -12 10 -21 10 -42 1 -31 -14 -41 -8 -23 14 21 25 82 16 97 -15z m76 18 c4
-10 7 -10 18 0 20 19 56 14 73 -10 21 -30 22 -138 1 -138 -10 0 -15 16 -17 61
-5 110 -67 106 -76 -5 -7 -84 -22 -67 -22 24 0 72 10 102 23 68z m587 -3 c17
-21 6 -29 -20 -15 -12 6 -28 9 -36 6 -26 -10 -14 -33 26 -49 48 -18 59 -40 35
-67 -24 -26 -76 -26 -100 0 -14 16 -15 20 -4 20 8 0 20 -5 26 -11 15 -15 57
-7 61 12 2 12 -9 21 -40 30 -33 11 -44 20 -46 38 -7 44 69 71 98 36z m339 -11
c12 -15 21 -35 21 -45 0 -16 -8 -19 -55 -19 -58 0 -71 -14 -39 -41 12 -10 22
-10 47 -1 35 13 45 9 27 -13 -7 -8 -28 -15 -46 -15 -46 0 -74 29 -74 77 0 74
77 111 119 57z m231 11 c17 -21 6 -29 -20 -15 -12 6 -28 9 -36 6 -26 -10 -14
-33 26 -49 48 -18 59 -40 35 -67 -24 -26 -76 -26 -100 0 -14 16 -15 20 -4 20
8 0 20 -5 26 -11 15 -15 57 -7 61 12 2 12 -9 21 -40 30 -33 11 -44 20 -46 38
-7 44 69 71 98 36z m240 -65 c0 -64 -3 -80 -15 -80 -12 0 -15 16 -15 80 0 64
3 80 15 80 12 0 15 -16 15 -80z m70 70 c0 -6 8 -5 19 2 15 9 25 9 47 -1 19 -8
30 -9 38 -1 17 17 54 11 70 -12 22 -31 22 -138 1 -138 -12 0 -15 13 -15 58 0
74 -21 100 -54 66 -11 -10 -16 -34 -16 -70 0 -30 -4 -54 -10 -54 -5 0 -10 24
-10 53 0 64 -19 98 -47 81 -14 -8 -19 -26 -21 -73 -2 -45 -7 -61 -17 -61 -12
0 -15 17 -15 80 0 64 3 80 15 80 8 0 15 -5 15 -10z m326 -4 c26 -20 10 -32
-21 -16 -22 12 -28 12 -42 -3 -15 -15 -13 -18 29 -36 52 -22 66 -46 42 -72
-21 -24 -77 -25 -99 -3 -21 22 -11 30 19 15 27 -15 57 -12 64 6 2 8 -16 21
-42 33 -37 15 -46 24 -46 44 0 42 56 60 96 32z m253 -12 c23 -30 27 -64 10
-97 -16 -30 -28 -37 -65 -37 -42 0 -69 31 -69 82 0 73 81 106 124 52z m82 -41
l22 -68 22 64 c12 36 27 67 33 69 17 5 15 -4 -14 -86 -19 -50 -32 -72 -42 -70
-20 4 -76 158 -57 158 8 0 23 -29 36 -67z m226 45 c13 -12 23 -32 23 -45 0
-21 -4 -23 -55 -23 -43 0 -55 -3 -55 -15 0 -24 47 -42 71 -27 30 19 44 14 24
-8 -18 -20 -69 -27 -91 -12 -37 24 -43 87 -13 126 25 32 64 34 96 4z m83 10
c0 -9 3 -9 12 0 13 13 48 16 48 5 0 -5 -14 -16 -30 -25 -28 -16 -30 -21 -30
-73 0 -30 -4 -55 -10 -55 -6 0 -10 33 -10 80 0 47 4 80 10 80 6 0 10 -5 10
-12z m550 -8 c11 -11 20 -31 20 -45 0 -24 -3 -25 -55 -25 -57 0 -66 -8 -39
-34 18 -19 45 -21 61 -5 6 6 17 9 23 7 24 -8 -20 -38 -54 -38 -45 0 -71 30
-71 82 0 68 70 103 115 58z m156 6 c26 -20 10 -32 -21 -16 -22 12 -28 12 -42
-3 -15 -15 -13 -18 29 -36 52 -22 66 -46 42 -72 -21 -24 -77 -25 -99 -3 -21
22 -11 30 19 15 27 -15 57 -12 64 6 2 8 -16 21 -42 33 -37 15 -46 24 -46 44 0
42 56 60 96 32z m164 -6 c11 -11 20 -31 20 -45 0 -24 -3 -25 -55 -25 -57 0
-66 -8 -39 -34 18 -19 45 -21 61 -5 6 6 17 9 23 7 24 -8 -20 -38 -54 -38 -45
0 -71 30 -71 82 0 68 70 103 115 58z m-2940 -120 c0 -5 -5 -12 -11 -16 -14 -8
-33 11 -25 25 7 11 36 4 36 -9z m-7057 -217 c-26 -18 -30 -43 -8 -43 8 0 15
-4 15 -10 0 -5 -7 -10 -15 -10 -12 0 -15 -14 -15 -70 0 -56 -3 -70 -15 -70
-12 0 -15 14 -15 69 0 46 -4 71 -12 74 -9 4 -10 8 -3 14 6 4 16 20 22 36 10
20 19 27 40 26 l28 0 -22 -16z m777 -93 c0 -91 -3 -110 -15 -110 -12 0 -15 19
-15 110 0 91 3 110 15 110 12 0 15 -19 15 -110z m460 68 c0 -33 3 -39 12 -30
15 15 61 15 76 0 15 -15 16 -148 2 -148 -6 0 -10 26 -10 58 0 76 -27 104 -64
66 -11 -10 -16 -34 -16 -70 0 -41 -4 -54 -15 -54 -12 0 -15 19 -15 110 0 91 3
110 15 110 11 0 15 -11 15 -42z m510 3 c0 -39 0 -39 29 -28 55 20 81 -13 81
-104 0 -36 -4 -49 -15 -49 -10 0 -15 16 -17 61 -2 47 -7 65 -21 73 -29 18 -57
-24 -57 -85 0 -27 -4 -49 -10 -49 -6 0 -10 43 -10 110 0 67 4 110 10 110 6 0
10 -18 10 -39z m870 -71 c0 -91 -3 -110 -15 -110 -8 0 -15 5 -15 12 0 9 -3 9
-12 0 -19 -19 -63 -14 -84 9 -11 13 -19 35 -19 59 0 64 45 97 96 70 17 -10 19
-7 19 30 0 29 4 40 15 40 12 0 15 -19 15 -110z m70 0 c0 -91 -3 -110 -15 -110
-12 0 -15 19 -15 110 0 91 3 110 15 110 12 0 15 -19 15 -110z m800 0 c0 -67
-4 -110 -10 -110 -6 0 -10 43 -10 110 0 67 4 110 10 110 6 0 10 -43 10 -110z
m70 0 c0 -67 -4 -110 -10 -110 -6 0 -10 43 -10 110 0 67 4 110 10 110 6 0 10
-43 10 -110z m1520 0 c0 -91 -3 -110 -15 -110 -12 0 -15 19 -15 110 0 91 3
110 15 110 12 0 15 -19 15 -110z m70 0 c0 -91 -3 -110 -15 -110 -12 0 -15 19
-15 110 0 91 3 110 15 110 12 0 15 -19 15 -110z m260 68 c0 -33 3 -39 12 -30
17 17 48 15 70 -5 24 -22 27 -143 3 -143 -12 0 -15 14 -15 64 0 69 -13 86 -51
66 -15 -9 -19 -22 -19 -70 0 -47 -3 -60 -15 -60 -12 0 -15 19 -15 110 0 91 3
110 15 110 11 0 15 -11 15 -42z m1490 0 c0 -33 3 -39 12 -30 17 17 54 15 72
-4 18 -18 23 -144 6 -144 -5 0 -10 19 -10 43 0 80 -20 108 -61 87 -15 -9 -19
-22 -19 -70 0 -47 -3 -60 -15 -60 -12 0 -15 19 -15 110 0 91 3 110 15 110 11
0 15 -11 15 -42z m918 30 c-6 -18 -28 -21 -28 -4 0 9 7 16 16 16 9 0 14 -5 12
-12z m822 3 c0 -5 -9 -11 -20 -14 -27 -7 -25 -33 3 -42 l22 -8 -22 -4 c-21 -4
-23 -10 -23 -74 0 -55 -3 -69 -15 -69 -12 0 -15 14 -15 69 0 46 -4 71 -12 74
-10 4 -10 7 -1 14 6 5 16 21 22 36 8 19 17 27 36 27 14 0 25 -4 25 -9z m770
-58 l0 -67 38 37 c48 47 78 50 32 2 l-33 -34 37 -46 c30 -36 34 -45 19 -45
-10 0 -31 16 -46 35 -32 40 -47 38 -47 -6 0 -16 -4 -29 -10 -29 -6 0 -10 43
-10 110 0 67 4 110 10 110 6 0 10 -29 10 -67z m330 -43 c0 -67 -4 -110 -10
-110 -6 0 -10 43 -10 110 0 67 4 110 10 110 6 0 10 -43 10 -110z m70 0 c0 -67
-4 -110 -10 -110 -6 0 -10 43 -10 110 0 67 4 110 10 110 6 0 10 -43 10 -110z
m470 68 c0 -33 3 -39 12 -30 17 17 48 15 70 -5 24 -22 27 -143 3 -143 -12 0
-15 14 -15 64 0 69 -13 86 -51 66 -15 -9 -19 -22 -19 -70 0 -47 -3 -60 -15
-60 -12 0 -15 19 -15 110 0 91 3 110 15 110 11 0 15 -11 15 -42z m-7220 -73
c0 -87 -3 -105 -15 -105 -12 0 -15 18 -15 105 0 87 3 105 15 105 12 0 15 -18
15 -105z m2250 76 c0 -10 10 -22 23 -26 l22 -8 -22 -4 c-21 -4 -23 -10 -23
-60 0 -46 3 -56 20 -60 28 -7 25 -23 -5 -23 -32 0 -45 26 -45 89 0 30 -5 52
-12 55 -10 5 -10 7 0 12 6 3 12 14 12 25 0 10 7 19 15 19 8 0 15 -8 15 -19z
m1140 -1 c0 -11 7 -20 15 -20 8 0 15 -4 15 -10 0 -5 -7 -10 -15 -10 -12 0 -15
-13 -15 -55 0 -40 4 -57 15 -61 21 -8 19 -24 -3 -24 -31 0 -42 22 -42 81 0 36
-5 59 -12 63 -10 5 -10 7 0 12 6 3 12 14 12 25 0 10 7 19 15 19 8 0 15 -9 15
-20z m350 0 c0 -13 7 -20 20 -20 11 0 20 -4 20 -9 0 -5 -9 -11 -20 -14 -16 -4
-20 -14 -20 -51 0 -35 5 -49 20 -58 28 -18 25 -30 -7 -26 -27 3 -28 6 -31 66
-2 44 -7 65 -17 69 -20 7 -19 23 0 23 8 0 15 9 15 20 0 11 5 20 10 20 6 0 10
-9 10 -20z m1440 0 c0 -13 7 -20 20 -20 11 0 20 -4 20 -9 0 -5 -9 -11 -20 -14
-16 -4 -20 -14 -20 -51 0 -35 5 -49 20 -58 28 -18 25 -30 -7 -26 -27 3 -28 6
-31 66 -2 44 -7 65 -17 69 -20 7 -19 23 0 23 8 0 15 9 15 20 0 11 5 20 10 20
6 0 10 -9 10 -20z m-8089 -39 c18 -14 24 -29 24 -59 0 -51 -27 -82 -69 -82
-37 0 -49 7 -65 37 -41 79 43 159 110 104z m89 7 c0 -9 3 -9 12 0 14 14 38 16
38 4 0 -5 -11 -14 -25 -20 -23 -10 -25 -17 -25 -72 0 -47 -3 -60 -15 -60 -12
0 -15 16 -15 80 0 64 3 80 15 80 8 0 15 -5 15 -12z m110 0 c0 -9 3 -9 12 0 7
7 21 12 33 12 12 0 26 -5 33 -12 9 -9 15 -9 24 0 17 17 54 15 72 -4 22 -22 23
-144 1 -144 -12 0 -15 14 -15 64 0 48 -4 65 -15 70 -37 14 -55 -15 -55 -91 0
-24 -4 -43 -10 -43 -6 0 -10 26 -10 59 0 67 -15 90 -49 71 -18 -9 -21 -20 -21
-70 0 -47 -3 -60 -15 -60 -12 0 -15 16 -15 80 0 64 3 80 15 80 8 0 15 -5 15
-12z m260 -59 c4 -51 9 -64 23 -67 33 -7 47 17 47 79 0 46 3 59 15 59 12 0 15
-15 15 -78 l0 -78 -55 -2 c-67 -2 -75 9 -75 98 0 85 23 77 30 -11z m312 54
c14 -12 18 -31 18 -78 l0 -61 -55 -2 c-50 -1 -57 1 -67 23 -15 34 12 65 59 65
26 0 33 4 33 19 0 28 -17 35 -51 21 -35 -15 -46 -9 -24 14 21 21 63 21 87 -1z
m158 2 c17 -21 6 -29 -20 -15 -12 6 -28 9 -36 6 -26 -10 -14 -33 26 -49 48
-18 59 -40 35 -67 -24 -26 -76 -26 -100 0 -14 16 -15 20 -4 20 8 0 20 -5 26
-11 15 -15 57 -7 61 12 2 12 -9 21 -40 30 -33 11 -44 20 -46 38 -7 44 69 71
98 36z m417 -15 c19 -37 17 -130 -2 -130 -8 0 -15 5 -15 12 0 9 -3 9 -12 0 -7
-7 -24 -12 -38 -12 -32 0 -50 17 -50 47 0 26 27 43 69 43 34 0 41 19 16 40
-12 10 -21 10 -42 1 -31 -14 -41 -8 -23 14 21 25 82 16 97 -15z m73 20 c0 -7
6 -7 19 0 33 17 58 11 81 -17 26 -33 22 -99 -6 -120 -22 -16 -66 -17 -82 -1
-9 9 -12 4 -12 -25 0 -20 -4 -37 -10 -37 -6 0 -10 42 -10 105 0 63 4 105 10
105 6 0 10 -5 10 -10z m437 -20 c19 -37 17 -130 -2 -130 -8 0 -15 5 -15 12 0
9 -3 9 -12 0 -7 -7 -24 -12 -38 -12 -32 0 -50 17 -50 47 0 26 27 43 69 43 34
0 41 19 16 40 -12 10 -21 10 -42 1 -31 -14 -41 -8 -23 14 21 25 82 16 97 -15z
m173 22 c0 -5 -21 -35 -46 -68 l-46 -59 46 -3 c70 -5 55 -22 -19 -22 -36 0
-65 3 -65 6 0 3 20 32 45 64 25 32 45 61 45 64 0 3 -21 6 -46 6 -27 0 -43 4
-39 10 7 12 125 14 125 2z m147 -22 c19 -37 17 -130 -2 -130 -8 0 -15 5 -15
12 0 9 -3 9 -12 0 -7 -7 -24 -12 -38 -12 -32 0 -50 17 -50 47 0 26 27 43 69
43 34 0 41 19 16 40 -12 10 -21 10 -42 1 -31 -14 -41 -8 -23 14 21 25 82 16
97 -15z m73 18 c0 -9 3 -9 12 0 13 13 48 16 48 5 0 -5 -14 -16 -30 -25 -28
-16 -30 -21 -30 -73 0 -30 -4 -55 -10 -55 -6 0 -10 33 -10 80 0 47 4 80 10 80
6 0 10 -5 10 -12z m365 -48 c10 -33 21 -60 25 -60 4 0 15 27 25 60 11 37 24
60 33 60 8 0 12 -6 10 -12 -59 -159 -73 -191 -92 -198 -31 -11 -43 1 -18 18
28 18 28 35 -3 116 -29 78 -29 76 -12 76 8 0 22 -26 32 -60z m445 50 c0 -6 10
-5 25 2 14 6 28 8 33 3 4 -4 1 -10 -7 -13 -34 -12 -51 -42 -51 -92 0 -27 -4
-50 -10 -50 -6 0 -10 33 -10 80 0 47 4 80 10 80 6 0 10 -4 10 -10z m200 -12
c27 -29 27 -91 0 -118 -24 -24 -77 -26 -102 -3 -26 23 -25 96 2 123 27 27 74
26 100 -2z m300 10 c0 -9 3 -9 12 0 15 15 50 16 64 2 6 -6 21 -6 42 2 53 20
66 4 70 -81 3 -86 -14 -96 -20 -11 -5 68 -19 91 -46 74 -12 -8 -18 -28 -20
-73 -2 -45 -7 -61 -17 -61 -12 0 -15 14 -15 58 0 74 -21 100 -54 66 -11 -10
-16 -34 -16 -70 0 -30 -4 -54 -10 -54 -6 0 -10 33 -10 80 0 47 4 80 10 80 6 0
10 -5 10 -12z m265 -59 l22 -64 22 68 c14 40 28 67 37 67 10 0 6 -19 -16 -81
-37 -100 -46 -116 -70 -129 -25 -13 -30 -13 -30 4 0 7 9 16 20 19 26 7 25 23
-5 103 -28 75 -30 87 -13 82 6 -2 21 -33 33 -69z m314 45 c12 -15 21 -35 21
-45 0 -16 -8 -19 -55 -19 -58 0 -71 -14 -39 -41 12 -10 22 -10 47 -1 35 13 45
9 27 -13 -7 -8 -28 -15 -46 -15 -46 0 -74 29 -74 77 0 74 77 111 119 57z m86
-45 l22 -64 22 68 c14 40 28 67 37 67 10 0 6 -19 -16 -81 -37 -100 -46 -116
-70 -129 -25 -13 -30 -13 -30 4 0 7 9 16 20 19 26 7 25 23 -5 103 -28 75 -30
87 -13 82 6 -2 21 -33 33 -69z m225 51 c11 -11 20 -31 20 -45 0 -24 -3 -25
-55 -25 -57 0 -66 -8 -39 -34 18 -19 45 -21 61 -5 6 6 17 9 23 7 24 -8 -20
-38 -54 -38 -45 0 -71 30 -71 82 0 68 70 103 115 58z m156 6 c26 -20 10 -32
-21 -16 -22 12 -28 12 -42 -3 -15 -15 -13 -18 29 -36 52 -22 66 -46 42 -72
-21 -24 -77 -25 -99 -3 -21 22 -11 30 19 15 27 -15 57 -12 64 6 2 8 -16 21
-42 33 -37 15 -46 24 -46 44 0 42 56 60 96 32z m236 -3 c14 -12 18 -31 18 -78
l0 -61 -55 -2 c-50 -1 -57 1 -67 23 -15 34 12 65 59 65 26 0 33 4 33 19 0 28
-17 35 -51 21 -35 -15 -46 -9 -24 14 21 21 63 21 87 -1z m665 -5 c13 -12 23
-32 23 -45 0 -21 -4 -23 -55 -23 -43 0 -55 -3 -55 -15 0 -24 47 -42 71 -27 30
19 44 14 24 -8 -18 -20 -69 -27 -91 -12 -37 24 -43 87 -13 126 25 32 64 34 96
4z m164 -33 c7 -30 15 -55 19 -55 4 0 13 23 21 52 20 72 35 72 56 -3 18 -66
22 -65 43 19 6 23 15 42 20 42 14 0 12 -15 -9 -90 -21 -75 -45 -91 -56 -38 -4
18 -12 44 -18 58 -9 24 -11 22 -26 -30 -25 -81 -42 -76 -67 20 -17 62 -19 80
-9 80 8 0 19 -23 26 -55z m303 33 c22 -31 22 -138 1 -138 -8 0 -15 5 -15 12 0
9 -3 9 -12 0 -7 -7 -24 -12 -38 -12 -32 0 -50 17 -50 47 0 26 27 43 69 43 24
0 31 4 31 19 0 25 -33 36 -59 19 -27 -16 -42 0 -17 18 30 21 72 17 90 -8z m82
-30 c24 -77 25 -77 48 -13 12 32 27 60 34 63 19 6 14 -15 -26 -112 -27 -64
-43 -91 -59 -97 -17 -6 -23 -5 -23 6 0 8 6 15 14 15 26 0 25 28 -5 107 -34 92
-32 83 -15 83 8 0 22 -22 32 -52z m424 30 c27 -29 27 -91 0 -118 -24 -24 -77
-26 -102 -3 -26 23 -25 96 2 123 27 27 74 26 100 -2z m522 5 c8 -10 18 -30 22
-45 l6 -28 -60 0 c-58 0 -60 -1 -50 -21 15 -28 37 -34 66 -19 30 17 46 3 20
-16 -27 -19 -75 -18 -98 3 -26 23 -25 96 2 123 25 25 72 26 92 3z m249 -2 c18
-14 24 -29 24 -59 0 -51 -27 -82 -69 -82 -37 0 -49 7 -65 37 -41 79 43 159
110 104z m171 2 c22 -20 23 -33 3 -33 -8 0 -15 4 -15 9 0 18 -33 21 -56 6 -30
-20 -32 -65 -3 -91 20 -18 22 -18 51 -1 37 21 48 15 23 -13 -24 -27 -76 -26
-101 1 -28 31 -25 96 5 120 29 23 68 24 93 2z m163 -3 c24 -26 13 -36 -18 -16
-29 20 -55 12 -68 -21 -19 -52 38 -107 71 -68 14 17 30 20 30 6 0 -20 -33 -41
-65 -41 -42 0 -65 29 -65 82 0 68 73 105 115 58z m83 -63 c2 -64 0 -77 -13
-77 -12 0 -15 15 -15 81 0 60 3 80 13 77 8 -3 13 -31 15 -81z m62 73 c0 -7 6
-7 19 0 33 17 58 11 81 -17 26 -33 22 -99 -6 -120 -22 -16 -66 -17 -82 -1 -9
9 -12 4 -12 -25 0 -20 -4 -37 -10 -37 -6 0 -10 42 -10 105 0 63 4 105 10 105
6 0 10 -5 10 -10z m180 -48 c0 -60 11 -82 42 -82 25 0 38 31 38 89 0 28 5 51
10 51 6 0 10 -33 10 -80 0 -47 -4 -80 -10 -80 -5 0 -10 5 -10 11 0 8 -4 8 -14
0 -24 -20 -69 -9 -83 19 -13 26 -18 112 -6 123 16 17 23 3 23 -51z m449 32
c23 -30 27 -64 10 -97 -16 -30 -28 -37 -65 -37 -42 0 -69 31 -69 82 0 73 81
106 124 52z m261 14 c0 -9 3 -9 12 0 15 15 50 16 64 2 6 -6 21 -6 42 2 53 20
66 4 70 -81 3 -86 -14 -96 -20 -11 -5 68 -19 91 -46 74 -12 -8 -18 -28 -20
-73 -2 -45 -7 -61 -17 -61 -12 0 -15 14 -15 58 0 74 -21 100 -54 66 -11 -10
-16 -34 -16 -70 0 -30 -4 -54 -10 -54 -6 0 -10 33 -10 80 0 47 4 80 10 80 6 0
10 -5 10 -12z m261 -55 l22 -68 22 64 c12 36 27 67 33 69 7 2 12 -1 12 -6 0
-16 -60 -175 -71 -188 -15 -19 -49 -24 -49 -8 0 8 7 14 15 14 28 0 27 25 -4
108 -22 61 -26 82 -16 82 8 0 23 -29 36 -67z m305 45 c19 -21 19 -21 -6 -14
-44 13 -64 12 -68 -5 -2 -12 9 -21 40 -30 33 -11 44 -20 46 -38 3 -15 -3 -30
-14 -38 -24 -18 -79 -16 -94 2 -18 22 -4 31 24 15 28 -15 56 -8 56 14 0 9 -16
20 -39 26 -47 12 -62 42 -35 71 23 25 66 24 90 -3z m234 -36 c0 -60 11 -82 42
-82 25 0 38 31 38 89 0 28 5 51 10 51 6 0 10 -33 10 -80 0 -47 -4 -80 -10 -80
-5 0 -10 5 -10 11 0 8 -4 8 -14 0 -24 -20 -69 -9 -83 19 -13 26 -18 112 -6
123 16 17 23 3 23 -51z m479 -7 c15 -64 20 -62 41 23 6 23 17 42 24 42 7 0 21
-27 31 -62 l18 -63 15 63 c10 40 21 62 30 62 8 0 12 -6 10 -12 -3 -7 -13 -43
-23 -80 -11 -40 -23 -68 -31 -68 -7 0 -21 27 -32 61 l-18 60 -19 -60 c-10 -34
-24 -61 -31 -61 -11 0 -28 46 -50 134 -5 22 -4 28 7 24 7 -2 20 -31 28 -63z
m481 45 c11 -11 20 -31 20 -45 0 -24 -3 -25 -55 -25 -57 0 -66 -8 -39 -34 18
-19 45 -21 61 -5 6 6 17 9 23 7 24 -8 -20 -38 -54 -38 -45 0 -71 30 -71 82 0
68 70 103 115 58z m83 8 c4 -10 7 -10 18 0 20 19 56 14 73 -10 21 -30 22 -138
1 -138 -10 0 -15 16 -17 61 -5 110 -67 106 -76 -5 -7 -84 -22 -67 -22 24 0 72
10 102 23 68z m-7703 -128 c0 -5 -5 -12 -11 -16 -14 -8 -33 11 -25 25 7 11 36
4 36 -9z m6990 0 c0 -5 -5 -12 -11 -16 -14 -8 -33 11 -25 25 7 11 36 4 36 -9z
m-9830 -239 c0 -39 0 -39 29 -28 55 20 81 -13 81 -104 0 -36 -4 -49 -15 -49
-10 0 -15 16 -17 61 -2 47 -7 65 -21 73 -29 18 -57 -24 -57 -85 0 -27 -4 -49
-10 -49 -6 0 -10 43 -10 110 0 67 4 110 10 110 6 0 10 -18 10 -39z m1020 -71
c0 -91 -3 -110 -15 -110 -12 0 -15 19 -15 110 0 91 3 110 15 110 12 0 15 -19
15 -110z m250 0 c0 -91 -3 -110 -15 -110 -12 0 -15 19 -15 110 0 91 3 110 15
110 12 0 15 -19 15 -110z m70 95 c0 -8 -7 -15 -15 -15 -8 0 -15 7 -15 15 0 8
7 15 15 15 8 0 15 -7 15 -15z m408 3 c-6 -18 -28 -21 -28 -4 0 9 7 16 16 16 9
0 14 -5 12 -12z m992 -30 c0 -33 3 -39 12 -30 15 15 61 15 76 0 15 -15 16
-148 2 -148 -6 0 -10 26 -10 58 0 76 -27 104 -64 66 -11 -10 -16 -34 -16 -70
0 -41 -4 -54 -15 -54 -12 0 -15 19 -15 110 0 91 3 110 15 110 11 0 15 -11 15
-42z m450 -68 c0 -91 -3 -110 -15 -110 -8 0 -15 5 -15 12 0 9 -3 9 -12 0 -17
-17 -58 -15 -80 5 -26 23 -25 96 2 123 22 22 60 26 78 8 9 -9 12 -3 12 30 0
31 4 42 15 42 12 0 15 -19 15 -110z m680 68 c0 -33 3 -39 12 -30 17 17 48 15
70 -5 24 -22 27 -143 3 -143 -12 0 -15 14 -15 64 0 69 -13 86 -51 66 -15 -9
-19 -22 -19 -70 0 -47 -3 -60 -15 -60 -12 0 -15 19 -15 110 0 91 3 110 15 110
11 0 15 -11 15 -42z m800 -68 c0 -91 -3 -110 -15 -110 -12 0 -15 19 -15 110 0
91 3 110 15 110 12 0 15 -19 15 -110z m70 0 c0 -91 -3 -110 -15 -110 -12 0
-15 19 -15 110 0 91 3 110 15 110 12 0 15 -19 15 -110z m370 100 c0 -5 -7 -10
-15 -10 -8 0 -15 -2 -15 -4 0 -2 -3 -11 -6 -20 -4 -12 0 -16 15 -16 27 0 27
-16 1 -23 -17 -4 -20 -14 -20 -71 0 -37 -4 -66 -10 -66 -6 0 -10 28 -10 65 0
49 -4 67 -15 71 -8 4 -15 10 -15 15 0 5 7 9 15 9 9 0 15 9 15 24 0 13 6 27 13
29 21 9 47 7 47 -3z m140 -32 c0 -33 3 -39 12 -30 18 18 56 14 78 -8 25 -25
27 -95 3 -122 -18 -20 -63 -24 -81 -6 -9 9 -12 9 -12 0 0 -7 -7 -12 -15 -12
-12 0 -15 19 -15 110 0 91 3 110 15 110 11 0 15 -11 15 -42z m450 0 c0 -33 3
-39 12 -30 18 18 56 14 78 -8 25 -25 27 -95 3 -122 -18 -20 -63 -24 -81 -6 -9
9 -12 9 -12 0 0 -7 -7 -12 -15 -12 -12 0 -15 19 -15 110 0 91 3 110 15 110 11
0 15 -11 15 -42z m920 0 c0 -33 3 -39 12 -30 17 17 54 15 72 -4 18 -18 23
-144 6 -144 -5 0 -10 19 -10 43 0 80 -20 108 -61 87 -15 -9 -19 -22 -19 -70 0
-47 -3 -60 -15 -60 -12 0 -15 19 -15 110 0 91 3 110 15 110 11 0 15 -11 15
-42z m1330 0 c0 -33 3 -39 12 -30 18 18 56 14 78 -8 25 -25 27 -95 3 -122 -18
-20 -63 -24 -81 -6 -9 9 -12 9 -12 0 0 -7 -7 -12 -15 -12 -12 0 -15 19 -15
110 0 91 3 110 15 110 11 0 15 -11 15 -42z m1258 30 c-6 -18 -28 -21 -28 -4 0
9 7 16 16 16 9 0 14 -5 12 -12z m1302 2 c0 -5 -7 -10 -15 -10 -8 0 -15 -9 -15
-20 0 -11 7 -20 15 -20 8 0 15 -4 15 -10 0 -5 -7 -10 -15 -10 -12 0 -15 -14
-15 -70 0 -56 -3 -70 -15 -70 -12 0 -15 14 -15 70 0 56 -3 70 -15 70 -8 0 -15
5 -15 10 0 6 7 10 15 10 8 0 15 8 15 18 0 10 5 23 12 30 15 15 48 16 48 2z
m240 -29 c0 -39 0 -39 29 -28 55 20 81 -13 81 -104 0 -36 -4 -49 -15 -49 -10
0 -15 16 -17 61 -2 47 -7 65 -21 73 -29 18 -57 -24 -57 -85 0 -27 -4 -49 -10
-49 -6 0 -10 43 -10 110 0 67 4 110 10 110 6 0 10 -18 10 -39z m-10840 -1 c0
-11 7 -20 15 -20 8 0 15 -4 15 -10 0 -5 -7 -10 -15 -10 -12 0 -15 -13 -15 -55
0 -40 4 -57 15 -61 21 -8 19 -24 -3 -24 -31 0 -42 22 -42 81 0 36 -5 59 -12
63 -10 5 -10 7 0 12 6 3 12 14 12 25 0 10 7 19 15 19 8 0 15 -9 15 -20z m1187
0 c3 -11 12 -20 19 -20 8 0 14 -4 14 -10 0 -5 -7 -10 -15 -10 -12 0 -15 -13
-15 -55 0 -40 4 -57 15 -61 21 -8 19 -24 -3 -24 -31 0 -42 22 -42 82 0 45 -3
58 -15 58 -8 0 -15 5 -15 10 0 6 7 10 15 10 8 0 15 9 15 20 0 11 5 20 11 20 6
0 13 -9 16 -20z m473 0 c0 -13 7 -20 20 -20 11 0 20 -4 20 -9 0 -5 -9 -11 -20
-14 -16 -4 -20 -14 -20 -51 0 -35 5 -49 20 -58 28 -18 25 -30 -7 -26 -27 3
-28 6 -31 66 -2 44 -7 65 -17 69 -20 7 -19 23 0 23 8 0 15 9 15 20 0 11 5 20
10 20 6 0 10 -9 10 -20z m650 0 c0 -11 7 -20 15 -20 8 0 15 -4 15 -10 0 -5 -7
-10 -15 -10 -12 0 -15 -13 -15 -55 0 -40 4 -57 15 -61 21 -8 19 -24 -3 -24
-31 0 -42 22 -42 81 0 36 -5 59 -12 63 -10 5 -10 7 0 12 6 3 12 14 12 25 0 10
7 19 15 19 8 0 15 -9 15 -20z m100 0 c0 -13 7 -20 20 -20 11 0 20 -4 20 -9 0
-5 -9 -11 -20 -14 -16 -4 -20 -14 -20 -51 0 -35 5 -49 20 -58 28 -18 25 -30
-7 -26 -27 3 -28 6 -31 66 -2 44 -7 65 -17 69 -20 7 -19 23 0 23 8 0 15 9 15
20 0 11 5 20 10 20 6 0 10 -9 10 -20z m1450 1 c0 -10 10 -22 23 -26 l22 -8
-22 -4 c-21 -4 -23 -10 -23 -60 0 -46 3 -56 20 -60 28 -7 25 -23 -5 -23 -32 0
-45 26 -45 89 0 30 -5 52 -12 55 -10 5 -10 7 0 12 6 3 12 14 12 25 0 10 7 19
15 19 8 0 15 -8 15 -19z m4710 -1 c0 -11 7 -20 15 -20 8 0 15 -4 15 -10 0 -5
-7 -10 -15 -10 -12 0 -15 -13 -15 -55 0 -40 4 -57 15 -61 21 -8 19 -24 -3 -24
-31 0 -42 22 -42 81 0 36 -5 59 -12 63 -10 5 -10 7 0 12 6 3 12 14 12 25 0 10
7 19 15 19 8 0 15 -9 15 -20z m530 0 c0 -11 7 -20 15 -20 8 0 15 -4 15 -10 0
-5 -7 -10 -15 -10 -12 0 -15 -13 -15 -55 0 -40 4 -57 15 -61 21 -8 19 -24 -3
-24 -31 0 -42 22 -42 81 0 36 -5 59 -12 63 -10 5 -10 7 0 12 6 3 12 14 12 25
0 10 7 19 15 19 8 0 15 -9 15 -20z m100 0 c0 -13 7 -20 20 -20 11 0 20 -4 20
-9 0 -5 -9 -11 -20 -14 -16 -4 -20 -14 -20 -51 0 -35 5 -49 20 -58 28 -18 25
-30 -7 -26 -27 3 -28 6 -31 66 -2 44 -7 65 -17 69 -20 7 -19 23 0 23 8 0 15 9
15 20 0 11 5 20 10 20 6 0 10 -9 10 -20z m1550 0 c0 -11 7 -20 15 -20 8 0 15
-4 15 -10 0 -5 -7 -10 -15 -10 -12 0 -15 -13 -15 -55 0 -40 4 -57 15 -61 21
-8 19 -24 -3 -24 -31 0 -42 22 -42 81 0 36 -5 59 -12 63 -10 5 -10 7 0 12 6 3
12 14 12 25 0 10 7 19 15 19 8 0 15 -9 15 -20z m-10403 -42 c13 -12 23 -32 23
-45 0 -21 -4 -23 -55 -23 -43 0 -55 -3 -55 -15 0 -24 47 -42 71 -27 30 19 44
14 24 -8 -18 -20 -69 -27 -91 -12 -37 24 -43 87 -13 126 25 32 64 34 96 4z
m163 10 c0 -9 3 -9 12 0 14 14 48 16 48 3 0 -5 -13 -14 -30 -20 -29 -10 -30
-12 -30 -70 0 -48 -3 -61 -15 -61 -12 0 -15 16 -15 80 0 64 3 80 15 80 8 0 15
-5 15 -12z m187 -10 c13 -12 23 -32 23 -45 0 -21 -4 -23 -55 -23 -43 0 -55 -3
-55 -15 0 -24 47 -42 71 -27 30 19 44 14 24 -8 -18 -20 -69 -27 -91 -12 -37
24 -43 87 -13 126 25 32 64 34 96 4z m158 6 c22 -22 11 -30 -19 -14 -14 7 -32
10 -40 7 -30 -12 -17 -35 27 -49 45 -14 60 -45 37 -74 -16 -18 -70 -18 -96 0
-24 18 -10 34 16 18 26 -16 45 -15 60 3 10 12 5 18 -33 34 -56 24 -63 35 -43
66 19 29 66 34 91 9z m75 -35 c0 -58 13 -89 38 -89 31 0 42 22 42 82 0 45 3
58 15 58 12 0 15 -16 15 -80 0 -64 -3 -80 -15 -80 -8 0 -15 5 -15 12 0 9 -3 9
-12 0 -7 -7 -24 -12 -38 -12 -14 0 -31 5 -38 12 -15 15 -16 148 -2 148 6 0 10
-23 10 -51z m500 -29 c0 -64 -3 -80 -15 -80 -12 0 -15 16 -15 80 0 64 3 80 15
80 12 0 15 -16 15 -80z m146 58 c19 -21 19 -21 -6 -14 -44 13 -64 12 -68 -5
-2 -12 9 -21 40 -30 33 -11 44 -20 46 -38 3 -15 -3 -30 -14 -38 -24 -18 -79
-16 -94 2 -18 22 -4 31 24 15 28 -15 56 -8 56 14 0 9 -16 20 -39 26 -47 12
-62 42 -35 71 23 25 66 24 90 -3z m262 -61 c2 -64 0 -77 -13 -77 -12 0 -15 15
-15 81 0 60 3 80 13 77 8 -3 13 -31 15 -81z m138 69 c26 -20 10 -32 -21 -16
-22 12 -28 12 -42 -3 -15 -15 -13 -18 29 -36 52 -22 66 -46 42 -72 -21 -24
-77 -25 -99 -3 -21 22 -11 30 19 15 27 -15 57 -12 64 6 2 8 -16 21 -42 33 -37
15 -46 24 -46 44 0 42 56 60 96 32z m236 -3 c14 -12 18 -31 18 -78 l0 -61 -55
-2 c-50 -1 -57 1 -67 23 -15 34 12 65 59 65 26 0 33 4 33 19 0 28 -17 35 -51
21 -35 -15 -46 -9 -24 14 21 21 63 21 87 -1z m370 0 c14 -12 18 -31 18 -78 l0
-61 -55 -2 c-50 -1 -57 1 -67 23 -15 34 12 65 59 65 26 0 33 4 33 19 0 28 -17
35 -51 21 -35 -15 -46 -9 -24 14 21 21 63 21 87 -1z m170 0 c22 -20 23 -33 3
-33 -8 0 -15 4 -15 9 0 18 -33 21 -56 6 -30 -20 -32 -65 -3 -91 20 -18 22 -18
51 -1 37 21 48 15 23 -13 -24 -27 -76 -26 -101 1 -28 31 -25 96 5 120 29 23
68 24 93 2z m337 -9 c12 -15 21 -35 21 -45 0 -16 -8 -19 -55 -19 -58 0 -71
-14 -39 -41 12 -10 22 -10 47 -1 35 13 45 9 27 -13 -7 -8 -28 -15 -46 -15 -46
0 -74 29 -74 77 0 74 77 111 119 57z m430 0 c23 -30 27 -64 10 -97 -16 -30
-28 -37 -65 -37 -42 0 -69 31 -69 82 0 73 81 106 124 52z m81 16 c0 -6 8 -5
20 2 13 9 27 9 47 2 27 -9 28 -13 31 -82 2 -45 -1 -72 -8 -72 -6 0 -10 23 -10
53 0 30 -6 62 -14 72 -12 17 -18 18 -40 7 -24 -11 -26 -17 -26 -72 0 -47 -3
-60 -15 -60 -12 0 -15 16 -15 80 0 64 3 80 15 80 8 0 15 -5 15 -10z m610 -10
c11 -11 20 -31 20 -45 0 -24 -3 -25 -55 -25 -57 0 -66 -8 -39 -34 18 -19 45
-21 61 -5 6 6 17 9 23 7 24 -8 -20 -38 -54 -38 -45 0 -71 30 -71 82 0 68 70
103 115 58z m161 -35 c7 -30 15 -55 19 -55 4 0 13 23 21 52 20 72 35 72 56 -3
18 -66 22 -65 43 19 6 23 15 42 20 42 14 0 12 -15 -9 -90 -21 -75 -45 -91 -56
-38 -4 18 -12 44 -18 58 -9 24 -11 22 -26 -30 -25 -81 -42 -76 -67 20 -17 62
-19 80 -9 80 8 0 19 -23 26 -55z m301 38 c14 -12 18 -31 18 -78 l0 -61 -55 -2
c-50 -1 -57 1 -67 23 -15 34 12 65 59 65 26 0 33 4 33 19 0 28 -17 35 -51 21
-35 -15 -46 -9 -24 14 21 21 63 21 87 -1z m398 -5 c27 -29 27 -91 0 -118 -24
-24 -77 -26 -102 -3 -26 23 -25 96 2 123 27 27 74 26 100 -2z m440 12 c0 -6
10 -5 25 2 14 6 28 8 33 3 4 -4 1 -10 -7 -13 -34 -12 -51 -42 -51 -92 0 -27
-4 -50 -10 -50 -6 0 -10 33 -10 80 0 47 4 80 10 80 6 0 10 -4 10 -10z m194
-12 c22 -31 22 -138 1 -138 -8 0 -15 5 -15 12 0 9 -3 9 -12 0 -7 -7 -24 -12
-38 -12 -32 0 -50 17 -50 47 0 26 27 43 69 43 24 0 31 4 31 19 0 25 -33 36
-59 19 -27 -16 -42 0 -17 18 30 21 72 17 90 -8z m343 0 c13 -12 23 -32 23 -45
0 -21 -4 -23 -55 -23 -43 0 -55 -3 -55 -15 0 -24 47 -42 71 -27 30 19 44 14
24 -8 -18 -20 -69 -27 -91 -12 -37 24 -43 87 -13 126 25 32 64 34 96 4z m83
10 c0 -9 3 -9 12 0 13 13 48 16 48 5 0 -5 -14 -16 -30 -25 -28 -16 -30 -21
-30 -73 0 -30 -4 -55 -10 -55 -6 0 -10 33 -10 80 0 47 4 80 10 80 6 0 10 -5
10 -12z m180 -3 c17 -21 6 -29 -20 -15 -12 6 -28 9 -36 6 -26 -10 -14 -33 26
-49 48 -18 59 -40 35 -67 -24 -26 -76 -26 -100 0 -14 16 -15 20 -4 20 8 0 20
-5 26 -11 15 -15 57 -7 61 12 2 12 -9 21 -40 30 -33 11 -44 20 -46 38 -7 44
69 71 98 36z m316 1 c26 -20 10 -32 -21 -16 -22 12 -28 12 -42 -3 -15 -15 -13
-18 29 -36 52 -22 66 -46 42 -72 -21 -24 -77 -25 -99 -3 -21 22 -11 30 19 15
27 -15 57 -12 64 6 2 8 -16 21 -42 33 -37 15 -46 24 -46 44 0 42 56 60 96 32z
m336 -3 c8 -10 18 -30 22 -45 l6 -28 -60 0 c-58 0 -60 -1 -50 -21 15 -28 37
-34 66 -19 30 17 46 3 20 -16 -27 -19 -75 -18 -98 3 -26 23 -25 96 2 123 25
25 72 26 92 3z m229 7 c13 -7 19 -7 19 0 0 5 5 10 10 10 6 0 10 -38 10 -94 0
-106 -7 -118 -65 -118 -35 0 -65 16 -65 33 0 5 7 9 15 9 8 0 15 -4 15 -10 0
-14 54 -12 68 2 7 7 12 20 12 30 0 15 -3 17 -19 8 -11 -5 -29 -10 -40 -10 -24
0 -61 45 -61 75 0 30 37 75 61 75 11 0 29 -5 40 -10z m199 -10 c25 -25 27 -95
3 -122 -22 -24 -77 -24 -103 2 -13 13 -20 33 -20 60 0 49 27 80 70 80 17 0 39
-9 50 -20z m167 -2 c13 -12 23 -32 23 -45 0 -21 -4 -23 -55 -23 -43 0 -55 -3
-55 -15 0 -24 47 -42 71 -27 30 19 44 14 24 -8 -18 -20 -69 -27 -91 -12 -37
24 -43 87 -13 126 25 32 64 34 96 4z m158 6 c22 -22 11 -30 -19 -14 -14 7 -32
10 -40 7 -30 -12 -17 -35 27 -49 45 -14 60 -45 37 -74 -16 -18 -70 -18 -96 0
-24 18 -10 34 16 18 26 -16 45 -15 60 3 10 12 5 18 -33 34 -56 24 -63 35 -43
66 19 29 66 34 91 9z m239 -6 c22 -31 22 -138 1 -138 -8 0 -15 5 -15 12 0 9
-3 9 -12 0 -7 -7 -24 -12 -38 -12 -32 0 -50 17 -50 47 0 26 27 43 69 43 24 0
31 4 31 19 0 25 -33 36 -59 19 -27 -16 -42 0 -17 18 30 21 72 17 90 -8z m347
3 c18 -14 24 -29 24 -59 0 -51 -27 -82 -69 -82 -37 0 -49 7 -65 37 -41 79 43
159 110 104z m89 -52 c4 -51 9 -64 23 -67 33 -7 47 17 47 79 0 46 3 59 15 59
12 0 15 -15 15 -78 l0 -78 -55 -2 c-67 -2 -75 9 -75 98 0 85 23 77 30 -11z
m419 59 c11 -10 14 -10 18 0 3 6 9 12 14 12 11 0 12 -170 1 -187 -21 -33 -97
-35 -117 -3 -10 16 3 26 17 12 19 -19 66 -14 78 7 16 31 13 43 -9 31 -53 -28
-101 4 -101 65 0 57 63 96 99 63z m193 -5 c8 -10 18 -30 22 -45 l6 -28 -60 0
c-58 0 -60 -1 -50 -21 15 -28 37 -34 66 -19 30 17 46 3 20 -16 -27 -19 -75
-18 -98 3 -26 23 -25 96 2 123 25 25 72 26 92 3z m296 -66 c2 -64 0 -77 -13
-77 -12 0 -15 15 -15 81 0 60 3 80 13 77 8 -3 13 -31 15 -81z m65 71 c4 -10 7
-10 18 0 20 19 56 14 73 -10 21 -30 22 -138 1 -138 -10 0 -15 16 -17 61 -5
110 -67 106 -76 -5 -7 -84 -22 -67 -22 24 0 72 10 102 23 68z m238 2 c13 -7
19 -7 19 0 0 5 5 10 10 10 6 0 10 -38 10 -94 0 -106 -7 -118 -65 -118 -35 0
-65 16 -65 33 0 5 7 9 15 9 8 0 15 -4 15 -10 0 -14 54 -12 68 2 7 7 12 20 12
30 0 15 -3 17 -19 8 -11 -5 -29 -10 -40 -10 -24 0 -61 45 -61 75 0 30 37 75
61 75 11 0 29 -5 40 -10z m279 -10 c25 -25 27 -95 3 -122 -22 -24 -77 -24
-103 2 -13 13 -20 33 -20 60 0 49 27 80 70 80 17 0 39 -9 50 -20z m83 8 c4
-10 7 -10 18 0 20 19 56 14 73 -10 21 -30 22 -138 1 -138 -10 0 -15 16 -17 61
-5 110 -67 106 -76 -5 -7 -84 -22 -67 -22 24 0 72 10 102 23 68z m254 -10 c13
-12 23 -32 23 -45 0 -21 -4 -23 -55 -23 -43 0 -55 -3 -55 -15 0 -24 47 -42 71
-27 30 19 44 14 24 -8 -18 -20 -69 -27 -91 -12 -37 24 -43 87 -13 126 25 32
64 34 96 4z m253 2 c25 -25 27 -95 3 -122 -22 -24 -77 -24 -103 2 -13 13 -20
33 -20 60 0 49 27 80 70 80 17 0 39 -9 50 -20z m627 -2 c13 -12 23 -32 23 -45
0 -21 -4 -23 -55 -23 -43 0 -55 -3 -55 -15 0 -24 47 -42 71 -27 30 19 44 14
24 -8 -18 -20 -69 -27 -91 -12 -37 24 -43 87 -13 126 25 32 64 34 96 4z
m-4701 -124 c-3 -9 -9 -27 -12 -40 -7 -28 -24 -32 -24 -6 0 34 13 62 27 62 10
0 13 -6 9 -16z m-6406 -236 c0 -33 3 -39 12 -30 17 17 54 15 72 -4 18 -18 23
-144 6 -144 -5 0 -10 19 -10 43 0 80 -20 108 -61 87 -15 -9 -19 -22 -19 -70 0
-47 -3 -60 -15 -60 -12 0 -15 19 -15 110 0 91 3 110 15 110 11 0 15 -11 15
-42z m170 27 c0 -8 -7 -15 -15 -15 -8 0 -15 7 -15 15 0 8 7 15 15 15 8 0 15
-7 15 -15z m250 -27 c0 -33 3 -39 12 -30 17 17 54 15 72 -4 18 -18 23 -144 6
-144 -5 0 -10 19 -10 43 0 80 -20 108 -61 87 -15 -9 -19 -22 -19 -70 0 -47 -3
-60 -15 -60 -12 0 -15 19 -15 110 0 91 3 110 15 110 11 0 15 -11 15 -42z
m1200 -25 l0 -67 40 39 c46 45 68 40 25 -5 -21 -22 -27 -35 -20 -44 6 -8 20
-28 33 -45 18 -24 20 -31 8 -31 -8 0 -27 16 -42 35 -14 19 -30 35 -35 35 -5 0
-9 -16 -9 -35 0 -24 -5 -35 -15 -35 -12 0 -15 19 -15 110 0 91 3 110 15 110
12 0 15 -14 15 -67z m385 58 c7 -12 -12 -24 -25 -16 -11 7 -4 25 10 25 5 0 11
-4 15 -9z m425 -33 c0 -33 3 -39 12 -30 17 17 48 15 70 -5 24 -22 27 -143 3
-143 -12 0 -15 14 -15 64 0 69 -13 86 -51 66 -15 -9 -19 -22 -19 -70 0 -47 -3
-60 -15 -60 -12 0 -15 19 -15 110 0 91 3 110 15 110 11 0 15 -11 15 -42z m858
30 c-6 -18 -28 -21 -28 -4 0 9 7 16 16 16 9 0 14 -5 12 -12z m422 -30 c0 -33
3 -39 12 -30 18 18 56 14 78 -8 25 -25 27 -95 3 -122 -18 -20 -63 -24 -81 -6
-9 9 -12 9 -12 0 0 -7 -7 -12 -15 -12 -12 0 -15 19 -15 110 0 91 3 110 15 110
11 0 15 -11 15 -42z m600 3 c0 -39 0 -39 29 -28 55 20 81 -13 81 -104 0 -36
-4 -49 -15 -49 -10 0 -15 16 -17 61 -2 47 -7 65 -21 73 -29 18 -57 -24 -57
-85 0 -27 -4 -49 -10 -49 -6 0 -10 43 -10 110 0 67 4 110 10 110 6 0 10 -18
10 -39z m600 -71 c0 -67 -4 -110 -10 -110 -5 0 -10 5 -10 10 0 7 -6 7 -19 0
-32 -17 -69 -12 -85 12 -23 32 -20 94 4 118 21 21 65 27 75 10 13 -22 25 -8
25 30 0 22 5 40 10 40 6 0 10 -43 10 -110z m75 101 c7 -12 -12 -24 -25 -16
-11 7 -4 25 10 25 5 0 11 -4 15 -9z m415 -30 c0 -39 0 -39 29 -28 55 20 81
-13 81 -104 0 -36 -4 -49 -15 -49 -10 0 -15 16 -17 61 -2 47 -7 65 -21 73 -29
18 -57 -24 -57 -85 0 -27 -4 -49 -10 -49 -6 0 -10 43 -10 110 0 67 4 110 10
110 6 0 10 -18 10 -39z m630 -71 c0 -91 -3 -110 -15 -110 -8 0 -15 5 -15 12 0
9 -3 9 -12 0 -17 -17 -58 -15 -80 5 -26 23 -25 96 2 123 22 22 60 26 78 8 9
-9 12 -3 12 30 0 31 4 42 15 42 12 0 15 -19 15 -110z m-1380 -5 c0 -87 -3
-105 -15 -105 -12 0 -15 18 -15 105 0 87 3 105 15 105 12 0 15 -18 15 -105z
m1806 83 c-3 -13 -6 -31 -6 -40 0 -10 -4 -18 -10 -18 -5 0 -10 18 -10 40 0 30
4 40 16 40 12 0 15 -6 10 -22z m54 -18 c0 -29 -4 -40 -15 -40 -11 0 -15 11
-15 40 0 29 4 40 15 40 11 0 15 -11 15 -40z m-5590 10 c0 -11 7 -20 15 -20 8
0 15 -4 15 -10 0 -5 -7 -10 -15 -10 -12 0 -15 -13 -15 -55 0 -40 4 -57 15 -61
21 -8 19 -24 -3 -24 -31 0 -42 22 -42 81 0 36 -5 59 -12 63 -10 5 -10 7 0 12
6 3 12 14 12 25 0 10 7 19 15 19 8 0 15 -9 15 -20z m1410 1 c0 -10 10 -22 23
-26 l22 -8 -22 -4 c-21 -4 -23 -10 -23 -60 0 -46 3 -56 20 -60 28 -7 25 -23
-5 -23 -32 0 -45 26 -45 89 0 30 -5 52 -12 55 -10 5 -10 7 0 12 6 3 12 14 12
25 0 10 7 19 15 19 8 0 15 -8 15 -19z m860 0 c0 -10 10 -22 23 -26 l22 -8 -22
-4 c-21 -4 -23 -10 -23 -60 0 -46 3 -56 20 -60 28 -7 25 -23 -5 -23 -32 0 -45
26 -45 89 0 30 -5 52 -12 55 -10 5 -10 7 0 12 6 3 12 14 12 25 0 10 7 19 15
19 8 0 15 -8 15 -19z m870 -1 c0 -11 7 -20 15 -20 8 0 15 -4 15 -10 0 -5 -7
-10 -15 -10 -12 0 -15 -13 -15 -55 0 -40 4 -57 15 -61 21 -8 19 -24 -3 -24
-31 0 -42 22 -42 81 0 36 -5 59 -12 63 -10 5 -10 7 0 12 6 3 12 14 12 25 0 10
7 19 15 19 8 0 15 -9 15 -20z m1250 0 c0 -11 7 -20 15 -20 8 0 15 -4 15 -10 0
-5 -7 -10 -15 -10 -12 0 -15 -13 -15 -55 0 -40 4 -57 15 -61 21 -8 19 -24 -3
-24 -31 0 -42 22 -42 81 0 36 -5 59 -12 63 -10 5 -10 7 0 12 6 3 12 14 12 25
0 10 7 19 15 19 8 0 15 -9 15 -20z m437 0 c3 -11 12 -20 19 -20 8 0 14 -4 14
-10 0 -5 -7 -10 -15 -10 -12 0 -15 -13 -15 -55 0 -40 4 -57 15 -61 21 -8 19
-24 -3 -24 -31 0 -42 22 -42 82 0 45 -3 58 -15 58 -8 0 -15 5 -15 10 0 6 7 10
15 10 8 0 15 9 15 20 0 11 5 20 11 20 6 0 13 -9 16 -20z m-5577 -100 c0 -64
-3 -80 -15 -80 -12 0 -15 16 -15 80 0 64 3 80 15 80 12 0 15 -16 15 -80z m138
68 c9 -9 12 -9 12 0 0 7 7 12 15 12 12 0 15 -16 15 -88 0 -94 -10 -116 -55
-123 -32 -5 -75 10 -75 26 0 18 12 19 27 4 6 -6 23 -9 39 -7 24 2 30 8 32 33
3 24 1 28 -9 18 -18 -18 -59 -16 -81 4 -27 24 -25 97 4 117 27 19 59 21 76 4z
m364 -5 c8 -10 18 -30 22 -45 l6 -28 -60 0 c-58 0 -60 -1 -50 -21 15 -28 37
-34 66 -19 30 17 46 3 20 -16 -27 -19 -75 -18 -98 3 -26 23 -25 96 2 123 25
25 72 26 92 3z m154 3 c26 -20 10 -32 -21 -16 -22 12 -28 12 -42 -3 -15 -15
-13 -18 29 -36 52 -22 66 -46 42 -72 -21 -24 -77 -25 -99 -3 -21 22 -11 30 19
15 27 -15 57 -12 64 6 2 8 -16 21 -42 33 -37 15 -46 24 -46 44 0 42 56 60 96
32z m264 2 c0 -9 3 -9 12 0 7 7 21 12 33 12 12 0 26 -5 33 -12 9 -9 15 -9 24
0 17 17 54 15 72 -4 22 -22 23 -144 1 -144 -12 0 -15 14 -15 64 0 48 -4 65
-15 70 -37 14 -55 -15 -55 -91 0 -24 -4 -43 -10 -43 -6 0 -10 26 -10 59 0 67
-15 90 -49 71 -18 -9 -21 -20 -21 -70 0 -47 -3 -60 -15 -60 -12 0 -15 16 -15
80 0 64 3 80 15 80 8 0 15 -5 15 -12z m332 -5 c14 -12 18 -31 18 -78 l0 -61
-55 -2 c-50 -1 -57 1 -67 23 -15 34 12 65 59 65 26 0 33 4 33 19 0 28 -17 35
-51 21 -35 -15 -46 -9 -24 14 21 21 63 21 87 -1z m88 5 c0 -9 3 -9 12 0 14 14
38 16 38 4 0 -5 -11 -14 -25 -20 -23 -10 -25 -17 -25 -72 0 -47 -3 -60 -15
-60 -12 0 -15 16 -15 80 0 64 3 80 15 80 8 0 15 -5 15 -12z m336 -10 c19 -21
19 -21 -6 -14 -44 13 -64 12 -68 -5 -2 -12 9 -21 40 -30 33 -11 44 -20 46 -38
3 -15 -3 -30 -14 -38 -24 -18 -79 -16 -94 2 -18 22 -4 31 24 15 28 -15 56 -8
56 14 0 9 -16 20 -39 26 -47 12 -62 42 -35 71 23 25 66 24 90 -3z m154 -58 c0
-47 -4 -80 -10 -80 -6 0 -10 33 -10 80 0 47 4 80 10 80 6 0 10 -33 10 -80z
m70 70 c0 -6 8 -5 20 2 13 9 27 9 47 2 27 -9 28 -13 31 -82 2 -45 -1 -72 -8
-72 -6 0 -10 23 -10 53 0 30 -6 62 -14 72 -12 17 -18 18 -40 7 -24 -11 -26
-17 -26 -72 0 -47 -3 -60 -15 -60 -12 0 -15 16 -15 80 0 64 3 80 15 80 8 0 15
-5 15 -10z m610 -10 c11 -11 20 -31 20 -45 0 -24 -3 -25 -55 -25 -57 0 -66 -8
-39 -34 18 -19 45 -21 61 -5 6 6 17 9 23 7 24 -8 -20 -38 -54 -38 -45 0 -71
30 -71 82 0 68 70 103 115 58z m249 -6 c12 -15 21 -35 21 -45 0 -16 -8 -19
-55 -19 -58 0 -71 -14 -39 -41 12 -10 22 -10 47 -1 35 13 45 9 27 -13 -7 -8
-28 -15 -46 -15 -46 0 -74 29 -74 77 0 74 77 111 119 57z m81 16 c0 -6 8 -5
20 2 13 9 27 9 47 2 27 -9 28 -13 31 -82 2 -45 -1 -72 -8 -72 -6 0 -10 23 -10
53 0 30 -6 62 -14 72 -12 17 -18 18 -40 7 -24 -11 -26 -17 -26 -72 0 -47 -3
-60 -15 -60 -12 0 -15 16 -15 80 0 64 3 80 15 80 8 0 15 -5 15 -10z m278 -73
c2 -64 0 -77 -13 -77 -12 0 -15 15 -15 81 0 60 3 80 13 77 8 -3 13 -31 15 -81z
m62 73 c0 -6 10 -5 25 2 14 6 28 8 33 3 4 -4 1 -10 -7 -13 -34 -12 -51 -42
-51 -92 0 -27 -4 -50 -10 -50 -6 0 -10 33 -10 80 0 47 4 80 10 80 6 0 10 -4
10 -10z m192 -7 c8 -10 18 -30 22 -45 l6 -28 -60 0 c-58 0 -60 -1 -50 -21 15
-28 37 -34 66 -19 30 17 46 3 20 -16 -27 -19 -75 -18 -98 3 -26 23 -25 96 2
123 25 25 72 26 92 3z m422 -5 c22 -31 22 -138 1 -138 -8 0 -15 5 -15 12 0 9
-3 9 -12 0 -7 -7 -24 -12 -38 -12 -32 0 -50 17 -50 47 0 26 27 43 69 43 24 0
31 4 31 19 0 25 -33 36 -59 19 -27 -16 -42 0 -17 18 30 21 72 17 90 -8z m268
5 c22 -20 23 -33 3 -33 -8 0 -15 4 -15 9 0 18 -33 21 -56 6 -30 -20 -32 -65
-3 -91 20 -18 22 -18 51 -1 37 21 48 15 23 -13 -24 -27 -76 -26 -101 1 -28 31
-25 96 5 120 29 23 68 24 93 2z m748 -63 c0 -47 -4 -80 -10 -80 -6 0 -10 33
-10 80 0 47 4 80 10 80 6 0 10 -33 10 -80z m159 54 c12 -15 21 -35 21 -45 0
-16 -8 -19 -55 -19 -58 0 -71 -14 -39 -41 12 -10 22 -10 47 -1 35 13 45 9 27
-13 -7 -8 -28 -15 -46 -15 -46 0 -74 29 -74 77 0 74 77 111 119 57z m515 4
c22 -31 22 -138 1 -138 -8 0 -15 5 -15 12 0 9 -3 9 -12 0 -7 -7 -24 -12 -38
-12 -32 0 -50 17 -50 47 0 26 27 43 69 43 24 0 31 4 31 19 0 25 -33 36 -59 19
-27 -16 -42 0 -17 18 30 21 72 17 90 -8z m518 5 c14 -12 18 -31 18 -78 l0 -61
-55 -2 c-50 -1 -57 1 -67 23 -15 34 12 65 59 65 26 0 33 4 33 19 0 28 -17 35
-51 21 -35 -15 -46 -9 -24 14 21 21 63 21 87 -1z m89 -50 l22 -68 22 64 c12
36 27 67 33 69 7 2 12 -1 12 -6 0 -16 -60 -175 -71 -188 -15 -19 -49 -24 -49
-8 0 8 7 14 15 14 28 0 27 25 -4 108 -22 61 -26 82 -16 82 8 0 23 -29 36 -67z
m-1767 -84 c-8 -14 -34 -11 -34 4 0 8 3 17 7 20 9 9 34 -13 27 -24z m1906 5
c0 -8 -7 -14 -15 -14 -15 0 -21 21 -9 33 10 9 24 -2 24 -19z"/>
<path d="M3978 2469 c-12 -7 -18 -22 -18 -47 0 -41 14 -62 41 -62 41 0 59 81
24 106 -22 16 -25 17 -47 3z"/>
<path d="M7132 2464 c-38 -26 -21 -104 23 -104 44 0 59 80 20 106 -18 12 -24
11 -43 -2z"/>
<path d="M7546 2464 c-31 -30 -11 -104 28 -104 19 0 46 34 46 58 0 22 -32 62
-49 62 -5 0 -17 -7 -25 -16z"/>
<path d="M7996 2464 c-31 -30 -11 -104 28 -104 19 0 46 34 46 58 0 22 -32 62
-49 62 -5 0 -17 -7 -25 -16z"/>
<path d="M10330 2511 c-5 -11 -10 -41 -10 -66 0 -55 14 -85 40 -85 28 0 50 39
50 88 0 56 -14 82 -45 82 -14 0 -29 -8 -35 -19z"/>
<path d="M1277 2468 c-27 -21 -31 -61 -9 -88 17 -22 23 -23 46 -12 21 9 26 19
26 46 0 31 -20 66 -39 66 -4 0 -15 -6 -24 -12z"/>
<path d="M1629 2470 c-25 -15 -32 -58 -14 -86 30 -47 75 -24 75 38 0 27 -5 40
-19 48 -23 12 -22 12 -42 0z"/>
<path d="M1896 2464 c-25 -25 -19 -34 24 -34 44 0 55 21 21 40 -25 13 -27 13
-45 -6z"/>
<path d="M3398 2469 c-33 -19 -21 -39 22 -39 44 0 49 8 22 33 -21 20 -21 20
-44 6z"/>
<path d="M3636 2464 c-25 -25 -19 -34 24 -34 44 0 55 21 21 40 -25 13 -27 13
-45 -6z"/>
<path d="M4238 2469 c-12 -7 -18 -22 -18 -47 0 -41 14 -62 41 -62 41 0 59 81
24 106 -22 16 -25 17 -47 3z"/>
<path d="M5017 2462 c-25 -27 -21 -32 23 -32 44 0 55 21 21 40 -25 13 -25 13
-44 -8z"/>
<path d="M5666 2464 c-9 -8 -16 -31 -16 -50 0 -27 5 -37 26 -46 23 -11 29 -10
45 11 24 30 24 56 -1 81 -24 24 -34 25 -54 4z"/>
<path d="M6479 2470 c-25 -15 -32 -58 -14 -86 30 -47 75 -24 75 38 0 27 -5 40
-19 48 -23 12 -22 12 -42 0z"/>
<path d="M6844 2395 c-13 -34 31 -48 60 -19 25 24 19 34 -19 34 -22 0 -38 -6
-41 -15z"/>
<path d="M7814 2395 c-8 -19 3 -35 25 -35 20 0 41 19 41 37 0 18 -59 17 -66
-2z"/>
<path d="M8167 2462 c-25 -27 -21 -32 23 -32 44 0 55 21 21 40 -25 13 -25 13
-44 -8z"/>
<path d="M8776 2464 c-9 -8 -16 -31 -16 -50 0 -27 5 -37 25 -46 53 -24 91 62
43 96 -28 20 -33 20 -52 0z"/>
<path d="M9032 2464 c-37 -25 -20 -94 23 -94 43 0 58 71 20 96 -18 12 -24 11
-43 -2z"/>
<path d="M9427 2462 c-25 -27 -21 -32 23 -32 44 0 55 21 21 40 -25 13 -25 13
-44 -8z"/>
<path d="M10738 2469 c-33 -19 -21 -39 22 -39 44 0 49 8 22 33 -21 20 -21 20
-44 6z"/>
<path d="M11032 2398 c-8 -8 -9 -15 -1 -25 21 -25 69 -9 69 24 0 16 -52 17
-68 1z"/>
<path d="M1606 2064 c-9 -8 -16 -31 -16 -50 0 -27 5 -37 26 -46 23 -11 29 -10
45 11 24 30 24 56 -1 81 -24 24 -34 25 -54 4z"/>
<path d="M2907 2068 c-27 -21 -31 -61 -9 -88 17 -22 23 -23 46 -12 21 9 26 19
26 46 0 31 -20 66 -39 66 -4 0 -15 -6 -24 -12z"/>
<path d="M4308 2069 c-12 -7 -18 -22 -18 -47 0 -41 14 -62 41 -62 41 0 59 81
24 106 -22 16 -25 17 -47 3z"/>
<path d="M6908 2069 c-12 -7 -18 -22 -18 -47 0 -41 14 -62 41 -62 41 0 59 81
24 106 -22 16 -25 17 -47 3z"/>
<path d="M444 1995 c-8 -19 3 -35 25 -35 20 0 41 19 41 37 0 18 -59 17 -66 -2z"/>
<path d="M826 2064 c-25 -25 -19 -34 24 -34 44 0 55 21 21 40 -25 13 -27 13
-45 -6z"/>
<path d="M2188 2069 c-26 -15 -24 -75 2 -89 50 -27 89 52 42 88 -19 14 -22 14
-44 1z"/>
<path d="M2542 2064 c-38 -26 -21 -104 23 -104 23 0 45 30 45 60 0 26 -22 60
-38 60 -4 0 -18 -7 -30 -16z"/>
<path d="M3064 1995 c-13 -34 31 -48 60 -19 25 24 19 34 -19 34 -22 0 -38 -6
-41 -15z"/>
<path d="M3604 1995 c-13 -34 31 -48 60 -19 25 24 19 34 -19 34 -22 0 -38 -6
-41 -15z"/>
<path d="M3966 2064 c-25 -25 -19 -34 24 -34 44 0 55 21 21 40 -25 13 -27 13
-45 -6z"/>
<path d="M4634 1995 c-8 -19 3 -35 25 -35 20 0 41 19 41 37 0 18 -59 17 -66
-2z"/>
<path d="M4892 2064 c-37 -25 -20 -94 23 -94 43 0 58 71 20 96 -18 12 -24 11
-43 -2z"/>
<path d="M5604 1995 c-8 -19 3 -35 25 -35 20 0 41 19 41 37 0 18 -59 17 -66
-2z"/>
<path d="M6246 2067 c-35 -25 -17 -107 23 -107 27 0 41 21 41 62 0 27 -5 40
-19 48 -24 13 -24 13 -45 -3z"/>
<path d="M6402 1998 c-8 -8 -9 -15 -1 -25 21 -25 69 -9 69 24 0 16 -52 17 -68
1z"/>
<path d="M6737 2062 c-25 -27 -21 -32 23 -32 44 0 55 21 21 40 -25 13 -25 13
-44 -8z"/>
<path d="M7170 2060 c-25 -25 -25 -51 -1 -81 16 -21 22 -22 45 -11 21 9 26 19
26 46 0 33 -21 66 -41 66 -5 0 -18 -9 -29 -20z"/>
<path d="M7332 1998 c-8 -8 -9 -15 -1 -25 21 -25 69 -9 69 24 0 16 -52 17 -68
1z"/>
<path d="M8098 2069 c-33 -19 -21 -39 22 -39 44 0 55 21 21 40 -23 12 -22 12
-43 -1z"/>
<path d="M9008 2069 c-26 -15 -24 -75 2 -89 50 -27 89 52 42 88 -19 14 -22 14
-44 1z"/>
<path d="M9756 2064 c-9 -8 -16 -31 -16 -50 0 -27 5 -37 26 -46 23 -11 29 -10
45 11 24 30 24 56 -1 81 -24 24 -34 25 -54 4z"/>
<path d="M10038 2069 c-33 -19 -21 -39 22 -39 44 0 49 8 22 33 -21 20 -21 20
-44 6z"/>
<path d="M10206 2064 c-9 -8 -16 -31 -16 -50 0 -27 5 -37 26 -46 23 -11 29
-10 45 11 24 30 24 56 -1 81 -24 24 -34 25 -54 4z"/>
<path d="M10364 1995 c-8 -19 3 -35 25 -35 20 0 41 19 41 37 0 18 -59 17 -66
-2z"/>
<path d="M10634 1995 c-8 -19 3 -35 25 -35 20 0 41 19 41 37 0 18 -59 17 -66
-2z"/>
<path d="M10989 2070 c-25 -15 -32 -58 -14 -86 30 -47 75 -24 75 38 0 27 -5
40 -19 48 -23 12 -22 12 -42 0z"/>
<path d="M7356 1664 c-9 -8 -16 -31 -16 -50 0 -27 5 -37 26 -46 23 -11 29 -10
45 11 24 30 24 56 -1 81 -24 24 -34 25 -54 4z"/>
<path d="M444 1595 c-8 -19 3 -35 25 -35 20 0 41 19 41 37 0 18 -59 17 -66 -2z"/>
<path d="M1202 1664 c-38 -26 -21 -104 23 -104 40 0 60 73 29 104 -19 20 -24
20 -52 0z"/>
<path d="M1727 1662 c-25 -27 -21 -32 23 -32 44 0 55 21 21 40 -25 13 -25 13
-44 -8z"/>
<path d="M2079 1670 c-25 -15 -32 -58 -14 -86 30 -47 75 -24 75 38 0 27 -5 40
-19 48 -23 12 -22 12 -42 0z"/>
<path d="M2842 1598 c-8 -8 -9 -15 -1 -25 21 -25 69 -9 69 24 0 16 -52 17 -68
1z"/>
<path d="M3868 1669 c-33 -19 -21 -39 22 -39 44 0 49 8 22 33 -21 20 -21 20
-44 6z"/>
<path d="M4276 1664 c-9 -8 -16 -31 -16 -50 0 -27 5 -37 25 -46 53 -24 91 62
43 96 -28 20 -33 20 -52 0z"/>
<path d="M4976 1664 c-25 -25 -19 -34 24 -34 44 0 55 21 21 40 -25 13 -27 13
-45 -6z"/>
<path d="M5232 1664 c-38 -26 -21 -104 23 -104 44 0 59 80 20 106 -18 12 -24
11 -43 -2z"/>
<path d="M5384 1595 c-13 -34 31 -48 60 -19 25 24 19 34 -19 34 -22 0 -38 -6
-41 -15z"/>
<path d="M5972 1664 c-38 -26 -21 -104 23 -104 23 0 45 30 45 60 0 26 -22 60
-38 60 -4 0 -18 -7 -30 -16z"/>
<path d="M6496 1664 c-25 -25 -19 -34 24 -34 44 0 55 21 21 40 -25 13 -27 13
-45 -6z"/>
<path d="M7012 1598 c-8 -8 -9 -15 -1 -25 21 -25 69 -9 69 24 0 16 -52 17 -68
1z"/>
<path d="M8028 1669 c-33 -19 -21 -39 22 -39 44 0 55 21 21 40 -23 12 -22 12
-43 -1z"/>
<path d="M9142 1664 c-38 -26 -21 -104 23 -104 23 0 45 30 45 60 0 26 -22 60
-38 60 -4 0 -18 -7 -30 -16z"/>
<path d="M9456 1664 c-25 -25 -19 -34 24 -34 44 0 55 21 21 40 -25 13 -27 13
-45 -6z"/>
<path d="M10087 1662 c-25 -27 -21 -32 23 -32 44 0 55 21 21 40 -25 13 -25 13
-44 -8z"/>
<path d="M10407 1662 c-25 -27 -21 -32 23 -32 44 0 55 21 21 40 -25 13 -25 13
-44 -8z"/>
<path d="M3002 1264 c-38 -26 -21 -104 23 -104 44 0 59 80 20 106 -18 12 -24
11 -43 -2z"/>
<path d="M556 1264 c-9 -8 -16 -31 -16 -50 0 -27 5 -37 25 -46 53 -24 91 62
43 96 -28 20 -33 20 -52 0z"/>
<path d="M1324 1195 c-8 -19 3 -35 25 -35 20 0 41 19 41 37 0 18 -59 17 -66
-2z"/>
<path d="M1892 1198 c-8 -8 -9 -15 -1 -25 21 -25 69 -9 69 24 0 16 -52 17 -68
1z"/>
<path d="M2070 1260 c-25 -25 -25 -51 -1 -81 16 -21 22 -22 45 -11 21 9 26 19
26 46 0 33 -21 66 -41 66 -5 0 -18 -9 -29 -20z"/>
<path d="M2402 1198 c-8 -8 -9 -15 -1 -25 21 -25 69 -9 69 24 0 16 -52 17 -68
1z"/>
<path d="M2722 1198 c-8 -8 -9 -15 -1 -25 21 -25 69 -9 69 24 0 16 -52 17 -68
1z"/>
<path d="M3819 1270 c-25 -15 -32 -58 -14 -86 30 -47 75 -24 75 38 0 27 -5 40
-19 48 -23 12 -22 12 -42 0z"/>
<path d="M4698 1269 c-33 -19 -21 -39 22 -39 44 0 55 21 21 40 -23 12 -22 12
-43 -1z"/>
<path d="M5007 1262 c-25 -27 -21 -32 23 -32 44 0 55 21 21 40 -25 13 -25 13
-44 -8z"/>
<path d="M5394 1195 c-8 -19 3 -35 25 -35 20 0 41 19 41 37 0 18 -59 17 -66
-2z"/>
<path d="M6066 1264 c-25 -25 -19 -34 24 -34 44 0 55 21 21 40 -25 13 -27 13
-45 -6z"/>
<path d="M6524 1195 c-8 -19 3 -35 25 -35 20 0 41 19 41 37 0 18 -59 17 -66
-2z"/>
<path d="M7039 1270 c-25 -15 -32 -58 -14 -86 30 -47 75 -24 75 38 0 27 -5 40
-19 48 -23 12 -22 12 -42 0z"/>
<path d="M7568 1269 c-33 -19 -21 -39 22 -39 44 0 49 8 22 33 -21 20 -21 20
-44 6z"/>
<path d="M7806 1264 c-9 -8 -16 -31 -16 -50 0 -27 5 -37 25 -46 53 -24 91 62
43 96 -28 20 -33 20 -52 0z"/>
<path d="M8380 1260 c-25 -25 -25 -51 -1 -81 16 -21 22 -22 45 -11 21 9 26 19
26 46 0 33 -21 66 -41 66 -5 0 -18 -9 -29 -20z"/>
<path d="M8912 1264 c-38 -26 -21 -104 23 -104 23 0 45 30 45 60 0 26 -22 60
-38 60 -4 0 -18 -7 -30 -16z"/>
<path d="M10937 1262 c-25 -27 -21 -32 23 -32 44 0 55 21 21 40 -25 13 -25 13
-44 -8z"/>
<path d="M3647 868 c-27 -21 -31 -61 -9 -88 17 -22 23 -23 46 -12 21 9 26 19
26 46 0 31 -20 66 -39 66 -4 0 -15 -6 -24 -12z"/>
<path d="M5818 869 c-13 -7 -18 -22 -18 -50 0 -33 4 -41 25 -51 21 -9 29 -9
42 5 22 22 21 76 -2 93 -22 16 -25 17 -47 3z"/>
<path d="M6268 869 c-13 -7 -18 -22 -18 -50 0 -33 4 -41 25 -51 21 -9 29 -9
42 5 22 22 21 76 -2 93 -22 16 -25 17 -47 3z"/>
<path d="M8518 869 c-13 -7 -18 -22 -18 -50 0 -33 4 -41 25 -51 21 -9 29 -9
42 5 22 22 21 76 -2 93 -22 16 -25 17 -47 3z"/>
<path d="M736 864 c-25 -25 -19 -34 24 -34 44 0 55 21 21 40 -25 13 -27 13
-45 -6z"/>
<path d="M1086 864 c-25 -25 -19 -34 24 -34 44 0 55 21 21 40 -25 13 -27 13
-45 -6z"/>
<path d="M2594 795 c-8 -19 3 -35 25 -35 20 0 41 19 41 37 0 18 -59 17 -66 -2z"/>
<path d="M2964 795 c-8 -19 3 -35 25 -35 20 0 41 19 41 37 0 18 -59 17 -66 -2z"/>
<path d="M3478 869 c-33 -19 -21 -39 22 -39 44 0 55 21 21 40 -23 12 -22 12
-43 -1z"/>
<path d="M3902 864 c-38 -26 -21 -104 23 -104 23 0 45 30 45 60 0 26 -22 60
-38 60 -4 0 -18 -7 -30 -16z"/>
<path d="M4597 862 c-25 -27 -21 -32 23 -32 44 0 55 21 21 40 -25 13 -25 13
-44 -8z"/>
<path d="M5054 795 c-8 -19 3 -35 25 -35 20 0 41 19 41 37 0 18 -59 17 -66 -2z"/>
<path d="M5459 870 c-25 -15 -32 -58 -14 -86 30 -47 75 -24 75 38 0 27 -5 40
-19 48 -23 12 -22 12 -42 0z"/>
<path d="M6084 795 c-8 -19 3 -35 25 -35 20 0 41 19 41 37 0 18 -59 17 -66 -2z"/>
<path d="M6436 864 c-25 -25 -19 -34 24 -34 44 0 55 21 21 40 -25 13 -27 13
-45 -6z"/>
<path d="M7358 869 c-33 -19 -21 -39 22 -39 44 0 49 8 22 33 -21 20 -21 20
-44 6z"/>
<path d="M7596 864 c-26 -25 -20 -72 9 -86 21 -9 28 -8 45 7 25 23 25 50 0 75
-24 24 -34 25 -54 4z"/>
<path d="M7778 869 c-12 -7 -18 -22 -18 -47 0 -41 14 -62 41 -62 41 0 59 81
24 106 -22 16 -25 17 -47 3z"/>
<path d="M7946 864 c-25 -25 -19 -34 24 -34 44 0 55 21 21 40 -25 13 -27 13
-45 -6z"/>
<path d="M8334 795 c-8 -19 3 -35 25 -35 20 0 41 19 41 37 0 18 -59 17 -66 -2z"/>
<path d="M8686 864 c-9 -8 -16 -31 -16 -50 0 -27 5 -37 25 -46 53 -24 91 62
43 96 -28 20 -33 20 -52 0z"/>
<path d="M9218 869 c-26 -15 -24 -75 2 -89 50 -27 89 52 42 88 -19 14 -22 14
-44 1z"/>
<path d="M9398 869 c-33 -19 -21 -39 22 -39 44 0 49 8 22 33 -21 20 -21 20
-44 6z"/>
<path d="M10006 864 c-26 -25 -20 -72 9 -86 21 -9 28 -8 45 7 25 23 25 50 0
75 -24 24 -34 25 -54 4z"/>
<path d="M10268 869 c-12 -7 -18 -22 -18 -47 0 -41 14 -62 41 -62 41 0 59 81
24 106 -22 16 -25 17 -47 3z"/>
<path d="M10606 864 c-25 -25 -19 -34 24 -34 44 0 55 21 21 40 -25 13 -27 13
-45 -6z"/>
<path d="M10858 869 c-12 -7 -18 -22 -18 -47 0 -41 14 -62 41 -62 41 0 59 81
24 106 -22 16 -25 17 -47 3z"/>
<path d="M11486 864 c-25 -25 -19 -34 24 -34 44 0 55 21 21 40 -25 13 -27 13
-45 -6z"/>
<path d="M4178 469 c-13 -7 -18 -22 -18 -50 0 -33 4 -41 25 -51 21 -9 29 -9
42 5 22 22 21 76 -2 93 -22 16 -25 17 -47 3z"/>
<path d="M5268 469 c-12 -7 -18 -22 -18 -47 0 -41 14 -62 41 -62 41 0 59 81
24 106 -22 16 -25 17 -47 3z"/>
<path d="M6387 468 c-27 -21 -31 -61 -9 -88 17 -22 23 -23 46 -12 21 9 26 19
26 46 0 31 -20 66 -39 66 -4 0 -15 -6 -24 -12z"/>
<path d="M700 460 c-25 -25 -25 -41 -1 -71 16 -21 22 -22 45 -11 21 9 26 19
26 46 0 25 -6 38 -19 46 -26 13 -28 13 -51 -10z"/>
<path d="M1058 469 c-33 -19 -21 -39 22 -39 44 0 49 8 22 33 -21 20 -21 20
-44 6z"/>
<path d="M1794 395 c-8 -19 3 -35 25 -35 20 0 41 19 41 37 0 18 -59 17 -66 -2z"/>
<path d="M3057 462 c-25 -27 -21 -32 23 -32 44 0 55 21 21 40 -25 13 -25 13
-44 -8z"/>
<path d="M3308 469 c-33 -19 -21 -39 22 -39 44 0 55 21 21 40 -23 12 -22 12
-43 -1z"/>
<path d="M3928 469 c-33 -19 -21 -39 22 -39 44 0 49 8 22 33 -21 20 -21 20
-44 6z"/>
<path d="M4334 395 c-8 -19 3 -35 25 -35 20 0 41 19 41 37 0 18 -59 17 -66 -2z"/>
<path d="M5518 469 c-33 -19 -21 -39 22 -39 44 0 55 21 21 40 -23 12 -22 12
-43 -1z"/>
<path d="M6024 395 c-8 -19 3 -35 25 -35 20 0 41 19 41 37 0 18 -59 17 -66 -2z"/>
<path d="M6544 395 c-8 -19 3 -35 25 -35 20 0 41 19 41 37 0 18 -59 17 -66 -2z"/>
</g>
</svg>
