<?xml version="1.0" standalone="no"?>
<!DOCTYPE svg PUBLIC "-//W3C//DTD SVG 20010904//EN"
 "http://www.w3.org/TR/2001/REC-SVG-20010904/DTD/svg10.dtd">
<svg version="1.0" xmlns="http://www.w3.org/2000/svg"
 width="839.2" height="727.08" viewBox="0 0 1202.000000 288.000000"
 preserveAspectRatio="xMidYMid meet">

<g transform="translate(0.000000,288.000000) scale(0.100000,-0.100000)"
fill="#000000" stroke="none">
<path d="M0 1440 l0 -1440 6010 0 6010 0 0 1440 0 1440 -6010 0 -6010 0 0
-1440z m710 1020 c0 -91 -3 -110 -15 -110 -12 0 -15 19 -15 110 0 91 3 110 15
110 12 0 15 -19 15 -110z m70 0 c0 -91 -3 -110 -15 -110 -12 0 -15 19 -15 110
0 91 3 110 15 110 12 0 15 -19 15 -110z m330 95 c0 -8 -7 -15 -15 -15 -8 0
-15 7 -15 15 0 8 7 15 15 15 8 0 15 -7 15 -15z m470 -27 c0 -33 3 -39 12 -30
17 17 48 15 70 -5 24 -22 27 -143 3 -143 -12 0 -15 14 -15 64 0 69 -13 86 -51
66 -15 -9 -19 -22 -19 -70 0 -47 -3 -60 -15 -60 -12 0 -15 19 -15 110 0 91 3
110 15 110 11 0 15 -11 15 -42z m630 0 c0 -33 3 -39 12 -30 17 17 54 15 72 -4
18 -18 23 -144 6 -144 -5 0 -10 19 -10 43 0 80 -20 108 -61 87 -15 -9 -19 -22
-19 -70 0 -47 -3 -60 -15 -60 -12 0 -15 19 -15 110 0 91 3 110 15 110 11 0 15
-11 15 -42z m170 27 c0 -8 -7 -15 -15 -15 -8 0 -15 7 -15 15 0 8 7 15 15 15 8
0 15 -7 15 -15z m540 -27 c0 -33 3 -39 12 -30 17 17 54 15 72 -4 18 -18 23
-144 6 -144 -5 0 -10 19 -10 43 0 80 -20 108 -61 87 -15 -9 -19 -22 -19 -70 0
-47 -3 -60 -15 -60 -12 0 -15 19 -15 110 0 91 3 110 15 110 11 0 15 -11 15
-42z m1840 32 c0 -5 -7 -10 -15 -10 -8 0 -15 -2 -15 -4 0 -2 -3 -11 -6 -20 -4
-12 0 -16 15 -16 27 0 27 -16 1 -23 -17 -4 -20 -14 -20 -71 0 -37 -4 -66 -10
-66 -6 0 -10 28 -10 65 0 49 -4 67 -15 71 -8 4 -15 10 -15 15 0 5 7 9 15 9 9
0 15 9 15 24 0 13 6 27 13 29 21 9 47 7 47 -3z m240 -32 c0 -33 3 -39 12 -30
7 7 24 12 38 12 14 0 31 -5 38 -12 15 -15 16 -148 2 -148 -6 0 -10 26 -10 58
0 76 -27 104 -64 66 -11 -10 -16 -34 -16 -70 0 -41 -4 -54 -15 -54 -12 0 -15
19 -15 110 0 91 3 110 15 110 11 0 15 -11 15 -42z m760 -68 c0 -67 -4 -110
-10 -110 -6 0 -10 43 -10 110 0 67 4 110 10 110 6 0 10 -43 10 -110z m310 68
c0 -33 3 -39 12 -30 7 7 24 12 38 12 14 0 31 -5 38 -12 15 -15 16 -148 2 -148
-6 0 -10 26 -10 58 0 76 -27 104 -64 66 -11 -10 -16 -34 -16 -70 0 -41 -4 -54
-15 -54 -12 0 -15 19 -15 110 0 91 3 110 15 110 11 0 15 -11 15 -42z m1010 2
c0 -37 2 -40 19 -30 32 17 58 12 80 -16 30 -39 24 -102 -13 -126 -17 -12 -61
-9 -74 4 -9 9 -12 9 -12 0 0 -7 -7 -12 -15 -12 -12 0 -15 19 -15 110 0 91 3
110 15 110 11 0 15 -11 15 -40z m350 25 c0 -8 -7 -15 -15 -15 -8 0 -15 7 -15
15 0 8 7 15 15 15 8 0 15 -7 15 -15z m880 -27 c0 -33 3 -39 12 -30 17 17 48
15 70 -5 24 -22 27 -143 3 -143 -12 0 -15 14 -15 64 0 69 -13 86 -51 66 -15
-9 -19 -22 -19 -70 0 -47 -3 -60 -15 -60 -12 0 -15 19 -15 110 0 91 3 110 15
110 11 0 15 -11 15 -42z m1250 -68 c0 -91 -3 -110 -15 -110 -12 0 -15 19 -15
110 0 91 3 110 15 110 12 0 15 -19 15 -110z m350 0 c0 -91 -3 -110 -15 -110
-8 0 -15 5 -15 12 0 9 -3 9 -12 0 -19 -19 -63 -14 -84 9 -11 13 -19 35 -19 59
0 64 45 97 96 70 17 -10 19 -7 19 30 0 29 4 40 15 40 12 0 15 -19 15 -110z
m-9494 78 c-3 -13 -6 -31 -6 -40 0 -10 -4 -18 -10 -18 -5 0 -10 18 -10 40 0
30 4 40 16 40 12 0 15 -6 10 -22z m54 -18 c0 -29 -4 -40 -15 -40 -11 0 -15 11
-15 40 0 29 4 40 15 40 11 0 15 -11 15 -40z m80 -65 c0 -87 -3 -105 -15 -105
-12 0 -15 18 -15 105 0 87 3 105 15 105 12 0 15 -18 15 -105z m80 65 c0 -40
-13 -53 -24 -24 -11 29 -7 64 9 64 11 0 15 -11 15 -40z m1480 10 c0 -13 7 -20
20 -20 11 0 20 -4 20 -9 0 -5 -9 -11 -20 -14 -16 -4 -20 -14 -20 -51 0 -35 5
-49 20 -58 28 -18 25 -30 -7 -26 -27 3 -28 6 -31 66 -2 44 -7 65 -17 69 -20 7
-19 23 0 23 8 0 15 9 15 20 0 11 5 20 10 20 6 0 10 -9 10 -20z m2797 0 c3 -11
12 -20 19 -20 8 0 14 -4 14 -10 0 -5 -7 -10 -15 -10 -12 0 -15 -13 -15 -55 0
-40 4 -57 15 -61 21 -8 19 -24 -3 -24 -31 0 -42 22 -42 82 0 45 -3 58 -15 58
-8 0 -15 5 -15 10 0 6 7 10 15 10 8 0 15 9 15 20 0 11 5 20 11 20 6 0 13 -9
16 -20z m5823 1 c0 -10 10 -22 23 -26 l22 -8 -22 -4 c-21 -4 -23 -10 -23 -60
0 -46 3 -56 20 -60 28 -7 25 -23 -5 -23 -32 0 -45 26 -45 89 0 30 -5 52 -12
55 -10 5 -10 7 0 12 6 3 12 14 12 25 0 10 7 19 15 19 8 0 15 -8 15 -19z
m-9732 -33 c9 -9 12 -9 12 0 0 7 7 12 15 12 24 0 21 -160 -3 -190 -23 -28 -89
-31 -109 -4 -17 24 -8 30 21 15 39 -21 70 -11 74 24 3 24 1 28 -9 18 -40 -40
-116 13 -105 71 4 16 14 38 23 48 18 20 63 24 81 6z m112 -68 c0 -64 -3 -80
-15 -80 -12 0 -15 16 -15 80 0 64 3 80 15 80 12 0 15 -16 15 -80z m75 9 l22
-64 22 68 c13 38 28 67 36 67 19 0 -37 -154 -57 -158 -10 -2 -23 20 -42 70
-29 82 -31 91 -14 86 6 -2 21 -33 33 -69z m225 51 c11 -11 20 -31 20 -45 0
-24 -3 -25 -55 -25 -57 0 -66 -8 -39 -34 18 -19 45 -21 61 -5 6 6 17 9 23 7
24 -8 -20 -38 -54 -38 -45 0 -71 30 -71 82 0 68 70 103 115 58z m417 -2 c13
-12 23 -32 23 -45 0 -21 -4 -23 -55 -23 -43 0 -55 -3 -55 -15 0 -24 47 -42 71
-27 30 19 44 14 24 -8 -18 -20 -69 -27 -91 -12 -37 24 -43 87 -13 126 25 32
64 34 96 4z m83 10 c0 -9 3 -9 12 0 13 13 48 16 48 5 0 -5 -14 -16 -30 -25
-28 -16 -30 -21 -30 -73 0 -30 -4 -55 -10 -55 -6 0 -10 33 -10 80 0 47 4 80
10 80 6 0 10 -5 10 -12z m470 -68 c0 -64 -3 -80 -15 -80 -12 0 -15 16 -15 80
0 64 3 80 15 80 12 0 15 -16 15 -80z m140 65 c17 -21 6 -29 -20 -15 -12 6 -28
9 -36 6 -26 -10 -14 -33 26 -49 48 -18 59 -40 35 -67 -24 -26 -76 -26 -100 0
-14 16 -15 20 -4 20 8 0 20 -5 26 -11 15 -15 57 -7 61 12 2 12 -9 21 -40 30
-33 11 -44 20 -46 38 -7 44 69 71 98 36z m316 1 c26 -20 10 -32 -21 -16 -22
12 -28 12 -42 -3 -15 -15 -13 -18 29 -36 52 -22 66 -46 42 -72 -21 -24 -77
-25 -99 -3 -21 22 -11 30 19 15 27 -15 57 -12 64 6 2 8 -16 21 -42 33 -37 15
-46 24 -46 44 0 42 56 60 96 32z m334 -6 c11 -11 20 -31 20 -45 0 -24 -3 -25
-55 -25 -57 0 -66 -8 -39 -34 18 -19 45 -21 61 -5 6 6 17 9 23 7 24 -8 -20
-38 -54 -38 -45 0 -71 30 -71 82 0 68 70 103 115 58z m160 -22 c21 -84 25 -85
43 -19 21 75 36 75 56 3 8 -29 17 -52 21 -52 4 0 12 25 19 55 7 32 18 55 26
55 10 0 8 -18 -9 -80 -25 -96 -42 -101 -67 -20 -15 52 -17 54 -26 30 -6 -14
-14 -40 -18 -58 -11 -53 -35 -37 -57 38 -20 74 -22 90 -8 90 5 0 14 -19 20
-42z m302 25 c14 -12 18 -31 18 -78 l0 -61 -55 -2 c-50 -1 -57 1 -67 23 -15
34 12 65 59 65 26 0 33 4 33 19 0 28 -17 35 -51 21 -35 -15 -46 -9 -24 14 21
21 63 21 87 -1z m158 2 c17 -21 6 -29 -20 -15 -12 6 -28 9 -36 6 -26 -10 -14
-33 26 -49 48 -18 59 -40 35 -67 -24 -26 -76 -26 -100 0 -14 16 -15 20 -4 20
8 0 20 -5 26 -11 15 -15 57 -7 61 12 2 12 -9 21 -40 30 -33 11 -44 20 -46 38
-7 44 69 71 98 36z m250 -7 c27 -29 27 -91 0 -118 -24 -24 -77 -26 -102 -3
-26 23 -25 96 2 123 27 27 74 26 100 -2z m80 11 c0 -8 4 -8 14 0 24 20 69 9
83 -19 19 -37 17 -130 -2 -130 -12 0 -15 13 -15 58 0 76 -27 104 -64 66 -11
-10 -16 -34 -16 -70 0 -30 -4 -54 -10 -54 -6 0 -10 33 -10 80 0 47 4 80 10 80
6 0 10 -5 10 -11z m259 -15 c12 -15 21 -35 21 -45 0 -16 -8 -19 -55 -19 -58 0
-71 -14 -39 -41 12 -10 22 -10 47 -1 35 13 45 9 27 -13 -7 -8 -28 -15 -46 -15
-46 0 -74 29 -74 77 0 74 77 111 119 57z m251 4 c27 -29 27 -91 0 -118 -24
-24 -77 -26 -102 -3 -26 23 -25 96 2 123 27 27 74 26 100 -2z m629 -4 c12 -15
21 -35 21 -45 0 -16 -8 -19 -55 -19 -58 0 -71 -14 -39 -41 12 -10 22 -10 47
-1 35 13 45 9 27 -13 -7 -8 -28 -15 -46 -15 -46 0 -74 29 -74 77 0 74 77 111
119 57z m250 0 c23 -30 27 -64 10 -97 -16 -30 -28 -37 -65 -37 -42 0 -69 31
-69 82 0 73 81 106 124 52z m81 16 c0 -6 8 -5 20 2 13 9 27 9 47 2 27 -9 28
-13 31 -82 2 -45 -1 -72 -8 -72 -6 0 -10 23 -10 53 0 30 -6 62 -14 72 -12 17
-18 18 -40 7 -24 -11 -26 -17 -26 -72 0 -47 -3 -60 -15 -60 -12 0 -15 16 -15
80 0 64 3 80 15 80 8 0 15 -5 15 -10z m251 -57 l22 -68 22 64 c12 36 27 67 33
69 7 2 12 -1 12 -6 0 -16 -60 -175 -71 -188 -15 -19 -49 -24 -49 -8 0 8 7 14
15 14 28 0 27 25 -4 108 -22 61 -26 82 -16 82 8 0 23 -29 36 -67z m399 9 c0
-60 11 -82 42 -82 25 0 38 31 38 89 0 28 5 51 10 51 6 0 10 -33 10 -80 0 -47
-4 -80 -10 -80 -5 0 -10 5 -10 11 0 8 -4 8 -14 0 -24 -20 -69 -9 -83 19 -13
26 -18 112 -6 123 16 17 23 3 23 -51z m170 46 c0 -9 3 -9 12 0 15 15 50 16 64
2 6 -6 21 -6 42 2 53 20 66 4 70 -81 3 -86 -14 -96 -20 -11 -5 68 -19 91 -46
74 -12 -8 -18 -28 -20 -73 -2 -45 -7 -61 -17 -61 -12 0 -15 14 -15 58 0 74
-21 100 -54 66 -11 -10 -16 -34 -16 -70 0 -30 -4 -54 -10 -54 -6 0 -10 33 -10
80 0 47 4 80 10 80 6 0 10 -5 10 -12z m331 2 c16 -9 19 -22 19 -80 0 -40 -4
-70 -10 -70 -5 0 -10 5 -10 11 0 8 -4 8 -14 0 -21 -18 -66 -9 -82 14 -21 31 6
65 51 65 40 0 53 16 32 38 -13 13 -21 13 -42 4 -39 -18 -50 -15 -30 8 20 22
55 26 86 10z m89 0 c0 -6 8 -5 20 2 13 9 27 9 47 2 27 -9 28 -13 31 -82 2 -45
-1 -72 -8 -72 -6 0 -10 23 -10 53 0 30 -6 62 -14 72 -12 17 -18 18 -40 7 -24
-11 -26 -17 -26 -72 0 -47 -3 -60 -15 -60 -12 0 -15 16 -15 80 0 64 3 80 15
80 8 0 15 -5 15 -10z m512 -7 c8 -10 18 -30 22 -45 l6 -28 -60 0 c-58 0 -60
-1 -50 -21 15 -28 37 -34 66 -19 30 17 46 3 20 -16 -27 -19 -75 -18 -98 3 -26
23 -25 96 2 123 25 25 72 26 92 3z m88 -63 c0 -64 -3 -80 -15 -80 -12 0 -15
16 -15 80 0 64 3 80 15 80 12 0 15 -16 15 -80z m63 68 c4 -10 7 -10 18 0 20
19 56 14 73 -10 21 -30 22 -138 1 -138 -10 0 -15 16 -17 61 -5 110 -67 106
-76 -5 -7 -84 -22 -67 -22 24 0 72 10 102 23 68z m238 2 c13 -7 19 -7 19 0 0
5 5 10 10 10 6 0 10 -38 10 -94 0 -106 -7 -118 -65 -118 -35 0 -65 16 -65 33
0 5 7 9 15 9 8 0 15 -4 15 -10 0 -14 54 -12 68 2 7 7 12 20 12 30 0 15 -3 17
-19 8 -11 -5 -29 -10 -40 -10 -24 0 -61 45 -61 75 0 30 37 75 61 75 11 0 29
-5 40 -10z m185 -4 c26 -20 10 -32 -21 -16 -22 12 -28 12 -42 -3 -15 -15 -13
-18 29 -36 52 -22 66 -46 42 -72 -21 -24 -77 -25 -99 -3 -21 22 -11 30 19 15
27 -15 57 -12 64 6 2 8 -16 21 -42 33 -37 15 -46 24 -46 44 0 42 56 60 96 32z
m163 -51 c15 -64 20 -62 41 23 6 23 17 42 24 42 7 0 21 -27 31 -62 l18 -63 15
63 c10 40 21 62 30 62 8 0 12 -6 10 -12 -3 -7 -13 -43 -23 -80 -11 -40 -23
-68 -31 -68 -7 0 -21 27 -32 61 l-18 60 -19 -60 c-10 -34 -24 -61 -31 -61 -11
0 -28 46 -50 134 -5 22 -4 28 7 24 7 -2 20 -31 28 -63z m482 46 c18 -14 24
-29 24 -59 0 -51 -27 -82 -69 -82 -37 0 -49 7 -65 37 -41 79 43 159 110 104z
m251 2 c22 -20 23 -33 3 -33 -8 0 -15 4 -15 9 0 18 -33 21 -56 6 -30 -20 -32
-65 -3 -91 20 -18 22 -18 51 -1 37 21 48 15 23 -13 -24 -27 -76 -26 -101 1
-28 31 -25 96 5 120 29 23 68 24 93 2z m168 -5 c27 -29 27 -91 0 -118 -24 -24
-77 -26 -102 -3 -26 23 -25 96 2 123 27 27 74 26 100 -2z m80 11 c0 -8 4 -8
14 0 24 20 69 9 83 -19 19 -37 17 -130 -2 -130 -12 0 -15 13 -15 58 0 76 -27
104 -64 66 -11 -10 -16 -34 -16 -70 0 -30 -4 -54 -10 -54 -6 0 -10 33 -10 80
0 47 4 80 10 80 6 0 10 -5 10 -11z m246 -3 c26 -20 10 -32 -21 -16 -22 12 -28
12 -42 -3 -15 -15 -13 -18 29 -36 52 -22 66 -46 42 -72 -21 -24 -77 -25 -99
-3 -21 22 -11 30 19 15 27 -15 57 -12 64 6 2 8 -16 21 -42 33 -37 15 -46 24
-46 44 0 42 56 60 96 32z m173 -12 c23 -30 27 -64 10 -97 -16 -30 -28 -37 -65
-37 -42 0 -69 31 -69 82 0 73 81 106 124 52z m233 9 c8 -10 18 -30 22 -45 l6
-28 -60 0 c-58 0 -60 -1 -50 -21 15 -28 37 -34 66 -19 30 17 46 3 20 -16 -27
-19 -75 -18 -98 3 -26 23 -25 96 2 123 25 25 72 26 92 3z m340 6 c3 -8 10 -8
26 2 17 11 26 11 41 2 15 -9 26 -9 50 0 52 19 65 3 69 -82 2 -44 -1 -71 -8
-71 -6 0 -10 25 -10 59 0 67 -15 90 -49 71 -18 -9 -21 -20 -21 -70 0 -47 -3
-60 -15 -60 -12 0 -15 14 -15 64 0 51 -3 65 -17 71 -29 10 -53 -29 -53 -86 0
-27 -4 -49 -10 -49 -6 0 -10 33 -10 80 0 44 4 80 9 80 5 0 11 -5 13 -11z m347
-15 c12 -15 21 -35 21 -45 0 -16 -8 -19 -55 -19 -58 0 -71 -14 -39 -41 12 -10
22 -10 47 -1 35 13 45 9 27 -13 -7 -8 -28 -15 -46 -15 -46 0 -74 29 -74 77 0
74 77 111 119 57z m232 16 c16 -9 19 -22 19 -80 0 -40 -4 -70 -10 -70 -5 0
-10 5 -10 11 0 8 -4 8 -14 0 -21 -18 -66 -9 -82 14 -21 31 6 65 51 65 40 0 53
16 32 38 -13 13 -21 13 -42 4 -39 -18 -50 -15 -30 8 20 22 55 26 86 10z m269
-2 c0 -9 3 -9 12 0 15 15 50 16 64 2 6 -6 21 -6 42 2 53 20 66 4 70 -81 3 -86
-14 -96 -20 -11 -5 68 -19 91 -46 74 -12 -8 -18 -28 -20 -73 -2 -45 -7 -61
-17 -61 -12 0 -15 14 -15 58 0 74 -21 100 -54 66 -11 -10 -16 -34 -16 -70 0
-30 -4 -54 -10 -54 -6 0 -10 33 -10 80 0 47 4 80 10 80 6 0 10 -5 10 -12z
m265 -59 l22 -64 22 68 c14 40 28 67 37 67 10 0 6 -19 -16 -81 -37 -100 -46
-116 -70 -129 -25 -13 -30 -13 -30 4 0 7 9 16 20 19 26 7 25 23 -5 103 -28 75
-30 87 -13 82 6 -2 21 -33 33 -69z m-8557 44 c-4 -22 -22 -20 -26 1 -2 10 3
16 13 16 10 0 15 -7 13 -17z m-2 -119 c-3 -9 -9 -27 -12 -40 -7 -28 -24 -32
-24 -6 0 34 13 62 27 62 10 0 13 -6 9 -16z m-2086 -304 c0 -91 -3 -110 -15
-110 -8 0 -15 5 -15 12 0 9 -3 9 -12 0 -19 -19 -63 -14 -84 9 -11 13 -19 35
-19 59 0 64 45 97 96 70 17 -10 19 -7 19 30 0 29 4 40 15 40 12 0 15 -19 15
-110z m340 43 l0 -67 40 39 c46 45 68 40 25 -5 -21 -22 -27 -35 -20 -44 6 -8
20 -28 33 -45 18 -24 20 -31 8 -31 -8 0 -27 16 -42 35 -14 19 -30 35 -35 35
-5 0 -9 -16 -9 -35 0 -24 -5 -35 -15 -35 -12 0 -15 19 -15 110 0 91 3 110 15
110 12 0 15 -14 15 -67z m2549 30 c29 -33 10 -45 -23 -14 -52 49 -123 3 -113
-74 9 -64 58 -92 105 -59 30 21 28 42 -5 46 -48 6 -39 28 11 28 45 0 46 -1 46
-30 0 -66 -90 -105 -147 -65 -43 30 -49 126 -11 172 33 40 99 38 137 -4z m91
-5 c0 -33 3 -39 12 -30 17 17 48 15 70 -5 24 -22 27 -143 3 -143 -12 0 -15 14
-15 64 0 69 -13 86 -51 66 -15 -9 -19 -22 -19 -70 0 -47 -3 -60 -15 -60 -12 0
-15 19 -15 110 0 91 3 110 15 110 11 0 15 -11 15 -42z m340 -68 c0 -91 -3
-110 -15 -110 -12 0 -15 19 -15 110 0 91 3 110 15 110 12 0 15 -19 15 -110z
m790 71 c0 -39 0 -39 29 -28 55 20 81 -13 81 -104 0 -36 -4 -49 -15 -49 -10 0
-15 16 -17 61 -2 47 -7 65 -21 73 -29 18 -57 -24 -57 -85 0 -27 -4 -49 -10
-49 -6 0 -10 43 -10 110 0 67 4 110 10 110 6 0 10 -18 10 -39z m790 -3 c0 -33
3 -39 12 -30 17 17 54 15 72 -4 18 -18 23 -144 6 -144 -5 0 -10 19 -10 43 0
80 -20 108 -61 87 -15 -9 -19 -22 -19 -70 0 -47 -3 -60 -15 -60 -12 0 -15 19
-15 110 0 91 3 110 15 110 11 0 15 -11 15 -42z m1080 27 c0 -8 -7 -15 -15 -15
-8 0 -15 7 -15 15 0 8 7 15 15 15 8 0 15 -7 15 -15z m910 5 c0 -5 -7 -10 -15
-10 -8 0 -15 -9 -15 -20 0 -11 7 -20 15 -20 8 0 15 -4 15 -10 0 -5 -7 -10 -15
-10 -12 0 -15 -14 -15 -70 0 -56 -3 -70 -15 -70 -12 0 -15 14 -15 70 0 56 -3
70 -15 70 -8 0 -15 5 -15 10 0 6 7 10 15 10 8 0 15 8 15 18 0 10 5 23 12 30
15 15 48 16 48 2z m630 -32 c0 -33 3 -39 12 -30 17 17 48 15 70 -5 24 -22 27
-143 3 -143 -12 0 -15 14 -15 64 0 69 -13 86 -51 66 -15 -9 -19 -22 -19 -70 0
-47 -3 -60 -15 -60 -12 0 -15 19 -15 110 0 91 3 110 15 110 11 0 15 -11 15
-42z m510 -68 c0 -91 -3 -110 -15 -110 -12 0 -15 19 -15 110 0 91 3 110 15
110 12 0 15 -19 15 -110z m880 68 c0 -33 3 -39 12 -30 17 17 48 15 70 -5 24
-22 27 -143 3 -143 -12 0 -15 14 -15 64 0 69 -13 86 -51 66 -15 -9 -19 -22
-19 -70 0 -47 -3 -60 -15 -60 -12 0 -15 19 -15 110 0 91 3 110 15 110 11 0 15
-11 15 -42z m980 -68 c0 -91 -3 -110 -15 -110 -12 0 -15 19 -15 110 0 91 3
110 15 110 12 0 15 -19 15 -110z m180 0 c0 -91 -3 -110 -15 -110 -8 0 -15 5
-15 12 0 9 -3 9 -12 0 -19 -19 -63 -14 -84 9 -11 13 -19 35 -19 59 0 64 45 97
96 70 17 -10 19 -7 19 30 0 29 4 40 15 40 12 0 15 -19 15 -110z m-7640 -5 c0
-63 -4 -105 -10 -105 -6 0 -10 42 -10 105 0 63 4 105 10 105 6 0 10 -42 10
-105z m1460 0 c0 -87 -3 -105 -15 -105 -12 0 -15 18 -15 105 0 87 3 105 15
105 12 0 15 -18 15 -105z m820 55 l0 -49 46 49 c58 62 91 68 40 8 -20 -23 -36
-46 -36 -51 0 -6 15 -28 33 -51 46 -57 51 -66 33 -66 -9 0 -32 22 -53 50 -42
57 -63 53 -63 -11 0 -28 -4 -39 -15 -39 -12 0 -15 18 -15 105 0 87 3 105 15
105 11 0 15 -12 15 -50z m770 -55 c0 -63 -4 -105 -10 -105 -6 0 -10 42 -10
105 0 63 4 105 10 105 6 0 10 -42 10 -105z m1680 95 c0 -5 -16 -10 -35 -10
l-35 0 0 -95 c0 -78 -3 -95 -15 -95 -12 0 -15 17 -15 95 l0 95 -35 0 c-19 0
-35 5 -35 10 0 6 35 10 85 10 50 0 85 -4 85 -10z m-6343 -20 c3 -11 12 -20 19
-20 8 0 14 -4 14 -10 0 -5 -7 -10 -15 -10 -12 0 -15 -13 -15 -55 0 -40 4 -57
15 -61 21 -8 19 -24 -3 -24 -31 0 -42 22 -42 82 0 45 -3 58 -15 58 -8 0 -15 5
-15 10 0 6 7 10 15 10 8 0 15 9 15 20 0 11 5 20 11 20 6 0 13 -9 16 -20z
m1203 0 c0 -13 7 -20 20 -20 11 0 20 -4 20 -9 0 -5 -9 -11 -20 -14 -16 -4 -20
-14 -20 -51 0 -35 5 -49 20 -58 28 -18 25 -30 -7 -26 -27 3 -28 6 -31 66 -2
44 -7 65 -17 69 -20 7 -19 23 0 23 8 0 15 9 15 20 0 11 5 20 10 20 6 0 10 -9
10 -20z m3867 0 c3 -11 12 -20 19 -20 8 0 14 -4 14 -10 0 -5 -7 -10 -15 -10
-12 0 -15 -13 -15 -55 0 -40 4 -57 15 -61 21 -8 19 -24 -3 -24 -31 0 -42 22
-42 82 0 45 -3 58 -15 58 -8 0 -15 5 -15 10 0 6 7 10 15 10 8 0 15 9 15 20 0
11 5 20 11 20 6 0 13 -9 16 -20z m173 1 c0 -10 10 -22 23 -26 l22 -8 -22 -4
c-21 -4 -23 -10 -23 -60 0 -46 3 -56 20 -60 28 -7 25 -23 -5 -23 -32 0 -45 26
-45 89 0 30 -5 52 -12 55 -10 5 -10 7 0 12 6 3 12 14 12 25 0 10 7 19 15 19 8
0 15 -8 15 -19z m277 -1 c3 -11 12 -20 19 -20 8 0 14 -4 14 -10 0 -5 -7 -10
-15 -10 -12 0 -15 -13 -15 -55 0 -40 4 -57 15 -61 21 -8 19 -24 -3 -24 -31 0
-42 22 -42 82 0 45 -3 58 -15 58 -8 0 -15 5 -15 10 0 6 7 10 15 10 8 0 15 9
15 20 0 11 5 20 11 20 6 0 13 -9 16 -20z m-6195 -37 c14 -12 18 -31 18 -78 l0
-61 -55 -2 c-50 -1 -57 1 -67 23 -15 34 12 65 59 65 26 0 33 4 33 19 0 28 -17
35 -51 21 -35 -15 -46 -9 -24 14 21 21 63 21 87 -1z m88 5 c0 -9 3 -9 12 0 14
14 38 16 38 4 0 -5 -11 -14 -25 -20 -23 -10 -25 -17 -25 -72 0 -47 -3 -60 -15
-60 -12 0 -15 16 -15 80 0 64 3 80 15 80 8 0 15 -5 15 -12z m340 -8 c11 -11
20 -31 20 -45 0 -24 -3 -25 -55 -25 -57 0 -66 -8 -39 -34 18 -19 45 -21 61 -5
6 6 17 9 23 7 24 -8 -20 -38 -54 -38 -45 0 -71 30 -71 82 0 68 70 103 115 58z
m156 6 c26 -20 10 -32 -21 -16 -22 12 -28 12 -42 -3 -15 -15 -13 -18 29 -36
52 -22 66 -46 42 -72 -21 -24 -77 -25 -99 -3 -21 22 -11 30 19 15 27 -15 57
-12 64 6 2 8 -16 21 -42 33 -37 15 -46 24 -46 44 0 42 56 60 96 32z m264 2 c0
-9 3 -9 12 0 7 7 21 12 33 12 12 0 26 -5 33 -12 9 -9 15 -9 24 0 17 17 54 15
72 -4 22 -22 23 -144 1 -144 -12 0 -15 14 -15 64 0 48 -4 65 -15 70 -37 14
-55 -15 -55 -91 0 -24 -4 -43 -10 -43 -6 0 -10 26 -10 59 0 67 -15 90 -49 71
-18 -9 -21 -20 -21 -70 0 -47 -3 -60 -15 -60 -12 0 -15 16 -15 80 0 64 3 80
15 80 8 0 15 -5 15 -12z m349 -14 c23 -30 27 -64 10 -97 -16 -30 -28 -37 -65
-37 -42 0 -69 31 -69 82 0 73 81 106 124 52z m81 14 c0 -9 3 -9 12 0 7 7 21
12 33 12 12 0 26 -5 33 -12 9 -9 15 -9 24 0 17 17 54 15 72 -4 22 -22 23 -144
1 -144 -12 0 -15 14 -15 64 0 48 -4 65 -15 70 -37 14 -55 -15 -55 -91 0 -24
-4 -43 -10 -43 -6 0 -10 26 -10 59 0 67 -15 90 -49 71 -18 -9 -21 -20 -21 -70
0 -47 -3 -60 -15 -60 -12 0 -15 16 -15 80 0 64 3 80 15 80 8 0 15 -5 15 -12z
m337 -10 c13 -12 23 -32 23 -45 0 -21 -4 -23 -55 -23 -43 0 -55 -3 -55 -15 0
-24 47 -42 71 -27 30 19 44 14 24 -8 -18 -20 -69 -27 -91 -12 -37 24 -43 87
-13 126 25 32 64 34 96 4z m83 11 c0 -8 4 -8 14 0 24 20 69 9 83 -19 19 -37
17 -130 -2 -130 -12 0 -15 13 -15 58 0 76 -27 104 -64 66 -11 -10 -16 -34 -16
-70 0 -30 -4 -54 -10 -54 -6 0 -10 33 -10 80 0 47 4 80 10 80 6 0 10 -5 10
-11z m346 -3 c26 -20 10 -32 -21 -16 -22 12 -28 12 -42 -3 -15 -15 -13 -18 29
-36 52 -22 66 -46 42 -72 -21 -24 -77 -25 -99 -3 -21 22 -11 30 19 15 27 -15
57 -12 64 6 2 8 -16 21 -42 33 -37 15 -46 24 -46 44 0 42 56 60 96 32z m317 2
c4 -10 7 -10 18 0 20 19 56 14 73 -10 21 -30 22 -138 1 -138 -10 0 -15 16 -17
61 -5 110 -67 106 -76 -5 -7 -84 -22 -67 -22 24 0 72 10 102 23 68z m647 -59
c4 -51 9 -64 23 -67 33 -7 47 17 47 79 0 46 3 59 15 59 12 0 15 -15 15 -78 l0
-78 -55 -2 c-67 -2 -75 9 -75 98 0 85 23 77 30 -11z m312 54 c14 -12 18 -31
18 -78 l0 -61 -55 -2 c-50 -1 -57 1 -67 23 -15 34 12 65 59 65 26 0 33 4 33
19 0 28 -17 35 -51 21 -35 -15 -46 -9 -24 14 21 21 63 21 87 -1z m88 5 c0 -9
3 -9 12 0 7 7 21 12 33 12 12 0 26 -5 33 -12 9 -9 15 -9 24 0 17 17 54 15 72
-4 22 -22 23 -144 1 -144 -12 0 -15 14 -15 64 0 48 -4 65 -15 70 -37 14 -55
-15 -55 -91 0 -24 -4 -43 -10 -43 -6 0 -10 26 -10 59 0 67 -15 90 -49 71 -18
-9 -21 -20 -21 -70 0 -47 -3 -60 -15 -60 -12 0 -15 16 -15 80 0 64 3 80 15 80
8 0 15 -5 15 -12z m486 -10 c19 -21 19 -21 -6 -14 -44 13 -64 12 -68 -5 -2
-12 9 -21 40 -30 33 -11 44 -20 46 -38 3 -15 -3 -30 -14 -38 -24 -18 -79 -16
-94 2 -18 22 -4 31 24 15 28 -15 56 -8 56 14 0 9 -16 20 -39 26 -47 12 -62 42
-35 71 23 25 66 24 90 -3z m328 0 c22 -31 22 -138 1 -138 -8 0 -15 5 -15 12 0
9 -3 9 -12 0 -7 -7 -24 -12 -38 -12 -32 0 -50 17 -50 47 0 26 27 43 69 43 24
0 31 4 31 19 0 25 -33 36 -59 19 -27 -16 -42 0 -17 18 30 21 72 17 90 -8z
m147 12 c13 -7 19 -7 19 0 0 5 5 10 10 10 6 0 10 -42 10 -105 0 -63 -4 -105
-10 -105 -5 0 -10 17 -10 37 0 29 -3 34 -12 25 -13 -13 -57 -16 -74 -4 -37 24
-43 87 -13 126 22 28 48 33 80 16z m631 -7 c14 -12 18 -31 18 -78 l0 -61 -55
-2 c-50 -1 -57 1 -67 23 -15 34 12 65 59 65 26 0 33 4 33 19 0 28 -17 35 -51
21 -35 -15 -46 -9 -24 14 21 21 63 21 87 -1z m88 7 c0 -6 8 -5 20 2 13 9 27 9
47 2 27 -9 28 -13 31 -82 2 -45 -1 -72 -8 -72 -6 0 -10 23 -10 53 0 30 -6 62
-14 72 -12 17 -18 18 -40 7 -24 -11 -26 -17 -26 -72 0 -47 -3 -60 -15 -60 -12
0 -15 16 -15 80 0 64 3 80 15 80 8 0 15 -5 15 -10z m323 -2 c4 -10 7 -10 18 0
20 19 56 14 73 -10 21 -30 22 -138 1 -138 -10 0 -15 16 -17 61 -5 110 -67 106
-76 -5 -7 -84 -22 -67 -22 24 0 72 10 102 23 68z m243 -2 c26 -20 10 -32 -21
-16 -22 12 -28 12 -42 -3 -15 -15 -13 -18 29 -36 52 -22 66 -46 42 -72 -21
-24 -77 -25 -99 -3 -21 22 -11 30 19 15 27 -15 57 -12 64 6 2 8 -16 21 -42 33
-37 15 -46 24 -46 44 0 42 56 60 96 32z m184 -66 c0 -64 -3 -80 -15 -80 -12 0
-15 16 -15 80 0 64 3 80 15 80 12 0 15 -16 15 -80z m170 29 c0 -58 13 -89 38
-89 31 0 42 22 42 82 0 45 3 58 15 58 12 0 15 -16 15 -80 0 -64 -3 -80 -15
-80 -8 0 -15 5 -15 12 0 9 -3 9 -12 0 -7 -7 -24 -12 -38 -12 -14 0 -31 5 -38
12 -15 15 -16 148 -2 148 6 0 10 -23 10 -51z m360 31 c11 -11 20 -31 20 -45 0
-24 -3 -25 -55 -25 -57 0 -66 -8 -39 -34 18 -19 45 -21 61 -5 6 6 17 9 23 7
24 -8 -20 -38 -54 -38 -45 0 -71 30 -71 82 0 68 70 103 115 58z m250 0 c25
-25 27 -95 3 -122 -22 -24 -77 -24 -103 2 -13 13 -20 33 -20 60 0 49 27 80 70
80 17 0 39 -9 50 -20z m507 -2 c13 -12 23 -32 23 -45 0 -21 -4 -23 -55 -23
-43 0 -55 -3 -55 -15 0 -24 47 -42 71 -27 30 19 44 14 24 -8 -18 -20 -69 -27
-91 -12 -37 24 -43 87 -13 126 25 32 64 34 96 4z m175 0 c27 -27 6 -39 -23
-12 -16 14 -24 15 -44 6 -20 -9 -25 -19 -25 -50 0 -59 34 -80 72 -45 22 19 37
9 22 -15 -6 -10 -27 -18 -47 -20 -48 -4 -77 24 -77 76 0 73 73 109 122 60z
m248 10 c0 -9 3 -9 12 0 17 17 54 15 72 -4 22 -22 23 -144 1 -144 -12 0 -15
14 -15 64 0 69 -13 86 -51 66 -15 -9 -19 -22 -19 -70 0 -47 -3 -60 -15 -60
-12 0 -15 16 -15 80 0 64 3 80 15 80 8 0 15 -5 15 -12z m259 -14 c23 -30 27
-64 10 -97 -16 -30 -28 -37 -65 -37 -42 0 -69 31 -69 82 0 73 81 106 124 52z
m241 4 c27 -29 27 -91 0 -118 -24 -24 -77 -26 -102 -3 -26 23 -25 96 2 123 27
27 74 26 100 -2z m149 10 c11 -10 14 -10 18 0 3 6 9 12 14 12 11 0 12 -170 1
-187 -21 -33 -97 -35 -117 -3 -10 16 3 26 17 12 19 -19 66 -14 78 7 16 31 13
43 -9 31 -53 -28 -101 4 -101 65 0 57 63 96 99 63z m122 -55 l22 -68 22 64
c12 36 27 67 33 69 7 2 12 -1 12 -6 0 -16 -60 -175 -71 -188 -15 -19 -49 -24
-49 -8 0 8 7 14 15 14 28 0 27 25 -4 108 -22 61 -26 82 -16 82 8 0 23 -29 36
-67z m364 51 c22 -22 11 -30 -19 -14 -14 7 -32 10 -40 7 -30 -12 -17 -35 27
-49 45 -14 60 -45 37 -74 -16 -18 -70 -18 -96 0 -24 18 -10 34 16 18 26 -16
45 -15 60 3 10 12 5 18 -33 34 -56 24 -63 35 -43 66 19 29 66 34 91 9z m335
-4 c11 -11 20 -31 20 -45 0 -24 -3 -25 -55 -25 -57 0 -66 -8 -39 -34 18 -19
45 -21 61 -5 6 6 17 9 23 7 24 -8 -20 -38 -54 -38 -45 0 -71 30 -71 82 0 68
70 103 115 58z m161 -35 c7 -30 15 -55 19 -55 4 0 13 23 21 52 20 72 35 72 56
-3 18 -66 22 -65 43 19 6 23 15 42 20 42 14 0 12 -15 -9 -90 -21 -75 -45 -91
-56 -38 -4 18 -12 44 -18 58 -9 24 -11 22 -26 -30 -25 -81 -42 -76 -67 20 -17
62 -19 80 -9 80 8 0 19 -23 26 -55z m310 36 c18 -14 24 -29 24 -59 0 -51 -27
-82 -69 -82 -37 0 -49 7 -65 37 -41 79 43 159 110 104z m89 -52 c4 -51 9 -64
23 -67 33 -7 47 17 47 79 0 46 3 59 15 59 12 0 15 -15 15 -78 l0 -78 -55 -2
c-67 -2 -75 9 -75 98 0 85 23 77 30 -11z m-7440 -69 c0 -5 -5 -12 -11 -16 -14
-8 -33 11 -25 25 7 11 36 4 36 -9z m6307 -30 c-13 -49 -27 -52 -27 -7 0 36 6
47 25 47 9 0 10 -10 2 -40z m-6307 -280 c0 -67 -4 -110 -10 -110 -6 0 -10 43
-10 110 0 67 4 110 10 110 6 0 10 -43 10 -110z m420 43 l0 -67 38 37 c49 47
78 49 32 2 l-34 -35 32 -39 c36 -45 38 -51 18 -51 -7 0 -26 16 -40 35 -31 40
-46 38 -46 -6 0 -19 -5 -29 -15 -29 -12 0 -15 19 -15 110 0 91 3 110 15 110
12 0 15 -14 15 -67z m240 52 c0 -8 -7 -15 -15 -15 -8 0 -15 7 -15 15 0 8 7 15
15 15 8 0 15 -7 15 -15z m830 -95 c0 -91 -3 -110 -15 -110 -8 0 -15 5 -15 12
0 9 -3 9 -12 0 -17 -17 -58 -15 -80 5 -26 23 -25 96 2 123 22 22 60 26 78 8 9
-9 12 -3 12 30 0 31 4 42 15 42 12 0 15 -19 15 -110z m465 96 c19 -8 35 -22
35 -30 0 -20 -14 -20 -30 0 -8 9 -25 14 -44 12 -26 -2 -31 -7 -31 -28 0 -20 8
-27 40 -38 71 -23 91 -55 59 -100 -21 -30 -95 -31 -125 -1 -15 15 -18 24 -10
32 8 8 15 5 27 -11 18 -26 65 -30 85 -6 18 22 1 46 -42 57 -91 23 -92 101 -1
126 1 1 18 -6 37 -13z m105 -28 c0 -33 3 -39 12 -30 7 7 24 12 38 12 14 0 31
-5 38 -12 15 -15 16 -148 2 -148 -6 0 -10 26 -10 58 0 76 -27 104 -64 66 -11
-10 -16 -34 -16 -70 0 -41 -4 -54 -15 -54 -12 0 -15 19 -15 110 0 91 3 110 15
110 11 0 15 -11 15 -42z m990 -68 c0 -91 -3 -110 -15 -110 -12 0 -15 19 -15
110 0 91 3 110 15 110 12 0 15 -19 15 -110z m170 0 c0 -67 -4 -110 -10 -110
-5 0 -10 5 -10 12 0 9 -3 9 -12 0 -13 -13 -57 -16 -74 -4 -37 24 -43 87 -13
126 22 28 48 33 80 16 17 -10 19 -7 19 30 0 22 5 40 10 40 6 0 10 -43 10 -110z
m420 0 c0 -67 -4 -110 -10 -110 -6 0 -10 43 -10 110 0 67 4 110 10 110 6 0 10
-43 10 -110z m80 0 c0 -91 -3 -110 -15 -110 -12 0 -15 19 -15 110 0 91 3 110
15 110 12 0 15 -19 15 -110z m750 71 c0 -39 0 -39 29 -28 55 20 81 -13 81
-104 0 -36 -4 -49 -15 -49 -10 0 -15 16 -17 61 -2 47 -7 65 -21 73 -29 18 -57
-24 -57 -85 0 -27 -4 -49 -10 -49 -6 0 -10 43 -10 110 0 67 4 110 10 110 6 0
10 -18 10 -39z m1290 -71 c0 -91 -3 -110 -15 -110 -8 0 -15 5 -15 12 0 9 -3 9
-12 0 -19 -19 -63 -14 -84 9 -11 13 -19 35 -19 59 0 64 45 97 96 70 17 -10 19
-7 19 30 0 29 4 40 15 40 12 0 15 -19 15 -110z m340 0 c0 -67 -4 -110 -10
-110 -5 0 -10 5 -10 12 0 9 -3 9 -12 0 -13 -13 -57 -16 -74 -4 -37 24 -43 87
-13 126 22 28 48 33 80 16 17 -10 19 -7 19 30 0 22 5 40 10 40 6 0 10 -43 10
-110z m1433 77 c23 -26 4 -37 -22 -13 -32 29 -86 15 -79 -20 2 -12 19 -24 48
-34 25 -8 51 -19 58 -23 17 -12 15 -57 -5 -79 -32 -36 -133 -15 -133 29 0 19
13 16 33 -7 29 -35 87 -21 87 21 0 11 -13 22 -37 29 -58 18 -83 38 -83 64 0
60 90 82 133 33z m87 -9 c0 -33 3 -39 12 -30 17 17 48 15 70 -5 24 -22 27
-143 3 -143 -12 0 -15 14 -15 64 0 69 -13 86 -51 66 -15 -9 -19 -22 -19 -70 0
-47 -3 -60 -15 -60 -12 0 -15 19 -15 110 0 91 3 110 15 110 11 0 15 -11 15
-42z m980 -68 c0 -91 -3 -110 -15 -110 -12 0 -15 19 -15 110 0 91 3 110 15
110 12 0 15 -19 15 -110z m180 0 c0 -91 -3 -110 -15 -110 -8 0 -15 5 -15 12 0
9 -3 9 -12 0 -19 -19 -63 -14 -84 9 -11 13 -19 35 -19 59 0 64 45 97 96 70 17
-10 19 -7 19 30 0 29 4 40 15 40 12 0 15 -19 15 -110z m-3790 -5 c0 -63 -4
-105 -10 -105 -6 0 -10 42 -10 105 0 63 4 105 10 105 6 0 10 -42 10 -105z
m-5330 75 c0 -11 7 -20 15 -20 8 0 15 -4 15 -10 0 -5 -7 -10 -15 -10 -12 0
-15 -13 -15 -55 0 -40 4 -57 15 -61 21 -8 19 -24 -3 -24 -31 0 -42 22 -42 81
0 36 -5 59 -12 63 -10 5 -10 7 0 12 6 3 12 14 12 25 0 10 7 19 15 19 8 0 15
-9 15 -20z m3727 0 c3 -11 12 -20 19 -20 8 0 14 -4 14 -10 0 -5 -7 -10 -15
-10 -12 0 -15 -13 -15 -55 0 -40 4 -57 15 -61 21 -8 19 -24 -3 -24 -31 0 -42
22 -42 82 0 45 -3 58 -15 58 -8 0 -15 5 -15 10 0 6 7 10 15 10 8 0 15 9 15 20
0 11 5 20 11 20 6 0 13 -9 16 -20z m993 0 c0 -11 7 -20 15 -20 8 0 15 -4 15
-10 0 -5 -7 -10 -15 -10 -12 0 -15 -13 -15 -55 0 -40 4 -57 15 -61 21 -8 19
-24 -3 -24 -31 0 -42 22 -42 81 0 36 -5 59 -12 63 -10 5 -10 7 0 12 6 3 12 14
12 25 0 10 7 19 15 19 8 0 15 -9 15 -20z m437 0 c3 -11 12 -20 19 -20 8 0 14
-4 14 -10 0 -5 -7 -10 -15 -10 -12 0 -15 -13 -15 -55 0 -40 4 -57 15 -61 21
-8 19 -24 -3 -24 -31 0 -42 22 -42 82 0 45 -3 58 -15 58 -8 0 -15 5 -15 10 0
6 7 10 15 10 8 0 15 9 15 20 0 11 5 20 11 20 6 0 13 -9 16 -20z m-7127 -40
c11 -11 20 -31 20 -45 0 -24 -3 -25 -55 -25 -57 0 -66 -8 -39 -34 18 -19 45
-21 61 -5 6 6 17 9 23 7 24 -8 -20 -38 -54 -38 -45 0 -71 30 -71 82 0 68 70
103 115 58z m83 8 c4 -10 7 -10 18 0 20 19 56 14 73 -10 21 -30 22 -138 1
-138 -10 0 -15 16 -17 61 -5 110 -67 106 -76 -5 -7 -84 -22 -67 -22 24 0 72
10 102 23 68z m259 -10 c27 -27 7 -39 -22 -13 -24 22 -58 11 -66 -21 -15 -59
27 -104 66 -69 27 24 44 15 25 -13 -23 -32 -77 -30 -104 4 -61 77 33 180 101
112z m167 -4 c23 -30 27 -64 10 -97 -16 -30 -28 -37 -65 -37 -42 0 -69 31 -69
82 0 73 81 106 124 52z m83 -41 c3 -59 6 -68 23 -71 36 -4 48 14 53 77 6 88
22 75 22 -19 0 -47 -4 -80 -10 -80 -5 0 -10 5 -10 12 0 9 -3 9 -12 0 -20 -20
-65 -14 -82 10 -21 30 -22 138 -1 138 11 0 15 -16 17 -67z m168 55 c0 -9 3 -9
12 0 14 14 48 16 48 3 0 -5 -13 -14 -30 -20 -29 -10 -30 -12 -30 -70 0 -48 -3
-61 -15 -61 -12 0 -15 16 -15 80 0 64 3 80 15 80 8 0 15 -5 15 -12z m181 2
c16 -9 19 -22 19 -80 0 -40 -4 -70 -10 -70 -5 0 -10 5 -10 11 0 8 -4 8 -14 0
-21 -18 -66 -9 -82 14 -21 31 6 65 51 65 40 0 53 16 32 38 -13 13 -21 13 -42
4 -39 -18 -50 -15 -30 8 20 22 55 26 86 10z m157 -2 c9 -9 12 -9 12 0 0 7 7
12 15 12 12 0 15 -16 15 -88 0 -94 -10 -116 -55 -123 -32 -5 -75 10 -75 26 0
18 12 19 27 4 6 -6 23 -9 39 -7 24 2 30 8 32 33 3 24 1 28 -9 18 -18 -18 -59
-16 -81 4 -27 24 -25 97 4 117 27 19 59 21 76 4z m194 -5 c8 -10 18 -30 22
-45 l6 -28 -60 0 c-58 0 -60 -1 -50 -21 15 -28 37 -34 66 -19 30 17 46 3 20
-16 -27 -19 -75 -18 -98 3 -26 23 -25 96 2 123 25 25 72 26 92 3z m160 6 c3
-8 10 -8 26 2 17 11 26 11 41 2 15 -9 26 -9 50 0 52 19 65 3 69 -82 2 -44 -1
-71 -8 -71 -6 0 -10 25 -10 59 0 67 -15 90 -49 71 -18 -9 -21 -20 -21 -70 0
-47 -3 -60 -15 -60 -12 0 -15 14 -15 64 0 51 -3 65 -17 71 -29 10 -53 -29 -53
-86 0 -27 -4 -49 -10 -49 -6 0 -10 33 -10 80 0 44 4 80 9 80 5 0 11 -5 13 -11z
m347 -15 c12 -15 21 -35 21 -45 0 -16 -8 -19 -55 -19 -58 0 -71 -14 -39 -41
12 -10 22 -10 47 -1 35 13 45 9 27 -13 -7 -8 -28 -15 -46 -15 -46 0 -74 29
-74 77 0 74 77 111 119 57z m351 4 c27 -29 27 -91 0 -118 -24 -24 -77 -26
-102 -3 -26 23 -25 96 2 123 27 27 74 26 100 -2z m321 3 c18 -14 24 -29 24
-59 0 -51 -27 -82 -69 -82 -37 0 -49 7 -65 37 -41 79 43 159 110 104z m178 -7
c23 -30 27 -64 10 -97 -16 -30 -28 -37 -65 -37 -42 0 -69 31 -69 82 0 73 81
106 124 52z m321 -54 c0 -64 -3 -80 -15 -80 -12 0 -15 16 -15 80 0 64 3 80 15
80 12 0 15 -16 15 -80z m70 68 c0 -9 3 -9 12 0 17 17 54 15 72 -4 22 -22 23
-144 1 -144 -12 0 -15 14 -15 64 0 69 -13 86 -51 66 -15 -9 -19 -22 -19 -70 0
-47 -3 -60 -15 -60 -12 0 -15 16 -15 80 0 64 3 80 15 80 8 0 15 -5 15 -12z
m162 -50 l15 -63 18 63 c10 35 24 62 31 62 7 0 18 -19 24 -42 21 -85 26 -87
41 -23 8 32 21 61 28 63 11 4 12 -2 7 -24 -38 -153 -55 -168 -82 -72 l-18 63
-18 -63 c-11 -35 -24 -62 -32 -62 -8 0 -20 27 -31 68 -10 37 -20 73 -23 80 -2
6 2 12 10 12 9 0 20 -22 30 -62z m305 32 c19 -37 17 -130 -2 -130 -8 0 -15 5
-15 12 0 9 -3 9 -12 0 -7 -7 -24 -12 -38 -12 -32 0 -50 17 -50 47 0 26 27 43
69 43 34 0 41 19 16 40 -12 10 -21 10 -42 1 -31 -14 -41 -8 -23 14 21 25 82
16 97 -15z m73 18 c0 -9 3 -9 12 0 13 13 48 16 48 5 0 -5 -14 -16 -30 -25 -28
-16 -30 -21 -30 -73 0 -30 -4 -55 -10 -55 -6 0 -10 33 -10 80 0 47 4 80 10 80
6 0 10 -5 10 -12z m360 -3 c17 -21 6 -29 -20 -15 -12 6 -28 9 -36 6 -26 -10
-14 -33 26 -49 48 -18 59 -40 35 -67 -24 -26 -76 -26 -100 0 -14 16 -15 20 -4
20 8 0 20 -5 26 -11 15 -15 57 -7 61 12 2 12 -9 21 -40 30 -33 11 -44 20 -46
38 -7 44 69 71 98 36z m689 -11 c12 -15 21 -35 21 -45 0 -16 -8 -19 -55 -19
-58 0 -71 -14 -39 -41 12 -10 22 -10 47 -1 35 13 45 9 27 -13 -7 -8 -28 -15
-46 -15 -46 0 -74 29 -74 77 0 74 77 111 119 57z m163 -36 l15 -63 18 63 c10
35 24 62 31 62 7 0 18 -19 24 -42 21 -85 26 -87 41 -23 8 32 21 61 28 63 11 4
12 -2 7 -24 -38 -153 -55 -168 -82 -72 l-18 63 -18 -63 c-11 -35 -24 -62 -32
-62 -8 0 -20 27 -31 68 -10 37 -20 73 -23 80 -2 6 2 12 10 12 9 0 20 -22 30
-62z m308 40 c27 -29 27 -91 0 -118 -24 -24 -77 -26 -102 -3 -26 23 -25 96 2
123 27 27 74 26 100 -2z m80 -29 c0 -58 13 -89 38 -89 31 0 42 22 42 82 0 45
3 58 15 58 12 0 15 -16 15 -80 0 -64 -3 -80 -15 -80 -8 0 -15 5 -15 12 0 9 -3
9 -12 0 -7 -7 -24 -12 -38 -12 -14 0 -31 5 -38 12 -15 15 -16 148 -2 148 6 0
10 -23 10 -51z m690 31 c11 -11 20 -31 20 -45 0 -24 -3 -25 -55 -25 -57 0 -66
-8 -39 -34 18 -19 45 -21 61 -5 6 6 17 9 23 7 24 -8 -20 -38 -54 -38 -45 0
-71 30 -71 82 0 68 70 103 115 58z m302 9 c3 -8 10 -8 26 2 17 11 26 11 41 2
15 -9 26 -9 50 0 52 19 65 3 69 -82 2 -44 -1 -71 -8 -71 -6 0 -10 25 -10 59 0
67 -15 90 -49 71 -18 -9 -21 -20 -21 -70 0 -47 -3 -60 -15 -60 -12 0 -15 14
-15 64 0 51 -3 65 -17 71 -29 10 -53 -29 -53 -86 0 -27 -4 -49 -10 -49 -6 0
-10 33 -10 80 0 44 4 80 9 80 5 0 11 -5 13 -11z m347 -15 c12 -15 21 -35 21
-45 0 -16 -8 -19 -55 -19 -58 0 -71 -14 -39 -41 12 -10 22 -10 47 -1 35 13 45
9 27 -13 -7 -8 -28 -15 -46 -15 -46 0 -74 29 -74 77 0 74 77 111 119 57z m515
4 c22 -31 22 -138 1 -138 -8 0 -15 5 -15 12 0 9 -3 9 -12 0 -7 -7 -24 -12 -38
-12 -32 0 -50 17 -50 47 0 26 27 43 69 43 24 0 31 4 31 19 0 25 -33 36 -59 19
-27 -16 -42 0 -17 18 30 21 72 17 90 -8z m419 10 c4 -10 7 -10 18 0 20 19 56
14 73 -10 21 -30 22 -138 1 -138 -10 0 -15 16 -17 61 -5 110 -67 106 -76 -5
-7 -84 -22 -67 -22 24 0 72 10 102 23 68z m254 -10 c13 -12 23 -32 23 -45 0
-21 -4 -23 -55 -23 -43 0 -55 -3 -55 -15 0 -24 47 -42 71 -27 30 19 44 14 24
-8 -18 -20 -69 -27 -91 -12 -37 24 -43 87 -13 126 25 32 64 34 96 4z m172 -4
c12 -15 21 -35 21 -45 0 -16 -8 -19 -55 -19 -58 0 -71 -14 -39 -41 12 -10 22
-10 47 -1 35 13 45 9 27 -13 -7 -8 -28 -15 -46 -15 -46 0 -74 29 -74 77 0 74
77 111 119 57z m341 6 c11 -11 20 -31 20 -45 0 -24 -3 -25 -55 -25 -57 0 -66
-8 -39 -34 18 -19 45 -21 61 -5 6 6 17 9 23 7 24 -8 -20 -38 -54 -38 -45 0
-71 30 -71 82 0 68 70 103 115 58z m343 8 c4 -10 7 -10 18 0 20 19 56 14 73
-10 21 -30 22 -138 1 -138 -10 0 -15 16 -17 61 -5 110 -67 106 -76 -5 -7 -84
-22 -67 -22 24 0 72 10 102 23 68z m258 -7 c18 -14 24 -29 24 -59 0 -51 -27
-82 -69 -82 -37 0 -49 7 -65 37 -41 79 43 159 110 104z m169 9 c0 -6 8 -5 19
2 15 9 25 9 47 -1 19 -8 30 -9 38 -1 17 17 54 11 70 -12 22 -31 22 -138 1
-138 -12 0 -15 13 -15 58 0 74 -21 100 -54 66 -11 -10 -16 -34 -16 -70 0 -30
-4 -54 -10 -54 -5 0 -10 24 -10 53 0 64 -19 98 -47 81 -14 -8 -19 -26 -21 -73
-2 -45 -7 -61 -17 -61 -12 0 -15 17 -15 80 0 64 3 80 15 80 8 0 15 -5 15 -10z
m337 -20 c19 -37 17 -130 -2 -130 -8 0 -15 5 -15 12 0 9 -3 9 -12 0 -7 -7 -24
-12 -38 -12 -32 0 -50 17 -50 47 0 26 27 43 69 43 34 0 41 19 16 40 -12 10
-21 10 -42 1 -31 -14 -41 -8 -23 14 21 25 82 16 97 -15z m73 19 c0 -8 4 -8 14
0 24 20 69 9 83 -19 19 -37 17 -130 -2 -130 -12 0 -15 13 -15 58 0 76 -27 104
-64 66 -11 -10 -16 -34 -16 -70 0 -30 -4 -54 -10 -54 -6 0 -10 33 -10 80 0 47
4 80 10 80 6 0 10 -5 10 -11z m780 -9 c11 -11 20 -31 20 -45 0 -24 -3 -25 -55
-25 -57 0 -66 -8 -39 -34 18 -19 45 -21 61 -5 6 6 17 9 23 7 24 -8 -20 -38
-54 -38 -45 0 -71 30 -71 82 0 68 70 103 115 58z m161 -35 c7 -30 15 -55 19
-55 4 0 13 23 21 52 20 72 35 72 56 -3 18 -66 22 -65 43 19 6 23 15 42 20 42
14 0 12 -15 -9 -90 -21 -75 -45 -91 -56 -38 -4 18 -12 44 -18 58 -9 24 -11 22
-26 -30 -25 -81 -42 -76 -67 20 -17 62 -19 80 -9 80 8 0 19 -23 26 -55z m310
36 c18 -14 24 -29 24 -59 0 -51 -27 -82 -69 -82 -37 0 -49 7 -65 37 -41 79 43
159 110 104z m89 -52 c4 -51 9 -64 23 -67 33 -7 47 17 47 79 0 46 3 59 15 59
12 0 15 -15 15 -78 l0 -78 -55 -2 c-67 -2 -75 9 -75 98 0 85 23 77 30 -11z
m-6710 -75 c0 -8 -7 -14 -15 -14 -15 0 -21 21 -9 33 10 9 24 -2 24 -19z m5560
6 c0 -5 -5 -12 -11 -16 -14 -8 -33 11 -25 25 7 11 36 4 36 -9z m-9180 -310 c0
-91 -3 -110 -15 -110 -12 0 -15 19 -15 110 0 91 3 110 15 110 12 0 15 -19 15
-110z m235 101 c7 -12 -12 -24 -25 -16 -11 7 -4 25 10 25 5 0 11 -4 15 -9z
m823 -3 c-6 -18 -28 -21 -28 -4 0 9 7 16 16 16 9 0 14 -5 12 -12z m172 -98 c0
-67 -4 -110 -10 -110 -5 0 -10 5 -10 10 0 7 -6 7 -19 0 -32 -17 -69 -12 -85
12 -23 32 -20 94 4 118 21 21 65 27 75 10 13 -22 25 -8 25 30 0 22 5 40 10 40
6 0 10 -43 10 -110z m740 68 c0 -33 3 -39 12 -30 17 17 54 15 72 -4 18 -18 23
-144 6 -144 -5 0 -10 19 -10 43 0 80 -20 108 -61 87 -15 -9 -19 -22 -19 -70 0
-47 -3 -60 -15 -60 -12 0 -15 19 -15 110 0 91 3 110 15 110 11 0 15 -11 15
-42z m1450 -68 c0 -91 -3 -110 -15 -110 -8 0 -15 5 -15 12 0 9 -3 9 -12 0 -19
-19 -63 -14 -84 9 -11 13 -19 35 -19 59 0 64 45 97 96 70 17 -10 19 -7 19 30
0 29 4 40 15 40 12 0 15 -19 15 -110z m340 0 c0 -67 -4 -110 -10 -110 -5 0
-10 5 -10 10 0 7 -6 7 -19 0 -32 -17 -69 -12 -85 12 -23 32 -20 94 4 118 21
21 65 27 75 10 13 -22 25 -8 25 30 0 22 5 40 10 40 6 0 10 -43 10 -110z m540
0 c0 -91 -3 -110 -15 -110 -12 0 -15 19 -15 110 0 91 3 110 15 110 12 0 15
-19 15 -110z m70 0 c0 -67 -4 -110 -10 -110 -6 0 -10 43 -10 110 0 67 4 110
10 110 6 0 10 -43 10 -110z m150 70 c0 -37 2 -40 19 -30 52 27 101 -6 101 -68
0 -68 -46 -101 -101 -72 -13 7 -19 7 -19 0 0 -5 -4 -10 -10 -10 -6 0 -10 43
-10 110 0 67 4 110 10 110 6 0 10 -18 10 -40z m950 -70 c0 -91 -3 -110 -15
-110 -8 0 -15 5 -15 12 0 9 -3 9 -12 0 -17 -17 -58 -15 -80 5 -26 23 -25 96 2
123 22 22 60 26 78 8 9 -9 12 -3 12 30 0 31 4 42 15 42 12 0 15 -19 15 -110z
m260 68 c0 -33 3 -39 12 -30 17 17 48 15 70 -5 24 -22 27 -143 3 -143 -12 0
-15 14 -15 64 0 69 -13 86 -51 66 -15 -9 -19 -22 -19 -70 0 -47 -3 -60 -15
-60 -12 0 -15 19 -15 110 0 91 3 110 15 110 11 0 15 -11 15 -42z m170 27 c0
-8 -7 -15 -15 -15 -8 0 -15 7 -15 15 0 8 7 15 15 15 8 0 15 -7 15 -15z m640 0
c0 -8 -7 -15 -15 -15 -8 0 -15 7 -15 15 0 8 7 15 15 15 8 0 15 -7 15 -15z
m890 -95 c0 -67 -4 -110 -10 -110 -6 0 -10 43 -10 110 0 67 4 110 10 110 6 0
10 -43 10 -110z m590 0 c0 -91 -3 -110 -15 -110 -12 0 -15 19 -15 110 0 91 3
110 15 110 12 0 15 -19 15 -110z m1513 82 c9 -8 17 -19 17 -24 0 -14 -28 -9
-34 7 -7 19 -60 20 -75 1 -19 -22 -2 -43 44 -55 42 -11 75 -41 75 -68 0 -7 -9
-22 -20 -33 -38 -38 -140 -19 -140 27 0 19 14 16 35 -7 22 -24 67 -26 86 -4
18 22 1 46 -42 57 -44 10 -79 49 -72 78 7 25 59 51 88 42 11 -3 28 -12 38 -21z
m87 -14 c0 -33 3 -39 12 -30 7 7 24 12 38 12 14 0 31 -5 38 -12 15 -15 16
-148 2 -148 -6 0 -10 26 -10 58 0 76 -27 104 -64 66 -11 -10 -16 -34 -16 -70
0 -41 -4 -54 -15 -54 -12 0 -15 19 -15 110 0 91 3 110 15 110 11 0 15 -11 15
-42z m-7750 2 c0 -13 7 -20 20 -20 11 0 20 -4 20 -9 0 -5 -9 -11 -20 -14 -16
-4 -20 -14 -20 -51 0 -35 5 -49 20 -58 28 -18 25 -30 -7 -26 -27 3 -28 6 -31
66 -2 44 -7 65 -17 69 -20 7 -19 23 0 23 8 0 15 9 15 20 0 11 5 20 10 20 6 0
10 -9 10 -20z m440 1 c0 -10 10 -22 23 -26 l22 -8 -22 -4 c-21 -4 -23 -10 -23
-60 0 -46 3 -56 20 -60 28 -7 25 -23 -5 -23 -32 0 -45 26 -45 89 0 30 -5 52
-12 55 -10 5 -10 7 0 12 6 3 12 14 12 25 0 10 7 19 15 19 8 0 15 -8 15 -19z
m3320 0 c0 -10 10 -22 23 -26 l22 -8 -22 -4 c-21 -4 -23 -10 -23 -60 0 -46 3
-56 20 -60 28 -7 25 -23 -5 -23 -32 0 -45 26 -45 89 0 30 -5 52 -12 55 -10 5
-10 7 0 12 6 3 12 14 12 25 0 10 7 19 15 19 8 0 15 -8 15 -19z m2050 0 c0 -10
10 -22 23 -26 l22 -8 -22 -4 c-21 -4 -23 -10 -23 -60 0 -46 3 -56 20 -60 28
-7 25 -23 -5 -23 -32 0 -45 26 -45 89 0 30 -5 52 -12 55 -10 5 -10 7 0 12 6 3
12 14 12 25 0 10 7 19 15 19 8 0 15 -8 15 -19z m-8090 -41 c11 -11 20 -31 20
-45 0 -24 -3 -25 -55 -25 -57 0 -66 -8 -39 -34 18 -19 45 -21 61 -5 6 6 17 9
23 7 24 -8 -20 -38 -54 -38 -45 0 -71 30 -71 82 0 68 70 103 115 58z m88 -11
l19 -31 19 31 c10 17 24 31 31 31 18 0 16 -7 -13 -45 l-26 -34 19 -28 c33 -47
35 -53 19 -53 -9 0 -23 14 -32 32 l-16 31 -20 -31 c-11 -18 -26 -32 -34 -32
-10 0 -7 11 12 40 l26 39 -19 28 c-33 47 -35 53 -20 53 8 0 24 -14 35 -31z
m142 21 c0 -7 6 -7 19 0 47 25 88 -1 97 -61 10 -63 -64 -117 -104 -77 -9 9
-12 4 -12 -25 0 -26 -4 -37 -15 -37 -12 0 -15 18 -15 105 0 87 3 105 15 105 8
0 15 -5 15 -10z m321 0 c16 -9 19 -22 19 -80 0 -40 -4 -70 -10 -70 -5 0 -10 5
-10 11 0 8 -4 8 -14 0 -21 -18 -66 -9 -82 14 -21 31 6 65 51 65 40 0 53 16 32
38 -13 13 -21 13 -42 4 -39 -18 -50 -15 -30 8 20 22 55 26 86 10z m89 -70 c0
-47 -4 -80 -10 -80 -6 0 -10 33 -10 80 0 47 4 80 10 80 6 0 10 -33 10 -80z
m70 70 c0 -6 8 -5 20 2 13 9 27 9 47 2 27 -9 28 -13 31 -82 2 -45 -1 -72 -8
-72 -6 0 -10 23 -10 53 0 30 -6 62 -14 72 -12 17 -18 18 -40 7 -24 -11 -26
-17 -26 -72 0 -47 -3 -60 -15 -60 -12 0 -15 16 -15 80 0 64 3 80 15 80 8 0 15
-5 15 -10z m250 -2 c0 -9 3 -9 12 0 7 7 21 12 33 12 12 0 26 -5 33 -12 9 -9
15 -9 24 0 17 17 54 15 72 -4 22 -22 23 -144 1 -144 -12 0 -15 14 -15 64 0 48
-4 65 -15 70 -37 14 -55 -15 -55 -91 0 -24 -4 -43 -10 -43 -6 0 -10 26 -10 59
0 67 -15 90 -49 71 -18 -9 -21 -20 -21 -70 0 -47 -3 -60 -15 -60 -12 0 -15 16
-15 80 0 64 3 80 15 80 8 0 15 -5 15 -12z m340 -8 c11 -11 20 -31 20 -45 0
-24 -3 -25 -55 -25 -57 0 -66 -8 -39 -34 18 -19 45 -21 61 -5 6 6 17 9 23 7
24 -8 -20 -38 -54 -38 -45 0 -71 30 -71 82 0 68 70 103 115 58z m168 -63 c2
-64 0 -77 -13 -77 -12 0 -15 15 -15 81 0 60 3 80 13 77 8 -3 13 -31 15 -81z
m331 57 c12 -15 21 -35 21 -45 0 -16 -8 -19 -55 -19 -58 0 -71 -14 -39 -41 12
-10 22 -10 47 -1 35 13 45 9 27 -13 -7 -8 -28 -15 -46 -15 -46 0 -74 29 -74
77 0 74 77 111 119 57z m152 16 c16 -9 19 -22 19 -80 0 -40 -4 -70 -10 -70 -5
0 -10 5 -10 11 0 8 -4 8 -14 0 -21 -18 -66 -9 -82 14 -21 31 6 65 51 65 40 0
53 16 32 38 -13 13 -21 13 -42 4 -39 -18 -50 -15 -30 8 20 22 55 26 86 10z
m165 -12 c19 -21 19 -21 -6 -14 -44 13 -64 12 -68 -5 -2 -12 9 -21 40 -30 33
-11 44 -20 46 -38 3 -15 -3 -30 -14 -38 -24 -18 -79 -16 -94 2 -18 22 -4 31
24 15 28 -15 56 -8 56 14 0 9 -16 20 -39 26 -47 12 -62 42 -35 71 23 25 66 24
90 -3z m506 5 c14 -12 18 -31 18 -78 l0 -61 -55 -2 c-50 -1 -57 1 -67 23 -15
34 12 65 59 65 26 0 33 4 33 19 0 28 -17 35 -51 21 -35 -15 -46 -9 -24 14 21
21 63 21 87 -1z m357 -9 c12 -15 21 -35 21 -45 0 -16 -8 -19 -55 -19 -58 0
-71 -14 -39 -41 12 -10 22 -10 47 -1 35 13 45 9 27 -13 -7 -8 -28 -15 -46 -15
-46 0 -74 29 -74 77 0 74 77 111 119 57z m85 -5 l19 -31 19 31 c11 17 27 31
35 31 15 0 13 -6 -20 -53 -19 -28 -19 -29 0 -55 33 -45 35 -52 20 -52 -8 0
-24 14 -35 31 l-19 31 -19 -31 c-10 -17 -24 -31 -32 -31 -14 0 -11 7 20 52 19
28 19 28 -6 61 -29 38 -32 47 -13 47 7 0 21 -14 31 -31z m146 19 c0 -9 3 -9
12 0 18 18 56 14 78 -8 25 -25 27 -95 3 -122 -18 -20 -63 -24 -81 -6 -9 9 -12
4 -12 -25 0 -26 -4 -37 -15 -37 -12 0 -15 18 -15 105 0 87 3 105 15 105 8 0
15 -5 15 -12z m254 -10 c22 -31 22 -138 1 -138 -8 0 -15 5 -15 12 0 9 -3 9
-12 0 -7 -7 -24 -12 -38 -12 -32 0 -50 17 -50 47 0 26 27 43 69 43 24 0 31 4
31 19 0 25 -33 36 -59 19 -27 -16 -42 0 -17 18 30 21 72 17 90 -8z m79 10 c4
-10 7 -10 18 0 20 19 56 14 73 -10 21 -30 22 -138 1 -138 -10 0 -15 16 -17 61
-5 110 -67 106 -76 -5 -7 -84 -22 -67 -22 24 0 72 10 102 23 68z m434 -10 c13
-12 23 -32 23 -45 0 -21 -4 -23 -55 -23 -43 0 -55 -3 -55 -15 0 -24 47 -42 71
-27 30 19 44 14 24 -8 -18 -20 -69 -27 -91 -12 -37 24 -43 87 -13 126 25 32
64 34 96 4z m344 -33 c7 -30 15 -55 19 -55 4 0 13 23 21 52 20 72 35 72 56 -3
18 -66 22 -65 43 19 6 23 15 42 20 42 14 0 12 -15 -9 -90 -21 -75 -45 -91 -56
-38 -4 18 -12 44 -18 58 -9 24 -11 22 -26 -30 -25 -81 -42 -76 -67 20 -17 62
-19 80 -9 80 8 0 19 -23 26 -55z m306 33 c13 -12 23 -32 23 -45 0 -21 -4 -23
-55 -23 -43 0 -55 -3 -55 -15 0 -24 47 -42 71 -27 30 19 44 14 24 -8 -18 -20
-69 -27 -91 -12 -37 24 -43 87 -13 126 25 32 64 34 96 4z m572 -4 c12 -15 21
-35 21 -45 0 -16 -8 -19 -55 -19 -58 0 -71 -14 -39 -41 12 -10 22 -10 47 -1
35 13 45 9 27 -13 -7 -8 -28 -15 -46 -15 -46 0 -74 29 -74 77 0 74 77 111 119
57z m86 -45 l22 -64 22 68 c14 40 28 67 37 67 10 0 6 -19 -16 -81 -37 -100
-46 -116 -70 -129 -25 -13 -30 -13 -30 4 0 7 9 16 20 19 26 7 25 23 -5 103
-28 75 -30 87 -13 82 6 -2 21 -33 33 -69z m234 45 c23 -30 27 -64 10 -97 -16
-30 -28 -37 -65 -37 -42 0 -69 31 -69 82 0 73 81 106 124 52z m81 16 c0 -6 8
-5 20 2 13 9 27 9 47 2 27 -9 28 -13 31 -82 2 -45 -1 -72 -8 -72 -6 0 -10 23
-10 53 0 30 -6 62 -14 72 -12 17 -18 18 -40 7 -24 -11 -26 -17 -26 -72 0 -47
-3 -60 -15 -60 -12 0 -15 16 -15 80 0 64 3 80 15 80 8 0 15 -5 15 -10z m710
-70 c0 -64 -3 -80 -15 -80 -12 0 -15 16 -15 80 0 64 3 80 15 80 12 0 15 -16
15 -80z m136 66 c26 -20 10 -32 -21 -16 -22 12 -28 12 -42 -3 -15 -15 -13 -18
29 -36 52 -22 66 -46 42 -72 -21 -24 -77 -25 -99 -3 -21 22 -11 30 19 15 27
-15 57 -12 64 6 2 8 -16 21 -42 33 -37 15 -46 24 -46 44 0 42 56 60 96 32z
m164 -57 c4 -51 9 -64 23 -67 33 -7 47 17 47 79 0 46 3 59 15 59 12 0 15 -15
15 -78 l0 -78 -55 -2 c-67 -2 -75 9 -75 98 0 85 23 77 30 -11z m170 59 c0 -9
3 -9 12 0 17 17 54 15 72 -4 22 -22 23 -144 1 -144 -12 0 -15 14 -15 64 0 69
-13 86 -51 66 -15 -9 -19 -22 -19 -70 0 -47 -3 -60 -15 -60 -12 0 -15 16 -15
80 0 64 3 80 15 80 8 0 15 -5 15 -12z m170 -68 c0 -64 -3 -80 -15 -80 -12 0
-15 16 -15 80 0 64 3 80 15 80 12 0 15 -16 15 -80z m75 20 c10 -33 21 -60 25
-60 4 0 15 27 25 60 10 34 24 60 32 60 16 0 18 8 -15 -80 -15 -41 -34 -76 -42
-78 -10 -2 -23 19 -39 65 -13 38 -26 74 -29 81 -2 6 2 12 10 12 9 0 22 -23 33
-60z m227 43 c8 -10 18 -30 22 -45 l6 -28 -60 0 c-58 0 -60 -1 -50 -21 15 -28
37 -34 66 -19 30 17 46 3 20 -16 -27 -19 -75 -18 -98 3 -26 23 -25 96 2 123
25 25 72 26 92 3z m88 5 c0 -9 3 -9 12 0 14 14 38 16 38 4 0 -5 -11 -14 -25
-20 -23 -10 -25 -17 -25 -72 0 -47 -3 -60 -15 -60 -12 0 -15 16 -15 80 0 64 3
80 15 80 8 0 15 -5 15 -12z m175 -4 c22 -22 11 -30 -19 -14 -14 7 -32 10 -40
7 -30 -12 -17 -35 27 -49 45 -14 60 -45 37 -74 -16 -18 -70 -18 -96 0 -24 18
-10 34 16 18 26 -16 45 -15 60 3 10 12 5 18 -33 34 -56 24 -63 35 -43 66 19
29 66 34 91 9z m162 -6 c13 -12 23 -32 23 -45 0 -21 -4 -23 -55 -23 -43 0 -55
-3 -55 -15 0 -24 47 -42 71 -27 30 19 44 14 24 -8 -18 -20 -69 -27 -91 -12
-37 24 -43 87 -13 126 25 32 64 34 96 4z m322 -4 c12 -15 21 -35 21 -45 0 -16
-8 -19 -55 -19 -58 0 -71 -14 -39 -41 12 -10 22 -10 47 -1 35 13 45 9 27 -13
-7 -8 -28 -15 -46 -15 -46 0 -74 29 -74 77 0 74 77 111 119 57z m345 4 c22
-31 22 -138 1 -138 -8 0 -15 5 -15 12 0 9 -3 9 -12 0 -7 -7 -24 -12 -38 -12
-32 0 -50 17 -50 47 0 26 27 43 69 43 24 0 31 4 31 19 0 25 -33 36 -59 19 -27
-16 -42 0 -17 18 30 21 72 17 90 -8z m237 3 c18 -14 24 -29 24 -59 0 -51 -27
-82 -69 -82 -37 0 -49 7 -65 37 -41 79 43 159 110 104z m89 9 c0 -6 8 -5 20 2
13 9 27 9 47 2 27 -9 28 -13 31 -82 2 -45 -1 -72 -8 -72 -6 0 -10 23 -10 53 0
30 -6 62 -14 72 -12 17 -18 18 -40 7 -24 -11 -26 -17 -26 -72 0 -47 -3 -60
-15 -60 -12 0 -15 16 -15 80 0 64 3 80 15 80 8 0 15 -5 15 -10z m252 -7 c8
-10 18 -30 22 -45 l6 -28 -60 0 c-58 0 -60 -1 -50 -21 15 -28 37 -34 66 -19
30 17 46 3 20 -16 -27 -19 -75 -18 -98 3 -26 23 -25 96 2 123 25 25 72 26 92
3z m160 6 c3 -8 10 -8 26 2 17 11 26 11 41 2 15 -9 26 -9 50 0 52 19 65 3 69
-82 2 -44 -1 -71 -8 -71 -6 0 -10 25 -10 59 0 67 -15 90 -49 71 -18 -9 -21
-20 -21 -70 0 -47 -3 -60 -15 -60 -12 0 -15 14 -15 64 0 51 -3 65 -17 71 -29
10 -53 -29 -53 -86 0 -27 -4 -49 -10 -49 -6 0 -10 33 -10 80 0 44 4 80 9 80 5
0 11 -5 13 -11z m347 -15 c12 -15 21 -35 21 -45 0 -16 -8 -19 -55 -19 -58 0
-71 -14 -39 -41 12 -10 22 -10 47 -1 35 13 45 9 27 -13 -7 -8 -28 -15 -46 -15
-46 0 -74 29 -74 77 0 74 77 111 119 57z m81 14 c0 -9 3 -9 12 0 17 17 54 15
72 -4 22 -22 23 -144 1 -144 -12 0 -15 14 -15 64 0 69 -13 86 -51 66 -15 -9
-19 -22 -19 -70 0 -47 -3 -60 -15 -60 -12 0 -15 16 -15 80 0 64 3 80 15 80 8
0 15 -5 15 -12z m779 -14 c12 -15 21 -35 21 -45 0 -16 -8 -19 -55 -19 -58 0
-71 -14 -39 -41 12 -10 22 -10 47 -1 35 13 45 9 27 -13 -7 -8 -28 -15 -46 -15
-46 0 -74 29 -74 77 0 74 77 111 119 57z m-599 -120 c0 -8 -7 -14 -15 -14 -15
0 -21 21 -9 33 10 9 24 -2 24 -19z m-9210 -304 c0 -67 -4 -110 -10 -110 -6 0
-10 43 -10 110 0 67 4 110 10 110 6 0 10 -43 10 -110z m180 0 c0 -67 -4 -110
-10 -110 -5 0 -10 5 -10 10 0 7 -6 7 -19 0 -32 -17 -69 -12 -85 12 -23 32 -20
94 4 118 21 21 65 27 75 10 13 -22 25 -8 25 30 0 22 5 40 10 40 6 0 10 -43 10
-110z m1680 0 c0 -91 -3 -110 -15 -110 -12 0 -15 19 -15 110 0 91 3 110 15
110 12 0 15 -19 15 -110z m70 43 l0 -67 40 39 c46 45 68 40 25 -5 -21 -22 -27
-35 -20 -44 6 -8 20 -28 33 -45 18 -24 20 -31 8 -31 -8 0 -27 16 -42 35 -14
19 -30 35 -35 35 -5 0 -9 -16 -9 -35 0 -24 -5 -35 -15 -35 -12 0 -15 19 -15
110 0 91 3 110 15 110 12 0 15 -14 15 -67z m400 25 c0 -33 3 -39 12 -30 19 19
63 14 84 -9 42 -47 12 -139 -46 -139 -14 0 -31 5 -38 12 -9 9 -12 9 -12 0 0
-7 -7 -12 -15 -12 -12 0 -15 19 -15 110 0 91 3 110 15 110 11 0 15 -11 15 -42z
m810 0 c0 -33 3 -39 12 -30 17 17 54 15 72 -4 18 -18 23 -144 6 -144 -5 0 -10
19 -10 43 0 80 -20 108 -61 87 -15 -9 -19 -22 -19 -70 0 -47 -3 -60 -15 -60
-12 0 -15 19 -15 110 0 91 3 110 15 110 11 0 15 -11 15 -42z m420 0 c0 -33 3
-39 12 -30 19 19 63 14 84 -9 42 -47 12 -139 -46 -139 -14 0 -31 5 -38 12 -9
9 -12 9 -12 0 0 -7 -7 -12 -15 -12 -12 0 -15 19 -15 110 0 91 3 110 15 110 11
0 15 -11 15 -42z m810 0 c0 -33 3 -39 12 -30 17 17 54 15 72 -4 18 -18 23
-144 6 -144 -5 0 -10 19 -10 43 0 80 -20 108 -61 87 -15 -9 -19 -22 -19 -70 0
-47 -3 -60 -15 -60 -12 0 -15 19 -15 110 0 91 3 110 15 110 11 0 15 -11 15
-42z m1300 -68 c0 -67 -4 -110 -10 -110 -5 0 -10 5 -10 10 0 7 -6 7 -19 0 -32
-17 -69 -12 -85 12 -23 32 -20 94 4 118 21 21 65 27 75 10 13 -22 25 -8 25 30
0 22 5 40 10 40 6 0 10 -43 10 -110z m340 95 c0 -8 -7 -15 -15 -15 -8 0 -15 7
-15 15 0 8 7 15 15 15 8 0 15 -7 15 -15z m730 -24 c0 -39 0 -39 29 -28 55 20
81 -13 81 -104 0 -36 -4 -49 -15 -49 -10 0 -15 16 -17 61 -2 47 -7 65 -21 73
-29 18 -57 -24 -57 -85 0 -27 -4 -49 -10 -49 -6 0 -10 43 -10 110 0 67 4 110
10 110 6 0 10 -18 10 -39z m575 30 c7 -12 -12 -24 -25 -16 -11 7 -4 25 10 25
5 0 11 -4 15 -9z m505 -101 c0 -91 -3 -110 -15 -110 -12 0 -15 19 -15 110 0
91 3 110 15 110 12 0 15 -19 15 -110z m410 68 c0 -33 3 -39 12 -30 15 15 61
15 76 0 15 -15 16 -148 2 -148 -6 0 -10 26 -10 58 0 76 -27 104 -64 66 -11
-10 -16 -34 -16 -70 0 -41 -4 -54 -15 -54 -12 0 -15 19 -15 110 0 91 3 110 15
110 11 0 15 -11 15 -42z m690 3 c0 -39 0 -39 29 -28 55 20 81 -13 81 -104 0
-36 -4 -49 -15 -49 -10 0 -15 16 -17 61 -2 47 -7 65 -21 73 -29 18 -57 -24
-57 -85 0 -27 -4 -49 -10 -49 -6 0 -10 43 -10 110 0 67 4 110 10 110 6 0 10
-18 10 -39z m800 -71 c0 -91 -3 -110 -15 -110 -8 0 -15 5 -15 12 0 9 -3 9 -12
0 -17 -17 -58 -15 -80 5 -26 23 -25 96 2 123 22 22 60 26 78 8 9 -9 12 -3 12
30 0 31 4 42 15 42 12 0 15 -19 15 -110z m-4920 -5 c0 -87 -3 -105 -15 -105
-12 0 -15 18 -15 105 0 87 3 105 15 105 12 0 15 -18 15 -105z m-4113 75 c3
-11 12 -20 19 -20 8 0 14 -4 14 -10 0 -5 -7 -10 -15 -10 -12 0 -15 -13 -15
-55 0 -40 4 -57 15 -61 21 -8 19 -24 -3 -24 -31 0 -42 22 -42 82 0 45 -3 58
-15 58 -8 0 -15 5 -15 10 0 6 7 10 15 10 8 0 15 9 15 20 0 11 5 20 11 20 6 0
13 -9 16 -20z m913 0 c0 -13 7 -20 20 -20 11 0 20 -4 20 -9 0 -5 -9 -11 -20
-14 -16 -4 -20 -14 -20 -51 0 -35 5 -49 20 -58 28 -18 25 -30 -7 -26 -27 3
-28 6 -31 66 -2 44 -7 65 -17 69 -20 7 -19 23 0 23 8 0 15 9 15 20 0 11 5 20
10 20 6 0 10 -9 10 -20z m1260 1 c0 -10 10 -22 23 -26 l22 -8 -22 -4 c-21 -4
-23 -10 -23 -60 0 -46 3 -56 20 -60 28 -7 25 -23 -5 -23 -32 0 -45 26 -45 89
0 30 -5 52 -12 55 -10 5 -10 7 0 12 6 3 12 14 12 25 0 10 7 19 15 19 8 0 15
-8 15 -19z m187 -1 c3 -11 12 -20 19 -20 8 0 14 -4 14 -10 0 -5 -7 -10 -15
-10 -12 0 -15 -13 -15 -55 0 -40 4 -57 15 -61 21 -8 19 -24 -3 -24 -31 0 -42
22 -42 82 0 45 -3 58 -15 58 -8 0 -15 5 -15 10 0 6 7 10 15 10 8 0 15 9 15 20
0 11 5 20 11 20 6 0 13 -9 16 -20z m2870 0 c3 -11 12 -20 19 -20 8 0 14 -4 14
-10 0 -5 -7 -10 -15 -10 -12 0 -15 -13 -15 -55 0 -40 4 -57 15 -61 21 -8 19
-24 -3 -24 -31 0 -42 22 -42 82 0 45 -3 58 -15 58 -8 0 -15 5 -15 10 0 6 7 10
15 10 8 0 15 9 15 20 0 11 5 20 11 20 6 0 13 -9 16 -20z m2223 0 c0 -11 7 -20
15 -20 8 0 15 -4 15 -10 0 -5 -7 -10 -15 -10 -12 0 -15 -13 -15 -55 0 -40 4
-57 15 -61 21 -8 19 -24 -3 -24 -31 0 -42 22 -42 81 0 36 -5 59 -12 63 -10 5
-10 7 0 12 6 3 12 14 12 25 0 10 7 19 15 19 8 0 15 -9 15 -20z m967 0 c3 -11
12 -20 19 -20 8 0 14 -4 14 -10 0 -5 -7 -10 -15 -10 -12 0 -15 -13 -15 -55 0
-40 4 -57 15 -61 21 -8 19 -24 -3 -24 -31 0 -42 22 -42 82 0 45 -3 58 -15 58
-8 0 -15 5 -15 10 0 6 7 10 15 10 8 0 15 9 15 20 0 11 5 20 11 20 6 0 13 -9
16 -20z m-9668 -85 c15 -64 20 -62 41 23 6 23 17 42 24 42 7 0 21 -27 31 -62
l18 -63 15 63 c10 40 21 62 30 62 8 0 12 -6 10 -12 -3 -7 -13 -43 -23 -80 -11
-40 -23 -68 -31 -68 -7 0 -21 27 -32 61 l-18 60 -19 -60 c-10 -34 -24 -61 -31
-61 -11 0 -28 46 -50 134 -5 22 -4 28 7 24 7 -2 20 -31 28 -63z m311 43 c27
-29 27 -91 0 -118 -24 -24 -77 -26 -102 -3 -26 23 -25 96 2 123 27 27 74 26
100 -2z m80 -36 c0 -60 11 -82 42 -82 25 0 38 31 38 89 0 28 5 51 10 51 6 0
10 -33 10 -80 0 -47 -4 -80 -10 -80 -5 0 -10 5 -10 11 0 8 -4 8 -14 0 -24 -20
-69 -9 -83 19 -13 26 -18 112 -6 123 16 17 23 3 23 -51z m500 47 c0 -8 4 -8
14 0 24 20 69 9 83 -19 19 -37 17 -130 -2 -130 -12 0 -15 13 -15 58 0 76 -27
104 -64 66 -11 -10 -16 -34 -16 -70 0 -30 -4 -54 -10 -54 -6 0 -10 33 -10 80
0 47 4 80 10 80 6 0 10 -5 10 -11z m260 -9 c25 -25 27 -95 3 -122 -22 -24 -77
-24 -103 2 -13 13 -20 33 -20 60 0 49 27 80 70 80 17 0 39 -9 50 -20z m352 3
c8 -10 18 -30 22 -45 l6 -28 -60 0 c-58 0 -60 -1 -50 -21 15 -28 37 -34 66
-19 30 17 46 3 20 -16 -27 -19 -75 -18 -98 3 -26 23 -25 96 2 123 25 25 72 26
92 3z m89 -50 l22 -68 22 64 c12 36 27 67 33 69 17 5 15 -4 -14 -86 -19 -50
-32 -72 -42 -70 -20 4 -76 158 -57 158 8 0 23 -29 36 -67z m226 45 c13 -12 23
-32 23 -45 0 -21 -4 -23 -55 -23 -43 0 -55 -3 -55 -15 0 -24 47 -42 71 -27 30
19 44 14 24 -8 -18 -20 -69 -27 -91 -12 -37 24 -43 87 -13 126 25 32 64 34 96
4z m83 11 c0 -8 4 -8 14 0 24 20 69 9 83 -19 19 -37 17 -130 -2 -130 -12 0
-15 13 -15 58 0 76 -27 104 -64 66 -11 -10 -16 -34 -16 -70 0 -30 -4 -54 -10
-54 -6 0 -10 33 -10 80 0 47 4 80 10 80 6 0 10 -5 10 -11z m432 -6 c14 -12 18
-31 18 -78 l0 -61 -55 -2 c-50 -1 -57 1 -67 23 -15 34 12 65 59 65 26 0 33 4
33 19 0 28 -17 35 -51 21 -35 -15 -46 -9 -24 14 21 21 63 21 87 -1z m470 0
c14 -12 18 -31 18 -78 l0 -61 -55 -2 c-50 -1 -57 1 -67 23 -15 34 12 65 59 65
26 0 33 4 33 19 0 28 -17 35 -51 21 -35 -15 -46 -9 -24 14 21 21 63 21 87 -1z
m357 -9 c23 -30 27 -64 10 -97 -16 -30 -28 -37 -65 -37 -42 0 -69 31 -69 82 0
73 81 106 124 52z m83 -41 c3 -59 6 -68 23 -71 36 -4 48 14 53 77 6 88 22 75
22 -19 0 -47 -4 -80 -10 -80 -5 0 -10 5 -10 12 0 9 -3 9 -12 0 -20 -20 -65
-14 -82 10 -21 30 -22 138 -1 138 11 0 15 -16 17 -67z m710 50 c8 -10 18 -30
22 -45 l6 -28 -60 0 c-58 0 -60 -1 -50 -21 15 -28 37 -34 66 -19 30 17 46 3
20 -16 -27 -19 -75 -18 -98 3 -26 23 -25 96 2 123 25 25 72 26 92 3z m429 -2
c18 -14 24 -29 24 -59 0 -51 -27 -82 -69 -82 -37 0 -49 7 -65 37 -41 79 43
159 110 104z m90 -48 l22 -68 22 64 c12 36 27 67 33 69 7 2 12 -1 12 -6 0 -16
-60 -175 -71 -188 -15 -19 -49 -24 -49 -8 0 8 7 14 15 14 28 0 27 25 -4 108
-22 61 -26 82 -16 82 8 0 23 -29 36 -67z m231 5 l15 -63 18 63 c10 35 24 62
31 62 7 0 18 -19 24 -42 21 -85 26 -87 41 -23 8 32 21 61 28 63 11 4 12 -2 7
-24 -38 -153 -55 -168 -82 -72 l-18 63 -18 -63 c-11 -35 -24 -62 -32 -62 -8 0
-20 27 -31 68 -10 37 -20 73 -23 80 -2 6 2 12 10 12 9 0 20 -22 30 -62z m488
40 c27 -29 27 -91 0 -118 -24 -24 -77 -26 -102 -3 -26 23 -25 96 2 123 27 27
74 26 100 -2z m319 -43 c15 -64 20 -62 41 23 6 23 17 42 24 42 7 0 21 -27 31
-62 l18 -63 15 63 c10 40 21 62 30 62 8 0 12 -6 10 -12 -3 -7 -13 -43 -23 -80
-11 -40 -23 -68 -31 -68 -7 0 -21 27 -32 61 l-18 60 -19 -60 c-10 -34 -24 -61
-31 -61 -11 0 -28 46 -50 134 -5 22 -4 28 7 24 7 -2 20 -31 28 -63z m292 55
c16 -9 19 -22 19 -80 0 -40 -4 -70 -10 -70 -5 0 -10 5 -10 11 0 8 -4 8 -14 0
-21 -18 -66 -9 -82 14 -21 31 6 65 51 65 40 0 53 16 32 38 -13 13 -21 13 -42
4 -39 -18 -50 -15 -30 8 20 22 55 26 86 10z m164 -6 c22 -22 11 -30 -19 -14
-14 7 -32 10 -40 7 -30 -12 -17 -35 27 -49 45 -14 60 -45 37 -74 -16 -18 -70
-18 -96 0 -24 18 -10 34 16 18 26 -16 45 -15 60 3 10 12 5 18 -33 34 -56 24
-63 35 -43 66 19 29 66 34 91 9z m422 -14 c19 -37 17 -130 -2 -130 -8 0 -15 5
-15 12 0 9 -3 9 -12 0 -7 -7 -24 -12 -38 -12 -32 0 -50 17 -50 47 0 26 27 43
69 43 34 0 41 19 16 40 -12 10 -21 10 -42 1 -31 -14 -41 -8 -23 14 21 25 82
16 97 -15z m183 -50 c0 -64 -3 -80 -15 -80 -12 0 -15 16 -15 80 0 64 3 80 15
80 12 0 15 -16 15 -80z m70 68 c0 -9 3 -9 12 0 17 17 54 15 72 -4 22 -22 23
-144 1 -144 -12 0 -15 14 -15 64 0 69 -13 86 -51 66 -15 -9 -19 -22 -19 -70 0
-47 -3 -60 -15 -60 -12 0 -15 16 -15 80 0 64 3 80 15 80 8 0 15 -5 15 -12z
m238 0 c9 -9 12 -9 12 0 0 7 7 12 15 12 24 0 21 -160 -3 -190 -23 -28 -89 -31
-109 -4 -17 24 -8 30 21 15 39 -21 70 -11 74 24 3 24 1 28 -9 18 -40 -40 -116
13 -105 71 4 16 14 38 23 48 18 20 63 24 81 6z m348 -10 c19 -21 19 -21 -6
-14 -44 13 -64 12 -68 -5 -2 -12 9 -21 40 -30 33 -11 44 -20 46 -38 3 -15 -3
-30 -14 -38 -24 -18 -79 -16 -94 2 -18 22 -4 31 24 15 28 -15 56 -8 56 14 0 9
-16 20 -39 26 -47 12 -62 42 -35 71 23 25 66 24 90 -3z m331 0 c13 -12 23 -32
23 -45 0 -21 -4 -23 -55 -23 -43 0 -55 -3 -55 -15 0 -24 47 -42 71 -27 30 19
44 14 24 -8 -18 -20 -69 -27 -91 -12 -37 24 -43 87 -13 126 25 32 64 34 96 4z
m239 0 c19 -21 19 -21 -6 -14 -44 13 -64 12 -68 -5 -2 -12 9 -21 40 -30 33
-11 44 -20 46 -38 3 -15 -3 -30 -14 -38 -24 -18 -79 -16 -94 2 -18 22 -4 31
24 15 28 -15 56 -8 56 14 0 9 -16 20 -39 26 -47 12 -62 42 -35 71 23 25 66 24
90 -3z m74 -58 c0 -47 -4 -80 -10 -80 -6 0 -10 33 -10 80 0 47 4 80 10 80 6 0
10 -33 10 -80z m70 68 c0 -9 3 -9 12 0 15 15 50 16 64 2 6 -6 21 -6 42 2 53
20 66 4 70 -81 3 -86 -14 -96 -20 -11 -5 68 -19 91 -46 74 -12 -8 -18 -28 -20
-73 -2 -45 -7 -61 -17 -61 -12 0 -15 14 -15 58 0 74 -21 100 -54 66 -11 -10
-16 -34 -16 -70 0 -30 -4 -54 -10 -54 -6 0 -10 33 -10 80 0 47 4 80 10 80 6 0
10 -5 10 -12z m260 2 c0 -7 6 -7 19 0 47 25 88 -1 97 -61 10 -63 -64 -117
-104 -77 -9 9 -12 4 -12 -25 0 -26 -4 -37 -15 -37 -12 0 -15 18 -15 105 0 87
3 105 15 105 8 0 15 -5 15 -10z m255 -50 c10 -33 21 -60 25 -60 4 0 15 27 25
60 11 37 24 60 33 60 8 0 12 -6 10 -12 -59 -159 -73 -191 -92 -198 -31 -11
-43 1 -18 18 28 18 28 35 -3 116 -29 78 -29 76 -12 76 8 0 22 -26 32 -60z
m595 40 c25 -25 27 -95 3 -122 -22 -24 -77 -24 -103 2 -13 13 -20 33 -20 60 0
49 27 80 70 80 17 0 39 -9 50 -20z m80 -31 c0 -58 13 -89 38 -89 31 0 42 22
42 82 0 45 3 58 15 58 12 0 15 -16 15 -80 0 -64 -3 -80 -15 -80 -8 0 -15 5
-15 12 0 9 -3 9 -12 0 -7 -7 -24 -12 -38 -12 -14 0 -31 5 -38 12 -15 15 -16
148 -2 148 6 0 10 -23 10 -51z m241 41 c13 -7 19 -7 19 0 0 5 5 10 10 10 6 0
10 -38 10 -94 0 -106 -7 -118 -65 -118 -35 0 -65 16 -65 33 0 5 7 9 15 9 8 0
15 -4 15 -10 0 -14 54 -12 68 2 7 7 12 20 12 30 0 15 -3 17 -19 8 -11 -5 -29
-10 -40 -10 -24 0 -61 45 -61 75 0 30 37 75 61 75 11 0 29 -5 40 -10z m540 0
c16 -9 19 -22 19 -80 0 -40 -4 -70 -10 -70 -5 0 -10 5 -10 11 0 8 -4 8 -14 0
-21 -18 -66 -9 -82 14 -21 31 6 65 51 65 40 0 53 16 32 38 -13 13 -21 13 -42
4 -39 -18 -50 -15 -30 8 20 22 55 26 86 10z m89 0 c0 -6 8 -5 20 2 13 9 27 9
47 2 27 -9 28 -13 31 -82 2 -45 -1 -72 -8 -72 -6 0 -10 23 -10 53 0 30 -6 62
-14 72 -12 17 -18 18 -40 7 -24 -11 -26 -17 -26 -72 0 -47 -3 -60 -15 -60 -12
0 -15 16 -15 80 0 64 3 80 15 80 8 0 15 -5 15 -10z m-3004 -11 c10 -17 -13
-36 -27 -22 -12 12 -4 33 11 33 5 0 12 -5 16 -11z m-9 -149 c-13 -49 -27 -52
-27 -7 0 36 6 47 25 47 9 0 10 -10 2 -40z m-6077 -280 c0 -67 -4 -110 -10
-110 -5 0 -10 5 -10 10 0 7 -6 7 -19 0 -32 -17 -69 -12 -85 12 -23 32 -20 94
4 118 21 21 65 27 75 10 13 -22 25 -8 25 30 0 22 5 40 10 40 6 0 10 -43 10
-110z m2610 71 c0 -39 0 -39 29 -28 55 20 81 -13 81 -104 0 -36 -4 -49 -15
-49 -10 0 -15 16 -17 61 -2 47 -7 65 -21 73 -29 18 -57 -24 -57 -85 0 -27 -4
-49 -10 -49 -6 0 -10 43 -10 110 0 67 4 110 10 110 6 0 10 -18 10 -39z m1430
-71 c0 -67 -4 -110 -10 -110 -6 0 -10 43 -10 110 0 67 4 110 10 110 6 0 10
-43 10 -110z m70 0 c0 -67 -4 -110 -10 -110 -6 0 -10 43 -10 110 0 67 4 110
10 110 6 0 10 -43 10 -110z m160 68 c0 -33 3 -39 12 -30 18 18 56 14 78 -8 25
-25 27 -95 3 -122 -18 -20 -63 -24 -81 -6 -9 9 -12 9 -12 0 0 -7 -7 -12 -15
-12 -12 0 -15 19 -15 110 0 91 3 110 15 110 11 0 15 -11 15 -42z m940 -68 c0
-67 -4 -110 -10 -110 -5 0 -10 5 -10 10 0 7 -6 7 -19 0 -32 -17 -69 -12 -85
12 -23 32 -20 94 4 118 21 21 65 27 75 10 13 -22 25 -8 25 30 0 22 5 40 10 40
6 0 10 -43 10 -110z m390 70 c0 -37 2 -40 19 -30 52 27 101 -6 101 -68 0 -68
-46 -101 -101 -72 -13 7 -19 7 -19 0 0 -5 -4 -10 -10 -10 -6 0 -10 43 -10 110
0 67 4 110 10 110 6 0 10 -18 10 -40z m550 -10 c0 -40 -13 -53 -24 -24 -11 29
-7 64 9 64 11 0 15 -11 15 -40z m52 0 c-2 -22 -8 -40 -13 -40 -5 0 -9 18 -9
40 0 26 5 40 13 40 9 0 11 -12 9 -40z m-7102 10 c0 -11 7 -20 15 -20 8 0 15
-4 15 -10 0 -5 -7 -10 -15 -10 -12 0 -15 -13 -15 -55 0 -40 4 -57 15 -61 21
-8 19 -24 -3 -24 -31 0 -42 22 -42 81 0 36 -5 59 -12 63 -10 5 -10 7 0 12 6 3
12 14 12 25 0 10 7 19 15 19 8 0 15 -9 15 -20z m537 0 c3 -11 12 -20 19 -20 8
0 14 -4 14 -10 0 -5 -7 -10 -15 -10 -12 0 -15 -13 -15 -55 0 -40 4 -57 15 -61
21 -8 19 -24 -3 -24 -31 0 -42 22 -42 82 0 45 -3 58 -15 58 -8 0 -15 5 -15 10
0 6 7 10 15 10 8 0 15 9 15 20 0 11 5 20 11 20 6 0 13 -9 16 -20z m-447 -32
c0 -9 3 -9 12 0 13 13 48 16 48 5 0 -5 -14 -16 -30 -25 -28 -16 -30 -21 -30
-73 0 -30 -4 -55 -10 -55 -6 0 -10 33 -10 80 0 47 4 80 10 80 6 0 10 -5 10
-12z m190 -8 c11 -11 20 -31 20 -45 0 -24 -3 -25 -55 -25 -57 0 -66 -8 -39
-34 18 -19 45 -21 61 -5 6 6 17 9 23 7 24 -8 -20 -38 -54 -38 -45 0 -71 30
-71 82 0 68 70 103 115 58z m164 -2 c22 -31 22 -138 1 -138 -8 0 -15 5 -15 12
0 9 -3 9 -12 0 -7 -7 -24 -12 -38 -12 -32 0 -50 17 -50 47 0 26 27 43 69 43
24 0 31 4 31 19 0 25 -33 36 -59 19 -27 -16 -42 0 -17 18 30 21 72 17 90 -8z
m266 2 c11 -11 20 -31 20 -45 0 -24 -3 -25 -55 -25 -57 0 -66 -8 -39 -34 18
-19 45 -21 61 -5 6 6 17 9 23 7 24 -8 -20 -38 -54 -38 -45 0 -71 30 -71 82 0
68 70 103 115 58z m340 8 c0 -9 3 -9 12 0 15 15 50 16 64 2 6 -6 21 -6 42 2
53 20 66 4 70 -81 3 -86 -14 -96 -20 -11 -5 68 -19 91 -46 74 -12 -8 -18 -28
-20 -73 -2 -45 -7 -61 -17 -61 -12 0 -15 14 -15 58 0 74 -21 100 -54 66 -11
-10 -16 -34 -16 -70 0 -30 -4 -54 -10 -54 -6 0 -10 33 -10 80 0 47 4 80 10 80
6 0 10 -5 10 -12z m342 -5 c8 -10 18 -30 22 -45 l6 -28 -60 0 c-58 0 -60 -1
-50 -21 15 -28 37 -34 66 -19 30 17 46 3 20 -16 -27 -19 -75 -18 -98 3 -26 23
-25 96 2 123 25 25 72 26 92 3z m242 -5 c22 -31 22 -138 1 -138 -8 0 -15 5
-15 12 0 9 -3 9 -12 0 -7 -7 -24 -12 -38 -12 -32 0 -50 17 -50 47 0 26 27 43
69 43 24 0 31 4 31 19 0 25 -33 36 -59 19 -27 -16 -42 0 -17 18 30 21 72 17
90 -8z m156 7 c17 -21 6 -29 -20 -15 -12 6 -28 9 -36 6 -26 -10 -14 -33 26
-49 48 -18 59 -40 35 -67 -24 -26 -76 -26 -100 0 -14 16 -15 20 -4 20 8 0 20
-5 26 -11 15 -15 57 -7 61 12 2 12 -9 21 -40 30 -33 11 -44 20 -46 38 -7 44
69 71 98 36z m230 0 c17 -21 6 -29 -20 -15 -12 6 -28 9 -36 6 -26 -10 -14 -33
26 -49 48 -18 59 -40 35 -67 -24 -26 -76 -26 -100 0 -14 16 -15 20 -4 20 8 0
20 -5 26 -11 15 -15 57 -7 61 12 2 12 -9 21 -40 30 -33 11 -44 20 -46 38 -7
44 69 71 98 36z m170 -7 c27 -29 27 -91 0 -118 -24 -24 -77 -26 -102 -3 -26
23 -25 96 2 123 27 27 74 26 100 -2z m80 10 c0 -9 3 -9 12 0 15 15 50 16 64 2
6 -6 21 -6 42 2 53 20 66 4 70 -81 3 -86 -14 -96 -20 -11 -5 68 -19 91 -46 74
-12 -8 -18 -28 -20 -73 -2 -45 -7 -61 -17 -61 -12 0 -15 14 -15 58 0 74 -21
100 -54 66 -11 -10 -16 -34 -16 -70 0 -30 -4 -54 -10 -54 -6 0 -10 33 -10 80
0 47 4 80 10 80 6 0 10 -5 10 -12z m342 -5 c8 -10 18 -30 22 -45 l6 -28 -60 0
c-58 0 -60 -1 -50 -21 15 -28 37 -34 66 -19 30 17 46 3 20 -16 -27 -19 -75
-18 -98 3 -26 23 -25 96 2 123 25 25 72 26 92 3z m177 -9 c23 -30 27 -64 10
-97 -16 -30 -28 -37 -65 -37 -42 0 -69 31 -69 82 0 73 81 106 124 52z m81 16
c0 -6 8 -5 20 2 13 9 27 9 47 2 27 -9 28 -13 31 -82 2 -45 -1 -72 -8 -72 -6 0
-10 23 -10 53 0 30 -6 62 -14 72 -12 17 -18 18 -40 7 -24 -11 -26 -17 -26 -72
0 -47 -3 -60 -15 -60 -12 0 -15 16 -15 80 0 64 3 80 15 80 8 0 15 -5 15 -10z
m252 -7 c8 -10 18 -30 22 -45 l6 -28 -60 0 c-58 0 -60 -1 -50 -21 15 -28 37
-34 66 -19 30 17 46 3 20 -16 -27 -19 -75 -18 -98 3 -26 23 -25 96 2 123 25
25 72 26 92 3z m158 -25 c21 -84 25 -85 43 -19 21 75 36 75 56 3 8 -29 17 -52
21 -52 4 0 12 25 19 55 7 32 18 55 26 55 10 0 8 -18 -9 -80 -25 -96 -42 -101
-67 -20 -15 52 -17 54 -26 30 -6 -14 -14 -40 -18 -58 -11 -53 -35 -37 -57 38
-20 74 -22 90 -8 90 5 0 14 -19 20 -42z m491 23 c18 -14 24 -29 24 -59 0 -51
-27 -82 -69 -82 -37 0 -49 7 -65 37 -41 79 43 159 110 104z m168 -46 c15 -64
20 -62 41 23 6 23 17 42 24 42 7 0 21 -27 31 -62 l18 -63 15 63 c10 40 21 62
30 62 8 0 12 -6 10 -12 -3 -7 -13 -43 -23 -80 -11 -40 -23 -68 -31 -68 -7 0
-21 27 -32 61 l-18 60 -19 -60 c-10 -34 -24 -61 -31 -61 -11 0 -28 46 -50 134
-5 22 -4 28 7 24 7 -2 20 -31 28 -63z m292 55 c16 -9 19 -22 19 -80 0 -40 -4
-70 -10 -70 -5 0 -10 5 -10 11 0 8 -4 8 -14 0 -21 -18 -66 -9 -82 14 -21 31 6
65 51 65 40 0 53 16 32 38 -13 13 -21 13 -42 4 -39 -18 -50 -15 -30 8 20 22
55 26 86 10z m164 -6 c22 -22 11 -30 -19 -14 -14 7 -32 10 -40 7 -30 -12 -17
-35 27 -49 45 -14 60 -45 37 -74 -16 -18 -70 -18 -96 0 -24 18 -10 34 16 18
26 -16 45 -15 60 3 10 12 5 18 -33 34 -56 24 -63 35 -43 66 19 29 66 34 91 9z
m156 -39 c7 -30 15 -55 19 -55 4 0 13 23 21 52 20 72 35 72 56 -3 18 -66 22
-65 43 19 6 23 15 42 20 42 14 0 12 -15 -9 -90 -21 -75 -45 -91 -56 -38 -4 18
-12 44 -18 58 -9 24 -11 22 -26 -30 -25 -81 -42 -76 -67 20 -17 62 -19 80 -9
80 8 0 19 -23 26 -55z m306 33 c13 -12 23 -32 23 -45 0 -21 -4 -23 -55 -23
-43 0 -55 -3 -55 -15 0 -24 47 -42 71 -27 30 19 44 14 24 -8 -18 -20 -69 -27
-91 -12 -37 24 -43 87 -13 126 25 32 64 34 96 4z m572 -4 c12 -15 21 -35 21
-45 0 -16 -8 -19 -55 -19 -58 0 -71 -14 -39 -41 12 -10 22 -10 47 -1 35 13 45
9 27 -13 -7 -8 -28 -15 -46 -15 -46 0 -74 29 -74 77 0 74 77 111 119 57z m86
-34 c10 -33 21 -60 25 -60 4 0 15 27 25 60 11 37 24 60 33 60 8 0 12 -6 10
-12 -59 -159 -73 -191 -92 -198 -31 -11 -43 1 -18 18 28 18 28 35 -3 116 -29
78 -29 76 -12 76 8 0 22 -26 32 -60z m235 38 c27 -29 27 -91 0 -118 -24 -24
-77 -26 -102 -3 -26 23 -25 96 2 123 27 27 74 26 100 -2z m80 11 c0 -8 4 -8
14 0 24 20 69 9 83 -19 19 -37 17 -130 -2 -130 -12 0 -15 13 -15 58 0 76 -27
104 -64 66 -11 -10 -16 -34 -16 -70 0 -30 -4 -54 -10 -54 -6 0 -10 33 -10 80
0 47 4 80 10 80 6 0 10 -5 10 -11z m517 -19 c19 -37 17 -130 -2 -130 -8 0 -15
5 -15 12 0 9 -3 9 -12 0 -15 -15 -61 -15 -76 0 -18 18 -14 56 7 68 11 5 33 10
50 10 34 0 41 19 16 40 -12 10 -21 10 -42 1 -31 -14 -41 -8 -23 14 21 25 82
16 97 -15z m423 10 c25 -25 27 -95 3 -122 -22 -24 -77 -24 -103 2 -13 13 -20
33 -20 60 0 49 27 80 70 80 17 0 39 -9 50 -20z m85 -40 c10 -33 21 -60 25 -60
4 0 15 27 25 60 11 37 24 60 33 60 8 0 12 -6 10 -12 -59 -159 -73 -191 -92
-198 -31 -11 -43 1 -18 18 28 18 28 35 -3 116 -29 78 -29 76 -12 76 8 0 22
-26 32 -60z m145 -80 c0 -5 -5 -12 -11 -16 -14 -8 -33 11 -25 25 7 11 36 4 36
-9z"/>
<path d="M7100 2470 c-25 -25 -26 -62 -2 -83 23 -21 36 -21 56 -1 29 29 11
104 -25 104 -5 0 -18 -9 -29 -20z"/>
<path d="M9812 2474 c-38 -26 -21 -104 23 -104 44 0 59 80 20 106 -18 12 -24
11 -43 -2z"/>
<path d="M942 2474 c-37 -25 -20 -94 23 -94 43 0 58 71 20 96 -18 12 -24 11
-43 -2z"/>
<path d="M1337 2472 c-25 -27 -21 -32 23 -32 44 0 55 21 21 40 -25 13 -25 13
-44 -8z"/>
<path d="M1756 2474 c-25 -25 -19 -34 24 -34 44 0 55 21 21 40 -25 13 -27 13
-45 -6z"/>
<path d="M3097 2472 c-25 -27 -21 -32 23 -32 44 0 55 21 21 40 -25 13 -25 13
-44 -8z"/>
<path d="M3554 2405 c-8 -19 3 -35 25 -35 20 0 41 19 41 37 0 18 -59 17 -66
-2z"/>
<path d="M3969 2480 c-25 -15 -32 -58 -14 -86 30 -47 75 -24 75 38 0 27 -5 40
-19 48 -23 12 -22 12 -42 0z"/>
<path d="M4308 2479 c-33 -19 -21 -39 22 -39 44 0 55 21 21 40 -23 12 -22 12
-43 -1z"/>
<path d="M4559 2480 c-25 -15 -32 -58 -14 -86 30 -47 75 -24 75 38 0 27 -5 40
-19 48 -23 12 -22 12 -42 0z"/>
<path d="M5188 2479 c-33 -19 -21 -39 22 -39 44 0 55 21 21 40 -23 12 -22 12
-43 -1z"/>
<path d="M5432 2474 c-38 -26 -21 -104 23 -104 23 0 45 30 45 60 0 26 -22 60
-38 60 -4 0 -18 -7 -30 -16z"/>
<path d="M6664 2405 c-13 -34 31 -48 60 -19 25 24 19 34 -19 34 -22 0 -38 -6
-41 -15z"/>
<path d="M7278 2479 c-33 -19 -21 -39 22 -39 44 0 49 8 22 33 -21 20 -21 20
-44 6z"/>
<path d="M7676 2474 c-26 -25 -20 -72 9 -86 21 -9 28 -8 45 7 25 23 25 50 0
75 -24 24 -34 25 -54 4z"/>
<path d="M8486 2474 c-9 -8 -16 -31 -16 -50 0 -27 5 -37 25 -46 53 -24 91 62
43 96 -28 20 -33 20 -52 0z"/>
<path d="M8909 2480 c-25 -15 -32 -58 -14 -86 30 -47 75 -24 75 38 0 27 -5 40
-19 48 -23 12 -22 12 -42 0z"/>
<path d="M9402 2474 c-38 -26 -21 -104 23 -104 23 0 45 30 45 60 0 26 -22 60
-38 60 -4 0 -18 -7 -30 -16z"/>
<path d="M9648 2479 c-33 -19 -21 -39 22 -39 44 0 49 8 22 33 -21 20 -21 20
-44 6z"/>
<path d="M10328 2479 c-33 -19 -21 -39 22 -39 44 0 55 21 21 40 -23 12 -22 12
-43 -1z"/>
<path d="M10554 2405 c-13 -34 31 -48 60 -19 25 24 19 34 -19 34 -22 0 -38 -6
-41 -15z"/>
<path d="M422 2074 c-38 -26 -21 -104 23 -104 44 0 59 80 20 106 -18 12 -24
11 -43 -2z"/>
<path d="M10492 2074 c-38 -26 -21 -104 23 -104 44 0 59 80 20 106 -18 12 -24
11 -43 -2z"/>
<path d="M584 2005 c-8 -19 3 -35 25 -35 20 0 41 19 41 37 0 18 -59 17 -66 -2z"/>
<path d="M1017 2072 c-25 -27 -21 -32 23 -32 44 0 55 21 21 40 -25 13 -25 13
-44 -8z"/>
<path d="M1782 2074 c-38 -26 -21 -104 23 -104 23 0 45 30 45 60 0 26 -22 60
-38 60 -4 0 -18 -7 -30 -16z"/>
<path d="M2206 2074 c-25 -25 -19 -34 24 -34 44 0 55 21 21 40 -25 13 -27 13
-45 -6z"/>
<path d="M3904 2005 c-8 -19 3 -35 25 -35 20 0 41 19 41 37 0 18 -59 17 -66
-2z"/>
<path d="M4804 2005 c-8 -19 3 -35 25 -35 20 0 41 19 41 37 0 18 -59 17 -66
-2z"/>
<path d="M4976 2074 c-9 -8 -16 -31 -16 -50 0 -27 5 -37 26 -46 23 -11 29 -10
45 11 24 30 24 56 -1 81 -24 24 -34 25 -54 4z"/>
<path d="M5584 2005 c-8 -19 3 -35 25 -35 20 0 41 19 41 37 0 18 -59 17 -66
-2z"/>
<path d="M6957 2072 c-25 -27 -21 -32 23 -32 44 0 55 21 21 40 -25 13 -25 13
-44 -8z"/>
<path d="M7208 2079 c-12 -7 -18 -22 -18 -47 0 -41 14 -62 41 -62 41 0 59 81
24 106 -22 16 -25 17 -47 3z"/>
<path d="M7716 2074 c-25 -25 -19 -34 24 -34 44 0 55 21 21 40 -25 13 -27 13
-45 -6z"/>
<path d="M8392 2074 c-38 -26 -21 -104 23 -104 23 0 45 30 45 60 0 26 -22 60
-38 60 -4 0 -18 -7 -30 -16z"/>
<path d="M8639 2080 c-25 -15 -32 -58 -14 -86 30 -47 75 -24 75 38 0 27 -5 40
-19 48 -23 12 -22 12 -42 0z"/>
<path d="M8808 2079 c-26 -15 -24 -75 2 -89 50 -27 89 52 42 88 -19 14 -22 14
-44 1z"/>
<path d="M9607 2072 c-25 -27 -21 -32 23 -32 44 0 55 21 21 40 -25 13 -25 13
-44 -8z"/>
<path d="M10076 2074 c-9 -8 -16 -31 -16 -50 0 -27 5 -37 25 -46 53 -24 91 62
43 96 -28 20 -33 20 -52 0z"/>
<path d="M4197 1678 c-27 -21 -31 -61 -9 -88 17 -22 23 -23 46 -12 21 9 26 19
26 46 0 31 -20 66 -39 66 -4 0 -15 -6 -24 -12z"/>
<path d="M5926 1674 c-9 -8 -16 -31 -16 -50 0 -27 5 -37 26 -46 23 -11 29 -10
45 11 24 30 24 56 -1 81 -24 24 -34 25 -54 4z"/>
<path d="M8462 1674 c-38 -26 -21 -104 23 -104 44 0 59 80 20 106 -18 12 -24
11 -43 -2z"/>
<path d="M8806 1674 c-9 -8 -16 -31 -16 -50 0 -27 5 -37 26 -46 23 -11 29 -10
45 11 24 30 24 56 -1 81 -24 24 -34 25 -54 4z"/>
<path d="M11482 1674 c-38 -26 -21 -104 23 -104 44 0 59 80 20 106 -18 12 -24
11 -43 -2z"/>
<path d="M417 1672 c-25 -27 -21 -32 23 -32 44 0 55 21 21 40 -25 13 -25 13
-44 -8z"/>
<path d="M922 1674 c-38 -26 -21 -104 23 -104 40 0 60 73 29 104 -19 20 -24
20 -52 0z"/>
<path d="M1354 1605 c-13 -34 31 -48 60 -19 25 24 19 34 -19 34 -22 0 -38 -6
-41 -15z"/>
<path d="M1530 1670 c-25 -25 -25 -41 -1 -71 16 -21 22 -22 45 -11 21 9 26 19
26 46 0 25 -6 38 -19 46 -26 13 -28 13 -51 -10z"/>
<path d="M1718 1679 c-33 -19 -21 -39 22 -39 44 0 49 8 22 33 -21 20 -21 20
-44 6z"/>
<path d="M2218 1679 c-33 -19 -21 -39 22 -39 44 0 55 21 21 40 -23 12 -22 12
-43 -1z"/>
<path d="M2569 1680 c-25 -15 -32 -58 -14 -86 30 -47 75 -24 75 38 0 27 -5 40
-19 48 -23 12 -22 12 -42 0z"/>
<path d="M2886 1674 c-9 -8 -16 -31 -16 -50 0 -27 5 -37 25 -46 53 -24 91 62
43 96 -28 20 -33 20 -52 0z"/>
<path d="M3062 1674 c-38 -26 -21 -104 23 -104 23 0 45 30 45 60 0 26 -22 60
-38 60 -4 0 -18 -7 -30 -16z"/>
<path d="M3912 1608 c-8 -8 -9 -15 -1 -25 21 -25 69 -9 69 24 0 16 -52 17 -68
1z"/>
<path d="M5048 1679 c-33 -19 -21 -39 22 -39 44 0 55 21 21 40 -23 12 -22 12
-43 -1z"/>
<path d="M5519 1680 c-25 -15 -32 -58 -14 -86 30 -47 75 -24 75 38 0 27 -5 40
-19 48 -23 12 -22 12 -42 0z"/>
<path d="M6287 1672 c-25 -27 -21 -32 23 -32 44 0 55 21 21 40 -25 13 -25 13
-44 -8z"/>
<path d="M6938 1679 c-33 -19 -21 -39 22 -39 44 0 55 21 21 40 -23 12 -22 12
-43 -1z"/>
<path d="M7444 1605 c-8 -19 3 -35 25 -35 20 0 41 19 41 37 0 18 -59 17 -66
-2z"/>
<path d="M8126 1674 c-25 -25 -19 -34 24 -34 44 0 55 21 21 40 -25 13 -27 13
-45 -6z"/>
<path d="M8298 1679 c-33 -19 -21 -39 22 -39 44 0 55 21 21 40 -23 12 -22 12
-43 -1z"/>
<path d="M8637 1672 c-25 -27 -21 -32 23 -32 44 0 55 21 21 40 -25 13 -25 13
-44 -8z"/>
<path d="M9236 1674 c-9 -8 -16 -31 -16 -50 0 -27 5 -37 25 -46 53 -24 91 62
43 96 -28 20 -33 20 -52 0z"/>
<path d="M9732 1608 c-8 -8 -9 -15 -1 -25 21 -25 69 -9 69 24 0 16 -52 17 -68
1z"/>
<path d="M10597 1672 c-25 -27 -21 -32 23 -32 44 0 55 21 21 40 -25 13 -25 13
-44 -8z"/>
<path d="M11066 1674 c-9 -8 -16 -31 -16 -50 0 -27 5 -37 25 -46 53 -24 91 62
43 96 -28 20 -33 20 -52 0z"/>
<path d="M2038 1279 c-12 -7 -18 -22 -18 -47 0 -41 14 -62 41 -62 41 0 59 81
24 106 -22 16 -25 17 -47 3z"/>
<path d="M4222 1274 c-38 -26 -21 -104 23 -104 44 0 59 80 20 106 -18 12 -24
11 -43 -2z"/>
<path d="M4568 1279 c-12 -7 -18 -22 -18 -47 0 -41 14 -62 41 -62 41 0 59 81
24 106 -22 16 -25 17 -47 3z"/>
<path d="M5445 1276 c-35 -25 -17 -106 24 -106 27 0 41 21 41 62 0 27 -5 40
-19 48 -25 13 -23 13 -46 -4z"/>
<path d="M6277 1278 c-27 -21 -31 -61 -9 -88 17 -22 23 -23 46 -12 21 9 26 19
26 46 0 31 -20 66 -39 66 -4 0 -15 -6 -24 -12z"/>
<path d="M417 1272 c-25 -27 -21 -32 23 -32 44 0 55 21 21 40 -25 13 -25 13
-44 -8z"/>
<path d="M742 1274 c-38 -26 -21 -104 23 -104 44 0 59 80 20 106 -18 12 -24
11 -43 -2z"/>
<path d="M964 1205 c-13 -34 31 -48 60 -19 25 24 19 34 -19 34 -22 0 -38 -6
-41 -15z"/>
<path d="M1717 1272 c-25 -27 -21 -32 23 -32 44 0 55 21 21 40 -25 13 -25 13
-44 -8z"/>
<path d="M2218 1279 c-33 -19 -21 -39 22 -39 44 0 55 21 21 40 -23 12 -22 12
-43 -1z"/>
<path d="M2364 1205 c-13 -34 31 -48 60 -19 25 24 19 34 -19 34 -22 0 -38 -6
-41 -15z"/>
<path d="M3034 1205 c-8 -19 3 -35 25 -35 20 0 41 19 41 37 0 18 -59 17 -66
-2z"/>
<path d="M3398 1279 c-33 -19 -21 -39 22 -39 44 0 55 21 21 40 -23 12 -22 12
-43 -1z"/>
<path d="M3716 1274 c-9 -8 -16 -31 -16 -50 0 -27 5 -37 26 -46 23 -11 29 -10
45 11 24 30 24 56 -1 81 -24 24 -34 25 -54 4z"/>
<path d="M3874 1205 c-8 -19 3 -35 25 -35 20 0 41 19 41 37 0 18 -59 17 -66
-2z"/>
<path d="M4396 1274 c-25 -25 -19 -34 24 -34 44 0 55 21 21 40 -25 13 -27 13
-45 -6z"/>
<path d="M5046 1274 c-25 -25 -19 -34 24 -34 44 0 55 21 21 40 -25 13 -27 13
-45 -6z"/>
<path d="M5618 1279 c-33 -19 -21 -39 22 -39 44 0 55 21 21 40 -23 12 -22 12
-43 -1z"/>
<path d="M5932 1274 c-38 -26 -21 -104 23 -104 23 0 45 30 45 60 0 26 -22 60
-38 60 -4 0 -18 -7 -30 -16z"/>
<path d="M7678 1279 c-33 -19 -21 -39 22 -39 44 0 49 8 22 33 -21 20 -21 20
-44 6z"/>
<path d="M8096 1274 c-25 -25 -19 -34 24 -34 44 0 55 21 21 40 -25 13 -27 13
-45 -6z"/>
<path d="M8418 1279 c-33 -19 -21 -39 22 -39 44 0 55 21 21 40 -23 12 -22 12
-43 -1z"/>
<path d="M8754 1205 c-8 -19 3 -35 25 -35 20 0 41 19 41 37 0 18 -59 17 -66
-2z"/>
<path d="M8996 1274 c-9 -8 -16 -31 -16 -50 0 -27 5 -37 25 -46 53 -24 91 62
43 96 -28 20 -33 20 -52 0z"/>
<path d="M9348 1279 c-33 -19 -21 -39 22 -39 44 0 49 8 22 33 -21 20 -21 20
-44 6z"/>
<path d="M9848 1279 c-33 -19 -21 -39 22 -39 44 0 55 21 21 40 -23 12 -22 12
-43 -1z"/>
<path d="M10708 1279 c-33 -19 -21 -39 22 -39 44 0 55 21 21 40 -23 12 -22 12
-43 -1z"/>
<path d="M1058 879 c-12 -7 -18 -22 -18 -47 0 -41 14 -62 41 -62 41 0 59 81
24 106 -22 16 -25 17 -47 3z"/>
<path d="M3316 874 c-31 -30 -11 -104 28 -104 19 0 46 34 46 58 0 22 -32 62
-49 62 -5 0 -17 -7 -25 -16z"/>
<path d="M4546 874 c-31 -30 -11 -104 28 -104 19 0 46 34 46 58 0 22 -32 62
-49 62 -5 0 -17 -7 -25 -16z"/>
<path d="M6548 879 c-12 -7 -18 -22 -18 -47 0 -41 14 -62 41 -62 41 0 59 81
24 106 -22 16 -25 17 -47 3z"/>
<path d="M10597 878 c-27 -21 -31 -61 -9 -88 17 -22 23 -23 46 -12 21 9 26 19
26 46 0 31 -20 66 -39 66 -4 0 -15 -6 -24 -12z"/>
<path d="M649 880 c-25 -15 -32 -58 -14 -86 30 -47 75 -24 75 38 0 27 -5 40
-19 48 -23 12 -22 12 -42 0z"/>
<path d="M1488 879 c-12 -7 -18 -22 -18 -47 0 -41 14 -62 41 -62 41 0 59 81
24 106 -22 16 -25 17 -47 3z"/>
<path d="M1848 879 c-33 -19 -21 -39 22 -39 44 0 49 8 22 33 -21 20 -21 20
-44 6z"/>
<path d="M2156 874 c-25 -25 -19 -34 24 -34 44 0 55 21 21 40 -25 13 -27 13
-45 -6z"/>
<path d="M2664 805 c-8 -19 3 -35 25 -35 20 0 41 19 41 37 0 18 -59 17 -66 -2z"/>
<path d="M3134 805 c-8 -19 3 -35 25 -35 20 0 41 19 41 37 0 18 -59 17 -66 -2z"/>
<path d="M3492 874 c-38 -26 -21 -104 23 -104 23 0 45 30 45 60 0 26 -22 60
-38 60 -4 0 -18 -7 -30 -16z"/>
<path d="M4298 879 c-33 -19 -21 -39 22 -39 44 0 49 8 22 33 -21 20 -21 20
-44 6z"/>
<path d="M4716 874 c-9 -8 -16 -31 -16 -50 0 -27 5 -37 25 -46 53 -24 91 62
43 96 -28 20 -33 20 -52 0z"/>
<path d="M5529 880 c-25 -15 -32 -58 -14 -86 30 -47 75 -24 75 38 0 27 -5 40
-19 48 -23 12 -22 12 -42 0z"/>
<path d="M6134 805 c-13 -34 31 -48 60 -19 25 24 19 34 -19 34 -22 0 -38 -6
-41 -15z"/>
<path d="M6712 808 c-8 -8 -9 -15 -1 -25 21 -25 69 -9 69 24 0 16 -52 17 -68
1z"/>
<path d="M7232 874 c-37 -25 -20 -94 23 -94 43 0 58 71 20 96 -18 12 -24 11
-43 -2z"/>
<path d="M7896 874 c-25 -25 -19 -34 24 -34 44 0 55 21 21 40 -25 13 -27 13
-45 -6z"/>
<path d="M8632 874 c-38 -26 -21 -104 23 -104 44 0 59 80 20 106 -18 12 -24
11 -43 -2z"/>
<path d="M9388 879 c-12 -7 -18 -22 -18 -47 0 -41 14 -62 41 -62 41 0 59 81
24 106 -22 16 -25 17 -47 3z"/>
<path d="M9726 874 c-26 -25 -20 -72 9 -86 21 -9 28 -8 45 7 25 23 25 50 0 75
-24 24 -34 25 -54 4z"/>
<path d="M10244 805 c-13 -34 31 -48 60 -19 25 24 19 34 -19 34 -22 0 -38 -6
-41 -15z"/>
<path d="M1228 479 c-12 -7 -18 -22 -18 -47 0 -41 14 -62 41 -62 41 0 59 81
24 106 -22 16 -25 17 -47 3z"/>
<path d="M5608 479 c-13 -7 -18 -22 -18 -50 0 -33 4 -41 25 -51 21 -9 29 -9
42 5 22 22 21 76 -2 93 -22 16 -25 17 -47 3z"/>
<path d="M6438 479 c-12 -7 -18 -22 -18 -47 0 -41 14 -62 41 -62 41 0 59 81
24 106 -22 16 -25 17 -47 3z"/>
<path d="M6945 476 c-35 -25 -17 -106 24 -106 27 0 41 21 41 62 0 27 -5 40
-19 48 -25 13 -23 13 -46 -4z"/>
<path d="M627 472 c-25 -27 -21 -32 23 -32 44 0 55 21 21 40 -25 13 -25 13
-44 -8z"/>
<path d="M784 405 c-8 -19 3 -35 25 -35 20 0 41 19 41 37 0 18 -59 17 -66 -2z"/>
<path d="M1057 472 c-25 -27 -21 -32 23 -32 44 0 55 21 21 40 -25 13 -25 13
-44 -8z"/>
<path d="M1748 479 c-33 -19 -21 -39 22 -39 44 0 49 8 22 33 -21 20 -21 20
-44 6z"/>
<path d="M1974 405 c-8 -19 3 -35 25 -35 20 0 41 19 41 37 0 18 -59 17 -66 -2z"/>
<path d="M2539 480 c-25 -15 -32 -58 -14 -86 30 -47 75 -24 75 38 0 27 -5 40
-19 48 -23 12 -22 12 -42 0z"/>
<path d="M2968 479 c-33 -19 -21 -39 22 -39 44 0 49 8 22 33 -21 20 -21 20
-44 6z"/>
<path d="M3132 474 c-38 -26 -21 -104 23 -104 23 0 45 30 45 60 0 26 -22 60
-38 60 -4 0 -18 -7 -30 -16z"/>
<path d="M3478 479 c-33 -19 -21 -39 22 -39 44 0 49 8 22 33 -21 20 -21 20
-44 6z"/>
<path d="M4116 474 c-9 -8 -16 -31 -16 -50 0 -27 5 -37 25 -46 53 -24 91 62
43 96 -28 20 -33 20 -52 0z"/>
<path d="M4574 405 c-13 -34 31 -48 60 -19 25 24 19 34 -19 34 -22 0 -38 -6
-41 -15z"/>
<path d="M5206 474 c-25 -25 -19 -34 24 -34 44 0 55 21 21 40 -25 13 -27 13
-45 -6z"/>
<path d="M5778 479 c-33 -19 -21 -39 22 -39 44 0 55 21 21 40 -23 12 -22 12
-43 -1z"/>
<path d="M6099 480 c-25 -15 -32 -58 -14 -86 30 -47 75 -24 75 38 0 27 -5 40
-19 48 -23 12 -22 12 -42 0z"/>
<path d="M6682 408 c-8 -8 -9 -15 -1 -25 21 -25 69 -9 69 24 0 16 -52 17 -68
1z"/>
<path d="M7118 479 c-12 -7 -18 -22 -18 -47 0 -41 14 -62 41 -62 41 0 59 81
24 106 -22 16 -25 17 -47 3z"/>
</g>
</svg>
