<?xml version="1.0" standalone="no"?>
<!DOCTYPE svg PUBLIC "-//W3C//DTD SVG 20010904//EN"
 "http://www.w3.org/TR/2001/REC-SVG-20010904/DTD/svg10.dtd">
<svg version="1.0" xmlns="http://www.w3.org/2000/svg"
 width="839.2" height="727.08" viewBox="0 0 1192.000000 250.000000"
 preserveAspectRatio="xMidYMid meet">

<g transform="translate(0.000000,250.000000) scale(0.100000,-0.100000)"
fill="#000000" stroke="none">
<path d="M0 1250 l0 -1250 5960 0 5960 0 0 1250 0 1250 -5960 0 -5960 0 0
-1250z m670 881 c0 -39 0 -39 29 -28 55 20 81 -13 81 -104 0 -36 -4 -49 -15
-49 -10 0 -15 16 -17 61 -2 47 -7 65 -21 73 -29 18 -57 -24 -57 -85 0 -27 -4
-49 -10 -49 -6 0 -10 43 -10 110 0 67 4 110 10 110 6 0 10 -18 10 -39z m175
30 c7 -12 -12 -24 -25 -16 -11 7 -4 25 10 25 5 0 11 -4 15 -9z m1575 -6 c0 -8
-7 -15 -15 -15 -8 0 -15 7 -15 15 0 8 7 15 15 15 8 0 15 -7 15 -15z m350 -95
c0 -91 -3 -110 -15 -110 -8 0 -15 5 -15 12 0 9 -3 9 -12 0 -19 -19 -63 -14
-84 9 -11 13 -19 35 -19 59 0 64 45 97 96 70 17 -10 19 -7 19 30 0 29 4 40 15
40 12 0 15 -19 15 -110z m770 0 c0 -91 -3 -110 -15 -110 -12 0 -15 19 -15 110
0 91 3 110 15 110 12 0 15 -19 15 -110z m70 43 l0 -67 40 39 c46 45 68 40 25
-5 -21 -22 -27 -35 -20 -44 6 -8 20 -28 33 -45 18 -24 20 -31 8 -31 -8 0 -27
16 -42 35 -14 19 -30 35 -35 35 -5 0 -9 -16 -9 -35 0 -24 -5 -35 -15 -35 -12
0 -15 19 -15 110 0 91 3 110 15 110 12 0 15 -14 15 -67z m1125 58 c7 -12 -12
-24 -25 -16 -11 7 -4 25 10 25 5 0 11 -4 15 -9z m1325 -33 c0 -33 3 -39 12
-30 17 17 54 15 72 -4 18 -18 23 -144 6 -144 -5 0 -10 19 -10 43 0 80 -20 108
-61 87 -15 -9 -19 -22 -19 -70 0 -47 -3 -60 -15 -60 -12 0 -15 19 -15 110 0
91 3 110 15 110 11 0 15 -11 15 -42z m1470 -68 c0 -91 -3 -110 -15 -110 -8 0
-15 5 -15 12 0 9 -3 9 -12 0 -19 -19 -63 -14 -84 9 -11 13 -19 35 -19 59 0 64
45 97 96 70 17 -10 19 -7 19 30 0 29 4 40 15 40 12 0 15 -19 15 -110z m710 95
c0 -8 -7 -15 -15 -15 -8 0 -15 7 -15 15 0 8 7 15 15 15 8 0 15 -7 15 -15z
m430 -27 c0 -33 3 -39 12 -30 17 17 48 15 70 -5 24 -22 27 -143 3 -143 -12 0
-15 14 -15 64 0 69 -13 86 -51 66 -15 -9 -19 -22 -19 -70 0 -47 -3 -60 -15
-60 -12 0 -15 19 -15 110 0 91 3 110 15 110 11 0 15 -11 15 -42z m520 -68 c0
-67 -4 -110 -10 -110 -5 0 -10 5 -10 10 0 7 -6 7 -19 0 -32 -17 -69 -12 -85
12 -23 32 -20 94 4 118 21 21 65 27 75 10 13 -22 25 -8 25 30 0 22 5 40 10 40
6 0 10 -43 10 -110z m1150 68 c0 -33 3 -39 12 -30 17 17 54 15 72 -4 18 -18
23 -144 6 -144 -5 0 -10 19 -10 43 0 80 -20 108 -61 87 -15 -9 -19 -22 -19
-70 0 -47 -3 -60 -15 -60 -12 0 -15 19 -15 110 0 91 3 110 15 110 11 0 15 -11
15 -42z m-9984 10 c-3 -13 -6 -31 -6 -40 0 -10 -4 -18 -10 -18 -5 0 -10 18
-10 40 0 30 4 40 16 40 12 0 15 -6 10 -22z m54 -18 c0 -29 -4 -40 -15 -40 -11
0 -15 11 -15 40 0 29 4 40 15 40 11 0 15 -11 15 -40z m200 31 c0 -6 -15 -11
-32 -13 l-33 -3 -3 -92 c-1 -51 -7 -93 -12 -93 -5 0 -11 42 -12 93 l-3 92 -32
3 c-65 6 -31 22 47 22 44 0 80 -4 80 -9z m6040 -96 c0 -87 -3 -105 -15 -105
-12 0 -15 18 -15 105 0 87 3 105 15 105 12 0 15 -18 15 -105z m-4430 75 c0
-11 7 -20 15 -20 8 0 15 -4 15 -10 0 -5 -7 -10 -15 -10 -12 0 -15 -13 -15 -55
0 -40 4 -57 15 -61 21 -8 19 -24 -3 -24 -31 0 -42 22 -42 81 0 36 -5 59 -12
63 -10 5 -10 7 0 12 6 3 12 14 12 25 0 10 7 19 15 19 8 0 15 -9 15 -20z m707
0 c3 -11 12 -20 19 -20 8 0 14 -4 14 -10 0 -5 -7 -10 -15 -10 -12 0 -15 -13
-15 -55 0 -40 4 -57 15 -61 21 -8 19 -24 -3 -24 -31 0 -42 22 -42 82 0 45 -3
58 -15 58 -8 0 -15 5 -15 10 0 6 7 10 15 10 8 0 15 9 15 20 0 11 5 20 11 20 6
0 13 -9 16 -20z m353 1 c0 -10 10 -22 23 -26 l22 -8 -22 -4 c-21 -4 -23 -10
-23 -60 0 -46 3 -56 20 -60 28 -7 25 -23 -5 -23 -32 0 -45 26 -45 89 0 30 -5
52 -12 55 -10 5 -10 7 0 12 6 3 12 14 12 25 0 10 7 19 15 19 8 0 15 -8 15 -19z
m1700 -1 c0 -13 7 -20 20 -20 11 0 20 -4 20 -9 0 -5 -9 -11 -20 -14 -16 -4
-20 -14 -20 -51 0 -35 5 -49 20 -58 28 -18 25 -30 -7 -26 -27 3 -28 6 -31 66
-2 44 -7 65 -17 69 -20 7 -19 23 0 23 8 0 15 9 15 20 0 11 5 20 10 20 6 0 10
-9 10 -20z m3590 1 c0 -10 10 -22 23 -26 l22 -8 -22 -4 c-21 -4 -23 -10 -23
-60 0 -46 3 -56 20 -60 28 -7 25 -23 -5 -23 -32 0 -45 26 -45 89 0 30 -5 52
-12 55 -10 5 -10 7 0 12 6 3 12 14 12 25 0 10 7 19 15 19 8 0 15 -8 15 -19z
m-7730 -101 c0 -47 -4 -80 -10 -80 -6 0 -10 33 -10 80 0 47 4 80 10 80 6 0 10
-33 10 -80z m145 64 c22 -22 11 -30 -19 -14 -14 7 -32 10 -40 7 -30 -12 -17
-35 27 -49 45 -14 60 -45 37 -74 -16 -18 -70 -18 -96 0 -24 18 -10 34 16 18
26 -16 45 -15 60 3 10 12 5 18 -33 34 -56 24 -63 35 -43 66 19 29 66 34 91 9z
m155 -26 c21 -84 25 -85 43 -19 21 75 36 75 56 3 8 -29 17 -52 21 -52 4 0 12
25 19 55 7 32 18 55 26 55 10 0 8 -18 -9 -80 -25 -96 -42 -101 -67 -20 -15 52
-17 54 -26 30 -6 -14 -14 -40 -18 -58 -11 -53 -35 -37 -57 38 -20 74 -22 90
-8 90 5 0 14 -19 20 -42z m319 16 c23 -30 27 -64 10 -97 -16 -30 -28 -37 -65
-37 -42 0 -69 31 -69 82 0 73 81 106 124 52z m81 14 c0 -9 3 -9 12 0 7 7 21
12 33 12 12 0 26 -5 33 -12 9 -9 15 -9 24 0 17 17 54 15 72 -4 22 -22 23 -144
1 -144 -12 0 -15 14 -15 64 0 48 -4 65 -15 70 -37 14 -55 -15 -55 -91 0 -24
-4 -43 -10 -43 -6 0 -10 26 -10 59 0 67 -15 90 -49 71 -18 -9 -21 -20 -21 -70
0 -47 -3 -60 -15 -60 -12 0 -15 16 -15 80 0 64 3 80 15 80 8 0 15 -5 15 -12z
m334 -10 c22 -31 22 -138 1 -138 -8 0 -15 5 -15 12 0 9 -3 9 -12 0 -7 -7 -24
-12 -38 -12 -32 0 -50 17 -50 47 0 26 27 43 69 43 24 0 31 4 31 19 0 25 -33
36 -59 19 -27 -16 -42 0 -17 18 30 21 72 17 90 -8z m86 10 c0 -9 3 -9 12 0 17
17 54 15 72 -4 22 -22 23 -144 1 -144 -12 0 -15 14 -15 64 0 69 -13 86 -51 66
-15 -9 -19 -22 -19 -70 0 -47 -3 -60 -15 -60 -12 0 -15 16 -15 80 0 64 3 80
15 80 8 0 15 -5 15 -12z m350 0 c0 -9 3 -9 12 0 14 14 48 16 48 3 0 -5 -13
-14 -30 -20 -29 -10 -30 -12 -30 -70 0 -48 -3 -61 -15 -61 -12 0 -15 16 -15
80 0 64 3 80 15 80 8 0 15 -5 15 -12z m110 -68 c0 -64 -3 -80 -15 -80 -12 0
-15 16 -15 80 0 64 3 80 15 80 12 0 15 -16 15 -80z m152 63 c8 -10 18 -30 22
-45 l6 -28 -60 0 c-58 0 -60 -1 -50 -21 15 -28 37 -34 66 -19 30 17 46 3 20
-16 -27 -19 -75 -18 -98 3 -26 23 -25 96 2 123 25 25 72 26 92 3z m537 -9 c23
-30 27 -64 10 -97 -16 -30 -28 -37 -65 -37 -42 0 -69 31 -69 82 0 73 81 106
124 52z m345 4 c22 -31 22 -138 1 -138 -8 0 -15 5 -15 12 0 9 -3 9 -12 0 -7
-7 -24 -12 -38 -12 -32 0 -50 17 -50 47 0 26 27 43 69 43 24 0 31 4 31 19 0
25 -33 36 -59 19 -27 -16 -42 0 -17 18 30 21 72 17 90 -8z m462 8 c26 -20 10
-32 -21 -16 -22 12 -28 12 -42 -3 -15 -15 -13 -18 29 -36 52 -22 66 -46 42
-72 -21 -24 -77 -25 -99 -3 -21 22 -11 30 19 15 27 -15 57 -12 64 6 2 8 -16
21 -42 33 -37 15 -46 24 -46 44 0 42 56 60 96 32z m164 -6 c11 -11 20 -31 20
-45 0 -24 -3 -25 -55 -25 -57 0 -66 -8 -39 -34 18 -19 45 -21 61 -5 6 6 17 9
23 7 24 -8 -20 -38 -54 -38 -45 0 -71 30 -71 82 0 68 70 103 115 58z m80 9 c0
-8 4 -8 14 0 24 20 69 9 83 -19 19 -37 17 -130 -2 -130 -12 0 -15 13 -15 58 0
76 -27 104 -64 66 -11 -10 -16 -34 -16 -70 0 -30 -4 -54 -10 -54 -6 0 -10 33
-10 80 0 47 4 80 10 80 6 0 10 -5 10 -11z m246 -3 c26 -20 10 -32 -21 -16 -22
12 -28 12 -42 -3 -15 -15 -13 -18 29 -36 52 -22 66 -46 42 -72 -21 -24 -77
-25 -99 -3 -21 22 -11 30 19 15 27 -15 57 -12 64 6 2 8 -16 21 -42 33 -37 15
-46 24 -46 44 0 42 56 60 96 32z m161 -8 c13 -12 23 -32 23 -45 0 -21 -4 -23
-55 -23 -43 0 -55 -3 -55 -15 0 -24 47 -42 71 -27 30 19 44 14 24 -8 -18 -20
-69 -27 -91 -12 -37 24 -43 87 -13 126 25 32 64 34 96 4z m163 -58 c0 -47 -4
-80 -10 -80 -6 0 -10 33 -10 80 0 47 4 80 10 80 6 0 10 -33 10 -80z m70 69 c0
-8 4 -8 14 0 24 20 69 9 83 -19 19 -37 17 -130 -2 -130 -12 0 -15 13 -15 58 0
76 -27 104 -64 66 -11 -10 -16 -34 -16 -70 0 -30 -4 -54 -10 -54 -6 0 -10 33
-10 80 0 47 4 80 10 80 6 0 10 -5 10 -11z m361 -8 c18 -14 24 -29 24 -59 0
-51 -27 -82 -69 -82 -37 0 -49 7 -65 37 -41 79 43 159 110 104z m169 9 c0 -6
8 -5 19 2 15 9 25 9 47 -1 19 -8 30 -9 38 -1 17 17 54 11 70 -12 22 -31 22
-138 1 -138 -12 0 -15 13 -15 58 0 74 -21 100 -54 66 -11 -10 -16 -34 -16 -70
0 -30 -4 -54 -10 -54 -5 0 -10 24 -10 53 0 64 -19 98 -47 81 -14 -8 -19 -26
-21 -73 -2 -45 -7 -61 -17 -61 -12 0 -15 17 -15 80 0 64 3 80 15 80 8 0 15 -5
15 -10z m339 -16 c12 -15 21 -35 21 -45 0 -16 -8 -19 -55 -19 -58 0 -71 -14
-39 -41 12 -10 22 -10 47 -1 35 13 45 9 27 -13 -7 -8 -28 -15 -46 -15 -46 0
-74 29 -74 77 0 74 77 111 119 57z m163 -36 l15 -63 18 63 c10 35 24 62 31 62
7 0 18 -19 24 -42 21 -85 26 -87 41 -23 8 32 21 61 28 63 11 4 12 -2 7 -24
-38 -153 -55 -168 -82 -72 l-18 63 -18 -63 c-11 -35 -24 -62 -32 -62 -8 0 -20
27 -31 68 -10 37 -20 73 -23 80 -2 6 2 12 10 12 9 0 20 -22 30 -62z m480 45
c8 -10 18 -30 22 -45 l6 -28 -60 0 c-58 0 -60 -1 -50 -21 15 -28 37 -34 66
-19 30 17 46 3 20 -16 -27 -19 -75 -18 -98 3 -26 23 -25 96 2 123 25 25 72 26
92 3z m81 5 c4 -10 7 -10 18 0 20 19 56 14 73 -10 21 -30 22 -138 1 -138 -10
0 -15 16 -17 61 -5 110 -67 106 -76 -5 -7 -84 -22 -67 -22 24 0 72 10 102 23
68z m409 -50 l15 -63 18 63 c10 35 24 62 31 62 7 0 18 -19 24 -42 21 -85 26
-87 41 -23 8 32 21 61 28 63 11 4 12 -2 7 -24 -38 -153 -55 -168 -82 -72 l-18
63 -18 -63 c-11 -35 -24 -62 -32 -62 -8 0 -20 27 -31 68 -10 37 -20 73 -23 80
-2 6 2 12 10 12 9 0 20 -22 30 -62z m302 40 c22 -31 22 -138 1 -138 -8 0 -15
5 -15 12 0 9 -3 9 -12 0 -7 -7 -24 -12 -38 -12 -32 0 -50 17 -50 47 0 26 27
43 69 43 24 0 31 4 31 19 0 25 -33 36 -59 19 -27 -16 -42 0 -17 18 30 21 72
17 90 -8z m152 8 c26 -20 10 -32 -21 -16 -22 12 -28 12 -42 -3 -15 -15 -13
-18 29 -36 52 -22 66 -46 42 -72 -21 -24 -77 -25 -99 -3 -21 22 -11 30 19 15
27 -15 57 -12 64 6 2 8 -16 21 -42 33 -37 15 -46 24 -46 44 0 42 56 60 96 32z
m433 -12 c23 -30 27 -64 10 -97 -16 -30 -28 -37 -65 -37 -42 0 -69 31 -69 82
0 73 81 106 124 52z m72 -29 c7 -30 15 -55 19 -55 4 0 13 23 21 52 20 72 35
72 56 -3 18 -66 22 -65 43 19 6 23 15 42 20 42 14 0 12 -15 -9 -90 -21 -75
-45 -91 -56 -38 -4 18 -12 44 -18 58 -9 24 -11 22 -26 -30 -25 -81 -42 -76
-67 20 -17 62 -19 80 -9 80 8 0 19 -23 26 -55z m229 45 c0 -6 8 -5 20 2 13 9
27 9 47 2 27 -9 28 -13 31 -82 2 -45 -1 -72 -8 -72 -6 0 -10 23 -10 53 0 30
-6 62 -14 72 -12 17 -18 18 -40 7 -24 -11 -26 -17 -26 -72 0 -47 -3 -60 -15
-60 -12 0 -15 16 -15 80 0 64 3 80 15 80 8 0 15 -5 15 -10z m250 -70 c0 -64
-3 -80 -15 -80 -12 0 -15 16 -15 80 0 64 3 80 15 80 12 0 15 -16 15 -80z m70
70 c0 -6 8 -5 20 2 13 9 27 9 47 2 27 -9 28 -13 31 -82 2 -45 -1 -72 -8 -72
-6 0 -10 23 -10 53 0 30 -6 62 -14 72 -12 17 -18 18 -40 7 -24 -11 -26 -17
-26 -72 0 -47 -3 -60 -15 -60 -12 0 -15 16 -15 80 0 64 3 80 15 80 8 0 15 -5
15 -10z m610 -10 c11 -11 20 -31 20 -45 0 -24 -3 -25 -55 -25 -57 0 -66 -8
-39 -34 18 -19 45 -21 61 -5 6 6 17 9 23 7 24 -8 -20 -38 -54 -38 -45 0 -71
30 -71 82 0 68 70 103 115 58z m340 -38 c0 -60 11 -82 42 -82 25 0 38 31 38
89 0 28 5 51 10 51 6 0 10 -33 10 -80 0 -47 -4 -80 -10 -80 -5 0 -10 5 -10 11
0 8 -4 8 -14 0 -24 -20 -69 -9 -83 19 -13 26 -18 112 -6 123 16 17 23 3 23
-51z m170 46 c0 -9 3 -9 12 0 15 15 50 16 64 2 6 -6 21 -6 42 2 53 20 66 4 70
-81 3 -86 -14 -96 -20 -11 -5 68 -19 91 -46 74 -12 -8 -18 -28 -20 -73 -2 -45
-7 -61 -17 -61 -12 0 -15 14 -15 58 0 74 -21 100 -54 66 -11 -10 -16 -34 -16
-70 0 -30 -4 -54 -10 -54 -6 0 -10 33 -10 80 0 47 4 80 10 80 6 0 10 -5 10
-12z m260 2 c0 -7 6 -7 19 0 47 25 88 -1 97 -61 10 -63 -64 -117 -104 -77 -9
9 -12 4 -12 -25 0 -26 -4 -37 -15 -37 -12 0 -15 18 -15 105 0 87 3 105 15 105
8 0 15 -5 15 -10z m250 -5 c17 -21 6 -29 -20 -15 -12 6 -28 9 -36 6 -26 -10
-14 -33 26 -49 48 -18 59 -40 35 -67 -24 -26 -76 -26 -100 0 -14 16 -15 20 -4
20 8 0 20 -5 26 -11 15 -15 57 -7 61 12 2 12 -9 21 -40 30 -33 11 -44 20 -46
38 -7 44 69 71 98 36z m316 1 c26 -20 10 -32 -21 -16 -22 12 -28 12 -42 -3
-15 -15 -13 -18 29 -36 52 -22 66 -46 42 -72 -21 -24 -77 -25 -99 -3 -21 22
-11 30 19 15 27 -15 57 -12 64 6 2 8 -16 21 -42 33 -37 15 -46 24 -46 44 0 42
56 60 96 32z m334 -6 c11 -11 20 -31 20 -45 0 -24 -3 -25 -55 -25 -57 0 -66
-8 -39 -34 18 -19 45 -21 61 -5 6 6 17 9 23 7 24 -8 -20 -38 -54 -38 -45 0
-71 30 -71 82 0 68 70 103 115 58z m-562 -7 c-4 -22 -22 -20 -26 1 -2 10 3 16
13 16 10 0 15 -7 13 -17z m-2 -119 c-3 -9 -9 -27 -12 -40 -7 -28 -24 -32 -24
-6 0 34 13 62 27 62 10 0 13 -6 9 -16z m-9186 -304 c0 -91 -3 -110 -15 -110
-12 0 -15 19 -15 110 0 91 3 110 15 110 12 0 15 -19 15 -110z m235 101 c7 -12
-12 -24 -25 -16 -11 7 -4 25 10 25 5 0 11 -4 15 -9z m470 0 c7 -12 -12 -24
-25 -16 -11 7 -4 25 10 25 5 0 11 -4 15 -9z m1215 -33 c0 -33 3 -39 12 -30 17
17 54 15 72 -4 18 -18 23 -144 6 -144 -5 0 -10 19 -10 43 0 80 -20 108 -61 87
-15 -9 -19 -22 -19 -70 0 -47 -3 -60 -15 -60 -12 0 -15 19 -15 110 0 91 3 110
15 110 11 0 15 -11 15 -42z m5150 -68 c0 -91 -3 -110 -15 -110 -8 0 -15 5 -15
12 0 9 -3 9 -12 0 -17 -17 -58 -15 -80 5 -26 23 -25 96 2 123 22 22 60 26 78
8 9 -9 12 -3 12 30 0 31 4 42 15 42 12 0 15 -19 15 -110z m180 0 c0 -91 -3
-110 -15 -110 -8 0 -15 5 -15 12 0 9 -3 9 -12 0 -17 -17 -58 -15 -80 5 -26 23
-25 96 2 123 22 22 60 26 78 8 9 -9 12 -3 12 30 0 31 4 42 15 42 12 0 15 -19
15 -110z m410 0 c0 -91 -3 -110 -15 -110 -12 0 -15 19 -15 110 0 91 3 110 15
110 12 0 15 -19 15 -110z m410 0 c0 -67 -4 -110 -10 -110 -5 0 -10 5 -10 12 0
9 -3 9 -12 0 -13 -13 -57 -16 -74 -4 -37 24 -43 87 -13 126 22 28 48 33 80 16
17 -10 19 -7 19 30 0 22 5 40 10 40 6 0 10 -43 10 -110z m560 0 c0 -91 -3
-110 -15 -110 -12 0 -15 19 -15 110 0 91 3 110 15 110 12 0 15 -19 15 -110z
m1440 0 c0 -91 -3 -110 -15 -110 -12 0 -15 19 -15 110 0 91 3 110 15 110 12 0
15 -19 15 -110z m-7630 -5 c0 -87 -3 -105 -15 -105 -12 0 -15 18 -15 105 0 87
3 105 15 105 12 0 15 -18 15 -105z m-1660 75 c0 -13 7 -20 20 -20 11 0 20 -4
20 -9 0 -5 -9 -11 -20 -14 -16 -4 -20 -14 -20 -51 0 -35 5 -49 20 -58 28 -18
25 -30 -7 -26 -27 3 -28 6 -31 66 -2 44 -7 65 -17 69 -20 7 -19 23 0 23 8 0
15 9 15 20 0 11 5 20 10 20 6 0 10 -9 10 -20z m190 0 c0 -11 7 -20 15 -20 8 0
15 -4 15 -10 0 -5 -7 -10 -15 -10 -12 0 -15 -13 -15 -55 0 -40 4 -57 15 -61
21 -8 19 -24 -3 -24 -31 0 -42 22 -42 81 0 36 -5 59 -12 63 -10 5 -10 7 0 12
6 3 12 14 12 25 0 10 7 19 15 19 8 0 15 -9 15 -20z m857 0 c3 -11 12 -20 19
-20 8 0 14 -4 14 -10 0 -5 -7 -10 -15 -10 -12 0 -15 -13 -15 -55 0 -40 4 -57
15 -61 21 -8 19 -24 -3 -24 -31 0 -42 22 -42 82 0 45 -3 58 -15 58 -8 0 -15 5
-15 10 0 6 7 10 15 10 8 0 15 9 15 20 0 11 5 20 11 20 6 0 13 -9 16 -20z m433
1 c0 -10 10 -22 23 -26 l22 -8 -22 -4 c-21 -4 -23 -10 -23 -60 0 -46 3 -56 20
-60 28 -7 25 -23 -5 -23 -32 0 -45 26 -45 89 0 30 -5 52 -12 55 -10 5 -10 7 0
12 6 3 12 14 12 25 0 10 7 19 15 19 8 0 15 -8 15 -19z m1180 -1 c0 -11 7 -20
15 -20 8 0 15 -4 15 -10 0 -5 -7 -10 -15 -10 -12 0 -15 -13 -15 -55 0 -40 4
-57 15 -61 21 -8 19 -24 -3 -24 -31 0 -42 22 -42 81 0 36 -5 59 -12 63 -10 5
-10 7 0 12 6 3 12 14 12 25 0 10 7 19 15 19 8 0 15 -9 15 -20z m180 0 c0 -13
7 -20 20 -20 11 0 20 -4 20 -9 0 -5 -9 -11 -20 -14 -16 -4 -20 -14 -20 -51 0
-35 5 -49 20 -58 28 -18 25 -30 -7 -26 -27 3 -28 6 -31 66 -2 44 -7 65 -17 69
-20 7 -19 23 0 23 8 0 15 9 15 20 0 11 5 20 10 20 6 0 10 -9 10 -20z m540 0
c0 -11 7 -20 15 -20 8 0 15 -4 15 -10 0 -5 -7 -10 -15 -10 -12 0 -15 -13 -15
-55 0 -40 4 -57 15 -61 21 -8 19 -24 -3 -24 -31 0 -42 22 -42 81 0 36 -5 59
-12 63 -10 5 -10 7 0 12 6 3 12 14 12 25 0 10 7 19 15 19 8 0 15 -9 15 -20z
m2130 0 c0 -13 7 -20 20 -20 11 0 20 -4 20 -9 0 -5 -9 -11 -20 -14 -16 -4 -20
-14 -20 -51 0 -35 5 -49 20 -58 28 -18 25 -30 -7 -26 -27 3 -28 6 -31 66 -2
44 -7 65 -17 69 -20 7 -19 23 0 23 8 0 15 9 15 20 0 11 5 20 10 20 6 0 10 -9
10 -20z m-6700 -40 c11 -11 20 -31 20 -45 0 -24 -3 -25 -55 -25 -57 0 -66 -8
-39 -34 18 -19 45 -21 61 -5 6 6 17 9 23 7 24 -8 -20 -38 -54 -38 -45 0 -71
30 -71 82 0 68 70 103 115 58z m88 -11 l19 -31 19 31 c10 17 24 31 31 31 18 0
16 -7 -13 -45 l-26 -34 19 -28 c33 -47 35 -53 19 -53 -9 0 -23 14 -32 32 l-16
31 -20 -31 c-11 -18 -26 -32 -34 -32 -10 0 -7 11 12 40 l26 39 -19 28 c-33 47
-35 53 -20 53 8 0 24 -14 35 -31z m142 21 c0 -7 6 -7 19 0 47 25 88 -1 97 -61
10 -63 -64 -117 -104 -77 -9 9 -12 4 -12 -25 0 -26 -4 -37 -15 -37 -12 0 -15
18 -15 105 0 87 3 105 15 105 8 0 15 -5 15 -10z m321 0 c16 -9 19 -22 19 -80
0 -40 -4 -70 -10 -70 -5 0 -10 5 -10 11 0 8 -4 8 -14 0 -21 -18 -66 -9 -82 14
-21 31 6 65 51 65 40 0 53 16 32 38 -13 13 -21 13 -42 4 -39 -18 -50 -15 -30
8 20 22 55 26 86 10z m89 -70 c0 -47 -4 -80 -10 -80 -6 0 -10 33 -10 80 0 47
4 80 10 80 6 0 10 -33 10 -80z m70 70 c0 -6 8 -5 20 2 13 9 27 9 47 2 27 -9
28 -13 31 -82 2 -45 -1 -72 -8 -72 -6 0 -10 23 -10 53 0 30 -6 62 -14 72 -12
17 -18 18 -40 7 -24 -11 -26 -17 -26 -72 0 -47 -3 -60 -15 -60 -12 0 -15 16
-15 80 0 64 3 80 15 80 8 0 15 -5 15 -10z m245 -6 c22 -22 11 -30 -19 -14 -14
7 -32 10 -40 7 -30 -12 -17 -35 27 -49 45 -14 60 -45 37 -74 -16 -18 -70 -18
-96 0 -24 18 -10 34 16 18 26 -16 45 -15 60 3 10 12 5 18 -33 34 -56 24 -63
35 -43 66 19 29 66 34 91 9z m155 -64 c0 -47 -4 -80 -10 -80 -6 0 -10 33 -10
80 0 47 4 80 10 80 6 0 10 -33 10 -80z m450 58 c27 -29 27 -91 0 -118 -24 -24
-77 -26 -102 -3 -26 23 -25 96 2 123 27 27 74 26 100 -2z m160 10 c0 -9 3 -9
12 0 7 7 21 12 33 12 12 0 26 -5 33 -12 9 -9 15 -9 24 0 17 17 54 15 72 -4 22
-22 23 -144 1 -144 -12 0 -15 14 -15 64 0 48 -4 65 -15 70 -37 14 -55 -15 -55
-91 0 -24 -4 -43 -10 -43 -6 0 -10 26 -10 59 0 67 -15 90 -49 71 -18 -9 -21
-20 -21 -70 0 -47 -3 -60 -15 -60 -12 0 -15 16 -15 80 0 64 3 80 15 80 8 0 15
-5 15 -12z m340 -8 c11 -11 20 -31 20 -45 0 -24 -3 -25 -55 -25 -57 0 -66 -8
-39 -34 18 -19 45 -21 61 -5 6 6 17 9 23 7 24 -8 -20 -38 -54 -38 -45 0 -71
30 -71 82 0 68 70 103 115 58z m511 10 c16 -9 19 -22 19 -80 0 -40 -4 -70 -10
-70 -5 0 -10 5 -10 11 0 8 -4 8 -14 0 -21 -18 -66 -9 -82 14 -21 31 6 65 51
65 40 0 53 16 32 38 -13 13 -21 13 -42 4 -39 -18 -50 -15 -30 8 20 22 55 26
86 10z m514 -10 c24 -26 13 -36 -18 -16 -29 20 -55 12 -68 -21 -19 -52 38
-107 71 -68 14 17 30 20 30 6 0 -20 -33 -41 -65 -41 -42 0 -65 29 -65 82 0 68
73 105 115 58z m162 -10 c19 -37 17 -130 -2 -130 -8 0 -15 5 -15 12 0 9 -3 9
-12 0 -7 -7 -24 -12 -38 -12 -32 0 -50 17 -50 47 0 26 27 43 69 43 34 0 41 19
16 40 -12 10 -21 10 -42 1 -31 -14 -41 -8 -23 14 21 25 82 16 97 -15z m76 18
c4 -10 7 -10 18 0 20 19 56 14 73 -10 21 -30 22 -138 1 -138 -10 0 -15 16 -17
61 -5 110 -67 106 -76 -5 -7 -84 -22 -67 -22 24 0 72 10 102 23 68z m170 0 c4
-10 7 -10 18 0 20 19 56 14 73 -10 21 -30 22 -138 1 -138 -10 0 -15 16 -17 61
-5 110 -67 106 -76 -5 -7 -84 -22 -67 -22 24 0 72 10 102 23 68z m258 -7 c18
-14 24 -29 24 -59 0 -51 -27 -82 -69 -82 -37 0 -49 7 -65 37 -41 79 43 159
110 104z m369 9 c0 -6 10 -5 25 2 14 6 28 8 33 3 4 -4 1 -10 -7 -13 -34 -12
-51 -42 -51 -92 0 -27 -4 -50 -10 -50 -6 0 -10 33 -10 80 0 47 4 80 10 80 6 0
10 -4 10 -10z m110 -41 c0 -58 13 -89 38 -89 31 0 42 22 42 82 0 45 3 58 15
58 12 0 15 -16 15 -80 0 -64 -3 -80 -15 -80 -8 0 -15 5 -15 12 0 9 -3 9 -12 0
-7 -7 -24 -12 -38 -12 -14 0 -31 5 -38 12 -15 15 -16 148 -2 148 6 0 10 -23
10 -51z m246 37 c26 -20 10 -32 -21 -16 -22 12 -28 12 -42 -3 -15 -15 -13 -18
29 -36 52 -22 66 -46 42 -72 -21 -24 -77 -25 -99 -3 -21 22 -11 30 19 15 27
-15 57 -12 64 6 2 8 -16 21 -42 33 -37 15 -46 24 -46 44 0 42 56 60 96 32z
m264 2 c0 -9 3 -9 12 0 7 7 21 12 33 12 12 0 26 -5 33 -12 9 -9 15 -9 24 0 17
17 54 15 72 -4 22 -22 23 -144 1 -144 -12 0 -15 14 -15 64 0 48 -4 65 -15 70
-37 14 -55 -15 -55 -91 0 -24 -4 -43 -10 -43 -6 0 -10 26 -10 59 0 67 -15 90
-49 71 -18 -9 -21 -20 -21 -70 0 -47 -3 -60 -15 -60 -12 0 -15 16 -15 80 0 64
3 80 15 80 8 0 15 -5 15 -12z m256 -40 c24 -77 25 -77 48 -13 12 32 27 60 34
63 19 6 14 -15 -26 -112 -27 -64 -43 -91 -59 -97 -17 -6 -23 -5 -23 6 0 8 6
15 14 15 26 0 25 28 -5 107 -34 92 -32 83 -15 83 8 0 22 -22 32 -52z m324 30
c27 -29 27 -91 0 -118 -24 -24 -77 -26 -102 -3 -26 23 -25 96 2 123 27 27 74
26 100 -2z m80 12 c0 -7 6 -7 19 0 33 17 58 11 81 -17 26 -33 22 -99 -6 -120
-22 -16 -66 -17 -82 -1 -9 9 -12 4 -12 -25 0 -20 -4 -37 -10 -37 -6 0 -10 42
-10 105 0 63 4 105 10 105 6 0 10 -5 10 -10z m180 0 c0 -7 6 -7 19 0 47 25 88
-1 97 -61 10 -63 -64 -117 -104 -77 -9 9 -12 4 -12 -25 0 -26 -4 -37 -15 -37
-12 0 -15 18 -15 105 0 87 3 105 15 105 8 0 15 -5 15 -10z m180 -2 c0 -9 3 -9
12 0 14 14 38 16 38 4 0 -5 -11 -14 -25 -20 -23 -10 -25 -17 -25 -72 0 -47 -3
-60 -15 -60 -12 0 -15 16 -15 80 0 64 3 80 15 80 8 0 15 -5 15 -12z m189 -14
c12 -15 21 -35 21 -45 0 -16 -8 -19 -55 -19 -58 0 -71 -14 -39 -41 12 -10 22
-10 47 -1 35 13 45 9 27 -13 -7 -8 -28 -15 -46 -15 -46 0 -74 29 -74 77 0 74
77 111 119 57z m157 4 c19 -21 19 -21 -6 -14 -44 13 -64 12 -68 -5 -2 -12 9
-21 40 -30 33 -11 44 -20 46 -38 3 -15 -3 -30 -14 -38 -24 -18 -79 -16 -94 2
-18 22 -4 31 24 15 28 -15 56 -8 56 14 0 9 -16 20 -39 26 -47 12 -62 42 -35
71 23 25 66 24 90 -3z m150 0 c19 -21 19 -21 -6 -14 -44 13 -64 12 -68 -5 -2
-12 9 -21 40 -30 33 -11 44 -20 46 -38 3 -15 -3 -30 -14 -38 -24 -18 -79 -16
-94 2 -18 22 -4 31 24 15 28 -15 56 -8 56 14 0 9 -16 20 -39 26 -47 12 -62 42
-35 71 23 25 66 24 90 -3z m164 2 c25 -25 27 -95 3 -122 -22 -24 -77 -24 -103
2 -13 13 -20 33 -20 60 0 49 27 80 70 80 17 0 39 -9 50 -20z m80 10 c0 -6 10
-5 25 2 14 6 28 8 33 3 4 -4 1 -10 -7 -13 -34 -12 -51 -42 -51 -92 0 -27 -4
-50 -10 -50 -6 0 -10 33 -10 80 0 47 4 80 10 80 6 0 10 -4 10 -10z m381 -9
c18 -14 24 -29 24 -59 0 -51 -27 -82 -69 -82 -37 0 -49 7 -65 37 -41 79 43
159 110 104z m239 4 c17 -21 6 -29 -20 -15 -12 6 -28 9 -36 6 -26 -10 -14 -33
26 -49 48 -18 59 -40 35 -67 -24 -26 -76 -26 -100 0 -14 16 -15 20 -4 20 8 0
20 -5 26 -11 15 -15 57 -7 61 12 2 12 -9 21 -40 30 -33 11 -44 20 -46 38 -7
44 69 71 98 36z m82 -52 c3 -59 6 -68 23 -71 36 -4 48 14 53 77 6 88 22 75 22
-19 0 -47 -4 -80 -10 -80 -5 0 -10 5 -10 12 0 9 -3 9 -12 0 -20 -20 -65 -14
-82 10 -21 30 -22 138 -1 138 11 0 15 -16 17 -67z m610 50 c8 -10 18 -30 22
-45 l6 -28 -60 0 c-58 0 -60 -1 -50 -21 15 -28 37 -34 66 -19 30 17 46 3 20
-16 -27 -19 -75 -18 -98 3 -26 23 -25 96 2 123 25 25 72 26 92 3z m88 5 c0 -9
3 -9 12 0 17 17 54 15 72 -4 22 -22 23 -144 1 -144 -12 0 -15 14 -15 64 0 69
-13 86 -51 66 -15 -9 -19 -22 -19 -70 0 -47 -3 -60 -15 -60 -12 0 -15 16 -15
80 0 64 3 80 15 80 8 0 15 -5 15 -12z m245 -48 c10 -33 21 -60 25 -60 4 0 15
27 25 60 11 37 24 60 33 60 8 0 12 -6 10 -12 -59 -159 -73 -191 -92 -198 -31
-11 -43 1 -18 18 28 18 28 35 -3 116 -29 78 -29 76 -12 76 8 0 22 -26 32 -60z
m492 38 c13 -12 23 -32 23 -45 0 -21 -4 -23 -55 -23 -43 0 -55 -3 -55 -15 0
-24 47 -42 71 -27 30 19 44 14 24 -8 -18 -20 -69 -27 -91 -12 -37 24 -43 87
-13 126 25 32 64 34 96 4z m90 -38 c9 -33 19 -60 23 -60 3 0 14 25 24 55 16
50 31 73 42 63 2 -3 -8 -40 -23 -82 -19 -55 -31 -76 -42 -74 -9 2 -27 35 -43
78 -33 89 -31 80 -13 80 10 0 21 -21 32 -60z m232 34 c12 -15 21 -35 21 -45 0
-16 -8 -19 -55 -19 -58 0 -71 -14 -39 -41 12 -10 22 -10 47 -1 35 13 45 9 27
-13 -7 -8 -28 -15 -46 -15 -46 0 -74 29 -74 77 0 74 77 111 119 57z m241 4
c27 -29 27 -91 0 -118 -24 -24 -77 -26 -102 -3 -26 23 -25 96 2 123 27 27 74
26 100 -2z m80 12 c0 -7 6 -7 19 0 33 17 58 11 81 -17 26 -33 22 -99 -6 -120
-22 -16 -66 -17 -82 -1 -9 9 -12 4 -12 -25 0 -20 -4 -37 -10 -37 -6 0 -10 42
-10 105 0 63 4 105 10 105 6 0 10 -5 10 -10z m331 0 c16 -9 19 -22 19 -80 0
-40 -4 -70 -10 -70 -5 0 -10 5 -10 11 0 8 -4 8 -14 0 -21 -18 -66 -9 -82 14
-21 31 6 65 51 65 40 0 53 16 32 38 -13 13 -21 13 -42 4 -39 -18 -50 -15 -30
8 20 22 55 26 86 10z m169 -2 c0 -9 3 -9 12 0 7 7 21 12 33 12 12 0 26 -5 33
-12 9 -9 15 -9 24 0 17 17 54 15 72 -4 22 -22 23 -144 1 -144 -12 0 -15 14
-15 64 0 48 -4 65 -15 70 -37 14 -55 -15 -55 -91 0 -24 -4 -43 -10 -43 -6 0
-10 26 -10 59 0 67 -15 90 -49 71 -18 -9 -21 -20 -21 -70 0 -47 -3 -60 -15
-60 -12 0 -15 16 -15 80 0 64 3 80 15 80 8 0 15 -5 15 -12z m349 -14 c23 -30
27 -64 10 -97 -16 -30 -28 -37 -65 -37 -42 0 -69 31 -69 82 0 73 81 106 124
52z m81 14 c0 -9 3 -9 12 0 14 14 48 16 48 3 0 -5 -13 -14 -30 -20 -29 -10
-30 -12 -30 -70 0 -48 -3 -61 -15 -61 -12 0 -15 16 -15 80 0 64 3 80 15 80 8
0 15 -5 15 -12z m181 2 c16 -9 19 -22 19 -80 0 -40 -4 -70 -10 -70 -5 0 -10 5
-10 11 0 8 -4 8 -14 0 -21 -18 -66 -9 -82 14 -21 31 6 65 51 65 40 0 53 16 32
38 -13 13 -21 13 -42 4 -39 -18 -50 -15 -30 8 20 22 55 26 86 10z m-8996 -344
c19 -8 35 -22 35 -30 0 -20 -14 -20 -30 0 -8 9 -25 14 -44 12 -26 -2 -31 -7
-31 -28 0 -20 8 -27 40 -38 71 -23 91 -55 59 -100 -21 -30 -95 -31 -125 -1
-15 15 -18 24 -10 32 8 8 15 5 27 -11 18 -26 65 -30 85 -6 18 22 1 46 -42 57
-91 23 -92 101 -1 126 1 1 18 -6 37 -13z m105 -25 c0 -39 0 -39 29 -28 55 20
81 -13 81 -104 0 -36 -4 -49 -15 -49 -10 0 -15 16 -17 61 -2 47 -7 65 -21 73
-29 18 -57 -24 -57 -85 0 -27 -4 -49 -10 -49 -6 0 -10 43 -10 110 0 67 4 110
10 110 6 0 10 -18 10 -39z m420 -28 l0 -67 38 37 c49 47 78 49 32 2 l-34 -35
32 -39 c36 -45 38 -51 18 -51 -7 0 -26 16 -40 35 -31 40 -46 38 -46 -6 0 -19
-5 -29 -15 -29 -12 0 -15 19 -15 110 0 91 3 110 15 110 12 0 15 -14 15 -67z
m1110 27 c0 -37 2 -40 19 -30 32 17 58 12 80 -16 30 -39 24 -102 -13 -126 -17
-12 -61 -9 -74 4 -9 9 -12 9 -12 0 0 -7 -7 -12 -15 -12 -12 0 -15 19 -15 110
0 91 3 110 15 110 11 0 15 -11 15 -40z m940 -2 c0 -33 3 -39 12 -30 17 17 48
15 70 -5 24 -22 27 -143 3 -143 -12 0 -15 14 -15 64 0 69 -13 86 -51 66 -15
-9 -19 -22 -19 -70 0 -47 -3 -60 -15 -60 -12 0 -15 19 -15 110 0 91 3 110 15
110 11 0 15 -11 15 -42z m170 27 c0 -8 -7 -15 -15 -15 -8 0 -15 7 -15 15 0 8
7 15 15 15 8 0 15 -7 15 -15z m230 -27 c0 -33 3 -39 12 -30 7 7 24 12 38 12
14 0 31 -5 38 -12 15 -15 16 -148 2 -148 -6 0 -10 26 -10 58 0 76 -27 104 -64
66 -11 -10 -16 -34 -16 -70 0 -41 -4 -54 -15 -54 -12 0 -15 19 -15 110 0 91 3
110 15 110 11 0 15 -11 15 -42z m250 27 c0 -8 -7 -15 -15 -15 -8 0 -15 7 -15
15 0 8 7 15 15 15 8 0 15 -7 15 -15z m410 -27 c0 -33 3 -39 12 -30 17 17 54
15 72 -4 18 -18 23 -144 6 -144 -5 0 -10 19 -10 43 0 80 -20 108 -61 87 -15
-9 -19 -22 -19 -70 0 -47 -3 -60 -15 -60 -12 0 -15 19 -15 110 0 91 3 110 15
110 11 0 15 -11 15 -42z m520 27 c0 -8 -7 -15 -15 -15 -8 0 -15 7 -15 15 0 8
7 15 15 15 8 0 15 -7 15 -15z m680 -27 c0 -33 3 -39 12 -30 17 17 48 15 70 -5
24 -22 27 -143 3 -143 -12 0 -15 14 -15 64 0 69 -13 86 -51 66 -15 -9 -19 -22
-19 -70 0 -47 -3 -60 -15 -60 -12 0 -15 19 -15 110 0 91 3 110 15 110 11 0 15
-11 15 -42z m1473 25 c-26 -18 -30 -43 -8 -43 8 0 15 -4 15 -10 0 -5 -7 -10
-15 -10 -12 0 -15 -14 -15 -70 0 -56 -3 -70 -15 -70 -12 0 -15 14 -15 69 0 46
-4 71 -12 74 -9 4 -10 8 -3 14 6 4 16 20 22 36 10 20 19 27 40 26 l28 0 -22
-16z m452 8 c7 -12 -12 -24 -25 -16 -11 7 -4 25 10 25 5 0 11 -4 15 -9z m1010
-5 c19 -8 35 -22 35 -30 0 -20 -14 -20 -30 0 -8 9 -25 14 -44 12 -26 -2 -31
-7 -31 -28 0 -20 8 -27 40 -38 71 -23 91 -55 59 -100 -21 -30 -95 -31 -125 -1
-15 15 -18 24 -10 32 8 8 15 5 27 -11 18 -26 65 -30 85 -6 18 22 1 46 -42 57
-91 23 -92 101 -1 126 1 1 18 -6 37 -13z m-2415 -101 c0 -87 -3 -105 -15 -105
-12 0 -15 18 -15 105 0 87 3 105 15 105 12 0 15 -18 15 -105z m2860 0 c0 -87
-3 -105 -15 -105 -12 0 -15 18 -15 105 0 87 3 105 15 105 12 0 15 -18 15 -105z
m-6050 75 c0 -13 7 -20 20 -20 11 0 20 -4 20 -9 0 -5 -9 -11 -20 -14 -16 -4
-20 -14 -20 -51 0 -35 5 -49 20 -58 28 -18 25 -30 -7 -26 -27 3 -28 6 -31 66
-2 44 -7 65 -17 69 -20 7 -19 23 0 23 8 0 15 9 15 20 0 11 5 20 10 20 6 0 10
-9 10 -20z m1370 0 c0 -13 7 -20 20 -20 11 0 20 -4 20 -9 0 -5 -9 -11 -20 -14
-16 -4 -20 -14 -20 -51 0 -35 5 -49 20 -58 28 -18 25 -30 -7 -26 -27 3 -28 6
-31 66 -2 44 -7 65 -17 69 -20 7 -19 23 0 23 8 0 15 9 15 20 0 11 5 20 10 20
6 0 10 -9 10 -20z m527 0 c3 -11 12 -20 19 -20 8 0 14 -4 14 -10 0 -5 -7 -10
-15 -10 -12 0 -15 -13 -15 -55 0 -40 4 -57 15 -61 21 -8 19 -24 -3 -24 -31 0
-42 22 -42 82 0 45 -3 58 -15 58 -8 0 -15 5 -15 10 0 6 7 10 15 10 8 0 15 9
15 20 0 11 5 20 11 20 6 0 13 -9 16 -20z m673 0 c0 -13 7 -20 20 -20 11 0 20
-4 20 -9 0 -5 -9 -11 -20 -14 -16 -4 -20 -14 -20 -51 0 -35 5 -49 20 -58 28
-18 25 -30 -7 -26 -27 3 -28 6 -31 66 -2 44 -7 65 -17 69 -20 7 -19 23 0 23 8
0 15 9 15 20 0 11 5 20 10 20 6 0 10 -9 10 -20z m440 0 c0 -11 7 -20 15 -20 8
0 15 -4 15 -10 0 -5 -7 -10 -15 -10 -12 0 -15 -13 -15 -55 0 -40 4 -57 15 -61
21 -8 19 -24 -3 -24 -31 0 -42 22 -42 81 0 36 -5 59 -12 63 -10 5 -10 7 0 12
6 3 12 14 12 25 0 10 7 19 15 19 8 0 15 -9 15 -20z m2090 1 c0 -10 10 -22 23
-26 l22 -8 -22 -4 c-21 -4 -23 -10 -23 -60 0 -46 3 -56 20 -60 28 -7 25 -23
-5 -23 -32 0 -45 26 -45 89 0 30 -5 52 -12 55 -10 5 -10 7 0 12 6 3 12 14 12
25 0 10 7 19 15 19 8 0 15 -8 15 -19z m1700 0 c0 -10 10 -22 23 -26 l22 -8
-22 -4 c-21 -4 -23 -10 -23 -60 0 -46 3 -56 20 -60 28 -7 25 -23 -5 -23 -32 0
-45 26 -45 89 0 30 -5 52 -12 55 -10 5 -10 7 0 12 6 3 12 14 12 25 0 10 7 19
15 19 8 0 15 -8 15 -19z m-10358 -38 c22 -20 23 -33 3 -33 -8 0 -15 4 -15 9 0
18 -33 21 -56 6 -30 -20 -32 -65 -3 -91 20 -18 22 -18 51 -1 37 21 48 15 23
-13 -24 -27 -76 -26 -101 1 -28 31 -25 96 5 120 29 23 68 24 93 2z m168 -5
c27 -29 27 -91 0 -118 -24 -24 -77 -26 -102 -3 -26 23 -25 96 2 123 27 27 74
26 100 -2z m80 10 c0 -9 3 -9 12 0 15 15 50 16 64 2 6 -6 21 -6 42 2 53 20 66
4 70 -81 3 -86 -14 -96 -20 -11 -5 68 -19 91 -46 74 -12 -8 -18 -28 -20 -73
-2 -45 -7 -61 -17 -61 -12 0 -15 14 -15 58 0 74 -21 100 -54 66 -11 -10 -16
-34 -16 -70 0 -30 -4 -54 -10 -54 -6 0 -10 33 -10 80 0 47 4 80 10 80 6 0 10
-5 10 -12z m260 2 c0 -7 6 -7 19 0 47 25 88 -1 97 -61 10 -63 -64 -117 -104
-77 -9 9 -12 4 -12 -25 0 -26 -4 -37 -15 -37 -12 0 -15 18 -15 105 0 87 3 105
15 105 8 0 15 -5 15 -10z m252 -7 c14 -12 18 -31 18 -78 l0 -61 -55 -2 c-50
-1 -57 1 -67 23 -15 34 12 65 59 65 26 0 33 4 33 19 0 28 -17 35 -51 21 -35
-15 -46 -9 -24 14 21 21 63 21 87 -1z m164 -5 c19 -21 19 -21 -6 -14 -44 13
-64 12 -68 -5 -2 -12 9 -21 40 -30 33 -11 44 -20 46 -38 3 -15 -3 -30 -14 -38
-24 -18 -79 -16 -94 2 -18 22 -4 31 24 15 28 -15 56 -8 56 14 0 9 -16 20 -39
26 -47 12 -62 42 -35 71 23 25 66 24 90 -3z m144 7 c17 -21 6 -29 -20 -15 -12
6 -28 9 -36 6 -26 -10 -14 -33 26 -49 48 -18 59 -40 35 -67 -24 -26 -76 -26
-100 0 -14 16 -15 20 -4 20 8 0 20 -5 26 -11 15 -15 57 -7 61 12 2 12 -9 21
-40 30 -33 11 -44 20 -46 38 -7 44 69 71 98 36z m689 -11 c12 -15 21 -35 21
-45 0 -16 -8 -19 -55 -19 -58 0 -71 -14 -39 -41 12 -10 22 -10 47 -1 35 13 45
9 27 -13 -7 -8 -28 -15 -46 -15 -46 0 -74 29 -74 77 0 74 77 111 119 57z m321
14 c0 -9 3 -9 12 0 17 17 54 15 72 -4 22 -22 23 -144 1 -144 -12 0 -15 14 -15
64 0 69 -13 86 -51 66 -15 -9 -19 -22 -19 -70 0 -47 -3 -60 -15 -60 -12 0 -15
16 -15 80 0 64 3 80 15 80 8 0 15 -5 15 -12z m259 -14 c23 -30 27 -64 10 -97
-16 -30 -28 -37 -65 -37 -42 0 -69 31 -69 82 0 73 81 106 124 52z m71 -16 c21
-84 25 -85 43 -19 21 75 36 75 56 3 8 -29 17 -52 21 -52 4 0 12 25 19 55 7 32
18 55 26 55 10 0 8 -18 -9 -80 -25 -96 -42 -101 -67 -20 -15 52 -17 54 -26 30
-6 -14 -14 -40 -18 -58 -11 -53 -35 -37 -57 38 -20 74 -22 90 -8 90 5 0 14
-19 20 -42z m300 27 c17 -21 6 -29 -20 -15 -12 6 -28 9 -36 6 -26 -10 -14 -33
26 -49 48 -18 59 -40 35 -67 -24 -26 -76 -26 -100 0 -14 16 -15 20 -4 20 8 0
20 -5 26 -11 15 -15 57 -7 61 12 2 12 -9 21 -40 30 -33 11 -44 20 -46 38 -7
44 69 71 98 36z m231 5 c16 -9 19 -22 19 -80 0 -40 -4 -70 -10 -70 -5 0 -10 5
-10 11 0 8 -4 8 -14 0 -21 -18 -66 -9 -82 14 -21 31 6 65 51 65 40 0 53 16 32
38 -13 13 -21 13 -42 4 -39 -18 -50 -15 -30 8 20 22 55 26 86 10z m359 -12
c27 -29 27 -91 0 -118 -24 -24 -77 -26 -102 -3 -26 23 -25 96 2 123 27 27 74
26 100 -2z m80 -36 c0 -60 11 -82 42 -82 25 0 38 31 38 89 0 28 5 51 10 51 6
0 10 -33 10 -80 0 -47 -4 -80 -10 -80 -5 0 -10 5 -10 11 0 8 -4 8 -14 0 -24
-20 -69 -9 -83 19 -13 26 -18 112 -6 123 16 17 23 3 23 -51z m359 -7 c15 -64
20 -62 41 23 6 23 17 42 24 42 7 0 21 -27 31 -62 l18 -63 15 63 c10 40 21 62
30 62 8 0 12 -6 10 -12 -3 -7 -13 -43 -23 -80 -11 -40 -23 -68 -31 -68 -7 0
-21 27 -32 61 l-18 60 -19 -60 c-10 -34 -24 -61 -31 -61 -11 0 -28 46 -50 134
-5 22 -4 28 7 24 7 -2 20 -31 28 -63z m401 -15 c0 -64 -3 -80 -15 -80 -12 0
-15 16 -15 80 0 64 3 80 15 80 12 0 15 -16 15 -80z m152 63 c22 -20 23 -33 3
-33 -8 0 -15 4 -15 9 0 18 -33 21 -56 6 -30 -20 -32 -65 -3 -91 20 -18 22 -18
51 -1 37 21 48 15 23 -13 -24 -27 -76 -26 -101 1 -28 31 -25 96 5 120 29 23
68 24 93 2z m328 -63 c0 -64 -3 -80 -15 -80 -12 0 -15 16 -15 80 0 64 3 80 15
80 12 0 15 -16 15 -80z m146 58 c19 -21 19 -21 -6 -14 -44 13 -64 12 -68 -5
-2 -12 9 -21 40 -30 33 -11 44 -20 46 -38 3 -15 -3 -30 -14 -38 -24 -18 -79
-16 -94 2 -18 22 -4 31 24 15 28 -15 56 -8 56 14 0 9 -16 20 -39 26 -47 12
-62 42 -35 71 23 25 66 24 90 -3z m514 2 c11 -11 20 -31 20 -45 0 -24 -3 -25
-55 -25 -57 0 -66 -8 -39 -34 18 -19 45 -21 61 -5 6 6 17 9 23 7 24 -8 -20
-38 -54 -38 -45 0 -71 30 -71 82 0 68 70 103 115 58z m270 -60 c0 -64 -3 -80
-15 -80 -12 0 -15 16 -15 80 0 64 3 80 15 80 12 0 15 -16 15 -80z m70 70 c0
-6 8 -5 19 2 15 9 25 9 47 -1 19 -8 30 -9 38 -1 17 17 54 11 70 -12 22 -31 22
-138 1 -138 -12 0 -15 13 -15 58 0 74 -21 100 -54 66 -11 -10 -16 -34 -16 -70
0 -30 -4 -54 -10 -54 -5 0 -10 24 -10 53 0 64 -19 98 -47 81 -14 -8 -19 -26
-21 -73 -2 -45 -7 -61 -17 -61 -12 0 -15 17 -15 80 0 64 3 80 15 80 8 0 15 -5
15 -10z m337 -12 c13 -12 23 -32 23 -45 0 -21 -4 -23 -55 -23 -43 0 -55 -3
-55 -15 0 -24 47 -42 71 -27 30 19 44 14 24 -8 -18 -20 -69 -27 -91 -12 -37
24 -43 87 -13 126 25 32 64 34 96 4z m515 5 c14 -12 18 -31 18 -78 l0 -61 -55
-2 c-50 -1 -57 1 -67 23 -15 34 12 65 59 65 26 0 33 4 33 19 0 28 -17 35 -51
21 -35 -15 -46 -9 -24 14 21 21 63 21 87 -1z m500 0 c14 -12 18 -31 18 -78 l0
-61 -55 -2 c-50 -1 -57 1 -67 23 -15 34 12 65 59 65 26 0 33 4 33 19 0 28 -17
35 -51 21 -35 -15 -46 -9 -24 14 21 21 63 21 87 -1z m88 7 c0 -6 8 -5 19 2 15
9 25 9 47 -1 19 -8 30 -9 38 -1 17 17 54 11 70 -12 22 -31 22 -138 1 -138 -12
0 -15 13 -15 58 0 74 -21 100 -54 66 -11 -10 -16 -34 -16 -70 0 -30 -4 -54
-10 -54 -5 0 -10 24 -10 53 0 64 -19 98 -47 81 -14 -8 -19 -26 -21 -73 -2 -45
-7 -61 -17 -61 -12 0 -15 17 -15 80 0 64 3 80 15 80 8 0 15 -5 15 -10z m330 0
c0 -6 10 -5 25 2 14 6 28 8 33 3 4 -4 1 -10 -7 -13 -34 -12 -51 -42 -51 -92 0
-27 -4 -50 -10 -50 -6 0 -10 33 -10 80 0 47 4 80 10 80 6 0 10 -4 10 -10z
m192 -7 c8 -10 18 -30 22 -45 l6 -28 -60 0 c-58 0 -60 -1 -50 -21 15 -28 37
-34 66 -19 30 17 46 3 20 -16 -27 -19 -75 -18 -98 3 -26 23 -25 96 2 123 25
25 72 26 92 3z m267 -9 c12 -15 21 -35 21 -45 0 -16 -8 -19 -55 -19 -58 0 -71
-14 -39 -41 12 -10 22 -10 47 -1 35 13 45 9 27 -13 -7 -8 -28 -15 -46 -15 -46
0 -74 29 -74 77 0 74 77 111 119 57z m81 14 c0 -9 3 -9 12 0 14 14 48 16 48 3
0 -5 -13 -14 -30 -20 -29 -10 -30 -12 -30 -70 0 -48 -3 -61 -15 -61 -12 0 -15
16 -15 80 0 64 3 80 15 80 8 0 15 -5 15 -12z m110 0 c0 -9 3 -9 12 0 13 13 48
16 48 5 0 -5 -14 -16 -30 -25 -28 -16 -30 -21 -30 -73 0 -30 -4 -55 -10 -55
-6 0 -10 33 -10 80 0 47 4 80 10 80 6 0 10 -5 10 -12z m110 -68 c0 -47 -4 -80
-10 -80 -6 0 -10 33 -10 80 0 47 4 80 10 80 6 0 10 -33 10 -80z m70 69 c0 -8
4 -8 14 0 24 20 69 9 83 -19 19 -37 17 -130 -2 -130 -12 0 -15 13 -15 58 0 76
-27 104 -64 66 -11 -10 -16 -34 -16 -70 0 -30 -4 -54 -10 -54 -6 0 -10 33 -10
80 0 47 4 80 10 80 6 0 10 -5 10 -11z m239 -1 c11 -10 14 -10 18 0 3 6 9 12
14 12 11 0 12 -170 1 -187 -21 -33 -97 -35 -117 -3 -10 16 3 26 17 12 19 -19
66 -14 78 7 16 31 13 43 -9 31 -53 -28 -101 4 -101 65 0 57 63 96 99 63z m381
-8 c25 -25 27 -95 3 -122 -22 -24 -77 -24 -103 2 -13 13 -20 33 -20 60 0 49
27 80 70 80 17 0 39 -9 50 -20z m520 0 c25 -25 27 -95 3 -122 -22 -24 -77 -24
-103 2 -13 13 -20 33 -20 60 0 49 27 80 70 80 17 0 39 -9 50 -20z m400 8 c0
-9 3 -9 12 0 15 15 50 16 64 2 6 -6 21 -6 42 2 53 20 66 4 70 -81 3 -86 -14
-96 -20 -11 -5 68 -19 91 -46 74 -12 -8 -18 -28 -20 -73 -2 -45 -7 -61 -17
-61 -12 0 -15 14 -15 58 0 74 -21 100 -54 66 -11 -10 -16 -34 -16 -70 0 -30
-4 -54 -10 -54 -6 0 -10 33 -10 80 0 47 4 80 10 80 6 0 10 -5 10 -12z m340 -8
c11 -11 20 -31 20 -45 0 -24 -3 -25 -55 -25 -57 0 -66 -8 -39 -34 18 -19 45
-21 61 -5 6 6 17 9 23 7 24 -8 -20 -38 -54 -38 -45 0 -71 30 -71 82 0 68 70
103 115 58z m167 -2 c13 -12 23 -32 23 -45 0 -21 -4 -23 -55 -23 -43 0 -55 -3
-55 -15 0 -24 47 -42 71 -27 30 19 44 14 24 -8 -18 -20 -69 -27 -91 -12 -37
24 -43 87 -13 126 25 32 64 34 96 4z m-9107 -124 c0 -8 -7 -14 -15 -14 -15 0
-21 21 -9 33 10 9 24 -2 24 -19z m7774 -5 c-8 -14 -34 -11 -34 4 0 8 3 17 7
20 9 9 34 -13 27 -24z m516 12 c0 -4 -5 -22 -11 -40 -12 -35 -35 -43 -25 -8 3
12 6 30 6 40 0 9 7 17 15 17 8 0 15 -4 15 -9z m-9020 -240 c0 -39 0 -39 29
-28 55 20 81 -13 81 -104 0 -36 -4 -49 -15 -49 -10 0 -15 16 -17 61 -2 47 -7
65 -21 73 -29 18 -57 -24 -57 -85 0 -27 -4 -49 -10 -49 -6 0 -10 43 -10 110 0
67 4 110 10 110 6 0 10 -18 10 -39z m720 -71 c0 -91 -3 -110 -15 -110 -8 0
-15 5 -15 12 0 9 -3 9 -12 0 -17 -17 -58 -15 -80 5 -26 23 -25 96 2 123 22 22
60 26 78 8 9 -9 12 -3 12 30 0 31 4 42 15 42 12 0 15 -19 15 -110z m180 95 c0
-8 -7 -15 -15 -15 -8 0 -15 7 -15 15 0 8 7 15 15 15 8 0 15 -7 15 -15z m240
-52 l0 -67 40 39 c46 45 68 40 25 -5 -21 -22 -27 -35 -20 -44 6 -8 20 -28 33
-45 18 -24 20 -31 8 -31 -8 0 -27 16 -42 35 -14 19 -30 35 -35 35 -5 0 -9 -16
-9 -35 0 -24 -5 -35 -15 -35 -12 0 -15 19 -15 110 0 91 3 110 15 110 12 0 15
-14 15 -67z m240 25 c0 -33 3 -39 12 -30 18 18 56 14 78 -8 25 -25 27 -95 3
-122 -18 -20 -63 -24 -81 -6 -9 9 -12 9 -12 0 0 -7 -7 -12 -15 -12 -12 0 -15
19 -15 110 0 91 3 110 15 110 11 0 15 -11 15 -42z m1370 -68 c0 -67 -4 -110
-10 -110 -5 0 -10 5 -10 10 0 7 -6 7 -19 0 -32 -17 -69 -12 -85 12 -23 32 -20
94 4 118 21 21 65 27 75 10 13 -22 25 -8 25 30 0 22 5 40 10 40 6 0 10 -43 10
-110z m930 0 c0 -91 -3 -110 -15 -110 -8 0 -15 5 -15 12 0 9 -3 9 -12 0 -17
-17 -58 -15 -80 5 -26 23 -25 96 2 123 22 22 60 26 78 8 9 -9 12 -3 12 30 0
31 4 42 15 42 12 0 15 -19 15 -110z m260 68 c0 -33 3 -39 12 -30 17 17 48 15
70 -5 24 -22 27 -143 3 -143 -12 0 -15 14 -15 64 0 69 -13 86 -51 66 -15 -9
-19 -22 -19 -70 0 -47 -3 -60 -15 -60 -12 0 -15 19 -15 110 0 91 3 110 15 110
11 0 15 -11 15 -42z m585 33 c7 -12 -12 -24 -25 -16 -11 7 -4 25 10 25 5 0 11
-4 15 -9z m245 -33 c0 -33 3 -39 12 -30 15 15 61 15 76 0 15 -15 16 -148 2
-148 -6 0 -10 26 -10 58 0 76 -27 104 -64 66 -11 -10 -16 -34 -16 -70 0 -41
-4 -54 -15 -54 -12 0 -15 19 -15 110 0 91 3 110 15 110 11 0 15 -11 15 -42z
m850 0 c0 -33 3 -39 12 -30 15 15 61 15 76 0 15 -15 16 -148 2 -148 -6 0 -10
26 -10 58 0 76 -27 104 -64 66 -11 -10 -16 -34 -16 -70 0 -41 -4 -54 -15 -54
-12 0 -15 19 -15 110 0 91 3 110 15 110 11 0 15 -11 15 -42z m710 -68 c0 -91
-3 -110 -15 -110 -12 0 -15 19 -15 110 0 91 3 110 15 110 12 0 15 -19 15 -110z
m740 71 c0 -39 0 -39 29 -28 55 20 81 -13 81 -104 0 -36 -4 -49 -15 -49 -10 0
-15 16 -17 61 -2 47 -7 65 -21 73 -29 18 -57 -24 -57 -85 0 -27 -4 -49 -10
-49 -6 0 -10 43 -10 110 0 67 4 110 10 110 6 0 10 -18 10 -39z m178 27 c-6
-18 -28 -21 -28 -4 0 9 7 16 16 16 9 0 14 -5 12 -12z m242 -50 l0 -62 33 32
c45 44 70 41 28 -2 l-34 -35 38 -45 c27 -33 33 -46 22 -46 -9 0 -29 16 -44 35
-15 19 -31 35 -35 35 -5 0 -8 -16 -8 -35 0 -24 -5 -35 -15 -35 -12 0 -15 19
-15 110 0 91 3 110 15 110 12 0 15 -14 15 -62z m155 53 c7 -12 -12 -24 -25
-16 -11 7 -4 25 10 25 5 0 11 -4 15 -9z m655 -31 c0 -37 2 -40 19 -30 32 17
58 12 80 -16 30 -39 24 -102 -13 -126 -17 -12 -61 -9 -74 4 -9 9 -12 9 -12 0
0 -7 -7 -12 -15 -12 -12 0 -15 19 -15 110 0 91 3 110 15 110 11 0 15 -11 15
-40z m710 -2 c0 -33 3 -39 12 -30 17 17 54 15 72 -4 18 -18 23 -144 6 -144 -5
0 -10 19 -10 43 0 80 -20 108 -61 87 -15 -9 -19 -22 -19 -70 0 -47 -3 -60 -15
-60 -12 0 -15 19 -15 110 0 91 3 110 15 110 11 0 15 -11 15 -42z m1150 -68 c0
-91 -3 -110 -15 -110 -12 0 -15 19 -15 110 0 91 3 110 15 110 12 0 15 -19 15
-110z m180 0 c0 -91 -3 -110 -15 -110 -8 0 -15 5 -15 12 0 9 -3 9 -12 0 -17
-17 -58 -15 -80 5 -26 23 -25 96 2 123 22 22 60 26 78 8 9 -9 12 -3 12 30 0
31 4 42 15 42 12 0 15 -19 15 -110z m-10741 68 c14 -24 14 -28 -2 -46 -16 -18
-16 -20 3 -37 25 -23 25 -50 0 -75 -16 -16 -33 -20 -80 -20 l-60 0 0 105 0
106 62 -3 c56 -3 64 -6 77 -30z m10891 -73 c0 -63 -4 -105 -10 -105 -6 0 -10
42 -10 105 0 63 4 105 10 105 6 0 10 -42 10 -105z m-6650 76 c0 -10 10 -22 23
-26 l22 -8 -22 -4 c-21 -4 -23 -10 -23 -60 0 -46 3 -56 20 -60 28 -7 25 -23
-5 -23 -32 0 -45 26 -45 89 0 30 -5 52 -12 55 -10 5 -10 7 0 12 6 3 12 14 12
25 0 10 7 19 15 19 8 0 15 -8 15 -19z m1110 -1 c0 -13 7 -20 20 -20 11 0 20
-4 20 -9 0 -5 -9 -11 -20 -14 -16 -4 -20 -14 -20 -51 0 -35 5 -49 20 -58 28
-18 25 -30 -7 -26 -27 3 -28 6 -31 66 -2 44 -7 65 -17 69 -20 7 -19 23 0 23 8
0 15 9 15 20 0 11 5 20 10 20 6 0 10 -9 10 -20z m497 0 c3 -11 12 -20 19 -20
8 0 14 -4 14 -10 0 -5 -7 -10 -15 -10 -12 0 -15 -13 -15 -55 0 -40 4 -57 15
-61 21 -8 19 -24 -3 -24 -31 0 -42 22 -42 82 0 45 -3 58 -15 58 -8 0 -15 5
-15 10 0 6 7 10 15 10 8 0 15 9 15 20 0 11 5 20 11 20 6 0 13 -9 16 -20z
m1533 0 c0 -11 7 -20 15 -20 8 0 15 -4 15 -10 0 -5 -7 -10 -15 -10 -12 0 -15
-13 -15 -55 0 -40 4 -57 15 -61 21 -8 19 -24 -3 -24 -31 0 -42 22 -42 81 0 36
-5 59 -12 63 -10 5 -10 7 0 12 6 3 12 14 12 25 0 10 7 19 15 19 8 0 15 -9 15
-20z m1850 0 c0 -13 7 -20 20 -20 11 0 20 -4 20 -9 0 -5 -9 -11 -20 -14 -16
-4 -20 -14 -20 -51 0 -35 5 -49 20 -58 28 -18 25 -30 -7 -26 -27 3 -28 6 -31
66 -2 44 -7 65 -17 69 -20 7 -19 23 0 23 8 0 15 9 15 20 0 11 5 20 10 20 6 0
10 -9 10 -20z m-9148 -87 c3 -59 6 -68 23 -71 36 -4 48 14 53 77 6 88 22 75
22 -19 0 -47 -4 -80 -10 -80 -5 0 -10 5 -10 12 0 9 -3 9 -12 0 -20 -20 -65
-14 -82 10 -21 30 -22 138 -1 138 11 0 15 -16 17 -67z m244 45 c19 -21 19 -21
-6 -14 -44 13 -64 12 -68 -5 -2 -12 9 -21 40 -30 33 -11 44 -20 46 -38 3 -15
-3 -30 -14 -38 -24 -18 -79 -16 -94 2 -18 22 -4 31 24 15 28 -15 56 -8 56 14
0 9 -16 20 -39 26 -47 12 -62 42 -35 71 23 25 66 24 90 -3z m244 12 c0 -6 10
-5 25 2 14 6 28 8 33 3 4 -4 1 -10 -7 -13 -34 -12 -51 -42 -51 -92 0 -27 -4
-50 -10 -50 -6 0 -10 33 -10 80 0 47 4 80 10 80 6 0 10 -4 10 -10z m194 -12
c22 -31 22 -138 1 -138 -8 0 -15 5 -15 12 0 9 -3 9 -12 0 -7 -7 -24 -12 -38
-12 -32 0 -50 17 -50 47 0 26 27 43 69 43 24 0 31 4 31 19 0 25 -33 36 -59 19
-27 -16 -42 0 -17 18 30 21 72 17 90 -8z m426 10 c0 -9 3 -9 12 0 14 14 38 16
38 4 0 -5 -11 -14 -25 -20 -23 -10 -25 -17 -25 -72 0 -47 -3 -60 -15 -60 -12
0 -15 16 -15 80 0 64 3 80 15 80 8 0 15 -5 15 -12z m110 -68 c0 -64 -3 -80
-15 -80 -12 0 -15 16 -15 80 0 64 3 80 15 80 12 0 15 -16 15 -80z m70 68 c0
-9 3 -9 12 0 17 17 54 15 72 -4 22 -22 23 -144 1 -144 -12 0 -15 14 -15 64 0
69 -13 86 -51 66 -15 -9 -19 -22 -19 -70 0 -47 -3 -60 -15 -60 -12 0 -15 16
-15 80 0 64 3 80 15 80 8 0 15 -5 15 -12z m667 -10 c13 -12 23 -32 23 -45 0
-21 -4 -23 -55 -23 -43 0 -55 -3 -55 -15 0 -24 47 -42 71 -27 30 19 44 14 24
-8 -18 -20 -69 -27 -91 -12 -37 24 -43 87 -13 126 25 32 64 34 96 4z m172 -4
c12 -15 21 -35 21 -45 0 -16 -8 -19 -55 -19 -58 0 -71 -14 -39 -41 12 -10 22
-10 47 -1 35 13 45 9 27 -13 -7 -8 -28 -15 -46 -15 -46 0 -74 29 -74 77 0 74
77 111 119 57z m81 14 c0 -9 3 -9 12 0 14 14 48 16 48 3 0 -5 -13 -14 -30 -20
-29 -10 -30 -12 -30 -70 0 -48 -3 -61 -15 -61 -12 0 -15 16 -15 80 0 64 3 80
15 80 8 0 15 -5 15 -12z m176 -2 c26 -20 10 -32 -21 -16 -22 12 -28 12 -42 -3
-15 -15 -13 -18 29 -36 52 -22 66 -46 42 -72 -21 -24 -77 -25 -99 -3 -21 22
-11 30 19 15 27 -15 57 -12 64 6 2 8 -16 21 -42 33 -37 15 -46 24 -46 44 0 42
56 60 96 32z m331 -16 c19 -37 17 -130 -2 -130 -8 0 -15 5 -15 12 0 9 -3 9
-12 0 -7 -7 -24 -12 -38 -12 -32 0 -50 17 -50 47 0 26 27 43 69 43 34 0 41 19
16 40 -12 10 -21 10 -42 1 -31 -14 -41 -8 -23 14 21 25 82 16 97 -15z m73 19
c0 -8 4 -8 14 0 24 20 69 9 83 -19 19 -37 17 -130 -2 -130 -12 0 -15 13 -15
58 0 76 -27 104 -64 66 -11 -10 -16 -34 -16 -70 0 -30 -4 -54 -10 -54 -6 0
-10 33 -10 80 0 47 4 80 10 80 6 0 10 -5 10 -11z m505 -5 c22 -22 11 -30 -19
-14 -14 7 -32 10 -40 7 -30 -12 -17 -35 27 -49 45 -14 60 -45 37 -74 -16 -18
-70 -18 -96 0 -24 18 -10 34 16 18 26 -16 45 -15 60 3 10 12 5 18 -33 34 -56
24 -63 35 -43 66 19 29 66 34 91 9z m78 4 c4 -10 7 -10 18 0 38 36 99 -4 99
-66 0 -68 -46 -101 -101 -72 -17 10 -19 7 -19 -25 0 -19 -4 -35 -10 -35 -6 0
-10 42 -10 105 0 93 9 130 23 93z m266 -14 c12 -15 21 -35 21 -45 0 -16 -8
-19 -55 -19 -58 0 -71 -14 -39 -41 12 -10 22 -10 47 -1 35 13 45 9 27 -13 -7
-8 -28 -15 -46 -15 -46 0 -74 29 -74 77 0 74 77 111 119 57z m81 16 c0 -6 8
-5 20 2 13 9 27 9 47 2 27 -9 28 -13 31 -82 2 -45 -1 -72 -8 -72 -6 0 -10 23
-10 53 0 30 -6 62 -14 72 -12 17 -18 18 -40 7 -24 -11 -26 -17 -26 -72 0 -47
-3 -60 -15 -60 -12 0 -15 16 -15 80 0 64 3 80 15 80 8 0 15 -5 15 -10z m787
-12 c13 -12 23 -32 23 -45 0 -21 -4 -23 -55 -23 -43 0 -55 -3 -55 -15 0 -24
47 -42 71 -27 30 19 44 14 24 -8 -18 -20 -69 -27 -91 -12 -37 24 -43 87 -13
126 25 32 64 34 96 4z m163 11 c0 -8 4 -8 14 0 24 20 69 9 83 -19 19 -37 17
-130 -2 -130 -12 0 -15 13 -15 58 0 76 -27 104 -64 66 -11 -10 -16 -34 -16
-70 0 -30 -4 -54 -10 -54 -6 0 -10 33 -10 80 0 47 4 80 10 80 6 0 10 -5 10
-11z m170 -69 c0 -47 -4 -80 -10 -80 -6 0 -10 33 -10 80 0 47 4 80 10 80 6 0
10 -33 10 -80z m139 68 c11 -10 14 -10 18 0 3 6 9 12 14 12 11 0 12 -170 1
-187 -21 -33 -97 -35 -117 -3 -10 16 3 26 17 12 19 -19 66 -14 78 7 16 31 13
43 -9 31 -53 -28 -101 4 -101 65 0 57 63 96 99 63z m456 -4 c22 -22 11 -30
-19 -14 -14 7 -32 10 -40 7 -30 -12 -17 -35 27 -49 45 -14 60 -45 37 -74 -16
-18 -70 -18 -96 0 -24 18 -10 34 16 18 26 -16 45 -15 60 3 10 12 5 18 -33 34
-56 24 -63 35 -43 66 19 29 66 34 91 9z m239 -6 c22 -31 22 -138 1 -138 -8 0
-15 5 -15 12 0 9 -3 9 -12 0 -7 -7 -24 -12 -38 -12 -32 0 -50 17 -50 47 0 26
27 43 69 43 24 0 31 4 31 19 0 25 -33 36 -59 19 -27 -16 -42 0 -17 18 30 21
72 17 90 -8z m525 -4 c12 -15 21 -35 21 -45 0 -16 -8 -19 -55 -19 -58 0 -71
-14 -39 -41 12 -10 22 -10 47 -1 35 13 45 9 27 -13 -7 -8 -28 -15 -46 -15 -46
0 -74 29 -74 77 0 74 77 111 119 57z m81 14 c0 -9 3 -9 12 0 14 14 38 16 38 4
0 -5 -11 -14 -25 -20 -23 -10 -25 -17 -25 -72 0 -47 -3 -60 -15 -60 -12 0 -15
16 -15 80 0 64 3 80 15 80 8 0 15 -5 15 -12z m190 0 c0 -9 3 -9 12 0 18 18 56
14 78 -8 25 -25 27 -95 3 -122 -18 -20 -63 -24 -81 -6 -9 9 -12 4 -12 -25 0
-26 -4 -37 -15 -37 -12 0 -15 18 -15 105 0 87 3 105 15 105 8 0 15 -5 15 -12z
m322 -5 c14 -12 18 -31 18 -78 l0 -61 -55 -2 c-50 -1 -57 1 -67 23 -15 34 12
65 59 65 26 0 33 4 33 19 0 28 -17 35 -51 21 -35 -15 -46 -9 -24 14 21 21 63
21 87 -1z m170 0 c22 -20 23 -33 3 -33 -8 0 -15 4 -15 9 0 18 -33 21 -56 6
-30 -20 -32 -65 -3 -91 20 -18 22 -18 51 -1 37 21 48 15 23 -13 -24 -27 -76
-26 -101 1 -28 31 -25 96 5 120 29 23 68 24 93 2z m167 -9 c12 -15 21 -35 21
-45 0 -16 -8 -19 -55 -19 -58 0 -71 -14 -39 -41 12 -10 22 -10 47 -1 35 13 45
9 27 -13 -7 -8 -28 -15 -46 -15 -46 0 -74 29 -74 77 0 74 77 111 119 57z m439
-57 c2 -64 0 -77 -13 -77 -12 0 -15 15 -15 81 0 60 3 80 13 77 8 -3 13 -31 15
-81z m62 72 c0 -8 4 -8 14 0 24 20 69 9 83 -19 19 -37 17 -130 -2 -130 -12 0
-15 13 -15 58 0 76 -27 104 -64 66 -11 -10 -16 -34 -16 -70 0 -30 -4 -54 -10
-54 -6 0 -10 33 -10 80 0 47 4 80 10 80 6 0 10 -5 10 -11z m330 -69 c0 -47 -4
-80 -10 -80 -6 0 -10 33 -10 80 0 47 4 80 10 80 6 0 10 -33 10 -80z m70 69 c0
-8 4 -8 14 0 24 20 69 9 83 -19 19 -37 17 -130 -2 -130 -12 0 -15 13 -15 58 0
76 -27 104 -64 66 -11 -10 -16 -34 -16 -70 0 -30 -4 -54 -10 -54 -6 0 -10 33
-10 80 0 47 4 80 10 80 6 0 10 -5 10 -11z m239 -1 c11 -10 14 -10 18 0 3 6 9
12 14 12 11 0 12 -170 1 -187 -21 -33 -97 -35 -117 -3 -10 16 3 26 17 12 19
-19 66 -14 78 7 16 31 13 43 -9 31 -53 -28 -101 4 -101 65 0 57 63 96 99 63z
m262 2 c16 -9 19 -22 19 -80 0 -40 -4 -70 -10 -70 -5 0 -10 5 -10 11 0 8 -4 8
-14 0 -21 -18 -66 -9 -82 14 -21 31 6 65 51 65 40 0 53 16 32 38 -13 13 -21
13 -42 4 -39 -18 -50 -15 -30 8 20 22 55 26 86 10z m359 -12 c27 -29 27 -91 0
-118 -24 -24 -77 -26 -102 -3 -26 23 -25 96 2 123 27 27 74 26 100 -2z m80
-36 c0 -60 11 -82 42 -82 25 0 38 31 38 89 0 28 5 51 10 51 6 0 10 -33 10 -80
0 -47 -4 -80 -10 -80 -5 0 -10 5 -10 11 0 8 -4 8 -14 0 -24 -20 -69 -9 -83 19
-13 26 -18 112 -6 123 16 17 23 3 23 -51z m620 36 c27 -29 27 -91 0 -118 -24
-24 -77 -26 -102 -3 -26 23 -25 96 2 123 27 27 74 26 100 -2z m70 -20 c21 -84
25 -85 43 -19 21 75 36 75 56 3 8 -29 17 -52 21 -52 4 0 12 25 19 55 7 32 18
55 26 55 10 0 8 -18 -9 -80 -25 -96 -42 -101 -67 -20 -15 52 -17 54 -26 30 -6
-14 -14 -40 -18 -58 -11 -53 -35 -37 -57 38 -20 74 -22 90 -8 90 5 0 14 -19
20 -42z m402 20 c27 -27 6 -39 -23 -12 -16 14 -24 15 -44 6 -20 -9 -25 -19
-25 -50 0 -59 34 -80 72 -45 22 19 37 9 22 -15 -6 -10 -27 -18 -47 -20 -48 -4
-77 24 -77 76 0 73 73 109 122 60z m159 3 c18 -14 24 -29 24 -59 0 -51 -27
-82 -69 -82 -37 0 -49 7 -65 37 -41 79 43 159 110 104z m89 -52 c4 -51 9 -64
23 -67 33 -7 47 17 47 79 0 46 3 59 15 59 12 0 15 -15 15 -78 l0 -78 -55 -2
c-67 -2 -75 9 -75 98 0 85 23 77 30 -11z m-9544 -91 c-6 -31 -22 -56 -29 -47
-2 2 -2 21 1 42 3 24 9 37 19 37 12 0 14 -7 9 -32z m1701 -8 c-13 -49 -27 -52
-27 -7 0 36 6 47 25 47 9 0 10 -10 2 -40z m-1037 -212 c0 -33 3 -39 12 -30 17
17 54 15 72 -4 18 -18 23 -144 6 -144 -5 0 -10 19 -10 43 0 80 -20 108 -61 87
-15 -9 -19 -22 -19 -70 0 -47 -3 -60 -15 -60 -12 0 -15 19 -15 110 0 91 3 110
15 110 11 0 15 -11 15 -42z m758 30 c-6 -18 -28 -21 -28 -4 0 9 7 16 16 16 9
0 14 -5 12 -12z m942 3 c0 -5 -9 -11 -20 -14 -27 -7 -25 -33 3 -42 l22 -8 -22
-4 c-21 -4 -23 -10 -23 -74 0 -55 -3 -69 -15 -69 -12 0 -15 14 -15 69 0 46 -4
71 -12 74 -10 4 -10 7 -1 14 6 5 16 21 22 36 8 19 17 27 36 27 14 0 25 -4 25
-9z m410 -33 c0 -33 3 -39 12 -30 19 19 63 14 84 -9 42 -47 12 -139 -46 -139
-14 0 -31 5 -38 12 -9 9 -12 9 -12 0 0 -7 -7 -12 -15 -12 -12 0 -15 19 -15
110 0 91 3 110 15 110 11 0 15 -11 15 -42z m290 27 c0 -8 -7 -15 -15 -15 -8 0
-15 7 -15 15 0 8 7 15 15 15 8 0 15 -7 15 -15z m418 3 c-6 -18 -28 -21 -28 -4
0 9 7 16 16 16 9 0 14 -5 12 -12z m602 -30 c0 -33 3 -39 12 -30 17 17 54 15
72 -4 18 -18 23 -144 6 -144 -5 0 -10 19 -10 43 0 80 -20 108 -61 87 -15 -9
-19 -22 -19 -70 0 -47 -3 -60 -15 -60 -12 0 -15 19 -15 110 0 91 3 110 15 110
11 0 15 -11 15 -42z m170 27 c0 -8 -7 -15 -15 -15 -8 0 -15 7 -15 15 0 8 7 15
15 15 8 0 15 -7 15 -15z m890 0 c0 -8 -7 -15 -15 -15 -8 0 -15 7 -15 15 0 8 7
15 15 15 8 0 15 -7 15 -15z m810 -95 c0 -91 -3 -110 -15 -110 -12 0 -15 19
-15 110 0 91 3 110 15 110 12 0 15 -19 15 -110z m70 95 c0 -8 -7 -15 -15 -15
-8 0 -15 7 -15 15 0 8 7 15 15 15 8 0 15 -7 15 -15z m103 -2 c-26 -18 -30 -43
-8 -43 8 0 15 -4 15 -10 0 -5 -7 -10 -15 -10 -12 0 -15 -14 -15 -70 0 -56 -3
-70 -15 -70 -12 0 -15 14 -15 69 0 46 -4 71 -12 74 -9 4 -10 8 -3 14 6 4 16
20 22 36 10 20 19 27 40 26 l28 0 -22 -16z m297 -33 c0 -29 -4 -40 -15 -40
-11 0 -15 11 -15 40 0 29 4 40 15 40 11 0 15 -11 15 -40z m50 0 c0 -22 -4 -40
-9 -40 -5 0 -11 18 -13 40 -2 28 0 40 9 40 8 0 13 -14 13 -40z m-5910 10 c0
-13 7 -20 20 -20 11 0 20 -4 20 -9 0 -5 -9 -11 -20 -14 -16 -4 -20 -14 -20
-51 0 -35 5 -49 20 -58 28 -18 25 -30 -7 -26 -27 3 -28 6 -31 66 -2 44 -7 65
-17 69 -20 7 -19 23 0 23 8 0 15 9 15 20 0 11 5 20 10 20 6 0 10 -9 10 -20z
m3420 0 c0 -13 7 -20 20 -20 11 0 20 -4 20 -9 0 -5 -9 -11 -20 -14 -16 -4 -20
-14 -20 -51 0 -35 5 -49 20 -58 28 -18 25 -30 -7 -26 -27 3 -28 6 -31 66 -2
44 -7 65 -17 69 -20 7 -19 23 0 23 8 0 15 9 15 20 0 11 5 20 10 20 6 0 10 -9
10 -20z m-4860 -40 c11 -11 20 -31 20 -45 0 -24 -3 -25 -55 -25 -57 0 -66 -8
-39 -34 18 -19 45 -21 61 -5 6 6 17 9 23 7 24 -8 -20 -38 -54 -38 -45 0 -71
30 -71 82 0 68 70 103 115 58z m91 -47 l22 -68 22 64 c12 36 27 67 33 69 17 5
15 -4 -14 -86 -19 -50 -32 -72 -42 -70 -20 4 -76 158 -57 158 8 0 23 -29 36
-67z m228 41 c12 -15 21 -35 21 -45 0 -16 -8 -19 -55 -19 -58 0 -71 -14 -39
-41 12 -10 22 -10 47 -1 35 13 45 9 27 -13 -7 -8 -28 -15 -46 -15 -46 0 -74
29 -74 77 0 74 77 111 119 57z m81 14 c0 -9 3 -9 12 0 14 14 48 16 48 3 0 -5
-13 -14 -30 -20 -29 -10 -30 -12 -30 -70 0 -48 -3 -61 -15 -61 -12 0 -15 16
-15 80 0 64 3 80 15 80 8 0 15 -5 15 -12z m190 0 c0 -9 3 -9 12 0 14 14 48 16
48 3 0 -5 -13 -14 -30 -20 -29 -10 -30 -12 -30 -70 0 -48 -3 -61 -15 -61 -12
0 -15 16 -15 80 0 64 3 80 15 80 8 0 15 -5 15 -12z m187 -10 c13 -12 23 -32
23 -45 0 -21 -4 -23 -55 -23 -43 0 -55 -3 -55 -15 0 -24 47 -42 71 -27 30 19
44 14 24 -8 -18 -20 -69 -27 -91 -12 -37 24 -43 87 -13 126 25 32 64 34 96 4z
m83 12 c0 -7 6 -7 19 0 33 17 58 11 81 -17 26 -33 22 -99 -6 -120 -22 -16 -66
-17 -82 -1 -9 9 -12 4 -12 -25 0 -20 -4 -37 -10 -37 -6 0 -10 42 -10 105 0 63
4 105 10 105 6 0 10 -5 10 -10z m251 0 c16 -9 19 -22 19 -80 0 -40 -4 -70 -10
-70 -5 0 -10 5 -10 11 0 8 -4 8 -14 0 -21 -18 -66 -9 -82 14 -21 31 6 65 51
65 40 0 53 16 32 38 -13 13 -21 13 -42 4 -39 -18 -50 -15 -30 8 20 22 55 26
86 10z m94 -61 l22 -64 22 68 c14 40 28 67 37 67 10 0 6 -19 -16 -81 -37 -100
-46 -116 -70 -129 -25 -13 -30 -13 -30 4 0 7 9 16 20 19 26 7 25 23 -5 103
-28 75 -30 87 -13 82 6 -2 21 -33 33 -69z m585 51 c11 -11 20 -31 20 -45 0
-24 -3 -25 -55 -25 -57 0 -66 -8 -39 -34 18 -19 45 -21 61 -5 6 6 17 9 23 7
24 -8 -20 -38 -54 -38 -45 0 -71 30 -71 82 0 68 70 103 115 58z m160 -31 c0
-58 13 -89 38 -89 31 0 42 22 42 82 0 45 3 58 15 58 12 0 15 -16 15 -80 0 -64
-3 -80 -15 -80 -8 0 -15 5 -15 12 0 9 -3 9 -12 0 -15 -15 -61 -15 -76 0 -15
15 -16 148 -2 148 6 0 10 -23 10 -51z m173 39 c4 -10 7 -10 18 0 20 19 56 14
73 -10 21 -30 22 -138 1 -138 -10 0 -15 16 -17 61 -5 110 -67 106 -76 -5 -7
-84 -22 -67 -22 24 0 72 10 102 23 68z m175 -71 c2 -64 0 -77 -13 -77 -12 0
-15 15 -15 81 0 60 3 80 13 77 8 -3 13 -31 15 -81z m77 12 l22 -64 22 68 c13
38 28 67 36 67 19 0 -37 -154 -57 -158 -10 -2 -23 20 -42 70 -29 82 -31 91
-14 86 6 -2 21 -33 33 -69z m225 51 c11 -11 20 -31 20 -45 0 -24 -3 -25 -55
-25 -57 0 -66 -8 -39 -34 18 -19 45 -21 61 -5 6 6 17 9 23 7 24 -8 -20 -38
-54 -38 -45 0 -71 30 -71 82 0 68 70 103 115 58z m80 10 c0 -6 10 -5 25 2 14
6 28 8 33 3 4 -4 1 -10 -7 -13 -34 -12 -51 -42 -51 -92 0 -27 -4 -50 -10 -50
-6 0 -10 33 -10 80 0 47 4 80 10 80 6 0 10 -4 10 -10z m186 -12 c19 -21 19
-21 -6 -14 -44 13 -64 12 -68 -5 -2 -12 9 -21 40 -30 33 -11 44 -20 46 -38 3
-15 -3 -30 -14 -38 -24 -18 -79 -16 -94 2 -18 22 -4 31 24 15 28 -15 56 -8 56
14 0 9 -16 20 -39 26 -47 12 -62 42 -35 71 23 25 66 24 90 -3z m163 -4 c12
-15 21 -35 21 -45 0 -16 -8 -19 -55 -19 -58 0 -71 -14 -39 -41 12 -10 22 -10
47 -1 35 13 45 9 27 -13 -7 -8 -28 -15 -46 -15 -46 0 -74 29 -74 77 0 74 77
111 119 57z m350 0 c23 -30 27 -64 10 -97 -16 -30 -28 -37 -65 -37 -42 0 -69
31 -69 82 0 73 81 106 124 52z m81 14 c0 -9 3 -9 12 0 14 14 48 16 48 3 0 -5
-13 -14 -30 -20 -29 -10 -30 -12 -30 -70 0 -48 -3 -61 -15 -61 -12 0 -15 16
-15 80 0 64 3 80 15 80 8 0 15 -5 15 -12z m370 0 c0 -9 3 -9 12 0 14 14 38 16
38 4 0 -5 -11 -14 -25 -20 -23 -10 -25 -17 -25 -72 0 -47 -3 -60 -15 -60 -12
0 -15 16 -15 80 0 64 3 80 15 80 8 0 15 -5 15 -12z m110 -68 c0 -64 -3 -80
-15 -80 -12 0 -15 16 -15 80 0 64 3 80 15 80 12 0 15 -16 15 -80z m70 68 c0
-9 3 -9 12 0 17 17 54 15 72 -4 22 -22 23 -144 1 -144 -12 0 -15 14 -15 64 0
69 -13 86 -51 66 -15 -9 -19 -22 -19 -70 0 -47 -3 -60 -15 -60 -12 0 -15 16
-15 80 0 64 3 80 15 80 8 0 15 -5 15 -12z m238 0 c9 -9 12 -9 12 0 0 7 7 12
15 12 24 0 21 -160 -3 -190 -23 -28 -89 -31 -109 -4 -17 24 -8 30 21 15 39
-21 70 -11 74 24 3 24 1 28 -9 18 -40 -40 -116 13 -105 71 4 16 14 38 23 48
18 20 63 24 81 6z m110 -71 c2 -64 0 -77 -13 -77 -12 0 -15 15 -15 81 0 60 3
80 13 77 8 -3 13 -31 15 -81z m65 71 c4 -10 7 -10 18 0 20 19 56 14 73 -10 21
-30 22 -138 1 -138 -10 0 -15 16 -17 61 -5 110 -67 106 -76 -5 -7 -84 -22 -67
-22 24 0 72 10 102 23 68z m238 2 c13 -7 19 -7 19 0 0 5 5 10 10 10 6 0 10
-38 10 -94 0 -106 -7 -118 -65 -118 -35 0 -65 16 -65 33 0 5 7 9 15 9 8 0 15
-4 15 -10 0 -14 54 -12 68 2 7 7 12 20 12 30 0 15 -3 17 -19 8 -11 -5 -29 -10
-40 -10 -24 0 -61 45 -61 75 0 30 37 75 61 75 11 0 29 -5 40 -10z m469 -70 c0
-64 -3 -80 -15 -80 -12 0 -15 16 -15 80 0 64 3 80 15 80 12 0 15 -16 15 -80z
m140 65 c17 -21 6 -29 -20 -15 -12 6 -28 9 -36 6 -26 -10 -14 -33 26 -49 48
-18 59 -40 35 -67 -24 -26 -76 -26 -100 0 -14 16 -15 20 -4 20 8 0 20 -5 26
-11 15 -15 57 -7 61 12 2 12 -9 21 -40 30 -33 11 -44 20 -46 38 -7 44 69 71
98 36z m250 -7 c27 -29 27 -91 0 -118 -24 -24 -77 -26 -102 -3 -26 23 -25 96
2 123 27 27 74 26 100 -2z m80 11 c0 -8 4 -8 14 0 24 20 69 9 83 -19 19 -37
17 -130 -2 -130 -12 0 -15 13 -15 58 0 76 -27 104 -64 66 -11 -10 -16 -34 -16
-70 0 -30 -4 -54 -10 -54 -6 0 -10 33 -10 80 0 47 4 80 10 80 6 0 10 -5 10
-11z m259 -15 c12 -15 21 -35 21 -45 0 -16 -8 -19 -55 -19 -58 0 -71 -14 -39
-41 12 -10 22 -10 47 -1 35 13 45 9 27 -13 -7 -8 -28 -15 -46 -15 -46 0 -74
29 -74 77 0 74 77 111 119 57z m161 -54 c0 -64 -3 -80 -15 -80 -12 0 -15 16
-15 80 0 64 3 80 15 80 12 0 15 -16 15 -80z m70 70 c0 -6 8 -5 20 2 13 9 27 9
47 2 27 -9 28 -13 31 -82 2 -45 -1 -72 -8 -72 -6 0 -10 23 -10 53 0 30 -6 62
-14 72 -12 17 -18 18 -40 7 -24 -11 -26 -17 -26 -72 0 -47 -3 -60 -15 -60 -12
0 -15 16 -15 80 0 64 3 80 15 80 8 0 15 -5 15 -10z m250 -2 c0 -9 3 -9 12 0 7
7 21 12 33 12 12 0 26 -5 33 -12 9 -9 15 -9 24 0 17 17 54 15 72 -4 22 -22 23
-144 1 -144 -12 0 -15 14 -15 64 0 48 -4 65 -15 70 -37 14 -55 -15 -55 -91 0
-24 -4 -43 -10 -43 -6 0 -10 26 -10 59 0 67 -15 90 -49 71 -18 -9 -21 -20 -21
-70 0 -47 -3 -60 -15 -60 -12 0 -15 16 -15 80 0 64 3 80 15 80 8 0 15 -5 15
-12z m256 -40 c24 -77 25 -77 48 -13 12 32 27 60 34 63 19 6 14 -15 -26 -112
-27 -64 -43 -91 -59 -97 -17 -6 -23 -5 -23 6 0 8 6 15 14 15 26 0 25 28 -5
107 -34 92 -32 83 -15 83 8 0 22 -22 32 -52z m304 -28 c0 -64 -3 -80 -15 -80
-12 0 -15 16 -15 80 0 64 3 80 15 80 12 0 15 -16 15 -80z m247 58 c13 -12 23
-32 23 -45 0 -21 -4 -23 -55 -23 -43 0 -55 -3 -55 -15 0 -24 47 -42 71 -27 30
19 44 14 24 -8 -18 -20 -69 -27 -91 -12 -37 24 -43 87 -13 126 25 32 64 34 96
4z m97 -129 c-8 -14 -34 -11 -34 4 0 8 3 17 7 20 9 9 34 -13 27 -24z"/>
<path d="M2672 2074 c-38 -26 -21 -104 23 -104 44 0 59 80 20 106 -18 12 -24
11 -43 -2z"/>
<path d="M7432 2074 c-38 -26 -21 -104 23 -104 44 0 59 80 20 106 -18 12 -24
11 -43 -2z"/>
<path d="M9098 2079 c-12 -7 -18 -22 -18 -47 0 -41 14 -62 41 -62 41 0 59 81
24 106 -22 16 -25 17 -47 3z"/>
<path d="M1382 2074 c-38 -26 -21 -104 23 -104 23 0 45 30 45 60 0 26 -22 60
-38 60 -4 0 -18 -7 -30 -16z"/>
<path d="M1794 2005 c-8 -19 3 -35 25 -35 20 0 41 19 41 37 0 18 -59 17 -66
-2z"/>
<path d="M2508 2079 c-33 -19 -21 -39 22 -39 44 0 49 8 22 33 -21 20 -21 20
-44 6z"/>
<path d="M3032 2074 c-38 -26 -21 -104 23 -104 23 0 45 30 45 60 0 26 -22 60
-38 60 -4 0 -18 -7 -30 -16z"/>
<path d="M3374 2005 c-8 -19 3 -35 25 -35 20 0 41 19 41 37 0 18 -59 17 -66
-2z"/>
<path d="M4007 2072 c-25 -27 -21 -32 23 -32 44 0 55 21 21 40 -25 13 -25 13
-44 -8z"/>
<path d="M4496 2074 c-25 -25 -19 -34 24 -34 44 0 55 21 21 40 -25 13 -27 13
-45 -6z"/>
<path d="M5086 2074 c-9 -8 -16 -31 -16 -50 0 -27 5 -37 25 -46 53 -24 91 62
43 96 -28 20 -33 20 -52 0z"/>
<path d="M5598 2079 c-33 -19 -21 -39 22 -39 44 0 55 21 21 40 -23 12 -22 12
-43 -1z"/>
<path d="M6248 2079 c-33 -19 -21 -39 22 -39 44 0 49 8 22 33 -21 20 -21 20
-44 6z"/>
<path d="M7024 2005 c-8 -19 3 -35 25 -35 20 0 41 19 41 37 0 18 -59 17 -66
-2z"/>
<path d="M7612 2074 c-38 -26 -21 -104 23 -104 23 0 45 30 45 60 0 26 -22 60
-38 60 -4 0 -18 -7 -30 -16z"/>
<path d="M8847 2072 c-25 -27 -21 -32 23 -32 44 0 55 21 21 40 -25 13 -25 13
-44 -8z"/>
<path d="M9712 2074 c-38 -26 -21 -104 23 -104 44 0 59 80 20 106 -18 12 -24
11 -43 -2z"/>
<path d="M10517 2072 c-25 -27 -21 -32 23 -32 44 0 55 21 21 40 -25 13 -25 13
-44 -8z"/>
<path d="M7817 1678 c-27 -21 -31 -61 -9 -88 17 -22 23 -23 46 -12 21 9 26 19
26 46 0 31 -20 66 -39 66 -4 0 -15 -6 -24 -12z"/>
<path d="M7997 1678 c-27 -21 -31 -61 -9 -88 17 -22 23 -23 46 -12 21 9 26 19
26 46 0 31 -20 66 -39 66 -4 0 -15 -6 -24 -12z"/>
<path d="M8816 1674 c-9 -8 -16 -31 -16 -50 0 -27 5 -37 26 -46 23 -11 29 -10
45 11 24 30 24 56 -1 81 -24 24 -34 25 -54 4z"/>
<path d="M357 1672 c-25 -27 -21 -32 23 -32 44 0 55 21 21 40 -25 13 -25 13
-44 -8z"/>
<path d="M682 1674 c-38 -26 -21 -104 23 -104 44 0 59 80 20 106 -18 12 -24
11 -43 -2z"/>
<path d="M904 1605 c-13 -34 31 -48 60 -19 25 24 19 34 -19 34 -22 0 -38 -6
-41 -15z"/>
<path d="M1919 1680 c-25 -15 -32 -58 -14 -86 30 -47 75 -24 75 38 0 27 -5 40
-19 48 -23 12 -22 12 -42 0z"/>
<path d="M2417 1672 c-25 -27 -21 -32 23 -32 44 0 55 21 21 40 -25 13 -25 13
-44 -8z"/>
<path d="M2924 1605 c-13 -34 31 -48 60 -19 25 24 19 34 -19 34 -22 0 -38 -6
-41 -15z"/>
<path d="M3592 1608 c-8 -8 -9 -15 -1 -25 21 -25 69 -9 69 24 0 16 -52 17 -68
1z"/>
<path d="M4106 1674 c-9 -8 -16 -31 -16 -50 0 -27 5 -37 25 -46 53 -24 91 62
43 96 -28 20 -33 20 -52 0z"/>
<path d="M5679 1680 c-25 -15 -32 -58 -14 -86 30 -47 75 -24 75 38 0 27 -5 40
-19 48 -23 12 -22 12 -42 0z"/>
<path d="M5850 1670 c-25 -25 -25 -51 -1 -81 16 -21 22 -22 45 -11 21 9 26 19
26 46 0 33 -21 66 -41 66 -5 0 -18 -9 -29 -20z"/>
<path d="M6032 1674 c-38 -26 -21 -104 23 -104 44 0 59 80 20 106 -18 12 -24
11 -43 -2z"/>
<path d="M6308 1679 c-33 -19 -21 -39 22 -39 44 0 55 21 21 40 -23 12 -22 12
-43 -1z"/>
<path d="M6778 1679 c-12 -7 -18 -22 -18 -47 0 -41 14 -62 41 -62 41 0 59 81
24 106 -22 16 -25 17 -47 3z"/>
<path d="M7236 1674 c-9 -8 -16 -31 -16 -50 0 -27 5 -37 25 -46 53 -24 91 62
43 96 -28 20 -33 20 -52 0z"/>
<path d="M8178 1679 c-33 -19 -21 -39 22 -39 44 0 49 8 22 33 -21 20 -21 20
-44 6z"/>
<path d="M8996 1674 c-25 -25 -19 -34 24 -34 44 0 55 21 21 40 -25 13 -27 13
-45 -6z"/>
<path d="M9318 1679 c-33 -19 -21 -39 22 -39 44 0 55 21 21 40 -23 12 -22 12
-43 -1z"/>
<path d="M9559 1680 c-25 -15 -32 -58 -14 -86 30 -47 75 -24 75 38 0 27 -5 40
-19 48 -23 12 -22 12 -42 0z"/>
<path d="M9730 1670 c-25 -25 -25 -51 -1 -81 16 -21 22 -22 45 -11 21 9 26 19
26 46 0 33 -21 66 -41 66 -5 0 -18 -9 -29 -20z"/>
<path d="M9964 1605 c-13 -34 31 -48 60 -19 25 24 19 34 -19 34 -22 0 -38 -6
-41 -15z"/>
<path d="M10482 1674 c-38 -26 -21 -104 23 -104 23 0 45 30 45 60 0 26 -22 60
-38 60 -4 0 -18 -7 -30 -16z"/>
<path d="M10744 1605 c-13 -34 31 -48 60 -19 25 24 19 34 -19 34 -22 0 -38 -6
-41 -15z"/>
<path d="M3480 1270 c-25 -25 -26 -62 -2 -83 23 -21 36 -21 56 -1 29 29 11
104 -25 104 -5 0 -18 -9 -29 -20z"/>
<path d="M529 1280 c-25 -15 -32 -58 -14 -86 30 -47 75 -24 75 38 0 27 -5 40
-19 48 -23 12 -22 12 -42 0z"/>
<path d="M962 1274 c-38 -26 -21 -104 23 -104 44 0 59 80 20 106 -18 12 -24
11 -43 -2z"/>
<path d="M1114 1205 c-8 -19 3 -35 25 -35 20 0 41 19 41 37 0 18 -59 17 -66
-2z"/>
<path d="M2118 1279 c-33 -19 -21 -39 22 -39 44 0 55 21 21 40 -23 12 -22 12
-43 -1z"/>
<path d="M2692 1274 c-38 -26 -21 -104 23 -104 23 0 45 30 45 60 0 26 -22 60
-38 60 -4 0 -18 -7 -30 -16z"/>
<path d="M3294 1205 c-13 -34 31 -48 60 -19 25 24 19 34 -19 34 -22 0 -38 -6
-41 -15z"/>
<path d="M3659 1280 c-25 -15 -32 -58 -14 -86 30 -47 75 -24 75 38 0 27 -5 40
-19 48 -23 12 -22 12 -42 0z"/>
<path d="M5637 1272 c-25 -27 -21 -32 23 -32 44 0 55 21 21 40 -25 13 -25 13
-44 -8z"/>
<path d="M6316 1274 c-25 -25 -19 -34 24 -34 44 0 55 21 21 40 -25 13 -27 13
-45 -6z"/>
<path d="M6824 1205 c-8 -19 3 -35 25 -35 20 0 41 19 41 37 0 18 -59 17 -66
-2z"/>
<path d="M7324 1205 c-8 -19 3 -35 25 -35 20 0 41 19 41 37 0 18 -59 17 -66
-2z"/>
<path d="M7948 1279 c-33 -19 -21 -39 22 -39 44 0 49 8 22 33 -21 20 -21 20
-44 6z"/>
<path d="M8208 1279 c-33 -19 -21 -39 22 -39 44 0 55 21 21 40 -23 12 -22 12
-43 -1z"/>
<path d="M8838 1279 c-26 -15 -24 -75 2 -89 50 -27 89 52 42 88 -19 14 -22 14
-44 1z"/>
<path d="M9198 1279 c-12 -7 -18 -22 -18 -47 0 -41 14 -62 41 -62 41 0 59 81
24 106 -22 16 -25 17 -47 3z"/>
<path d="M9718 1279 c-12 -7 -18 -22 -18 -47 0 -41 14 -62 41 -62 41 0 59 81
24 106 -22 16 -25 17 -47 3z"/>
<path d="M10457 1272 c-25 -27 -21 -32 23 -32 44 0 55 21 21 40 -25 13 -25 13
-44 -8z"/>
<path d="M10626 1274 c-25 -25 -19 -34 24 -34 44 0 55 21 21 40 -25 13 -27 13
-45 -6z"/>
<path d="M1487 878 c-27 -21 -31 -61 -9 -88 17 -22 23 -23 46 -12 21 9 26 19
26 46 0 31 -20 66 -39 66 -4 0 -15 -6 -24 -12z"/>
<path d="M2258 879 c-13 -7 -18 -22 -18 -50 0 -33 4 -41 25 -51 21 -9 29 -9
42 5 22 22 21 76 -2 93 -22 16 -25 17 -47 3z"/>
<path d="M3518 879 c-12 -7 -18 -22 -18 -47 0 -41 14 -62 41 -62 41 0 59 81
24 106 -22 16 -25 17 -47 3z"/>
<path d="M4447 878 c-27 -21 -31 -61 -9 -88 17 -22 23 -23 46 -12 21 9 26 19
26 46 0 31 -20 66 -39 66 -4 0 -15 -6 -24 -12z"/>
<path d="M9180 870 c-25 -25 -26 -62 -2 -83 23 -21 36 -21 56 -1 29 29 11 104
-25 104 -5 0 -18 -9 -29 -20z"/>
<path d="M11107 878 c-27 -21 -31 -61 -9 -88 17 -22 23 -23 46 -12 21 9 26 19
26 46 0 31 -20 66 -39 66 -4 0 -15 -6 -24 -12z"/>
<path d="M350 904 c0 -34 1 -35 36 -32 71 6 68 68 -2 68 -32 0 -34 -2 -34 -36z"/>
<path d="M350 810 c0 -36 3 -40 24 -40 42 0 76 18 76 40 0 22 -34 40 -76 40
-21 0 -24 -4 -24 -40z"/>
<path d="M1144 805 c-8 -19 3 -35 25 -35 20 0 41 19 41 37 0 18 -59 17 -66 -2z"/>
<path d="M2426 874 c-25 -25 -19 -34 24 -34 44 0 55 21 21 40 -25 13 -27 13
-45 -6z"/>
<path d="M2598 879 c-33 -19 -21 -39 22 -39 44 0 55 21 21 40 -23 12 -22 12
-43 -1z"/>
<path d="M3172 808 c-8 -8 -9 -15 -1 -25 21 -25 69 -9 69 24 0 16 -52 17 -68
1z"/>
<path d="M3936 877 c-35 -25 -17 -107 23 -107 27 0 41 21 41 62 0 27 -5 40
-19 48 -24 13 -24 13 -45 -3z"/>
<path d="M4108 879 c-33 -19 -21 -39 22 -39 44 0 55 21 21 40 -23 12 -22 12
-43 -1z"/>
<path d="M4976 874 c-25 -25 -19 -34 24 -34 44 0 55 21 21 40 -25 13 -27 13
-45 -6z"/>
<path d="M5468 879 c-26 -15 -24 -75 2 -89 50 -27 89 52 42 88 -19 14 -22 14
-44 1z"/>
<path d="M6134 805 c-8 -19 3 -35 25 -35 20 0 41 19 41 37 0 18 -59 17 -66 -2z"/>
<path d="M6668 879 c-33 -19 -21 -39 22 -39 44 0 55 21 21 40 -23 12 -22 12
-43 -1z"/>
<path d="M7026 874 c-9 -8 -16 -31 -16 -50 0 -27 5 -37 26 -46 23 -11 29 -10
45 11 24 30 24 56 -1 81 -24 24 -34 25 -54 4z"/>
<path d="M7254 805 c-8 -19 3 -35 25 -35 20 0 41 19 41 37 0 18 -59 17 -66 -2z"/>
<path d="M7598 879 c-33 -19 -21 -39 22 -39 44 0 55 21 21 40 -23 12 -22 12
-43 -1z"/>
<path d="M8758 879 c-26 -15 -24 -75 2 -89 50 -27 89 52 42 88 -19 14 -22 14
-44 1z"/>
<path d="M8994 805 c-13 -34 31 -48 60 -19 25 24 19 34 -19 34 -22 0 -38 -6
-41 -15z"/>
<path d="M9359 880 c-25 -15 -32 -58 -14 -86 30 -47 75 -24 75 38 0 27 -5 40
-19 48 -23 12 -22 12 -42 0z"/>
<path d="M10059 880 c-25 -15 -32 -58 -14 -86 30 -47 75 -24 75 38 0 27 -5 40
-19 48 -23 12 -22 12 -42 0z"/>
<path d="M10686 874 c-9 -8 -16 -31 -16 -50 0 -27 5 -37 25 -46 53 -24 91 62
43 96 -28 20 -33 20 -52 0z"/>
<path d="M4096 474 c-31 -30 -11 -104 28 -104 19 0 46 34 46 58 0 22 -32 62
-49 62 -5 0 -17 -7 -25 -16z"/>
<path d="M357 472 c-25 -27 -21 -32 23 -32 44 0 55 21 21 40 -25 13 -25 13
-44 -8z"/>
<path d="M678 479 c-33 -19 -21 -39 22 -39 44 0 55 21 21 40 -23 12 -22 12
-43 -1z"/>
<path d="M1136 474 c-25 -25 -19 -34 24 -34 44 0 55 21 21 40 -25 13 -27 13
-45 -6z"/>
<path d="M1310 470 c-25 -25 -25 -51 -1 -81 16 -21 22 -22 45 -11 21 9 26 19
26 46 0 33 -21 66 -41 66 -5 0 -18 -9 -29 -20z"/>
<path d="M1464 405 c-13 -34 31 -48 60 -19 25 24 19 34 -19 34 -22 0 -38 -6
-41 -15z"/>
<path d="M2147 472 c-25 -27 -21 -32 23 -32 44 0 55 21 21 40 -25 13 -25 13
-44 -8z"/>
<path d="M2957 472 c-25 -27 -21 -32 23 -32 44 0 55 21 21 40 -25 13 -25 13
-44 -8z"/>
<path d="M3388 479 c-33 -19 -21 -39 22 -39 44 0 55 21 21 40 -23 12 -22 12
-43 -1z"/>
<path d="M3732 474 c-38 -26 -21 -104 23 -104 23 0 45 30 45 60 0 26 -22 60
-38 60 -4 0 -18 -7 -30 -16z"/>
<path d="M4622 474 c-37 -25 -20 -94 23 -94 43 0 58 71 20 96 -18 12 -24 11
-43 -2z"/>
<path d="M5036 474 c-26 -25 -20 -72 9 -86 21 -9 28 -8 45 7 25 23 25 50 0 75
-24 24 -34 25 -54 4z"/>
<path d="M5879 480 c-25 -15 -32 -58 -14 -86 30 -47 75 -24 75 38 0 27 -5 40
-19 48 -23 12 -22 12 -42 0z"/>
<path d="M6218 479 c-33 -19 -21 -39 22 -39 44 0 55 21 21 40 -23 12 -22 12
-43 -1z"/>
<path d="M7506 474 c-25 -25 -19 -34 24 -34 44 0 55 21 21 40 -25 13 -27 13
-45 -6z"/>
</g>
</svg>
