<?xml version="1.0" standalone="no"?>
<!DOCTYPE svg PUBLIC "-//W3C//DTD SVG 20010904//EN"
 "http://www.w3.org/TR/2001/REC-SVG-20010904/DTD/svg10.dtd">
<svg version="1.0" xmlns="http://www.w3.org/2000/svg"
width="839.2" height="727.08" viewBox="0 0 1188.000000 116.000000"
 preserveAspectRatio="xMidYMid meet">

<g transform="translate(0.000000,116.000000) scale(0.100000,-0.100000)"
fill="#000000" stroke="none">
<path d="M0 580 l0 -580 5940 0 5940 0 0 580 0 580 -5940 0 -5940 0 0 -580z
m545 316 c19 -8 35 -22 35 -30 0 -20 -14 -20 -30 0 -8 9 -25 14 -44 12 -26 -2
-31 -7 -31 -28 0 -20 8 -27 40 -38 71 -23 91 -55 59 -100 -21 -30 -95 -31
-125 -1 -15 15 -18 24 -10 32 8 8 15 5 27 -11 18 -26 65 -30 85 -6 18 22 1 46
-42 57 -91 23 -92 101 -1 126 1 1 18 -6 37 -13z m105 -25 c0 -39 0 -39 29 -28
55 20 81 -13 81 -104 0 -36 -4 -49 -15 -49 -10 0 -15 16 -17 61 -2 47 -7 65
-21 73 -29 18 -57 -24 -57 -85 0 -27 -4 -49 -10 -49 -6 0 -10 43 -10 110 0 67
4 110 10 110 6 0 10 -18 10 -39z m570 0 c0 -39 0 -39 29 -28 55 20 81 -13 81
-104 0 -36 -4 -49 -15 -49 -10 0 -15 16 -17 61 -2 47 -7 65 -21 73 -29 18 -57
-24 -57 -85 0 -27 -4 -49 -10 -49 -6 0 -10 43 -10 110 0 67 4 110 10 110 6 0
10 -18 10 -39z m840 -71 c0 -91 -3 -110 -15 -110 -8 0 -15 5 -15 12 0 9 -3 9
-12 0 -17 -17 -58 -15 -80 5 -26 23 -25 96 2 123 22 22 60 26 78 8 9 -9 12 -3
12 30 0 31 4 42 15 42 12 0 15 -19 15 -110z m810 95 c0 -8 -7 -15 -15 -15 -8
0 -15 7 -15 15 0 8 7 15 15 15 8 0 15 -7 15 -15z m180 -95 c0 -91 -3 -110 -15
-110 -8 0 -15 5 -15 12 0 9 -3 9 -12 0 -17 -17 -58 -15 -80 5 -26 23 -25 96 2
123 22 22 60 26 78 8 9 -9 12 -3 12 30 0 31 4 42 15 42 12 0 15 -19 15 -110z
m860 100 c0 -5 -7 -10 -15 -10 -8 0 -15 -2 -15 -4 0 -2 -3 -11 -6 -20 -4 -12
0 -16 15 -16 27 0 27 -16 1 -23 -17 -4 -20 -14 -20 -71 0 -37 -4 -66 -10 -66
-6 0 -10 28 -10 65 0 49 -4 67 -15 71 -8 4 -15 10 -15 15 0 5 7 9 15 9 9 0 15
9 15 24 0 13 6 27 13 29 21 9 47 7 47 -3z m240 -32 c0 -33 3 -39 12 -30 15 15
61 15 76 0 15 -15 16 -148 2 -148 -6 0 -10 26 -10 58 0 76 -27 104 -64 66 -11
-10 -16 -34 -16 -70 0 -41 -4 -54 -15 -54 -12 0 -15 19 -15 110 0 91 3 110 15
110 11 0 15 -11 15 -42z m760 27 c0 -8 -7 -15 -15 -15 -8 0 -15 7 -15 15 0 8
7 15 15 15 8 0 15 -7 15 -15z m1083 -18 c23 -26 4 -37 -22 -13 -32 29 -86 15
-79 -20 2 -12 19 -24 48 -34 25 -8 51 -19 58 -23 17 -12 15 -57 -5 -79 -32
-36 -133 -15 -133 29 0 19 13 16 33 -7 29 -35 87 -21 87 21 0 11 -13 22 -37
29 -58 18 -83 38 -83 64 0 60 90 82 133 33z m87 -9 c0 -33 3 -39 12 -30 17 17
48 15 70 -5 24 -22 27 -143 3 -143 -12 0 -15 14 -15 64 0 69 -13 86 -51 66
-15 -9 -19 -22 -19 -70 0 -47 -3 -60 -15 -60 -12 0 -15 19 -15 110 0 91 3 110
15 110 11 0 15 -11 15 -42z m580 -68 c0 -91 -3 -110 -15 -110 -12 0 -15 19
-15 110 0 91 3 110 15 110 12 0 15 -19 15 -110z m230 70 c0 -37 2 -40 19 -30
32 17 58 12 80 -16 30 -39 24 -102 -13 -126 -17 -12 -61 -9 -74 4 -9 9 -12 9
-12 0 0 -7 -7 -12 -15 -12 -12 0 -15 19 -15 110 0 91 3 110 15 110 11 0 15
-11 15 -40z m1000 -70 c0 -67 -4 -110 -10 -110 -5 0 -10 5 -10 10 0 7 -6 7
-19 0 -32 -17 -69 -12 -85 12 -23 32 -20 94 4 118 21 21 65 27 75 10 13 -22
25 -8 25 30 0 22 5 40 10 40 6 0 10 -43 10 -110z m578 98 c-6 -18 -28 -21 -28
-4 0 9 7 16 16 16 9 0 14 -5 12 -12z m172 -98 c0 -67 -4 -110 -10 -110 -5 0
-10 5 -10 12 0 9 -3 9 -12 0 -13 -13 -57 -16 -74 -4 -37 24 -43 87 -13 126 22
28 48 33 80 16 17 -10 19 -7 19 30 0 22 5 40 10 40 6 0 10 -43 10 -110z m823
77 c23 -26 4 -37 -22 -13 -32 29 -86 15 -79 -20 2 -12 19 -24 48 -34 25 -8 51
-19 58 -23 17 -12 15 -57 -5 -79 -32 -36 -133 -15 -133 29 0 19 13 16 33 -7
29 -35 87 -21 87 21 0 11 -13 22 -37 29 -58 18 -83 38 -83 64 0 60 90 82 133
33z m87 -9 c0 -33 3 -39 12 -30 17 17 48 15 70 -5 24 -22 27 -143 3 -143 -12
0 -15 14 -15 64 0 69 -13 86 -51 66 -15 -9 -19 -22 -19 -70 0 -47 -3 -60 -15
-60 -12 0 -15 19 -15 110 0 91 3 110 15 110 11 0 15 -11 15 -42z m410 3 c0
-39 0 -39 29 -28 55 20 81 -13 81 -104 0 -36 -4 -49 -15 -49 -10 0 -15 16 -17
61 -2 47 -7 65 -21 73 -29 18 -57 -24 -57 -85 0 -27 -4 -49 -10 -49 -6 0 -10
43 -10 110 0 67 4 110 10 110 6 0 10 -18 10 -39z m570 -3 c0 -33 3 -39 12 -30
17 17 54 15 72 -4 18 -18 23 -144 6 -144 -5 0 -10 19 -10 43 0 80 -20 108 -61
87 -15 -9 -19 -22 -19 -70 0 -47 -3 -60 -15 -60 -12 0 -15 19 -15 110 0 91 3
110 15 110 11 0 15 -11 15 -42z m440 -68 c0 -91 -3 -110 -15 -110 -8 0 -15 5
-15 12 0 9 -3 9 -12 0 -17 -17 -58 -15 -80 5 -26 23 -25 96 2 123 22 22 60 26
78 8 9 -9 12 -3 12 30 0 31 4 42 15 42 12 0 15 -19 15 -110z m250 71 c0 -39 0
-39 29 -28 55 20 81 -13 81 -104 0 -36 -4 -49 -15 -49 -10 0 -15 16 -17 61 -2
47 -7 65 -21 73 -29 18 -57 -24 -57 -85 0 -27 -4 -49 -10 -49 -6 0 -10 43 -10
110 0 67 4 110 10 110 6 0 10 -18 10 -39z m-10884 7 c-3 -13 -6 -31 -6 -40 0
-10 -4 -18 -10 -18 -5 0 -10 18 -10 40 0 30 4 40 16 40 12 0 15 -6 10 -22z
m54 -18 c0 -29 -4 -40 -15 -40 -11 0 -15 11 -15 40 0 29 4 40 15 40 11 0 15
-11 15 -40z m3670 10 c0 -11 7 -20 15 -20 8 0 15 -4 15 -10 0 -5 -7 -10 -15
-10 -12 0 -15 -13 -15 -55 0 -40 4 -57 15 -61 21 -8 19 -24 -3 -24 -31 0 -42
22 -42 81 0 36 -5 59 -12 63 -10 5 -10 7 0 12 6 3 12 14 12 25 0 10 7 19 15
19 8 0 15 -9 15 -20z m3460 0 c0 -13 7 -20 20 -20 11 0 20 -4 20 -9 0 -5 -9
-11 -20 -14 -16 -4 -20 -14 -20 -51 0 -35 5 -49 20 -58 28 -18 25 -30 -7 -26
-27 3 -28 6 -31 66 -2 44 -7 65 -17 69 -20 7 -19 23 0 23 8 0 15 9 15 20 0 11
5 20 10 20 6 0 10 -9 10 -20z m3610 0 c0 -11 7 -20 15 -20 8 0 15 -4 15 -10 0
-5 -7 -10 -15 -10 -12 0 -15 -13 -15 -55 0 -40 4 -57 15 -61 21 -8 19 -24 -3
-24 -31 0 -42 22 -42 81 0 36 -5 59 -12 63 -10 5 -10 7 0 12 6 3 12 14 12 25
0 10 7 19 15 19 8 0 15 -9 15 -20z m-10223 -42 c13 -12 23 -32 23 -45 0 -21
-4 -23 -55 -23 -43 0 -55 -3 -55 -15 0 -24 47 -42 71 -27 30 19 44 14 24 -8
-18 -20 -69 -27 -91 -12 -37 24 -43 87 -13 126 25 32 64 34 96 4z m239 0 c19
-21 19 -21 -6 -14 -44 13 -64 12 -68 -5 -2 -12 9 -21 40 -30 33 -11 44 -20 46
-38 3 -15 -3 -30 -14 -38 -24 -18 -79 -16 -94 2 -18 22 -4 31 24 15 28 -15 56
-8 56 14 0 9 -16 20 -39 26 -47 12 -62 42 -35 71 23 25 66 24 90 -3z m335 3
c18 -14 24 -29 24 -59 0 -51 -27 -82 -69 -82 -37 0 -49 7 -65 37 -41 79 43
159 110 104z m80 -36 c7 -30 15 -55 19 -55 4 0 13 23 21 52 20 72 35 72 56 -3
18 -66 22 -65 43 19 6 23 15 42 20 42 14 0 12 -15 -9 -90 -21 -75 -45 -91 -56
-38 -4 18 -12 44 -18 58 -9 24 -11 22 -26 -30 -25 -81 -42 -76 -67 20 -17 62
-19 80 -9 80 8 0 19 -23 26 -55z m308 29 c12 -15 21 -35 21 -45 0 -16 -8 -19
-55 -19 -58 0 -71 -14 -39 -41 12 -10 22 -10 47 -1 35 13 45 9 27 -13 -7 -8
-28 -15 -46 -15 -46 0 -74 29 -74 77 0 74 77 111 119 57z m341 14 c0 -9 3 -9
12 0 7 7 21 12 33 12 12 0 26 -5 33 -12 9 -9 15 -9 24 0 17 17 54 15 72 -4 22
-22 23 -144 1 -144 -12 0 -15 14 -15 64 0 48 -4 65 -15 70 -37 14 -55 -15 -55
-91 0 -24 -4 -43 -10 -43 -6 0 -10 26 -10 59 0 67 -15 90 -49 71 -18 -9 -21
-20 -21 -70 0 -47 -3 -60 -15 -60 -12 0 -15 16 -15 80 0 64 3 80 15 80 8 0 15
-5 15 -12z m337 -10 c13 -12 23 -32 23 -45 0 -21 -4 -23 -55 -23 -43 0 -55 -3
-55 -15 0 -24 47 -42 71 -27 30 19 44 14 24 -8 -18 -20 -69 -27 -91 -12 -37
24 -43 87 -13 126 25 32 64 34 96 4z m174 -45 l22 -68 22 64 c12 36 27 67 33
69 17 5 15 -4 -14 -86 -19 -50 -32 -72 -42 -70 -20 4 -76 158 -57 158 8 0 23
-29 36 -67z m149 -13 c0 -64 -3 -80 -15 -80 -12 0 -15 16 -15 80 0 64 3 80 15
80 12 0 15 -16 15 -80z m332 63 c8 -10 18 -30 22 -45 l6 -28 -60 0 c-58 0 -60
-1 -50 -21 15 -28 37 -34 66 -19 30 17 46 3 20 -16 -27 -19 -75 -18 -98 3 -26
23 -25 96 2 123 25 25 72 26 92 3z m169 -2 c18 -14 24 -29 24 -59 0 -51 -27
-82 -69 -82 -37 0 -49 7 -65 37 -41 79 43 159 110 104z m159 4 c17 -21 6 -29
-20 -15 -12 6 -28 9 -36 6 -26 -10 -14 -33 26 -49 48 -18 59 -40 35 -67 -24
-26 -76 -26 -100 0 -14 16 -15 20 -4 20 8 0 20 -5 26 -11 15 -15 57 -7 61 12
2 12 -9 21 -40 30 -33 11 -44 20 -46 38 -7 44 69 71 98 36z m250 -7 c27 -29
27 -91 0 -118 -24 -24 -77 -26 -102 -3 -26 23 -25 96 2 123 27 27 74 26 100
-2z m629 -4 c12 -15 21 -35 21 -45 0 -16 -8 -19 -55 -19 -58 0 -71 -14 -39
-41 12 -10 22 -10 47 -1 35 13 45 9 27 -13 -7 -8 -28 -15 -46 -15 -46 0 -74
29 -74 77 0 74 77 111 119 57z m163 -41 c3 -59 6 -68 23 -71 36 -4 48 14 53
77 6 88 22 75 22 -19 0 -47 -4 -80 -10 -80 -5 0 -10 5 -10 12 0 9 -3 9 -12 0
-20 -20 -65 -14 -82 10 -21 30 -22 138 -1 138 11 0 15 -16 17 -67z m168 57 c0
-6 8 -5 20 2 13 9 27 9 47 2 27 -9 28 -13 31 -82 2 -45 -1 -72 -8 -72 -6 0
-10 23 -10 53 0 30 -6 62 -14 72 -12 17 -18 18 -40 7 -24 -11 -26 -17 -26 -72
0 -47 -3 -60 -15 -60 -12 0 -15 16 -15 80 0 64 3 80 15 80 8 0 15 -5 15 -10z
m170 -70 c0 -64 -3 -80 -15 -80 -12 0 -15 16 -15 80 0 64 3 80 15 80 12 0 15
-16 15 -80z m77 20 c9 -33 19 -60 23 -60 3 0 14 25 24 55 16 50 31 73 42 63 2
-3 -8 -40 -23 -82 -19 -55 -31 -76 -42 -74 -9 2 -27 35 -43 78 -33 89 -31 80
-13 80 10 0 21 -21 32 -60z m232 34 c12 -15 21 -35 21 -45 0 -16 -8 -19 -55
-19 -58 0 -71 -14 -39 -41 12 -10 22 -10 47 -1 35 13 45 9 27 -13 -7 -8 -28
-15 -46 -15 -46 0 -74 29 -74 77 0 74 77 111 119 57z m81 14 c0 -9 3 -9 12 0
14 14 38 16 38 4 0 -5 -11 -14 -25 -20 -23 -10 -25 -17 -25 -72 0 -47 -3 -60
-15 -60 -12 0 -15 16 -15 80 0 64 3 80 15 80 8 0 15 -5 15 -12z m176 -2 c26
-20 10 -32 -21 -16 -22 12 -28 12 -42 -3 -15 -15 -13 -18 29 -36 52 -22 66
-46 42 -72 -21 -24 -77 -25 -99 -3 -21 22 -11 30 19 15 27 -15 57 -12 64 6 2
8 -16 21 -42 33 -37 15 -46 24 -46 44 0 42 56 60 96 32z m164 -6 c11 -11 20
-31 20 -45 0 -24 -3 -25 -55 -25 -57 0 -66 -8 -39 -34 18 -19 45 -21 61 -5 6
6 17 9 23 7 24 -8 -20 -38 -54 -38 -45 0 -71 30 -71 82 0 68 70 103 115 58z
m687 -2 c13 -12 23 -32 23 -45 0 -21 -4 -23 -55 -23 -43 0 -55 -3 -55 -15 0
-24 47 -42 71 -27 30 19 44 14 24 -8 -18 -20 -69 -27 -91 -12 -37 24 -43 87
-13 126 25 32 64 34 96 4z m252 -4 c12 -15 21 -35 21 -45 0 -16 -8 -19 -55
-19 -58 0 -71 -14 -39 -41 12 -10 22 -10 47 -1 35 13 45 9 27 -13 -7 -8 -28
-15 -46 -15 -46 0 -74 29 -74 77 0 74 77 111 119 57z m222 16 c16 -9 19 -22
19 -80 0 -40 -4 -70 -10 -70 -5 0 -10 5 -10 11 0 8 -4 8 -14 0 -21 -18 -66 -9
-82 14 -21 31 6 65 51 65 40 0 53 16 32 38 -13 13 -21 13 -42 4 -39 -18 -50
-15 -30 8 20 22 55 26 86 10z m359 -12 c27 -29 27 -91 0 -118 -24 -24 -77 -26
-102 -3 -26 23 -25 96 2 123 27 27 74 26 100 -2z m80 10 c0 -9 3 -9 12 0 13
13 48 16 48 5 0 -5 -14 -16 -30 -25 -28 -16 -30 -21 -30 -73 0 -30 -4 -55 -10
-55 -6 0 -10 33 -10 80 0 47 4 80 10 80 6 0 10 -5 10 -12z m197 -18 c19 -37
17 -130 -2 -130 -8 0 -15 5 -15 12 0 9 -3 9 -12 0 -7 -7 -24 -12 -38 -12 -32
0 -50 17 -50 47 0 26 27 43 69 43 34 0 41 19 16 40 -12 10 -21 10 -42 1 -31
-14 -41 -8 -23 14 21 25 82 16 97 -15z m260 8 c13 -12 23 -32 23 -45 0 -21 -4
-23 -55 -23 -43 0 -55 -3 -55 -15 0 -24 47 -42 71 -27 30 19 44 14 24 -8 -18
-20 -69 -27 -91 -12 -37 24 -43 87 -13 126 25 32 64 34 96 4z m433 2 c25 -25
27 -95 3 -122 -22 -24 -77 -24 -103 2 -13 13 -20 33 -20 60 0 49 27 80 70 80
17 0 39 -9 50 -20z m83 8 c4 -10 7 -10 18 0 20 19 56 14 73 -10 21 -30 22
-138 1 -138 -10 0 -15 16 -17 61 -5 110 -67 106 -76 -5 -7 -84 -22 -67 -22 24
0 72 10 102 23 68z m255 -71 c2 -64 0 -77 -13 -77 -12 0 -15 15 -15 81 0 60 3
80 13 77 8 -3 13 -31 15 -81z m331 57 c12 -15 21 -35 21 -45 0 -16 -8 -19 -55
-19 -58 0 -71 -14 -39 -41 12 -10 22 -10 47 -1 35 13 45 9 27 -13 -7 -8 -28
-15 -46 -15 -46 0 -74 29 -74 77 0 74 77 111 119 57z m152 16 c16 -9 19 -22
19 -80 0 -40 -4 -70 -10 -70 -5 0 -10 5 -10 11 0 8 -4 8 -14 0 -21 -18 -66 -9
-82 14 -21 31 6 65 51 65 40 0 53 16 32 38 -13 13 -21 13 -42 4 -39 -18 -50
-15 -30 8 20 22 55 26 86 10z m165 -12 c19 -21 19 -21 -6 -14 -44 13 -64 12
-68 -5 -2 -12 9 -21 40 -30 33 -11 44 -20 46 -38 3 -15 -3 -30 -14 -38 -24
-18 -79 -16 -94 2 -18 22 -4 31 24 15 28 -15 56 -8 56 14 0 9 -16 20 -39 26
-47 12 -62 42 -35 71 23 25 66 24 90 -3z m681 0 c13 -12 23 -32 23 -45 0 -21
-4 -23 -55 -23 -43 0 -55 -3 -55 -15 0 -24 47 -42 71 -27 30 19 44 14 24 -8
-18 -20 -69 -27 -91 -12 -37 24 -43 87 -13 126 25 32 64 34 96 4z m417 0 c22
-31 22 -138 1 -138 -8 0 -15 5 -15 12 0 9 -3 9 -12 0 -7 -7 -24 -12 -38 -12
-32 0 -50 17 -50 47 0 26 27 43 69 43 24 0 31 4 31 19 0 25 -33 36 -59 19 -27
-16 -42 0 -17 18 30 21 72 17 90 -8z m152 8 c26 -20 10 -32 -21 -16 -22 12
-28 12 -42 -3 -15 -15 -13 -18 29 -36 52 -22 66 -46 42 -72 -21 -24 -77 -25
-99 -3 -21 22 -11 30 19 15 27 -15 57 -12 64 6 2 8 -16 21 -42 33 -37 15 -46
24 -46 44 0 42 56 60 96 32z m406 -3 c14 -12 18 -31 18 -78 l0 -61 -55 -2
c-50 -1 -57 1 -67 23 -15 34 12 65 59 65 26 0 33 4 33 19 0 28 -17 35 -51 21
-35 -15 -46 -9 -24 14 21 21 63 21 87 -1z m705 -5 c13 -12 23 -32 23 -45 0
-21 -4 -23 -55 -23 -43 0 -55 -3 -55 -15 0 -24 47 -42 71 -27 30 19 44 14 24
-8 -18 -20 -69 -27 -91 -12 -37 24 -43 87 -13 126 25 32 64 34 96 4z m-5743
-129 c-8 -14 -34 -11 -34 4 0 8 3 17 7 20 9 9 34 -13 27 -24z m3470 0 c-8 -14
-34 -11 -34 4 0 8 3 17 7 20 9 9 34 -13 27 -24z m-8694 -231 c0 -33 3 -39 12
-30 17 17 48 15 70 -5 24 -22 27 -143 3 -143 -12 0 -15 14 -15 64 0 69 -13 86
-51 66 -15 -9 -19 -22 -19 -70 0 -47 -3 -60 -15 -60 -12 0 -15 19 -15 110 0
91 3 110 15 110 11 0 15 -11 15 -42z m170 27 c0 -8 -7 -15 -15 -15 -8 0 -15 7
-15 15 0 8 7 15 15 15 8 0 15 -7 15 -15z m70 -95 c0 -91 -3 -110 -15 -110 -12
0 -15 19 -15 110 0 91 3 110 15 110 12 0 15 -19 15 -110z m750 68 c0 -33 3
-39 12 -30 17 17 48 15 70 -5 24 -22 27 -143 3 -143 -12 0 -15 14 -15 64 0 69
-13 86 -51 66 -15 -9 -19 -22 -19 -70 0 -47 -3 -60 -15 -60 -12 0 -15 19 -15
110 0 91 3 110 15 110 11 0 15 -11 15 -42z m620 33 c0 -5 -9 -11 -20 -14 -27
-7 -25 -33 3 -42 l22 -8 -22 -4 c-21 -4 -23 -10 -23 -74 0 -55 -3 -69 -15 -69
-12 0 -15 14 -15 69 0 46 -4 71 -12 74 -10 4 -10 7 -1 14 6 5 16 21 22 36 8
19 17 27 36 27 14 0 25 -4 25 -9z m1440 -6 c0 -8 -7 -15 -15 -15 -8 0 -15 7
-15 15 0 8 7 15 15 15 8 0 15 -7 15 -15z m635 6 c7 -12 -12 -24 -25 -16 -11 7
-4 25 10 25 5 0 11 -4 15 -9z m998 -19 c9 -8 17 -19 17 -24 0 -14 -28 -9 -34
7 -7 19 -60 20 -75 1 -19 -22 -2 -43 44 -55 42 -11 75 -41 75 -68 0 -7 -9 -22
-20 -33 -38 -38 -140 -19 -140 27 0 19 14 16 35 -7 22 -24 67 -26 86 -4 18 22
1 46 -42 57 -44 10 -79 49 -72 78 7 25 59 51 88 42 11 -3 28 -12 38 -21z m87
-14 c0 -33 3 -39 12 -30 17 17 54 15 72 -4 18 -18 23 -144 6 -144 -5 0 -10 19
-10 43 0 80 -20 108 -61 87 -15 -9 -19 -22 -19 -70 0 -47 -3 -60 -15 -60 -12
0 -15 19 -15 110 0 91 3 110 15 110 11 0 15 -11 15 -42z m420 0 c0 -33 3 -39
12 -30 17 17 54 15 72 -4 18 -18 23 -144 6 -144 -5 0 -10 19 -10 43 0 80 -20
108 -61 87 -15 -9 -19 -22 -19 -70 0 -47 -3 -60 -15 -60 -12 0 -15 19 -15 110
0 91 3 110 15 110 11 0 15 -11 15 -42z m720 -68 c0 -67 -4 -110 -10 -110 -6 0
-10 43 -10 110 0 67 4 110 10 110 6 0 10 -43 10 -110z m840 68 c0 -33 3 -39
12 -30 19 19 63 14 84 -9 42 -47 12 -139 -46 -139 -14 0 -31 5 -38 12 -9 9
-12 9 -12 0 0 -7 -7 -12 -15 -12 -12 0 -15 19 -15 110 0 91 3 110 15 110 11 0
15 -11 15 -42z m990 27 c0 -8 -7 -15 -15 -15 -8 0 -15 7 -15 15 0 8 7 15 15
15 8 0 15 -7 15 -15z m745 6 c7 -12 -12 -24 -25 -16 -11 7 -4 25 10 25 5 0 11
-4 15 -9z m175 -33 c0 -33 3 -39 12 -30 17 17 48 15 70 -5 24 -22 27 -143 3
-143 -12 0 -15 14 -15 64 0 69 -13 86 -51 66 -15 -9 -19 -22 -19 -70 0 -47 -3
-60 -15 -60 -12 0 -15 19 -15 110 0 91 3 110 15 110 11 0 15 -11 15 -42z m250
0 c0 -33 3 -39 12 -30 17 17 54 15 72 -4 18 -18 23 -144 6 -144 -5 0 -10 19
-10 43 0 80 -20 108 -61 87 -15 -9 -19 -22 -19 -70 0 -47 -3 -60 -15 -60 -12
0 -15 19 -15 110 0 91 3 110 15 110 11 0 15 -11 15 -42z m2006 10 c-3 -13 -6
-31 -6 -40 0 -10 -4 -18 -10 -18 -5 0 -10 18 -10 40 0 30 4 40 16 40 12 0 15
-6 10 -22z m54 -18 c0 -29 -4 -40 -15 -40 -11 0 -15 11 -15 40 0 29 4 40 15
40 11 0 15 -11 15 -40z m-3150 10 c0 -11 7 -20 15 -20 8 0 15 -4 15 -10 0 -5
-7 -10 -15 -10 -12 0 -15 -13 -15 -55 0 -40 4 -57 15 -61 21 -8 19 -24 -3 -24
-31 0 -42 22 -42 81 0 36 -5 59 -12 63 -10 5 -10 7 0 12 6 3 12 14 12 25 0 10
7 19 15 19 8 0 15 -9 15 -20z m100 0 c0 -13 7 -20 20 -20 11 0 20 -4 20 -9 0
-5 -9 -11 -20 -14 -16 -4 -20 -14 -20 -51 0 -35 5 -49 20 -58 28 -18 25 -30
-7 -26 -27 3 -28 6 -31 66 -2 44 -7 65 -17 69 -20 7 -19 23 0 23 8 0 15 9 15
20 0 11 5 20 10 20 6 0 10 -9 10 -20z m640 1 c0 -10 10 -22 23 -26 l22 -8 -22
-4 c-21 -4 -23 -10 -23 -60 0 -46 3 -56 20 -60 28 -7 25 -23 -5 -23 -32 0 -45
26 -45 89 0 30 -5 52 -12 55 -10 5 -10 7 0 12 6 3 12 14 12 25 0 10 7 19 15
19 8 0 15 -8 15 -19z m-8740 -33 c0 -9 3 -9 12 0 18 18 56 14 78 -8 25 -25 27
-95 3 -122 -18 -20 -63 -24 -81 -6 -9 9 -12 4 -12 -25 0 -26 -4 -37 -15 -37
-12 0 -15 18 -15 105 0 87 3 105 15 105 8 0 15 -5 15 -12z m350 -68 c0 -64 -3
-80 -15 -80 -12 0 -15 16 -15 80 0 64 3 80 15 80 12 0 15 -16 15 -80z m229 54
c23 -30 27 -64 10 -97 -16 -30 -28 -37 -65 -37 -42 0 -69 31 -69 82 0 73 81
106 124 52z m157 4 c19 -21 19 -21 -6 -14 -44 13 -64 12 -68 -5 -2 -12 9 -21
40 -30 33 -11 44 -20 46 -38 3 -15 -3 -30 -14 -38 -24 -18 -79 -16 -94 2 -18
22 -4 31 24 15 28 -15 56 -8 56 14 0 9 -16 20 -39 26 -47 12 -62 42 -35 71 23
25 66 24 90 -3z m164 2 c25 -25 27 -95 3 -122 -22 -24 -77 -24 -103 2 -13 13
-20 33 -20 60 0 49 27 80 70 80 17 0 39 -9 50 -20z m83 8 c4 -10 7 -10 18 0
38 36 99 -4 99 -66 0 -68 -46 -101 -101 -72 -17 10 -19 7 -19 -25 0 -19 -4
-35 -10 -35 -6 0 -10 42 -10 105 0 93 9 130 23 93z m353 -40 c24 -77 25 -77
48 -13 12 32 27 60 34 63 19 6 14 -15 -26 -112 -27 -64 -43 -91 -59 -97 -17
-6 -23 -5 -23 6 0 8 6 15 14 15 26 0 25 28 -5 107 -34 92 -32 83 -15 83 8 0
22 -22 32 -52z m323 26 c23 -30 27 -64 10 -97 -16 -30 -28 -37 -65 -37 -42 0
-69 31 -69 82 0 73 81 106 124 52z m345 4 c22 -31 22 -138 1 -138 -8 0 -15 5
-15 12 0 9 -3 9 -12 0 -7 -7 -24 -12 -38 -12 -32 0 -50 17 -50 47 0 26 27 43
69 43 24 0 31 4 31 19 0 25 -33 36 -59 19 -27 -16 -42 0 -17 18 30 21 72 17
90 -8z m156 -20 c21 -84 25 -85 43 -19 21 75 36 75 56 3 8 -29 17 -52 21 -52
4 0 12 25 19 55 7 32 18 55 26 55 10 0 8 -18 -9 -80 -25 -96 -42 -101 -67 -20
-15 52 -17 54 -26 30 -6 -14 -14 -40 -18 -58 -11 -53 -35 -37 -57 38 -20 74
-22 90 -8 90 5 0 14 -19 20 -42z m319 16 c23 -30 27 -64 10 -97 -16 -30 -28
-37 -65 -37 -42 0 -69 31 -69 82 0 73 81 106 124 52z m81 14 c0 -9 3 -9 12 0
7 7 21 12 33 12 12 0 26 -5 33 -12 9 -9 15 -9 24 0 17 17 54 15 72 -4 22 -22
23 -144 1 -144 -12 0 -15 14 -15 64 0 48 -4 65 -15 70 -37 14 -55 -15 -55 -91
0 -24 -4 -43 -10 -43 -6 0 -10 26 -10 59 0 67 -15 90 -49 71 -18 -9 -21 -20
-21 -70 0 -47 -3 -60 -15 -60 -12 0 -15 16 -15 80 0 64 3 80 15 80 8 0 15 -5
15 -12z m334 -10 c22 -31 22 -138 1 -138 -8 0 -15 5 -15 12 0 9 -3 9 -12 0 -7
-7 -24 -12 -38 -12 -32 0 -50 17 -50 47 0 26 27 43 69 43 24 0 31 4 31 19 0
25 -33 36 -59 19 -27 -16 -42 0 -17 18 30 21 72 17 90 -8z m86 10 c0 -9 3 -9
12 0 17 17 54 15 72 -4 22 -22 23 -144 1 -144 -12 0 -15 14 -15 64 0 69 -13
86 -51 66 -15 -9 -19 -22 -19 -70 0 -47 -3 -60 -15 -60 -12 0 -15 16 -15 80 0
64 3 80 15 80 8 0 15 -5 15 -12z m250 -68 c0 -64 -3 -80 -15 -80 -12 0 -15 16
-15 80 0 64 3 80 15 80 12 0 15 -16 15 -80z m63 68 c4 -10 7 -10 18 0 20 19
56 14 73 -10 21 -30 22 -138 1 -138 -10 0 -15 16 -17 61 -5 110 -67 106 -76
-5 -7 -84 -22 -67 -22 24 0 72 10 102 23 68z m323 -2 c26 -20 10 -32 -21 -16
-22 12 -28 12 -42 -3 -15 -15 -13 -18 29 -36 52 -22 66 -46 42 -72 -21 -24
-77 -25 -99 -3 -21 22 -11 30 19 15 27 -15 57 -12 64 6 2 8 -16 21 -42 33 -37
15 -46 24 -46 44 0 42 56 60 96 32z m166 -3 c22 -20 23 -33 3 -33 -8 0 -15 4
-15 9 0 18 -33 21 -56 6 -30 -20 -32 -65 -3 -91 20 -18 22 -18 51 -1 37 21 48
15 23 -13 -24 -27 -76 -26 -101 1 -28 31 -25 96 5 120 29 23 68 24 93 2z m78
-63 c0 -47 -4 -80 -10 -80 -6 0 -10 33 -10 80 0 47 4 80 10 80 6 0 10 -33 10
-80z m152 63 c8 -10 18 -30 22 -45 l6 -28 -60 0 c-58 0 -60 -1 -50 -21 15 -28
37 -34 66 -19 30 17 46 3 20 -16 -27 -19 -75 -18 -98 3 -26 23 -25 96 2 123
25 25 72 26 92 3z m88 5 c0 -9 3 -9 12 0 17 17 54 15 72 -4 22 -22 23 -144 1
-144 -12 0 -15 14 -15 64 0 69 -13 86 -51 66 -15 -9 -19 -22 -19 -70 0 -47 -3
-60 -15 -60 -12 0 -15 16 -15 80 0 64 3 80 15 80 8 0 15 -5 15 -12z m252 -5
c22 -20 23 -33 3 -33 -8 0 -15 4 -15 9 0 18 -33 21 -56 6 -30 -20 -32 -65 -3
-91 20 -18 22 -18 51 -1 37 21 48 15 23 -13 -24 -27 -76 -26 -101 1 -28 31
-25 96 5 120 29 23 68 24 93 2z m160 0 c8 -10 18 -30 22 -45 l6 -28 -60 0
c-58 0 -60 -1 -50 -21 15 -28 37 -34 66 -19 30 17 46 3 20 -16 -27 -19 -75
-18 -98 3 -26 23 -25 96 2 123 25 25 72 26 92 3z m690 0 c8 -10 18 -30 22 -45
l6 -28 -60 0 c-58 0 -60 -1 -50 -21 15 -28 37 -34 66 -19 30 17 46 3 20 -16
-27 -19 -75 -18 -98 3 -26 23 -25 96 2 123 25 25 72 26 92 3z m410 0 c14 -12
18 -31 18 -78 l0 -61 -55 -2 c-50 -1 -57 1 -67 23 -15 34 12 65 59 65 26 0 33
4 33 19 0 28 -17 35 -51 21 -35 -15 -46 -9 -24 14 21 21 63 21 87 -1z m164 -5
c19 -21 19 -21 -6 -14 -44 13 -64 12 -68 -5 -2 -12 9 -21 40 -30 33 -11 44
-20 46 -38 3 -15 -3 -30 -14 -38 -24 -18 -79 -16 -94 2 -18 22 -4 31 24 15 28
-15 56 -8 56 14 0 9 -16 20 -39 26 -47 12 -62 42 -35 71 23 25 66 24 90 -3z
m241 -8 c19 -37 17 -130 -2 -130 -8 0 -15 5 -15 12 0 9 -3 9 -12 0 -15 -15
-61 -15 -76 0 -18 18 -14 56 7 68 11 5 33 10 50 10 34 0 41 19 16 40 -12 10
-21 10 -42 1 -31 -14 -41 -8 -23 14 21 25 82 16 97 -15z m144 -25 c7 -30 15
-55 19 -55 4 0 13 23 21 52 20 72 35 72 56 -3 18 -66 22 -65 43 19 6 23 15 42
20 42 14 0 12 -15 -9 -90 -21 -75 -45 -91 -56 -38 -4 18 -12 44 -18 58 -9 24
-11 22 -26 -30 -25 -81 -42 -76 -67 20 -17 62 -19 80 -9 80 8 0 19 -23 26 -55z
m301 38 c14 -12 18 -31 18 -78 l0 -61 -55 -2 c-50 -1 -57 1 -67 23 -15 34 12
65 59 65 26 0 33 4 33 19 0 28 -17 35 -51 21 -35 -15 -46 -9 -24 14 21 21 63
21 87 -1z m89 -50 l22 -68 22 64 c12 36 27 67 33 69 7 2 12 -1 12 -6 0 -16
-60 -175 -71 -188 -15 -19 -49 -24 -49 -8 0 8 7 14 15 14 28 0 27 25 -4 108
-22 61 -26 82 -16 82 8 0 23 -29 36 -67z m215 53 c26 -20 10 -32 -21 -16 -22
12 -28 12 -42 -3 -15 -15 -13 -18 29 -36 52 -22 66 -46 42 -72 -21 -24 -77
-25 -99 -3 -21 22 -11 30 19 15 27 -15 57 -12 64 6 2 8 -16 21 -42 33 -37 15
-46 24 -46 44 0 42 56 60 96 32z m424 -6 c11 -11 20 -31 20 -45 0 -24 -3 -25
-55 -25 -57 0 -66 -8 -39 -34 18 -19 45 -21 61 -5 6 6 17 9 23 7 24 -8 -20
-38 -54 -38 -45 0 -71 30 -71 82 0 68 70 103 115 58z m169 -6 c12 -15 21 -35
21 -45 0 -16 -8 -19 -55 -19 -58 0 -71 -14 -39 -41 12 -10 22 -10 47 -1 35 13
45 9 27 -13 -7 -8 -28 -15 -46 -15 -46 0 -74 29 -74 77 0 74 77 111 119 57z
m81 16 c0 -6 8 -5 20 2 13 9 27 9 47 2 27 -9 28 -13 31 -82 2 -45 -1 -72 -8
-72 -6 0 -10 23 -10 53 0 30 -6 62 -14 72 -12 17 -18 18 -40 7 -24 -11 -26
-17 -26 -72 0 -47 -3 -60 -15 -60 -12 0 -15 16 -15 80 0 64 3 80 15 80 8 0 15
-5 15 -10z m252 -52 l15 -63 18 63 c10 35 24 62 31 62 7 0 18 -19 24 -42 21
-85 26 -87 41 -23 8 32 21 61 28 63 11 4 12 -2 7 -24 -38 -153 -55 -168 -82
-72 l-18 63 -18 -63 c-11 -35 -24 -62 -32 -62 -8 0 -20 27 -31 68 -10 37 -20
73 -23 80 -2 6 2 12 10 12 9 0 20 -22 30 -62z m228 -18 c0 -64 -3 -80 -15 -80
-12 0 -15 16 -15 80 0 64 3 80 15 80 12 0 15 -16 15 -80z m285 9 l22 -64 22
68 c14 40 28 67 37 67 10 0 6 -19 -16 -81 -37 -100 -46 -116 -70 -129 -25 -13
-30 -13 -30 4 0 7 9 16 20 19 26 7 25 23 -5 103 -28 75 -30 87 -13 82 6 -2 21
-33 33 -69z m225 29 c21 -84 25 -85 43 -19 21 75 36 75 56 3 8 -29 17 -52 21
-52 4 0 12 25 19 55 7 32 18 55 26 55 10 0 8 -18 -9 -80 -25 -96 -42 -101 -67
-20 -15 52 -17 54 -26 30 -6 -14 -14 -40 -18 -58 -11 -53 -35 -37 -57 38 -20
74 -22 90 -8 90 5 0 14 -19 20 -42z m230 -38 c0 -47 -4 -80 -10 -80 -6 0 -10
33 -10 80 0 47 4 80 10 80 6 0 10 -33 10 -80z m680 60 c11 -11 20 -31 20 -45
0 -24 -3 -25 -55 -25 -57 0 -66 -8 -39 -34 18 -19 45 -21 61 -5 6 6 17 9 23 7
24 -8 -20 -38 -54 -38 -45 0 -71 30 -71 82 0 68 70 103 115 58z m80 10 c0 -6
10 -5 25 2 14 6 28 8 33 3 4 -4 1 -10 -7 -13 -34 -12 -51 -42 -51 -92 0 -27
-4 -50 -10 -50 -6 0 -10 33 -10 80 0 47 4 80 10 80 6 0 10 -4 10 -10z m190 0
c0 -6 10 -5 25 2 14 6 28 8 33 3 4 -4 1 -10 -7 -13 -34 -12 -51 -42 -51 -92 0
-27 -4 -50 -10 -50 -6 0 -10 33 -10 80 0 47 4 80 10 80 6 0 10 -4 10 -10z
m192 -7 c8 -10 18 -30 22 -45 l6 -28 -60 0 c-58 0 -60 -1 -50 -21 15 -28 37
-34 66 -19 30 17 46 3 20 -16 -27 -19 -75 -18 -98 3 -26 23 -25 96 2 123 25
25 72 26 92 3z m158 2 c17 -21 6 -29 -20 -15 -12 6 -28 9 -36 6 -26 -10 -14
-33 26 -49 48 -18 59 -40 35 -67 -24 -26 -76 -26 -100 0 -14 16 -15 20 -4 20
8 0 20 -5 26 -11 15 -15 57 -7 61 12 2 12 -9 21 -40 30 -33 11 -44 20 -46 38
-7 44 69 71 98 36z m80 5 c0 -7 6 -7 19 0 47 25 88 -1 97 -61 10 -63 -64 -117
-104 -77 -9 9 -12 4 -12 -25 0 -26 -4 -37 -15 -37 -12 0 -15 18 -15 105 0 87
3 105 15 105 8 0 15 -5 15 -10z m269 -16 c23 -30 27 -64 10 -97 -16 -30 -28
-37 -65 -37 -42 0 -69 31 -69 82 0 73 81 106 124 52z m81 16 c0 -6 8 -5 20 2
13 9 27 9 47 2 27 -9 28 -13 31 -82 2 -45 -1 -72 -8 -72 -6 0 -10 23 -10 53 0
30 -6 62 -14 72 -12 17 -18 18 -40 7 -24 -11 -26 -17 -26 -72 0 -47 -3 -60
-15 -60 -12 0 -15 16 -15 80 0 64 3 80 15 80 8 0 15 -5 15 -10z m246 -12 c19
-21 19 -21 -6 -14 -44 13 -64 12 -68 -5 -2 -12 9 -21 40 -30 33 -11 44 -20 46
-38 3 -15 -3 -30 -14 -38 -24 -18 -79 -16 -94 2 -18 22 -4 31 24 15 28 -15 56
-8 56 14 0 9 -16 20 -39 26 -47 12 -62 42 -35 71 23 25 66 24 90 -3z m163 -4
c12 -15 21 -35 21 -45 0 -16 -8 -19 -55 -19 -58 0 -71 -14 -39 -41 12 -10 22
-10 47 -1 35 13 45 9 27 -13 -7 -8 -28 -15 -46 -15 -46 0 -74 29 -74 77 0 74
77 111 119 57z m157 4 c19 -21 19 -21 -6 -14 -44 13 -64 12 -68 -5 -2 -12 9
-21 40 -30 33 -11 44 -20 46 -38 3 -15 -3 -30 -14 -38 -24 -18 -79 -16 -94 2
-18 22 -4 31 24 15 28 -15 56 -8 56 14 0 9 -16 20 -39 26 -47 12 -62 42 -35
71 23 25 66 24 90 -3z m-6346 -124 c0 -14 -21 -19 -33 -7 -9 9 13 34 24 27 5
-3 9 -12 9 -20z m6434 -5 c-8 -14 -34 -11 -34 4 0 8 3 17 7 20 9 9 34 -13 27
-24z"/>
<path d="M1967 818 c-27 -21 -31 -61 -9 -88 17 -22 23 -23 46 -12 21 9 26 19
26 46 0 31 -20 66 -39 66 -4 0 -15 -6 -24 -12z"/>
<path d="M2957 818 c-27 -21 -31 -61 -9 -88 17 -22 23 -23 46 -12 21 9 26 19
26 46 0 31 -20 66 -39 66 -4 0 -15 -6 -24 -12z"/>
<path d="M6910 810 c-25 -25 -26 -62 -2 -83 23 -21 36 -21 56 -1 29 29 11 104
-25 104 -5 0 -18 -9 -29 -20z"/>
<path d="M7798 819 c-12 -7 -18 -22 -18 -47 0 -41 14 -62 41 -62 41 0 59 81
24 106 -22 16 -25 17 -47 3z"/>
<path d="M8546 814 c-9 -8 -16 -31 -16 -50 0 -27 5 -37 26 -46 23 -11 29 -10
45 11 24 30 24 56 -1 81 -24 24 -34 25 -54 4z"/>
<path d="M10877 818 c-27 -21 -31 -61 -9 -88 17 -22 23 -23 46 -12 21 9 26 19
26 46 0 31 -20 66 -39 66 -4 0 -15 -6 -24 -12z"/>
<path d="M836 814 c-25 -25 -19 -34 24 -34 44 0 55 21 21 40 -25 13 -27 13
-45 -6z"/>
<path d="M1406 814 c-9 -8 -16 -31 -16 -50 0 -27 5 -37 25 -46 53 -24 91 62
43 96 -28 20 -33 20 -52 0z"/>
<path d="M1798 819 c-33 -19 -21 -39 22 -39 44 0 55 21 21 40 -23 12 -22 12
-43 -1z"/>
<path d="M2476 814 c-25 -25 -19 -34 24 -34 44 0 55 21 21 40 -25 13 -27 13
-45 -6z"/>
<path d="M3138 819 c-33 -19 -21 -39 22 -39 44 0 49 8 22 33 -21 20 -21 20
-44 6z"/>
<path d="M3296 814 c-9 -8 -16 -31 -16 -50 0 -27 5 -37 25 -46 53 -24 91 62
43 96 -28 20 -33 20 -52 0z"/>
<path d="M3709 820 c-25 -15 -32 -58 -14 -86 30 -47 75 -24 75 38 0 27 -5 40
-19 48 -23 12 -22 12 -42 0z"/>
<path d="M4338 819 c-33 -19 -21 -39 22 -39 44 0 55 21 21 40 -23 12 -22 12
-43 -1z"/>
<path d="M5148 819 c-33 -19 -21 -39 22 -39 44 0 55 21 21 40 -23 12 -22 12
-43 -1z"/>
<path d="M5567 812 c-25 -27 -21 -32 23 -32 44 0 55 21 21 40 -25 13 -25 13
-44 -8z"/>
<path d="M6256 814 c-25 -25 -19 -34 24 -34 44 0 55 21 21 40 -25 13 -27 13
-45 -6z"/>
<path d="M6508 819 c-33 -19 -21 -39 22 -39 44 0 55 21 21 40 -23 12 -22 12
-43 -1z"/>
<path d="M6724 745 c-13 -34 31 -48 60 -19 25 24 19 34 -19 34 -22 0 -38 -6
-41 -15z"/>
<path d="M7089 820 c-25 -15 -32 -58 -14 -86 30 -47 75 -24 75 38 0 27 -5 40
-19 48 -23 12 -22 12 -42 0z"/>
<path d="M7352 748 c-8 -8 -9 -15 -1 -25 21 -25 69 -9 69 24 0 16 -52 17 -68
1z"/>
<path d="M7626 814 c-25 -25 -19 -34 24 -34 44 0 55 21 21 40 -25 13 -27 13
-45 -6z"/>
<path d="M8058 819 c-12 -7 -18 -22 -18 -47 0 -41 14 -62 41 -62 41 0 59 81
24 106 -22 16 -25 17 -47 3z"/>
<path d="M8728 819 c-33 -19 -21 -39 22 -39 44 0 55 21 21 40 -23 12 -22 12
-43 -1z"/>
<path d="M8874 745 c-13 -34 31 -48 60 -19 25 24 19 34 -19 34 -22 0 -38 -6
-41 -15z"/>
<path d="M9726 814 c-25 -25 -19 -34 24 -34 44 0 55 21 21 40 -25 13 -27 13
-45 -6z"/>
<path d="M10134 745 c-8 -19 3 -35 25 -35 20 0 41 19 41 37 0 18 -59 17 -66
-2z"/>
<path d="M10694 745 c-8 -19 3 -35 25 -35 20 0 41 19 41 37 0 18 -59 17 -66
-2z"/>
<path d="M11406 814 c-25 -25 -19 -34 24 -34 44 0 55 21 21 40 -25 13 -27 13
-45 -6z"/>
<path d="M7276 414 c-31 -30 -11 -104 28 -104 19 0 46 34 46 58 0 22 -32 62
-49 62 -5 0 -17 -7 -25 -16z"/>
<path d="M346 414 c-9 -8 -16 -31 -16 -50 0 -27 5 -37 26 -46 23 -11 29 -10
45 11 24 30 24 56 -1 81 -24 24 -34 25 -54 4z"/>
<path d="M832 414 c-38 -26 -21 -104 23 -104 40 0 60 73 29 104 -19 20 -24 20
-52 0z"/>
<path d="M1158 419 c-12 -7 -18 -22 -18 -47 0 -41 14 -62 41 -62 41 0 59 81
24 106 -22 16 -25 17 -47 3z"/>
<path d="M1336 417 c-35 -25 -17 -107 23 -107 27 0 41 21 41 62 0 27 -5 40
-19 48 -24 13 -24 13 -45 -3z"/>
<path d="M1912 414 c-38 -26 -21 -104 23 -104 23 0 45 30 45 60 0 26 -22 60
-38 60 -4 0 -18 -7 -30 -16z"/>
<path d="M2254 345 c-8 -19 3 -35 25 -35 20 0 41 19 41 37 0 18 -59 17 -66 -2z"/>
<path d="M2732 414 c-38 -26 -21 -104 23 -104 23 0 45 30 45 60 0 26 -22 60
-38 60 -4 0 -18 -7 -30 -16z"/>
<path d="M3144 345 c-8 -19 3 -35 25 -35 20 0 41 19 41 37 0 18 -59 17 -66 -2z"/>
<path d="M4278 419 c-33 -19 -21 -39 22 -39 44 0 49 8 22 33 -21 20 -21 20
-44 6z"/>
<path d="M4778 419 c-33 -19 -21 -39 22 -39 44 0 49 8 22 33 -21 20 -21 20
-44 6z"/>
<path d="M5468 419 c-33 -19 -21 -39 22 -39 44 0 49 8 22 33 -21 20 -21 20
-44 6z"/>
<path d="M5864 345 c-8 -19 3 -35 25 -35 20 0 41 19 41 37 0 18 -59 17 -66 -2z"/>
<path d="M6262 348 c-8 -8 -9 -15 -1 -25 21 -25 69 -9 69 24 0 16 -52 17 -68
1z"/>
<path d="M6714 345 c-8 -19 3 -35 25 -35 20 0 41 19 41 37 0 18 -59 17 -66 -2z"/>
<path d="M7447 412 c-25 -27 -21 -32 23 -32 44 0 55 21 21 40 -25 13 -25 13
-44 -8z"/>
<path d="M7618 419 c-33 -19 -21 -39 22 -39 44 0 55 21 21 40 -23 12 -22 12
-43 -1z"/>
<path d="M9597 412 c-25 -27 -21 -32 23 -32 44 0 55 21 21 40 -25 13 -25 13
-44 -8z"/>
<path d="M10068 419 c-33 -19 -21 -39 22 -39 44 0 49 8 22 33 -21 20 -21 20
-44 6z"/>
<path d="M10392 414 c-38 -26 -21 -104 23 -104 44 0 59 80 20 106 -18 12 -24
11 -43 -2z"/>
<path d="M10562 414 c-38 -26 -21 -104 23 -104 23 0 45 30 45 60 0 26 -22 60
-38 60 -4 0 -18 -7 -30 -16z"/>
<path d="M11058 419 c-33 -19 -21 -39 22 -39 44 0 55 21 21 40 -23 12 -22 12
-43 -1z"/>
</g>
</svg>
